<svg width="18" height="18" viewBox="0 0 18 18" fill="none" xmlns="http://www.w3.org/2000/svg">
<path d="M17.3337 3.31666L7.82533 12.8333L4.29199 9.29999L5.46699 8.12499L7.82533 10.4833L16.1587 2.14999L17.3337 3.31666ZM15.492 7.51666C15.6003 7.99166 15.667 8.49166 15.667 8.99999C15.667 12.6833 12.6837 15.6667 9.00033 15.6667C5.31699 15.6667 2.33366 12.6833 2.33366 8.99999C2.33366 5.31666 5.31699 2.33332 9.00033 2.33332C10.317 2.33332 11.5337 2.71666 12.567 3.37499L13.767 2.17499C12.417 1.22499 10.7753 0.666656 9.00033 0.666656C4.40033 0.666656 0.666992 4.39999 0.666992 8.99999C0.666992 13.6 4.40033 17.3333 9.00033 17.3333C13.6003 17.3333 17.3337 13.6 17.3337 8.99999C17.3337 8.00832 17.1503 7.05832 16.8337 6.17499L15.492 7.51666Z" fill="#0040DD"/>
</svg>
