<svg width="1426" height="60" viewBox="0 0 1426 60" fill="none" xmlns="http://www.w3.org/2000/svg">
<mask id="path-1-inside-1_1193_61702" fill="white">
<path d="M0 0H1426V60H0V0Z"/>
</mask>
<path d="M0 0H1426V60H0V0Z" fill="white"/>
<g clip-path="url(#clip0_1193_61702)">
<path d="M35.61 25.41L34.2 24L28.2 30L34.2 36L35.61 34.59L31.03 30L35.61 25.41Z" fill="black"/>
</g>
<g clip-path="url(#clip1_1193_61702)">
<path d="M54.0201 24L52.6101 25.41L57.1901 30L52.6101 34.59L54.0201 36L60.0201 30L54.0201 24Z" fill="black"/>
</g>
<path d="M77.5852 23.9091H79.4773L83.9261 34.7756H84.0795L88.5284 23.9091H90.4205V37H88.9375V27.054H88.8097L84.7188 37H83.2869L79.196 27.054H79.0682V37H77.5852V23.9091ZM93.5989 37V23.9091H101.499V25.3153H95.1841V29.7386H101.09V31.1449H95.1841V35.5938H101.602V37H93.5989ZM108.396 37H104.357V23.9091H108.575C109.845 23.9091 110.932 24.1712 111.835 24.6953C112.739 25.2152 113.431 25.9631 113.913 26.9389C114.394 27.9105 114.635 29.0739 114.635 30.429C114.635 31.7926 114.392 32.9666 113.906 33.951C113.421 34.9311 112.713 35.6854 111.784 36.2138C110.855 36.7379 109.726 37 108.396 37ZM105.942 35.5938H108.294C109.377 35.5938 110.274 35.3849 110.985 34.9673C111.697 34.5497 112.227 33.9553 112.577 33.1839C112.926 32.4126 113.101 31.4943 113.101 30.429C113.101 29.3722 112.928 28.4624 112.583 27.6996C112.238 26.9325 111.722 26.3445 111.036 25.9354C110.35 25.522 109.496 25.3153 108.473 25.3153H105.942V35.5938ZM118.879 23.9091V37H117.294V23.9091H118.879ZM132.592 28H131.007C130.913 27.544 130.749 27.1435 130.515 26.7983C130.284 26.4531 130.003 26.1634 129.671 25.929C129.343 25.6903 128.978 25.5114 128.578 25.392C128.177 25.2727 127.76 25.2131 127.325 25.2131C126.532 25.2131 125.814 25.4134 125.171 25.8139C124.532 26.2145 124.022 26.8047 123.643 27.5845C123.268 28.3643 123.081 29.321 123.081 30.4545C123.081 31.5881 123.268 32.5447 123.643 33.3246C124.022 34.1044 124.532 34.6946 125.171 35.0952C125.814 35.4957 126.532 35.696 127.325 35.696C127.76 35.696 128.177 35.6364 128.578 35.517C128.978 35.3977 129.343 35.2209 129.671 34.9865C130.003 34.7479 130.284 34.456 130.515 34.1108C130.749 33.7614 130.913 33.3608 131.007 32.9091H132.592C132.473 33.5781 132.255 34.1768 131.94 34.7053C131.625 35.2337 131.233 35.6832 130.764 36.054C130.295 36.4205 129.769 36.6996 129.185 36.8913C128.605 37.0831 127.985 37.179 127.325 37.179C126.208 37.179 125.216 36.9062 124.346 36.3608C123.477 35.8153 122.793 35.0398 122.294 34.0341C121.796 33.0284 121.547 31.8352 121.547 30.4545C121.547 29.0739 121.796 27.8807 122.294 26.875C122.793 25.8693 123.477 25.0938 124.346 24.5483C125.216 24.0028 126.208 23.7301 127.325 23.7301C127.985 23.7301 128.605 23.826 129.185 24.0178C129.769 24.2095 130.295 24.4908 130.764 24.8615C131.233 25.228 131.625 25.6754 131.94 26.2038C132.255 26.728 132.473 27.3267 132.592 28ZM136.739 23.9091V37H135.154V23.9091H136.739ZM150.298 23.9091V37H148.764L141.63 26.7216H141.502V37H139.917V23.9091H141.451L148.61 34.2131H148.738V23.9091H150.298ZM153.47 37V23.9091H161.371V25.3153H155.055V29.7386H160.961V31.1449H155.055V35.5938H161.473V37H153.47Z" fill="black"/>
<path d="M177.009 23.2955L172.79 38.9688H171.409L175.628 23.2955H177.009Z" fill="black"/>
<path d="M187.585 37V23.9091H195.486V25.3153H189.17V29.7386H195.077V31.1449H189.17V35.5938H195.588V37H187.585ZM199.11 23.9091L202.485 29.3551H202.587L205.962 23.9091H207.829L203.712 30.4545L207.829 37H205.962L202.587 31.6562H202.485L199.11 37H197.244L201.462 30.4545L197.244 23.9091H199.11ZM209.892 37V23.9091H214.315C215.342 23.9091 216.182 24.0945 216.834 24.4652C217.49 24.8317 217.976 25.3281 218.291 25.9545C218.606 26.581 218.764 27.2798 218.764 28.0511C218.764 28.8224 218.606 29.5234 218.291 30.1541C217.98 30.7848 217.498 31.2876 216.846 31.6626C216.194 32.0334 215.359 32.2188 214.341 32.2188H211.17V30.8125H214.29C214.993 30.8125 215.557 30.6911 215.983 30.4482C216.41 30.2053 216.719 29.8771 216.91 29.4638C217.106 29.0462 217.204 28.5753 217.204 28.0511C217.204 27.527 217.106 27.0582 216.91 26.6449C216.719 26.2315 216.407 25.9077 215.977 25.6733C215.547 25.4347 214.976 25.3153 214.264 25.3153H211.477V37H209.892ZM221.318 37V23.9091H229.218V25.3153H222.903V29.7386H228.809V31.1449H222.903V35.5938H229.32V37H221.318ZM232.075 37V23.9091H236.499C237.521 23.9091 238.361 24.0838 239.017 24.4332C239.673 24.7784 240.159 25.2536 240.475 25.8587C240.79 26.4638 240.948 27.152 240.948 27.9233C240.948 28.6946 240.79 29.3786 240.475 29.9751C240.159 30.5717 239.676 31.0405 239.024 31.3814C238.372 31.718 237.539 31.8864 236.524 31.8864H232.945V30.4545H236.473C237.172 30.4545 237.735 30.3523 238.161 30.1477C238.591 29.9432 238.902 29.6534 239.094 29.2784C239.29 28.8991 239.388 28.4474 239.388 27.9233C239.388 27.3991 239.29 26.9411 239.094 26.549C238.898 26.157 238.585 25.8544 238.154 25.6413C237.724 25.424 237.155 25.3153 236.448 25.3153H233.661V37H232.075ZM238.237 31.1193L241.459 37H239.618L236.448 31.1193H238.237ZM245.174 23.9091V37H243.589V23.9091H245.174ZM248.353 23.9091H250.245L254.694 34.7756H254.847L259.296 23.9091H261.188V37H259.705V27.054H259.577L255.486 37H254.055L249.964 27.054H249.836V37H248.353V23.9091ZM264.366 37V23.9091H272.267V25.3153H265.952V29.7386H271.858V31.1449H265.952V35.5938H272.369V37H264.366ZM285.505 23.9091V37H283.971L276.837 26.7216H276.71V37H275.124V23.9091H276.658L283.817 34.2131H283.945V23.9091H285.505ZM287.961 25.3153V23.9091H297.779V25.3153H293.663V37H292.078V25.3153H287.961ZM305.777 37V38.4062H297.596V37H305.777ZM310.559 37.179C309.596 37.179 308.775 36.9169 308.098 36.3928C307.42 35.8643 306.902 35.0994 306.544 34.098C306.186 33.0923 306.007 31.8778 306.007 30.4545C306.007 29.0398 306.186 27.8317 306.544 26.8303C306.907 25.8246 307.426 25.0575 308.104 24.5291C308.786 23.9964 309.604 23.7301 310.559 23.7301C311.513 23.7301 312.329 23.9964 313.007 24.5291C313.689 25.0575 314.208 25.8246 314.566 26.8303C314.929 27.8317 315.11 29.0398 315.11 30.4545C315.11 31.8778 314.931 33.0923 314.573 34.098C314.215 35.0994 313.697 35.8643 313.02 36.3928C312.342 36.9169 311.522 37.179 310.559 37.179ZM310.559 35.7727C311.513 35.7727 312.255 35.3125 312.783 34.392C313.311 33.4716 313.576 32.1591 313.576 30.4545C313.576 29.321 313.454 28.3558 313.211 27.5589C312.973 26.7621 312.627 26.1548 312.176 25.7372C311.728 25.3196 311.189 25.1108 310.559 25.1108C309.613 25.1108 308.873 25.5774 308.341 26.5107C307.808 27.4396 307.542 28.7543 307.542 30.4545C307.542 31.5881 307.661 32.5511 307.9 33.3438C308.138 34.1364 308.481 34.7393 308.929 35.1527C309.38 35.5661 309.924 35.7727 310.559 35.7727ZM321.809 37.179C320.846 37.179 320.025 36.9169 319.348 36.3928C318.67 35.8643 318.152 35.0994 317.794 34.098C317.436 33.0923 317.257 31.8778 317.257 30.4545C317.257 29.0398 317.436 27.8317 317.794 26.8303C318.157 25.8246 318.676 25.0575 319.354 24.5291C320.036 23.9964 320.854 23.7301 321.809 23.7301C322.763 23.7301 323.579 23.9964 324.257 24.5291C324.939 25.0575 325.458 25.8246 325.816 26.8303C326.179 27.8317 326.36 29.0398 326.36 30.4545C326.36 31.8778 326.181 33.0923 325.823 34.098C325.465 35.0994 324.947 35.8643 324.27 36.3928C323.592 36.9169 322.772 37.179 321.809 37.179ZM321.809 35.7727C322.763 35.7727 323.505 35.3125 324.033 34.392C324.561 33.4716 324.826 32.1591 324.826 30.4545C324.826 29.321 324.704 28.3558 324.461 27.5589C324.223 26.7621 323.877 26.1548 323.426 25.7372C322.978 25.3196 322.439 25.1108 321.809 25.1108C320.863 25.1108 320.123 25.5774 319.591 26.5107C319.058 27.4396 318.792 28.7543 318.792 30.4545C318.792 31.5881 318.911 32.5511 319.15 33.3438C319.388 34.1364 319.731 34.7393 320.179 35.1527C320.63 35.5661 321.174 35.7727 321.809 35.7727ZM333.391 23.9091V37H331.806V25.571H331.729L328.533 27.6932V26.0824L331.806 23.9091H333.391Z" fill="black"/>
<path d="M1426 59H0V61H1426V59Z" fill="#C5C5C8" mask="url(#path-1-inside-1_1193_61702)"/>
<defs>
<clipPath id="clip0_1193_61702">
<rect width="24" height="24" fill="white" transform="translate(20 18)"/>
</clipPath>
<clipPath id="clip1_1193_61702">
<rect width="24" height="24" fill="white" transform="translate(44 18)"/>
</clipPath>
</defs>
</svg>
