<svg width="1430" height="104" viewBox="0 0 1430 104" fill="none" xmlns="http://www.w3.org/2000/svg">
<path d="M21.7216 60.5V43.0455H28.267C29.608 43.0455 30.733 43.2955 31.642 43.7955C32.5568 44.2955 33.2472 44.983 33.7131 45.858C34.1847 46.7273 34.4205 47.7159 34.4205 48.8239C34.4205 49.9432 34.1847 50.9375 33.7131 51.8068C33.2415 52.6761 32.5455 53.3608 31.625 53.8608C30.7045 54.3551 29.571 54.6023 28.2244 54.6023H23.8864V52.0028H27.7983C28.5824 52.0028 29.2244 51.8665 29.7244 51.5938C30.2244 51.321 30.5938 50.946 30.8324 50.4688C31.0767 49.9915 31.1989 49.4432 31.1989 48.8239C31.1989 48.2045 31.0767 47.6591 30.8324 47.1875C30.5938 46.7159 30.2216 46.3494 29.7159 46.0881C29.2159 45.821 28.571 45.6875 27.7812 45.6875H24.8835V60.5H21.7216ZM40.1158 43.0455V60.5H37.0305V43.0455H40.1158ZM47.0554 60.7642C46.2259 60.7642 45.4787 60.6165 44.8139 60.321C44.1548 60.0199 43.6321 59.5767 43.2457 58.9915C42.8651 58.4062 42.6747 57.6847 42.6747 56.8267C42.6747 56.0881 42.8111 55.4773 43.0838 54.9943C43.3565 54.5114 43.7287 54.125 44.2003 53.8352C44.6719 53.5455 45.2031 53.3267 45.794 53.179C46.3906 53.0256 47.0071 52.9148 47.6435 52.8466C48.4105 52.767 49.0327 52.696 49.5099 52.6335C49.9872 52.5653 50.3338 52.4631 50.5497 52.3267C50.7713 52.1847 50.8821 51.9659 50.8821 51.6705V51.6193C50.8821 50.9773 50.6918 50.4801 50.3111 50.1278C49.9304 49.7756 49.3821 49.5994 48.6662 49.5994C47.9105 49.5994 47.3111 49.7642 46.8679 50.0938C46.4304 50.4233 46.1349 50.8125 45.9815 51.2614L43.1009 50.8523C43.3281 50.0568 43.7031 49.392 44.2259 48.858C44.7486 48.3182 45.3878 47.9148 46.1435 47.6477C46.8991 47.375 47.7344 47.2386 48.6491 47.2386C49.2798 47.2386 49.9077 47.3125 50.5327 47.4602C51.1577 47.608 51.7287 47.8523 52.2457 48.1932C52.7628 48.5284 53.1776 48.9858 53.4901 49.5653C53.8082 50.1449 53.9673 50.8693 53.9673 51.7386V60.5H51.0014V58.7017H50.8991C50.7116 59.0653 50.4474 59.4062 50.1065 59.7244C49.7713 60.0369 49.348 60.2898 48.8366 60.483C48.331 60.6705 47.7372 60.7642 47.0554 60.7642ZM47.8565 58.4972C48.4759 58.4972 49.0128 58.375 49.4673 58.1307C49.9219 57.8807 50.2713 57.5511 50.5156 57.142C50.7656 56.733 50.8906 56.2869 50.8906 55.804V54.2614C50.794 54.3409 50.6293 54.4148 50.3963 54.483C50.169 54.5511 49.9134 54.6108 49.6293 54.6619C49.3452 54.7131 49.0639 54.7585 48.7855 54.7983C48.5071 54.8381 48.2656 54.8722 48.0611 54.9006C47.6009 54.9631 47.1889 55.0653 46.8253 55.2074C46.4616 55.3494 46.1747 55.5483 45.9645 55.804C45.7543 56.054 45.6491 56.3778 45.6491 56.7756C45.6491 57.3438 45.8565 57.7727 46.2713 58.0625C46.6861 58.3523 47.2145 58.4972 47.8565 58.4972ZM63.6065 47.4091V49.7955H56.081V47.4091H63.6065ZM57.9389 44.2727H61.0241V56.5625C61.0241 56.9773 61.0866 57.2955 61.2116 57.517C61.3423 57.733 61.5128 57.8807 61.723 57.9602C61.9332 58.0398 62.1662 58.0795 62.4219 58.0795C62.6151 58.0795 62.7912 58.0653 62.9503 58.0369C63.1151 58.0085 63.2401 57.983 63.3253 57.9602L63.8452 60.3722C63.6804 60.429 63.4446 60.4915 63.1378 60.5597C62.8366 60.6278 62.4673 60.6676 62.0298 60.679C61.2571 60.7017 60.5611 60.5852 59.9418 60.3295C59.3224 60.0682 58.831 59.6648 58.4673 59.1193C58.1094 58.5739 57.9332 57.892 57.9389 57.0739V44.2727ZM71.8416 60.7557C70.5291 60.7557 69.3956 60.483 68.4411 59.9375C67.4922 59.3864 66.7621 58.608 66.2507 57.6023C65.7393 56.5909 65.4837 55.4006 65.4837 54.0312C65.4837 52.6847 65.7393 51.5028 66.2507 50.4858C66.7678 49.4631 67.4893 48.6676 68.4155 48.0994C69.3416 47.5256 70.4297 47.2386 71.6797 47.2386C72.4865 47.2386 73.2479 47.3693 73.9638 47.6307C74.6854 47.8864 75.3217 48.2841 75.8729 48.8239C76.4297 49.3636 76.8672 50.0511 77.1854 50.8864C77.5036 51.7159 77.6626 52.7045 77.6626 53.8523V54.7983H66.9325V52.7188H74.7053C74.6996 52.1278 74.5717 51.6023 74.3217 51.142C74.0717 50.6761 73.7223 50.3097 73.2734 50.0426C72.8303 49.7756 72.3132 49.642 71.7223 49.642C71.0916 49.642 70.5376 49.7955 70.0604 50.1023C69.5831 50.4034 69.2109 50.8011 68.9439 51.2955C68.6825 51.7841 68.549 52.321 68.5433 52.9062V54.7216C68.5433 55.483 68.6825 56.1364 68.9609 56.6818C69.2393 57.2216 69.6286 57.6364 70.1286 57.9261C70.6286 58.2102 71.2138 58.3523 71.8842 58.3523C72.3331 58.3523 72.7393 58.2898 73.103 58.1648C73.4666 58.0341 73.782 57.8438 74.049 57.5938C74.3161 57.3438 74.5178 57.0341 74.6541 56.6648L77.5348 56.9886C77.353 57.75 77.0064 58.4148 76.495 58.983C75.9893 59.5455 75.3416 59.983 74.5518 60.2955C73.7621 60.6023 72.8587 60.7557 71.8416 60.7557ZM90.6193 50.8693L87.8068 51.1761C87.7273 50.892 87.5881 50.625 87.3892 50.375C87.196 50.125 86.9347 49.9233 86.6051 49.7699C86.2756 49.6165 85.8722 49.5398 85.3949 49.5398C84.7528 49.5398 84.2131 49.679 83.7756 49.9574C83.3438 50.2358 83.1307 50.5966 83.1364 51.0398C83.1307 51.4205 83.2699 51.7301 83.554 51.9688C83.8438 52.2074 84.321 52.4034 84.9858 52.5568L87.2188 53.0341C88.4574 53.3011 89.3778 53.7244 89.9801 54.304C90.5881 54.8835 90.8949 55.642 90.9006 56.5795C90.8949 57.4034 90.6534 58.1307 90.1761 58.7614C89.7045 59.3864 89.0483 59.875 88.2074 60.2273C87.3665 60.5795 86.4006 60.7557 85.3097 60.7557C83.7074 60.7557 82.4176 60.4205 81.4403 59.75C80.4631 59.0739 79.8807 58.1335 79.6932 56.929L82.7017 56.6392C82.8381 57.2301 83.1278 57.6761 83.571 57.9773C84.0142 58.2784 84.5909 58.429 85.3011 58.429C86.0341 58.429 86.6222 58.2784 87.0653 57.9773C87.5142 57.6761 87.7386 57.304 87.7386 56.8608C87.7386 56.4858 87.5938 56.1761 87.304 55.9318C87.0199 55.6875 86.5767 55.5 85.9744 55.3693L83.7415 54.9006C82.4858 54.6392 81.5568 54.1989 80.9545 53.5795C80.3523 52.9545 80.054 52.1648 80.0597 51.2102C80.054 50.4034 80.2727 49.7045 80.7159 49.1136C81.1648 48.517 81.7869 48.0568 82.5824 47.733C83.3835 47.4034 84.3068 47.2386 85.3523 47.2386C86.8864 47.2386 88.0938 47.5653 88.9744 48.2188C89.8608 48.8722 90.4091 49.7557 90.6193 50.8693Z" fill="black"/>
<rect x="124" y="32" width="48" height="40" rx="4" fill="#E4E4E6"/>
<g clip-path="url(#clip0_1172_92569)">
<path d="M139 43V51H147V43H139ZM145 49H141V45H145V49ZM139 53V61H147V53H139ZM145 59H141V55H145V59ZM149 43V51H157V43H149ZM155 49H151V45H155V49ZM149 53V61H157V53H149ZM155 59H151V55H155V59Z" fill="black"/>
</g>
<g clip-path="url(#clip1_1172_92569)">
<path d="M187 53H189V51H187V53ZM187 57H189V55H187V57ZM187 49H189V47H187V49ZM191 53H205V51H191V53ZM191 57H205V55H191V57ZM191 47V49H205V47H191ZM187 53H189V51H187V53ZM187 57H189V55H187V57ZM187 49H189V47H187V49ZM191 53H205V51H191V53ZM191 57H205V55H191V57ZM191 47V49H205V47H191Z" fill="#8E8E93"/>
</g>
<line x1="233" y1="36" x2="233" y2="68" stroke="#C6C6C8" stroke-width="2"/>
<rect x="252.5" y="32.5" width="168" height="39" rx="3.5" fill="white"/>
<circle cx="270" cy="52" r="5.5" fill="white" stroke="#8A8A8E"/>
<mask id="path-11-inside-2_1172_92569" fill="white">
<path d="M270 56C268.939 56 267.922 55.5786 267.172 54.8284C266.422 54.0783 266 53.0609 266 52C266 50.9391 266.422 49.9217 267.172 49.1716C267.922 48.4214 268.939 48 270 48L270 52V56Z"/>
</mask>
<path d="M270 56C268.939 56 267.922 55.5786 267.172 54.8284C266.422 54.0783 266 53.0609 266 52C266 50.9391 266.422 49.9217 267.172 49.1716C267.922 48.4214 268.939 48 270 48L270 52V56Z" fill="#8A8A8E" stroke="#8A8A8E" stroke-width="2" mask="url(#path-11-inside-2_1172_92569)"/>
<path d="M291.516 53.0391H288.477V51.8125H291.516C292.104 51.8125 292.581 51.7188 292.945 51.5312C293.31 51.3438 293.576 51.0833 293.742 50.75C293.914 50.4167 294 50.0365 294 49.6094C294 49.2188 293.914 48.8516 293.742 48.5078C293.576 48.1641 293.31 47.888 292.945 47.6797C292.581 47.4661 292.104 47.3594 291.516 47.3594H288.828V57.5H287.32V46.125H291.516C292.375 46.125 293.102 46.2734 293.695 46.5703C294.289 46.8672 294.74 47.2786 295.047 47.8047C295.354 48.3255 295.508 48.9219 295.508 49.5938C295.508 50.3229 295.354 50.9453 295.047 51.4609C294.74 51.9766 294.289 52.3698 293.695 52.6406C293.102 52.9062 292.375 53.0391 291.516 53.0391ZM298.766 49.0469V57.5H297.312V49.0469H298.766ZM297.203 46.8047C297.203 46.5703 297.273 46.3724 297.414 46.2109C297.56 46.0495 297.773 45.9688 298.055 45.9688C298.331 45.9688 298.542 46.0495 298.688 46.2109C298.839 46.3724 298.914 46.5703 298.914 46.8047C298.914 47.0286 298.839 47.2214 298.688 47.3828C298.542 47.5391 298.331 47.6172 298.055 47.6172C297.773 47.6172 297.56 47.5391 297.414 47.3828C297.273 47.2214 297.203 47.0286 297.203 46.8047ZM302.531 50.6719V60.75H301.078V49.0469H302.406L302.531 50.6719ZM308.227 53.2031V53.3672C308.227 53.9818 308.154 54.5521 308.008 55.0781C307.862 55.599 307.648 56.0521 307.367 56.4375C307.091 56.8229 306.75 57.1224 306.344 57.3359C305.938 57.5495 305.471 57.6562 304.945 57.6562C304.409 57.6562 303.935 57.5677 303.523 57.3906C303.112 57.2135 302.763 56.9557 302.477 56.6172C302.19 56.2786 301.961 55.8724 301.789 55.3984C301.622 54.9245 301.508 54.3906 301.445 53.7969V52.9219C301.508 52.2969 301.625 51.737 301.797 51.2422C301.969 50.7474 302.195 50.3255 302.477 49.9766C302.763 49.6224 303.109 49.3542 303.516 49.1719C303.922 48.9844 304.391 48.8906 304.922 48.8906C305.453 48.8906 305.924 48.9948 306.336 49.2031C306.747 49.4062 307.094 49.6979 307.375 50.0781C307.656 50.4583 307.867 50.9141 308.008 51.4453C308.154 51.9714 308.227 52.5573 308.227 53.2031ZM306.773 53.3672V53.2031C306.773 52.7812 306.729 52.3854 306.641 52.0156C306.552 51.6406 306.414 51.3125 306.227 51.0312C306.044 50.7448 305.81 50.5208 305.523 50.3594C305.237 50.1927 304.896 50.1094 304.5 50.1094C304.135 50.1094 303.818 50.1719 303.547 50.2969C303.281 50.4219 303.055 50.5911 302.867 50.8047C302.68 51.013 302.526 51.2526 302.406 51.5234C302.292 51.7891 302.206 52.0651 302.148 52.3516V54.375C302.253 54.7396 302.398 55.0833 302.586 55.4062C302.773 55.724 303.023 55.9818 303.336 56.1797C303.648 56.3724 304.042 56.4688 304.516 56.4688C304.906 56.4688 305.242 56.388 305.523 56.2266C305.81 56.0599 306.044 55.8333 306.227 55.5469C306.414 55.2604 306.552 54.9323 306.641 54.5625C306.729 54.1875 306.773 53.7891 306.773 53.3672ZM313.578 57.6562C312.99 57.6562 312.456 57.5573 311.977 57.3594C311.503 57.1562 311.094 56.8724 310.75 56.5078C310.411 56.1432 310.151 55.7109 309.969 55.2109C309.786 54.7109 309.695 54.1641 309.695 53.5703V53.2422C309.695 52.5547 309.797 51.9427 310 51.4062C310.203 50.8646 310.479 50.4062 310.828 50.0312C311.177 49.6562 311.573 49.3724 312.016 49.1797C312.458 48.987 312.917 48.8906 313.391 48.8906C313.995 48.8906 314.516 48.9948 314.953 49.2031C315.396 49.4115 315.758 49.7031 316.039 50.0781C316.32 50.4479 316.529 50.8854 316.664 51.3906C316.799 51.8906 316.867 52.4375 316.867 53.0312V53.6797H310.555V52.5H315.422V52.3906C315.401 52.0156 315.323 51.651 315.188 51.2969C315.057 50.9427 314.849 50.651 314.562 50.4219C314.276 50.1927 313.885 50.0781 313.391 50.0781C313.062 50.0781 312.76 50.1484 312.484 50.2891C312.208 50.4245 311.971 50.6276 311.773 50.8984C311.576 51.1693 311.422 51.5 311.312 51.8906C311.203 52.2812 311.148 52.7318 311.148 53.2422V53.5703C311.148 53.9714 311.203 54.349 311.312 54.7031C311.427 55.0521 311.591 55.3594 311.805 55.625C312.023 55.8906 312.286 56.099 312.594 56.25C312.906 56.401 313.26 56.4766 313.656 56.4766C314.167 56.4766 314.599 56.3724 314.953 56.1641C315.307 55.9557 315.617 55.6771 315.883 55.3281L316.758 56.0234C316.576 56.2995 316.344 56.5625 316.062 56.8125C315.781 57.0625 315.435 57.2656 315.023 57.4219C314.617 57.5781 314.135 57.6562 313.578 57.6562ZM322.094 49.0469V50.1562H317.523V49.0469H322.094ZM319.07 46.9922H320.516V55.4062C320.516 55.6927 320.56 55.9089 320.648 56.0547C320.737 56.2005 320.852 56.2969 320.992 56.3438C321.133 56.3906 321.284 56.4141 321.445 56.4141C321.565 56.4141 321.69 56.4036 321.82 56.3828C321.956 56.3568 322.057 56.3359 322.125 56.3203L322.133 57.5C322.018 57.5365 321.867 57.5703 321.68 57.6016C321.497 57.638 321.276 57.6562 321.016 57.6562C320.661 57.6562 320.336 57.5859 320.039 57.4453C319.742 57.3047 319.505 57.0703 319.328 56.7422C319.156 56.4089 319.07 55.9609 319.07 55.3984V46.9922ZM327.328 49.0469V50.1562H322.758V49.0469H327.328ZM324.305 46.9922H325.75V55.4062C325.75 55.6927 325.794 55.9089 325.883 56.0547C325.971 56.2005 326.086 56.2969 326.227 56.3438C326.367 56.3906 326.518 56.4141 326.68 56.4141C326.799 56.4141 326.924 56.4036 327.055 56.3828C327.19 56.3568 327.292 56.3359 327.359 56.3203L327.367 57.5C327.253 57.5365 327.102 57.5703 326.914 57.6016C326.732 57.638 326.51 57.6562 326.25 57.6562C325.896 57.6562 325.57 57.5859 325.273 57.4453C324.977 57.3047 324.74 57.0703 324.562 56.7422C324.391 56.4089 324.305 55.9609 324.305 55.3984V46.9922ZM330.594 49.0469V57.5H329.141V49.0469H330.594ZM329.031 46.8047C329.031 46.5703 329.102 46.3724 329.242 46.2109C329.388 46.0495 329.602 45.9688 329.883 45.9688C330.159 45.9688 330.37 46.0495 330.516 46.2109C330.667 46.3724 330.742 46.5703 330.742 46.8047C330.742 47.0286 330.667 47.2214 330.516 47.3828C330.37 47.5391 330.159 47.6172 329.883 47.6172C329.602 47.6172 329.388 47.5391 329.242 47.3828C329.102 47.2214 329.031 47.0286 329.031 46.8047ZM334.359 50.8516V57.5H332.914V49.0469H334.281L334.359 50.8516ZM334.016 52.9531L333.414 52.9297C333.419 52.3516 333.505 51.8177 333.672 51.3281C333.839 50.8333 334.073 50.4036 334.375 50.0391C334.677 49.6745 335.036 49.3932 335.453 49.1953C335.875 48.9922 336.341 48.8906 336.852 48.8906C337.268 48.8906 337.643 48.9479 337.977 49.0625C338.31 49.1719 338.594 49.349 338.828 49.5938C339.068 49.8385 339.25 50.1562 339.375 50.5469C339.5 50.9323 339.562 51.4036 339.562 51.9609V57.5H338.109V51.9453C338.109 51.5026 338.044 51.1484 337.914 50.8828C337.784 50.612 337.594 50.4167 337.344 50.2969C337.094 50.1719 336.786 50.1094 336.422 50.1094C336.062 50.1094 335.734 50.1849 335.438 50.3359C335.146 50.487 334.893 50.6953 334.68 50.9609C334.471 51.2266 334.307 51.5312 334.188 51.875C334.073 52.2135 334.016 52.5729 334.016 52.9531ZM347.234 49.0469H348.547V57.3203C348.547 58.0651 348.396 58.7005 348.094 59.2266C347.792 59.7526 347.37 60.151 346.828 60.4219C346.292 60.6979 345.672 60.8359 344.969 60.8359C344.677 60.8359 344.333 60.7891 343.938 60.6953C343.547 60.6068 343.161 60.4531 342.781 60.2344C342.406 60.0208 342.091 59.7318 341.836 59.3672L342.594 58.5078C342.948 58.9349 343.318 59.2318 343.703 59.3984C344.094 59.5651 344.479 59.6484 344.859 59.6484C345.318 59.6484 345.714 59.5625 346.047 59.3906C346.38 59.2188 346.638 58.9635 346.82 58.625C347.008 58.2917 347.102 57.8802 347.102 57.3906V50.9062L347.234 49.0469ZM341.414 53.3672V53.2031C341.414 52.5573 341.49 51.9714 341.641 51.4453C341.797 50.9141 342.018 50.4583 342.305 50.0781C342.596 49.6979 342.948 49.4062 343.359 49.2031C343.771 48.9948 344.234 48.8906 344.75 48.8906C345.281 48.8906 345.745 48.9844 346.141 49.1719C346.542 49.3542 346.88 49.6224 347.156 49.9766C347.438 50.3255 347.659 50.7474 347.82 51.2422C347.982 51.737 348.094 52.2969 348.156 52.9219V53.6406C348.099 54.2604 347.987 54.8177 347.82 55.3125C347.659 55.8073 347.438 56.2292 347.156 56.5781C346.88 56.9271 346.542 57.1953 346.141 57.3828C345.74 57.5651 345.271 57.6562 344.734 57.6562C344.229 57.6562 343.771 57.5495 343.359 57.3359C342.953 57.1224 342.604 56.8229 342.312 56.4375C342.021 56.0521 341.797 55.599 341.641 55.0781C341.49 54.5521 341.414 53.9818 341.414 53.3672ZM342.859 53.2031V53.3672C342.859 53.7891 342.901 54.1849 342.984 54.5547C343.073 54.9245 343.206 55.25 343.383 55.5312C343.565 55.8125 343.797 56.0339 344.078 56.1953C344.359 56.3516 344.695 56.4297 345.086 56.4297C345.565 56.4297 345.961 56.3281 346.273 56.125C346.586 55.9219 346.833 55.6536 347.016 55.3203C347.203 54.987 347.349 54.625 347.453 54.2344V52.3516C347.396 52.0651 347.307 51.7891 347.188 51.5234C347.073 51.2526 346.922 51.013 346.734 50.8047C346.552 50.5911 346.326 50.4219 346.055 50.2969C345.784 50.1719 345.466 50.1094 345.102 50.1094C344.706 50.1094 344.365 50.1927 344.078 50.3594C343.797 50.5208 343.565 50.7448 343.383 51.0312C343.206 51.3125 343.073 51.6406 342.984 52.0156C342.901 52.3854 342.859 52.7812 342.859 53.2031ZM363.68 46.125V57.5H362.164L356.438 48.7266V57.5H354.93V46.125H356.438L362.188 54.9219V46.125H363.68ZM369.641 57.6562C369.052 57.6562 368.518 57.5573 368.039 57.3594C367.565 57.1562 367.156 56.8724 366.812 56.5078C366.474 56.1432 366.214 55.7109 366.031 55.2109C365.849 54.7109 365.758 54.1641 365.758 53.5703V53.2422C365.758 52.5547 365.859 51.9427 366.062 51.4062C366.266 50.8646 366.542 50.4062 366.891 50.0312C367.24 49.6562 367.635 49.3724 368.078 49.1797C368.521 48.987 368.979 48.8906 369.453 48.8906C370.057 48.8906 370.578 48.9948 371.016 49.2031C371.458 49.4115 371.82 49.7031 372.102 50.0781C372.383 50.4479 372.591 50.8854 372.727 51.3906C372.862 51.8906 372.93 52.4375 372.93 53.0312V53.6797H366.617V52.5H371.484V52.3906C371.464 52.0156 371.385 51.651 371.25 51.2969C371.12 50.9427 370.911 50.651 370.625 50.4219C370.339 50.1927 369.948 50.0781 369.453 50.0781C369.125 50.0781 368.823 50.1484 368.547 50.2891C368.271 50.4245 368.034 50.6276 367.836 50.8984C367.638 51.1693 367.484 51.5 367.375 51.8906C367.266 52.2812 367.211 52.7318 367.211 53.2422V53.5703C367.211 53.9714 367.266 54.349 367.375 54.7031C367.49 55.0521 367.654 55.3594 367.867 55.625C368.086 55.8906 368.349 56.099 368.656 56.25C368.969 56.401 369.323 56.4766 369.719 56.4766C370.229 56.4766 370.661 56.3724 371.016 56.1641C371.37 55.9557 371.68 55.6771 371.945 55.3281L372.82 56.0234C372.638 56.2995 372.406 56.5625 372.125 56.8125C371.844 57.0625 371.497 57.2656 371.086 57.4219C370.68 57.5781 370.198 57.6562 369.641 57.6562ZM378.125 57.6562C377.536 57.6562 377.003 57.5573 376.523 57.3594C376.049 57.1562 375.641 56.8724 375.297 56.5078C374.958 56.1432 374.698 55.7109 374.516 55.2109C374.333 54.7109 374.242 54.1641 374.242 53.5703V53.2422C374.242 52.5547 374.344 51.9427 374.547 51.4062C374.75 50.8646 375.026 50.4062 375.375 50.0312C375.724 49.6562 376.12 49.3724 376.562 49.1797C377.005 48.987 377.464 48.8906 377.938 48.8906C378.542 48.8906 379.062 48.9948 379.5 49.2031C379.943 49.4115 380.305 49.7031 380.586 50.0781C380.867 50.4479 381.076 50.8854 381.211 51.3906C381.346 51.8906 381.414 52.4375 381.414 53.0312V53.6797H375.102V52.5H379.969V52.3906C379.948 52.0156 379.87 51.651 379.734 51.2969C379.604 50.9427 379.396 50.651 379.109 50.4219C378.823 50.1927 378.432 50.0781 377.938 50.0781C377.609 50.0781 377.307 50.1484 377.031 50.2891C376.755 50.4245 376.518 50.6276 376.32 50.8984C376.122 51.1693 375.969 51.5 375.859 51.8906C375.75 52.2812 375.695 52.7318 375.695 53.2422V53.5703C375.695 53.9714 375.75 54.349 375.859 54.7031C375.974 55.0521 376.138 55.3594 376.352 55.625C376.57 55.8906 376.833 56.099 377.141 56.25C377.453 56.401 377.807 56.4766 378.203 56.4766C378.714 56.4766 379.146 56.3724 379.5 56.1641C379.854 55.9557 380.164 55.6771 380.43 55.3281L381.305 56.0234C381.122 56.2995 380.891 56.5625 380.609 56.8125C380.328 57.0625 379.982 57.2656 379.57 57.4219C379.164 57.5781 378.682 57.6562 378.125 57.6562ZM388.43 55.8594V45.5H389.883V57.5H388.555L388.43 55.8594ZM382.742 53.3672V53.2031C382.742 52.5573 382.82 51.9714 382.977 51.4453C383.138 50.9141 383.365 50.4583 383.656 50.0781C383.953 49.6979 384.305 49.4062 384.711 49.2031C385.122 48.9948 385.581 48.8906 386.086 48.8906C386.617 48.8906 387.081 48.9844 387.477 49.1719C387.878 49.3542 388.216 49.6224 388.492 49.9766C388.773 50.3255 388.995 50.7474 389.156 51.2422C389.318 51.737 389.43 52.2969 389.492 52.9219V53.6406C389.435 54.2604 389.323 54.8177 389.156 55.3125C388.995 55.8073 388.773 56.2292 388.492 56.5781C388.216 56.9271 387.878 57.1953 387.477 57.3828C387.076 57.5651 386.607 57.6562 386.07 57.6562C385.576 57.6562 385.122 57.5495 384.711 57.3359C384.305 57.1224 383.953 56.8229 383.656 56.4375C383.365 56.0521 383.138 55.599 382.977 55.0781C382.82 54.5521 382.742 53.9818 382.742 53.3672ZM384.195 53.2031V53.3672C384.195 53.7891 384.237 54.1849 384.32 54.5547C384.409 54.9245 384.544 55.25 384.727 55.5312C384.909 55.8125 385.141 56.0339 385.422 56.1953C385.703 56.3516 386.039 56.4297 386.43 56.4297C386.909 56.4297 387.302 56.3281 387.609 56.125C387.922 55.9219 388.172 55.6536 388.359 55.3203C388.547 54.987 388.693 54.625 388.797 54.2344V52.3516C388.734 52.0651 388.643 51.7891 388.523 51.5234C388.409 51.2526 388.258 51.013 388.07 50.8047C387.888 50.5911 387.661 50.4219 387.391 50.2969C387.125 50.1719 386.81 50.1094 386.445 50.1094C386.049 50.1094 385.708 50.1927 385.422 50.3594C385.141 50.5208 384.909 50.7448 384.727 51.0312C384.544 51.3125 384.409 51.6406 384.32 52.0156C384.237 52.3854 384.195 52.7812 384.195 53.2031ZM395.641 57.6562C395.052 57.6562 394.518 57.5573 394.039 57.3594C393.565 57.1562 393.156 56.8724 392.812 56.5078C392.474 56.1432 392.214 55.7109 392.031 55.2109C391.849 54.7109 391.758 54.1641 391.758 53.5703V53.2422C391.758 52.5547 391.859 51.9427 392.062 51.4062C392.266 50.8646 392.542 50.4062 392.891 50.0312C393.24 49.6562 393.635 49.3724 394.078 49.1797C394.521 48.987 394.979 48.8906 395.453 48.8906C396.057 48.8906 396.578 48.9948 397.016 49.2031C397.458 49.4115 397.82 49.7031 398.102 50.0781C398.383 50.4479 398.591 50.8854 398.727 51.3906C398.862 51.8906 398.93 52.4375 398.93 53.0312V53.6797H392.617V52.5H397.484V52.3906C397.464 52.0156 397.385 51.651 397.25 51.2969C397.12 50.9427 396.911 50.651 396.625 50.4219C396.339 50.1927 395.948 50.0781 395.453 50.0781C395.125 50.0781 394.823 50.1484 394.547 50.2891C394.271 50.4245 394.034 50.6276 393.836 50.8984C393.638 51.1693 393.484 51.5 393.375 51.8906C393.266 52.2812 393.211 52.7318 393.211 53.2422V53.5703C393.211 53.9714 393.266 54.349 393.375 54.7031C393.49 55.0521 393.654 55.3594 393.867 55.625C394.086 55.8906 394.349 56.099 394.656 56.25C394.969 56.401 395.323 56.4766 395.719 56.4766C396.229 56.4766 396.661 56.3724 397.016 56.1641C397.37 55.9557 397.68 55.6771 397.945 55.3281L398.82 56.0234C398.638 56.2995 398.406 56.5625 398.125 56.8125C397.844 57.0625 397.497 57.2656 397.086 57.4219C396.68 57.5781 396.198 57.6562 395.641 57.6562ZM405.945 55.8594V45.5H407.398V57.5H406.07L405.945 55.8594ZM400.258 53.3672V53.2031C400.258 52.5573 400.336 51.9714 400.492 51.4453C400.654 50.9141 400.88 50.4583 401.172 50.0781C401.469 49.6979 401.82 49.4062 402.227 49.2031C402.638 48.9948 403.096 48.8906 403.602 48.8906C404.133 48.8906 404.596 48.9844 404.992 49.1719C405.393 49.3542 405.732 49.6224 406.008 49.9766C406.289 50.3255 406.51 50.7474 406.672 51.2422C406.833 51.737 406.945 52.2969 407.008 52.9219V53.6406C406.951 54.2604 406.839 54.8177 406.672 55.3125C406.51 55.8073 406.289 56.2292 406.008 56.5781C405.732 56.9271 405.393 57.1953 404.992 57.3828C404.591 57.5651 404.122 57.6562 403.586 57.6562C403.091 57.6562 402.638 57.5495 402.227 57.3359C401.82 57.1224 401.469 56.8229 401.172 56.4375C400.88 56.0521 400.654 55.599 400.492 55.0781C400.336 54.5521 400.258 53.9818 400.258 53.3672ZM401.711 53.2031V53.3672C401.711 53.7891 401.753 54.1849 401.836 54.5547C401.924 54.9245 402.06 55.25 402.242 55.5312C402.424 55.8125 402.656 56.0339 402.938 56.1953C403.219 56.3516 403.555 56.4297 403.945 56.4297C404.424 56.4297 404.818 56.3281 405.125 56.125C405.438 55.9219 405.688 55.6536 405.875 55.3203C406.062 54.987 406.208 54.625 406.312 54.2344V52.3516C406.25 52.0651 406.159 51.7891 406.039 51.5234C405.924 51.2526 405.773 51.013 405.586 50.8047C405.404 50.5911 405.177 50.4219 404.906 50.2969C404.641 50.1719 404.326 50.1094 403.961 50.1094C403.565 50.1094 403.224 50.1927 402.938 50.3594C402.656 50.5208 402.424 50.7448 402.242 51.0312C402.06 51.3125 401.924 51.6406 401.836 52.0156C401.753 52.3854 401.711 52.7812 401.711 53.2031Z" fill="#8A8A8E"/>
<rect x="252.5" y="32.5" width="168" height="39" rx="3.5" stroke="#D1D1D6"/>
<rect x="429.5" y="32.5" width="160" height="39" rx="3.5" fill="white"/>
<circle cx="447" cy="52" r="5.5" fill="white" stroke="#8A8A8E"/>
<mask id="path-15-inside-3_1172_92569" fill="white">
<path d="M447 48C448.061 48 449.078 48.4214 449.828 49.1716C450.579 49.9217 451 50.9391 451 52C451 53.0609 450.579 54.0783 449.828 54.8284C449.078 55.5786 448.061 56 447 56L447 52V48Z"/>
</mask>
<path d="M447 48C448.061 48 449.078 48.4214 449.828 49.1716C450.579 49.9217 451 50.9391 451 52C451 53.0609 450.579 54.0783 449.828 54.8284C449.078 55.5786 448.061 56 447 56L447 52V48Z" fill="#8A8A8E" stroke="#8A8A8E" stroke-width="2" mask="url(#path-15-inside-3_1172_92569)"/>
<path d="M468.516 53.0391H465.477V51.8125H468.516C469.104 51.8125 469.581 51.7188 469.945 51.5312C470.31 51.3438 470.576 51.0833 470.742 50.75C470.914 50.4167 471 50.0365 471 49.6094C471 49.2188 470.914 48.8516 470.742 48.5078C470.576 48.1641 470.31 47.888 469.945 47.6797C469.581 47.4661 469.104 47.3594 468.516 47.3594H465.828V57.5H464.32V46.125H468.516C469.375 46.125 470.102 46.2734 470.695 46.5703C471.289 46.8672 471.74 47.2786 472.047 47.8047C472.354 48.3255 472.508 48.9219 472.508 49.5938C472.508 50.3229 472.354 50.9453 472.047 51.4609C471.74 51.9766 471.289 52.3698 470.695 52.6406C470.102 52.9062 469.375 53.0391 468.516 53.0391ZM477.594 57.6562C477.005 57.6562 476.471 57.5573 475.992 57.3594C475.518 57.1562 475.109 56.8724 474.766 56.5078C474.427 56.1432 474.167 55.7109 473.984 55.2109C473.802 54.7109 473.711 54.1641 473.711 53.5703V53.2422C473.711 52.5547 473.812 51.9427 474.016 51.4062C474.219 50.8646 474.495 50.4062 474.844 50.0312C475.193 49.6562 475.589 49.3724 476.031 49.1797C476.474 48.987 476.932 48.8906 477.406 48.8906C478.01 48.8906 478.531 48.9948 478.969 49.2031C479.411 49.4115 479.773 49.7031 480.055 50.0781C480.336 50.4479 480.544 50.8854 480.68 51.3906C480.815 51.8906 480.883 52.4375 480.883 53.0312V53.6797H474.57V52.5H479.438V52.3906C479.417 52.0156 479.339 51.651 479.203 51.2969C479.073 50.9427 478.865 50.651 478.578 50.4219C478.292 50.1927 477.901 50.0781 477.406 50.0781C477.078 50.0781 476.776 50.1484 476.5 50.2891C476.224 50.4245 475.987 50.6276 475.789 50.8984C475.591 51.1693 475.438 51.5 475.328 51.8906C475.219 52.2812 475.164 52.7318 475.164 53.2422V53.5703C475.164 53.9714 475.219 54.349 475.328 54.7031C475.443 55.0521 475.607 55.3594 475.82 55.625C476.039 55.8906 476.302 56.099 476.609 56.25C476.922 56.401 477.276 56.4766 477.672 56.4766C478.182 56.4766 478.615 56.3724 478.969 56.1641C479.323 55.9557 479.633 55.6771 479.898 55.3281L480.773 56.0234C480.591 56.2995 480.359 56.5625 480.078 56.8125C479.797 57.0625 479.451 57.2656 479.039 57.4219C478.633 57.5781 478.151 57.6562 477.594 57.6562ZM484.016 50.8516V57.5H482.57V49.0469H483.938L484.016 50.8516ZM483.672 52.9531L483.07 52.9297C483.076 52.3516 483.161 51.8177 483.328 51.3281C483.495 50.8333 483.729 50.4036 484.031 50.0391C484.333 49.6745 484.693 49.3932 485.109 49.1953C485.531 48.9922 485.997 48.8906 486.508 48.8906C486.924 48.8906 487.299 48.9479 487.633 49.0625C487.966 49.1719 488.25 49.349 488.484 49.5938C488.724 49.8385 488.906 50.1562 489.031 50.5469C489.156 50.9323 489.219 51.4036 489.219 51.9609V57.5H487.766V51.9453C487.766 51.5026 487.701 51.1484 487.57 50.8828C487.44 50.612 487.25 50.4167 487 50.2969C486.75 50.1719 486.443 50.1094 486.078 50.1094C485.719 50.1094 485.391 50.1849 485.094 50.3359C484.802 50.487 484.549 50.6953 484.336 50.9609C484.128 51.2266 483.964 51.5312 483.844 51.875C483.729 52.2135 483.672 52.5729 483.672 52.9531ZM496.742 55.8594V45.5H498.195V57.5H496.867L496.742 55.8594ZM491.055 53.3672V53.2031C491.055 52.5573 491.133 51.9714 491.289 51.4453C491.451 50.9141 491.677 50.4583 491.969 50.0781C492.266 49.6979 492.617 49.4062 493.023 49.2031C493.435 48.9948 493.893 48.8906 494.398 48.8906C494.93 48.8906 495.393 48.9844 495.789 49.1719C496.19 49.3542 496.529 49.6224 496.805 49.9766C497.086 50.3255 497.307 50.7474 497.469 51.2422C497.63 51.737 497.742 52.2969 497.805 52.9219V53.6406C497.747 54.2604 497.635 54.8177 497.469 55.3125C497.307 55.8073 497.086 56.2292 496.805 56.5781C496.529 56.9271 496.19 57.1953 495.789 57.3828C495.388 57.5651 494.919 57.6562 494.383 57.6562C493.888 57.6562 493.435 57.5495 493.023 57.3359C492.617 57.1224 492.266 56.8229 491.969 56.4375C491.677 56.0521 491.451 55.599 491.289 55.0781C491.133 54.5521 491.055 53.9818 491.055 53.3672ZM492.508 53.2031V53.3672C492.508 53.7891 492.549 54.1849 492.633 54.5547C492.721 54.9245 492.857 55.25 493.039 55.5312C493.221 55.8125 493.453 56.0339 493.734 56.1953C494.016 56.3516 494.352 56.4297 494.742 56.4297C495.221 56.4297 495.615 56.3281 495.922 56.125C496.234 55.9219 496.484 55.6536 496.672 55.3203C496.859 54.987 497.005 54.625 497.109 54.2344V52.3516C497.047 52.0651 496.956 51.7891 496.836 51.5234C496.721 51.2526 496.57 51.013 496.383 50.8047C496.201 50.5911 495.974 50.4219 495.703 50.2969C495.438 50.1719 495.122 50.1094 494.758 50.1094C494.362 50.1094 494.021 50.1927 493.734 50.3594C493.453 50.5208 493.221 50.7448 493.039 51.0312C492.857 51.3125 492.721 51.6406 492.633 52.0156C492.549 52.3854 492.508 52.7812 492.508 53.2031ZM502.016 49.0469V57.5H500.562V49.0469H502.016ZM500.453 46.8047C500.453 46.5703 500.523 46.3724 500.664 46.2109C500.81 46.0495 501.023 45.9688 501.305 45.9688C501.581 45.9688 501.792 46.0495 501.938 46.2109C502.089 46.3724 502.164 46.5703 502.164 46.8047C502.164 47.0286 502.089 47.2214 501.938 47.3828C501.792 47.5391 501.581 47.6172 501.305 47.6172C501.023 47.6172 500.81 47.5391 500.664 47.3828C500.523 47.2214 500.453 47.0286 500.453 46.8047ZM505.781 50.8516V57.5H504.336V49.0469H505.703L505.781 50.8516ZM505.438 52.9531L504.836 52.9297C504.841 52.3516 504.927 51.8177 505.094 51.3281C505.26 50.8333 505.495 50.4036 505.797 50.0391C506.099 49.6745 506.458 49.3932 506.875 49.1953C507.297 48.9922 507.763 48.8906 508.273 48.8906C508.69 48.8906 509.065 48.9479 509.398 49.0625C509.732 49.1719 510.016 49.349 510.25 49.5938C510.49 49.8385 510.672 50.1562 510.797 50.5469C510.922 50.9323 510.984 51.4036 510.984 51.9609V57.5H509.531V51.9453C509.531 51.5026 509.466 51.1484 509.336 50.8828C509.206 50.612 509.016 50.4167 508.766 50.2969C508.516 50.1719 508.208 50.1094 507.844 50.1094C507.484 50.1094 507.156 50.1849 506.859 50.3359C506.568 50.487 506.315 50.6953 506.102 50.9609C505.893 51.2266 505.729 51.5312 505.609 51.875C505.495 52.2135 505.438 52.5729 505.438 52.9531ZM518.656 49.0469H519.969V57.3203C519.969 58.0651 519.818 58.7005 519.516 59.2266C519.214 59.7526 518.792 60.151 518.25 60.4219C517.714 60.6979 517.094 60.8359 516.391 60.8359C516.099 60.8359 515.755 60.7891 515.359 60.6953C514.969 60.6068 514.583 60.4531 514.203 60.2344C513.828 60.0208 513.513 59.7318 513.258 59.3672L514.016 58.5078C514.37 58.9349 514.74 59.2318 515.125 59.3984C515.516 59.5651 515.901 59.6484 516.281 59.6484C516.74 59.6484 517.135 59.5625 517.469 59.3906C517.802 59.2188 518.06 58.9635 518.242 58.625C518.43 58.2917 518.523 57.8802 518.523 57.3906V50.9062L518.656 49.0469ZM512.836 53.3672V53.2031C512.836 52.5573 512.911 51.9714 513.062 51.4453C513.219 50.9141 513.44 50.4583 513.727 50.0781C514.018 49.6979 514.37 49.4062 514.781 49.2031C515.193 48.9948 515.656 48.8906 516.172 48.8906C516.703 48.8906 517.167 48.9844 517.562 49.1719C517.964 49.3542 518.302 49.6224 518.578 49.9766C518.859 50.3255 519.081 50.7474 519.242 51.2422C519.404 51.737 519.516 52.2969 519.578 52.9219V53.6406C519.521 54.2604 519.409 54.8177 519.242 55.3125C519.081 55.8073 518.859 56.2292 518.578 56.5781C518.302 56.9271 517.964 57.1953 517.562 57.3828C517.161 57.5651 516.693 57.6562 516.156 57.6562C515.651 57.6562 515.193 57.5495 514.781 57.3359C514.375 57.1224 514.026 56.8229 513.734 56.4375C513.443 56.0521 513.219 55.599 513.062 55.0781C512.911 54.5521 512.836 53.9818 512.836 53.3672ZM514.281 53.2031V53.3672C514.281 53.7891 514.323 54.1849 514.406 54.5547C514.495 54.9245 514.628 55.25 514.805 55.5312C514.987 55.8125 515.219 56.0339 515.5 56.1953C515.781 56.3516 516.117 56.4297 516.508 56.4297C516.987 56.4297 517.383 56.3281 517.695 56.125C518.008 55.9219 518.255 55.6536 518.438 55.3203C518.625 54.987 518.771 54.625 518.875 54.2344V52.3516C518.818 52.0651 518.729 51.7891 518.609 51.5234C518.495 51.2526 518.344 51.013 518.156 50.8047C517.974 50.5911 517.747 50.4219 517.477 50.2969C517.206 50.1719 516.888 50.1094 516.523 50.1094C516.128 50.1094 515.786 50.1927 515.5 50.3594C515.219 50.5208 514.987 50.7448 514.805 51.0312C514.628 51.3125 514.495 51.6406 514.406 52.0156C514.323 52.3854 514.281 52.7812 514.281 53.2031ZM527.969 46.125V57.5H526.461V46.125H527.969ZM531.93 50.7266V57.5H530.477V49.0469H531.852L531.93 50.7266ZM531.633 52.9531L530.961 52.9297C530.966 52.3516 531.042 51.8177 531.188 51.3281C531.333 50.8333 531.549 50.4036 531.836 50.0391C532.122 49.6745 532.479 49.3932 532.906 49.1953C533.333 48.9922 533.828 48.8906 534.391 48.8906C534.786 48.8906 535.151 48.9479 535.484 49.0625C535.818 49.1719 536.107 49.3464 536.352 49.5859C536.596 49.8255 536.786 50.1328 536.922 50.5078C537.057 50.8828 537.125 51.3359 537.125 51.8672V57.5H535.68V51.9375C535.68 51.4948 535.604 51.1406 535.453 50.875C535.307 50.6094 535.099 50.4167 534.828 50.2969C534.557 50.1719 534.24 50.1094 533.875 50.1094C533.448 50.1094 533.091 50.1849 532.805 50.3359C532.518 50.487 532.289 50.6953 532.117 50.9609C531.945 51.2266 531.82 51.5312 531.742 51.875C531.669 52.2135 531.633 52.5729 531.633 52.9531ZM537.109 52.1562L536.141 52.4531C536.146 51.9896 536.221 51.5443 536.367 51.1172C536.518 50.6901 536.734 50.3099 537.016 49.9766C537.302 49.6432 537.654 49.3802 538.07 49.1875C538.487 48.9896 538.964 48.8906 539.5 48.8906C539.953 48.8906 540.354 48.9505 540.703 49.0703C541.057 49.1901 541.354 49.375 541.594 49.625C541.839 49.8698 542.023 50.1849 542.148 50.5703C542.273 50.9557 542.336 51.4141 542.336 51.9453V57.5H540.883V51.9297C540.883 51.4557 540.807 51.0885 540.656 50.8281C540.51 50.5625 540.302 50.3776 540.031 50.2734C539.766 50.1641 539.448 50.1094 539.078 50.1094C538.76 50.1094 538.479 50.1641 538.234 50.2734C537.99 50.3828 537.784 50.5339 537.617 50.7266C537.451 50.9141 537.323 51.1302 537.234 51.375C537.151 51.6198 537.109 51.8802 537.109 52.1562ZM549.508 56.0547V51.7031C549.508 51.3698 549.44 51.0807 549.305 50.8359C549.174 50.5859 548.977 50.3932 548.711 50.2578C548.445 50.1224 548.117 50.0547 547.727 50.0547C547.362 50.0547 547.042 50.1172 546.766 50.2422C546.495 50.3672 546.281 50.5312 546.125 50.7344C545.974 50.9375 545.898 51.1562 545.898 51.3906H544.453C544.453 51.0885 544.531 50.7891 544.688 50.4922C544.844 50.1953 545.068 49.9271 545.359 49.6875C545.656 49.4427 546.01 49.25 546.422 49.1094C546.839 48.9635 547.302 48.8906 547.812 48.8906C548.427 48.8906 548.969 48.9948 549.438 49.2031C549.911 49.4115 550.281 49.7266 550.547 50.1484C550.818 50.5651 550.953 51.0885 550.953 51.7188V55.6562C550.953 55.9375 550.977 56.237 551.023 56.5547C551.076 56.8724 551.151 57.1458 551.25 57.375V57.5H549.742C549.669 57.3333 549.612 57.112 549.57 56.8359C549.529 56.5547 549.508 56.2943 549.508 56.0547ZM549.758 52.375L549.773 53.3906H548.312C547.901 53.3906 547.534 53.4245 547.211 53.4922C546.888 53.5547 546.617 53.651 546.398 53.7812C546.18 53.9115 546.013 54.0755 545.898 54.2734C545.784 54.4661 545.727 54.6927 545.727 54.9531C545.727 55.2188 545.786 55.4609 545.906 55.6797C546.026 55.8984 546.206 56.0729 546.445 56.2031C546.69 56.3281 546.99 56.3906 547.344 56.3906C547.786 56.3906 548.177 56.2969 548.516 56.1094C548.854 55.9219 549.122 55.6927 549.32 55.4219C549.523 55.151 549.633 54.888 549.648 54.6328L550.266 55.3281C550.229 55.5469 550.13 55.7891 549.969 56.0547C549.807 56.3203 549.591 56.5755 549.32 56.8203C549.055 57.0599 548.737 57.2604 548.367 57.4219C548.003 57.5781 547.591 57.6562 547.133 57.6562C546.56 57.6562 546.057 57.5443 545.625 57.3203C545.198 57.0964 544.865 56.7969 544.625 56.4219C544.391 56.0417 544.273 55.6172 544.273 55.1484C544.273 54.6953 544.362 54.2969 544.539 53.9531C544.716 53.6042 544.971 53.3151 545.305 53.0859C545.638 52.8516 546.039 52.6745 546.508 52.5547C546.977 52.4349 547.5 52.375 548.078 52.375H549.758ZM558.703 49.0469H560.016V57.3203C560.016 58.0651 559.865 58.7005 559.562 59.2266C559.26 59.7526 558.839 60.151 558.297 60.4219C557.76 60.6979 557.141 60.8359 556.438 60.8359C556.146 60.8359 555.802 60.7891 555.406 60.6953C555.016 60.6068 554.63 60.4531 554.25 60.2344C553.875 60.0208 553.56 59.7318 553.305 59.3672L554.062 58.5078C554.417 58.9349 554.786 59.2318 555.172 59.3984C555.562 59.5651 555.948 59.6484 556.328 59.6484C556.786 59.6484 557.182 59.5625 557.516 59.3906C557.849 59.2188 558.107 58.9635 558.289 58.625C558.477 58.2917 558.57 57.8802 558.57 57.3906V50.9062L558.703 49.0469ZM552.883 53.3672V53.2031C552.883 52.5573 552.958 51.9714 553.109 51.4453C553.266 50.9141 553.487 50.4583 553.773 50.0781C554.065 49.6979 554.417 49.4062 554.828 49.2031C555.24 48.9948 555.703 48.8906 556.219 48.8906C556.75 48.8906 557.214 48.9844 557.609 49.1719C558.01 49.3542 558.349 49.6224 558.625 49.9766C558.906 50.3255 559.128 50.7474 559.289 51.2422C559.451 51.737 559.562 52.2969 559.625 52.9219V53.6406C559.568 54.2604 559.456 54.8177 559.289 55.3125C559.128 55.8073 558.906 56.2292 558.625 56.5781C558.349 56.9271 558.01 57.1953 557.609 57.3828C557.208 57.5651 556.74 57.6562 556.203 57.6562C555.698 57.6562 555.24 57.5495 554.828 57.3359C554.422 57.1224 554.073 56.8229 553.781 56.4375C553.49 56.0521 553.266 55.599 553.109 55.0781C552.958 54.5521 552.883 53.9818 552.883 53.3672ZM554.328 53.2031V53.3672C554.328 53.7891 554.37 54.1849 554.453 54.5547C554.542 54.9245 554.674 55.25 554.852 55.5312C555.034 55.8125 555.266 56.0339 555.547 56.1953C555.828 56.3516 556.164 56.4297 556.555 56.4297C557.034 56.4297 557.43 56.3281 557.742 56.125C558.055 55.9219 558.302 55.6536 558.484 55.3203C558.672 54.987 558.818 54.625 558.922 54.2344V52.3516C558.865 52.0651 558.776 51.7891 558.656 51.5234C558.542 51.2526 558.391 51.013 558.203 50.8047C558.021 50.5911 557.794 50.4219 557.523 50.2969C557.253 50.1719 556.935 50.1094 556.57 50.1094C556.174 50.1094 555.833 50.1927 555.547 50.3594C555.266 50.5208 555.034 50.7448 554.852 51.0312C554.674 51.3125 554.542 51.6406 554.453 52.0156C554.37 52.3854 554.328 52.7812 554.328 53.2031ZM565.719 57.6562C565.13 57.6562 564.596 57.5573 564.117 57.3594C563.643 57.1562 563.234 56.8724 562.891 56.5078C562.552 56.1432 562.292 55.7109 562.109 55.2109C561.927 54.7109 561.836 54.1641 561.836 53.5703V53.2422C561.836 52.5547 561.938 51.9427 562.141 51.4062C562.344 50.8646 562.62 50.4062 562.969 50.0312C563.318 49.6562 563.714 49.3724 564.156 49.1797C564.599 48.987 565.057 48.8906 565.531 48.8906C566.135 48.8906 566.656 48.9948 567.094 49.2031C567.536 49.4115 567.898 49.7031 568.18 50.0781C568.461 50.4479 568.669 50.8854 568.805 51.3906C568.94 51.8906 569.008 52.4375 569.008 53.0312V53.6797H562.695V52.5H567.562V52.3906C567.542 52.0156 567.464 51.651 567.328 51.2969C567.198 50.9427 566.99 50.651 566.703 50.4219C566.417 50.1927 566.026 50.0781 565.531 50.0781C565.203 50.0781 564.901 50.1484 564.625 50.2891C564.349 50.4245 564.112 50.6276 563.914 50.8984C563.716 51.1693 563.562 51.5 563.453 51.8906C563.344 52.2812 563.289 52.7318 563.289 53.2422V53.5703C563.289 53.9714 563.344 54.349 563.453 54.7031C563.568 55.0521 563.732 55.3594 563.945 55.625C564.164 55.8906 564.427 56.099 564.734 56.25C565.047 56.401 565.401 56.4766 565.797 56.4766C566.307 56.4766 566.74 56.3724 567.094 56.1641C567.448 55.9557 567.758 55.6771 568.023 55.3281L568.898 56.0234C568.716 56.2995 568.484 56.5625 568.203 56.8125C567.922 57.0625 567.576 57.2656 567.164 57.4219C566.758 57.5781 566.276 57.6562 565.719 57.6562ZM575.617 55.2578C575.617 55.0495 575.57 54.8568 575.477 54.6797C575.388 54.4974 575.203 54.3333 574.922 54.1875C574.646 54.0365 574.229 53.9062 573.672 53.7969C573.203 53.6979 572.779 53.5807 572.398 53.4453C572.023 53.3099 571.703 53.1458 571.438 52.9531C571.177 52.7604 570.977 52.5339 570.836 52.2734C570.695 52.013 570.625 51.7083 570.625 51.3594C570.625 51.026 570.698 50.7109 570.844 50.4141C570.995 50.1172 571.206 49.8542 571.477 49.625C571.753 49.3958 572.083 49.2161 572.469 49.0859C572.854 48.9557 573.284 48.8906 573.758 48.8906C574.435 48.8906 575.013 49.0104 575.492 49.25C575.971 49.4896 576.339 49.8099 576.594 50.2109C576.849 50.6068 576.977 51.0469 576.977 51.5312H575.531C575.531 51.2969 575.461 51.0703 575.32 50.8516C575.185 50.6276 574.984 50.4427 574.719 50.2969C574.458 50.151 574.138 50.0781 573.758 50.0781C573.357 50.0781 573.031 50.1406 572.781 50.2656C572.536 50.3854 572.357 50.5391 572.242 50.7266C572.133 50.9141 572.078 51.112 572.078 51.3203C572.078 51.4766 572.104 51.6172 572.156 51.7422C572.214 51.862 572.312 51.974 572.453 52.0781C572.594 52.1771 572.792 52.2708 573.047 52.3594C573.302 52.4479 573.628 52.5365 574.023 52.625C574.716 52.7812 575.286 52.9688 575.734 53.1875C576.182 53.4062 576.516 53.6745 576.734 53.9922C576.953 54.3099 577.062 54.6953 577.062 55.1484C577.062 55.5182 576.984 55.8568 576.828 56.1641C576.677 56.4714 576.456 56.737 576.164 56.9609C575.878 57.1797 575.534 57.3516 575.133 57.4766C574.737 57.5964 574.292 57.6562 573.797 57.6562C573.052 57.6562 572.422 57.5234 571.906 57.2578C571.391 56.9922 571 56.6484 570.734 56.2266C570.469 55.8047 570.336 55.3594 570.336 54.8906H571.789C571.81 55.2865 571.924 55.6016 572.133 55.8359C572.341 56.0651 572.596 56.2292 572.898 56.3281C573.201 56.4219 573.5 56.4688 573.797 56.4688C574.193 56.4688 574.523 56.4167 574.789 56.3125C575.06 56.2083 575.266 56.0651 575.406 55.8828C575.547 55.7005 575.617 55.4922 575.617 55.2578Z" fill="#8A8A8E"/>
<rect x="429.5" y="32.5" width="160" height="39" rx="3.5" stroke="#D1D1D6"/>
<rect x="598.5" y="32.5" width="167" height="39" rx="3.5" fill="white"/>
<circle cx="616" cy="52" r="5.5" fill="white" stroke="#8A8A8E"/>
<circle cx="616" cy="52" r="0.5" fill="#8A8A8E" stroke="#8A8A8E"/>
<circle cx="613" cy="52" r="0.5" fill="#8A8A8E" stroke="#8A8A8E"/>
<circle cx="619" cy="52" r="0.5" fill="#8A8A8E" stroke="#8A8A8E"/>
<path d="M637.531 47.1328L633.766 57.5H632.227L636.562 46.125H637.555L637.531 47.1328ZM640.688 57.5L636.914 47.1328L636.891 46.125H637.883L642.234 57.5H640.688ZM640.492 53.2891V54.5234H634.102V53.2891H640.492ZM644.984 50.8516V57.5H643.539V49.0469H644.906L644.984 50.8516ZM644.641 52.9531L644.039 52.9297C644.044 52.3516 644.13 51.8177 644.297 51.3281C644.464 50.8333 644.698 50.4036 645 50.0391C645.302 49.6745 645.661 49.3932 646.078 49.1953C646.5 48.9922 646.966 48.8906 647.477 48.8906C647.893 48.8906 648.268 48.9479 648.602 49.0625C648.935 49.1719 649.219 49.349 649.453 49.5938C649.693 49.8385 649.875 50.1562 650 50.5469C650.125 50.9323 650.188 51.4036 650.188 51.9609V57.5H648.734V51.9453C648.734 51.5026 648.669 51.1484 648.539 50.8828C648.409 50.612 648.219 50.4167 647.969 50.2969C647.719 50.1719 647.411 50.1094 647.047 50.1094C646.688 50.1094 646.359 50.1849 646.062 50.3359C645.771 50.487 645.518 50.6953 645.305 50.9609C645.096 51.2266 644.932 51.5312 644.812 51.875C644.698 52.2135 644.641 52.5729 644.641 52.9531ZM657.367 56.0547V51.7031C657.367 51.3698 657.299 51.0807 657.164 50.8359C657.034 50.5859 656.836 50.3932 656.57 50.2578C656.305 50.1224 655.977 50.0547 655.586 50.0547C655.221 50.0547 654.901 50.1172 654.625 50.2422C654.354 50.3672 654.141 50.5312 653.984 50.7344C653.833 50.9375 653.758 51.1562 653.758 51.3906H652.312C652.312 51.0885 652.391 50.7891 652.547 50.4922C652.703 50.1953 652.927 49.9271 653.219 49.6875C653.516 49.4427 653.87 49.25 654.281 49.1094C654.698 48.9635 655.161 48.8906 655.672 48.8906C656.286 48.8906 656.828 48.9948 657.297 49.2031C657.771 49.4115 658.141 49.7266 658.406 50.1484C658.677 50.5651 658.812 51.0885 658.812 51.7188V55.6562C658.812 55.9375 658.836 56.237 658.883 56.5547C658.935 56.8724 659.01 57.1458 659.109 57.375V57.5H657.602C657.529 57.3333 657.471 57.112 657.43 56.8359C657.388 56.5547 657.367 56.2943 657.367 56.0547ZM657.617 52.375L657.633 53.3906H656.172C655.76 53.3906 655.393 53.4245 655.07 53.4922C654.747 53.5547 654.477 53.651 654.258 53.7812C654.039 53.9115 653.872 54.0755 653.758 54.2734C653.643 54.4661 653.586 54.6927 653.586 54.9531C653.586 55.2188 653.646 55.4609 653.766 55.6797C653.885 55.8984 654.065 56.0729 654.305 56.2031C654.549 56.3281 654.849 56.3906 655.203 56.3906C655.646 56.3906 656.036 56.2969 656.375 56.1094C656.714 55.9219 656.982 55.6927 657.18 55.4219C657.383 55.151 657.492 54.888 657.508 54.6328L658.125 55.3281C658.089 55.5469 657.99 55.7891 657.828 56.0547C657.667 56.3203 657.451 56.5755 657.18 56.8203C656.914 57.0599 656.596 57.2604 656.227 57.4219C655.862 57.5781 655.451 57.6562 654.992 57.6562C654.419 57.6562 653.917 57.5443 653.484 57.3203C653.057 57.0964 652.724 56.7969 652.484 56.4219C652.25 56.0417 652.133 55.6172 652.133 55.1484C652.133 54.6953 652.221 54.2969 652.398 53.9531C652.576 53.6042 652.831 53.3151 653.164 53.0859C653.497 52.8516 653.898 52.6745 654.367 52.5547C654.836 52.4349 655.359 52.375 655.938 52.375H657.617ZM662.656 45.5V57.5H661.203V45.5H662.656ZM667.352 56.625L669.703 49.0469H671.25L667.859 58.8047C667.781 59.013 667.677 59.237 667.547 59.4766C667.422 59.7214 667.26 59.9531 667.062 60.1719C666.865 60.3906 666.625 60.5677 666.344 60.7031C666.068 60.8438 665.737 60.9141 665.352 60.9141C665.237 60.9141 665.091 60.8984 664.914 60.8672C664.737 60.8359 664.612 60.8099 664.539 60.7891L664.531 59.6172C664.573 59.6224 664.638 59.6276 664.727 59.6328C664.82 59.6432 664.885 59.6484 664.922 59.6484C665.25 59.6484 665.529 59.6042 665.758 59.5156C665.987 59.4323 666.18 59.2891 666.336 59.0859C666.497 58.888 666.635 58.6146 666.75 58.2656L667.352 56.625ZM665.625 49.0469L667.82 55.6094L668.195 57.1328L667.156 57.6641L664.047 49.0469H665.625ZM677.477 55.2578C677.477 55.0495 677.43 54.8568 677.336 54.6797C677.247 54.4974 677.062 54.3333 676.781 54.1875C676.505 54.0365 676.089 53.9062 675.531 53.7969C675.062 53.6979 674.638 53.5807 674.258 53.4453C673.883 53.3099 673.562 53.1458 673.297 52.9531C673.036 52.7604 672.836 52.5339 672.695 52.2734C672.555 52.013 672.484 51.7083 672.484 51.3594C672.484 51.026 672.557 50.7109 672.703 50.4141C672.854 50.1172 673.065 49.8542 673.336 49.625C673.612 49.3958 673.943 49.2161 674.328 49.0859C674.714 48.9557 675.143 48.8906 675.617 48.8906C676.294 48.8906 676.872 49.0104 677.352 49.25C677.831 49.4896 678.198 49.8099 678.453 50.2109C678.708 50.6068 678.836 51.0469 678.836 51.5312H677.391C677.391 51.2969 677.32 51.0703 677.18 50.8516C677.044 50.6276 676.844 50.4427 676.578 50.2969C676.318 50.151 675.997 50.0781 675.617 50.0781C675.216 50.0781 674.891 50.1406 674.641 50.2656C674.396 50.3854 674.216 50.5391 674.102 50.7266C673.992 50.9141 673.938 51.112 673.938 51.3203C673.938 51.4766 673.964 51.6172 674.016 51.7422C674.073 51.862 674.172 51.974 674.312 52.0781C674.453 52.1771 674.651 52.2708 674.906 52.3594C675.161 52.4479 675.487 52.5365 675.883 52.625C676.576 52.7812 677.146 52.9688 677.594 53.1875C678.042 53.4062 678.375 53.6745 678.594 53.9922C678.812 54.3099 678.922 54.6953 678.922 55.1484C678.922 55.5182 678.844 55.8568 678.688 56.1641C678.536 56.4714 678.315 56.737 678.023 56.9609C677.737 57.1797 677.393 57.3516 676.992 57.4766C676.596 57.5964 676.151 57.6562 675.656 57.6562C674.911 57.6562 674.281 57.5234 673.766 57.2578C673.25 56.9922 672.859 56.6484 672.594 56.2266C672.328 55.8047 672.195 55.3594 672.195 54.8906H673.648C673.669 55.2865 673.784 55.6016 673.992 55.8359C674.201 56.0651 674.456 56.2292 674.758 56.3281C675.06 56.4219 675.359 56.4688 675.656 56.4688C676.052 56.4688 676.383 56.4167 676.648 56.3125C676.919 56.2083 677.125 56.0651 677.266 55.8828C677.406 55.7005 677.477 55.4922 677.477 55.2578ZM682.391 49.0469V57.5H680.938V49.0469H682.391ZM680.828 46.8047C680.828 46.5703 680.898 46.3724 681.039 46.2109C681.185 46.0495 681.398 45.9688 681.68 45.9688C681.956 45.9688 682.167 46.0495 682.312 46.2109C682.464 46.3724 682.539 46.5703 682.539 46.8047C682.539 47.0286 682.464 47.2214 682.312 47.3828C682.167 47.5391 681.956 47.6172 681.68 47.6172C681.398 47.6172 681.185 47.5391 681.039 47.3828C680.898 47.2214 680.828 47.0286 680.828 46.8047ZM689.633 55.2578C689.633 55.0495 689.586 54.8568 689.492 54.6797C689.404 54.4974 689.219 54.3333 688.938 54.1875C688.661 54.0365 688.245 53.9062 687.688 53.7969C687.219 53.6979 686.794 53.5807 686.414 53.4453C686.039 53.3099 685.719 53.1458 685.453 52.9531C685.193 52.7604 684.992 52.5339 684.852 52.2734C684.711 52.013 684.641 51.7083 684.641 51.3594C684.641 51.026 684.714 50.7109 684.859 50.4141C685.01 50.1172 685.221 49.8542 685.492 49.625C685.768 49.3958 686.099 49.2161 686.484 49.0859C686.87 48.9557 687.299 48.8906 687.773 48.8906C688.451 48.8906 689.029 49.0104 689.508 49.25C689.987 49.4896 690.354 49.8099 690.609 50.2109C690.865 50.6068 690.992 51.0469 690.992 51.5312H689.547C689.547 51.2969 689.477 51.0703 689.336 50.8516C689.201 50.6276 689 50.4427 688.734 50.2969C688.474 50.151 688.154 50.0781 687.773 50.0781C687.372 50.0781 687.047 50.1406 686.797 50.2656C686.552 50.3854 686.372 50.5391 686.258 50.7266C686.148 50.9141 686.094 51.112 686.094 51.3203C686.094 51.4766 686.12 51.6172 686.172 51.7422C686.229 51.862 686.328 51.974 686.469 52.0781C686.609 52.1771 686.807 52.2708 687.062 52.3594C687.318 52.4479 687.643 52.5365 688.039 52.625C688.732 52.7812 689.302 52.9688 689.75 53.1875C690.198 53.4062 690.531 53.6745 690.75 53.9922C690.969 54.3099 691.078 54.6953 691.078 55.1484C691.078 55.5182 691 55.8568 690.844 56.1641C690.693 56.4714 690.471 56.737 690.18 56.9609C689.893 57.1797 689.549 57.3516 689.148 57.4766C688.753 57.5964 688.307 57.6562 687.812 57.6562C687.068 57.6562 686.438 57.5234 685.922 57.2578C685.406 56.9922 685.016 56.6484 684.75 56.2266C684.484 55.8047 684.352 55.3594 684.352 54.8906H685.805C685.826 55.2865 685.94 55.6016 686.148 55.8359C686.357 56.0651 686.612 56.2292 686.914 56.3281C687.216 56.4219 687.516 56.4688 687.812 56.4688C688.208 56.4688 688.539 56.4167 688.805 56.3125C689.076 56.2083 689.281 56.0651 689.422 55.8828C689.562 55.7005 689.633 55.4922 689.633 55.2578ZM701.359 53.0391H698.32V51.8125H701.359C701.948 51.8125 702.424 51.7188 702.789 51.5312C703.154 51.3438 703.419 51.0833 703.586 50.75C703.758 50.4167 703.844 50.0365 703.844 49.6094C703.844 49.2188 703.758 48.8516 703.586 48.5078C703.419 48.1641 703.154 47.888 702.789 47.6797C702.424 47.4661 701.948 47.3594 701.359 47.3594H698.672V57.5H697.164V46.125H701.359C702.219 46.125 702.945 46.2734 703.539 46.5703C704.133 46.8672 704.583 47.2786 704.891 47.8047C705.198 48.3255 705.352 48.9219 705.352 49.5938C705.352 50.3229 705.198 50.9453 704.891 51.4609C704.583 51.9766 704.133 52.3698 703.539 52.6406C702.945 52.9062 702.219 53.0391 701.359 53.0391ZM710.438 57.6562C709.849 57.6562 709.315 57.5573 708.836 57.3594C708.362 57.1562 707.953 56.8724 707.609 56.5078C707.271 56.1432 707.01 55.7109 706.828 55.2109C706.646 54.7109 706.555 54.1641 706.555 53.5703V53.2422C706.555 52.5547 706.656 51.9427 706.859 51.4062C707.062 50.8646 707.339 50.4062 707.688 50.0312C708.036 49.6562 708.432 49.3724 708.875 49.1797C709.318 48.987 709.776 48.8906 710.25 48.8906C710.854 48.8906 711.375 48.9948 711.812 49.2031C712.255 49.4115 712.617 49.7031 712.898 50.0781C713.18 50.4479 713.388 50.8854 713.523 51.3906C713.659 51.8906 713.727 52.4375 713.727 53.0312V53.6797H707.414V52.5H712.281V52.3906C712.26 52.0156 712.182 51.651 712.047 51.2969C711.917 50.9427 711.708 50.651 711.422 50.4219C711.135 50.1927 710.745 50.0781 710.25 50.0781C709.922 50.0781 709.62 50.1484 709.344 50.2891C709.068 50.4245 708.831 50.6276 708.633 50.8984C708.435 51.1693 708.281 51.5 708.172 51.8906C708.062 52.2812 708.008 52.7318 708.008 53.2422V53.5703C708.008 53.9714 708.062 54.349 708.172 54.7031C708.286 55.0521 708.451 55.3594 708.664 55.625C708.883 55.8906 709.146 56.099 709.453 56.25C709.766 56.401 710.12 56.4766 710.516 56.4766C711.026 56.4766 711.458 56.3724 711.812 56.1641C712.167 55.9557 712.477 55.6771 712.742 55.3281L713.617 56.0234C713.435 56.2995 713.203 56.5625 712.922 56.8125C712.641 57.0625 712.294 57.2656 711.883 57.4219C711.477 57.5781 710.995 57.6562 710.438 57.6562ZM716.859 50.8516V57.5H715.414V49.0469H716.781L716.859 50.8516ZM716.516 52.9531L715.914 52.9297C715.919 52.3516 716.005 51.8177 716.172 51.3281C716.339 50.8333 716.573 50.4036 716.875 50.0391C717.177 49.6745 717.536 49.3932 717.953 49.1953C718.375 48.9922 718.841 48.8906 719.352 48.8906C719.768 48.8906 720.143 48.9479 720.477 49.0625C720.81 49.1719 721.094 49.349 721.328 49.5938C721.568 49.8385 721.75 50.1562 721.875 50.5469C722 50.9323 722.062 51.4036 722.062 51.9609V57.5H720.609V51.9453C720.609 51.5026 720.544 51.1484 720.414 50.8828C720.284 50.612 720.094 50.4167 719.844 50.2969C719.594 50.1719 719.286 50.1094 718.922 50.1094C718.562 50.1094 718.234 50.1849 717.938 50.3359C717.646 50.487 717.393 50.6953 717.18 50.9609C716.971 51.2266 716.807 51.5312 716.688 51.875C716.573 52.2135 716.516 52.5729 716.516 52.9531ZM729.586 55.8594V45.5H731.039V57.5H729.711L729.586 55.8594ZM723.898 53.3672V53.2031C723.898 52.5573 723.977 51.9714 724.133 51.4453C724.294 50.9141 724.521 50.4583 724.812 50.0781C725.109 49.6979 725.461 49.4062 725.867 49.2031C726.279 48.9948 726.737 48.8906 727.242 48.8906C727.773 48.8906 728.237 48.9844 728.633 49.1719C729.034 49.3542 729.372 49.6224 729.648 49.9766C729.93 50.3255 730.151 50.7474 730.312 51.2422C730.474 51.737 730.586 52.2969 730.648 52.9219V53.6406C730.591 54.2604 730.479 54.8177 730.312 55.3125C730.151 55.8073 729.93 56.2292 729.648 56.5781C729.372 56.9271 729.034 57.1953 728.633 57.3828C728.232 57.5651 727.763 57.6562 727.227 57.6562C726.732 57.6562 726.279 57.5495 725.867 57.3359C725.461 57.1224 725.109 56.8229 724.812 56.4375C724.521 56.0521 724.294 55.599 724.133 55.0781C723.977 54.5521 723.898 53.9818 723.898 53.3672ZM725.352 53.2031V53.3672C725.352 53.7891 725.393 54.1849 725.477 54.5547C725.565 54.9245 725.701 55.25 725.883 55.5312C726.065 55.8125 726.297 56.0339 726.578 56.1953C726.859 56.3516 727.195 56.4297 727.586 56.4297C728.065 56.4297 728.458 56.3281 728.766 56.125C729.078 55.9219 729.328 55.6536 729.516 55.3203C729.703 54.987 729.849 54.625 729.953 54.2344V52.3516C729.891 52.0651 729.799 51.7891 729.68 51.5234C729.565 51.2526 729.414 51.013 729.227 50.8047C729.044 50.5911 728.818 50.4219 728.547 50.2969C728.281 50.1719 727.966 50.1094 727.602 50.1094C727.206 50.1094 726.865 50.1927 726.578 50.3594C726.297 50.5208 726.065 50.7448 725.883 51.0312C725.701 51.3125 725.565 51.6406 725.477 52.0156C725.393 52.3854 725.352 52.7812 725.352 53.2031ZM734.859 49.0469V57.5H733.406V49.0469H734.859ZM733.297 46.8047C733.297 46.5703 733.367 46.3724 733.508 46.2109C733.654 46.0495 733.867 45.9688 734.148 45.9688C734.424 45.9688 734.635 46.0495 734.781 46.2109C734.932 46.3724 735.008 46.5703 735.008 46.8047C735.008 47.0286 734.932 47.2214 734.781 47.3828C734.635 47.5391 734.424 47.6172 734.148 47.6172C733.867 47.6172 733.654 47.5391 733.508 47.3828C733.367 47.2214 733.297 47.0286 733.297 46.8047ZM738.625 50.8516V57.5H737.18V49.0469H738.547L738.625 50.8516ZM738.281 52.9531L737.68 52.9297C737.685 52.3516 737.771 51.8177 737.938 51.3281C738.104 50.8333 738.339 50.4036 738.641 50.0391C738.943 49.6745 739.302 49.3932 739.719 49.1953C740.141 48.9922 740.607 48.8906 741.117 48.8906C741.534 48.8906 741.909 48.9479 742.242 49.0625C742.576 49.1719 742.859 49.349 743.094 49.5938C743.333 49.8385 743.516 50.1562 743.641 50.5469C743.766 50.9323 743.828 51.4036 743.828 51.9609V57.5H742.375V51.9453C742.375 51.5026 742.31 51.1484 742.18 50.8828C742.049 50.612 741.859 50.4167 741.609 50.2969C741.359 50.1719 741.052 50.1094 740.688 50.1094C740.328 50.1094 740 50.1849 739.703 50.3359C739.411 50.487 739.159 50.6953 738.945 50.9609C738.737 51.2266 738.573 51.5312 738.453 51.875C738.339 52.2135 738.281 52.5729 738.281 52.9531ZM751.5 49.0469H752.812V57.3203C752.812 58.0651 752.661 58.7005 752.359 59.2266C752.057 59.7526 751.635 60.151 751.094 60.4219C750.557 60.6979 749.938 60.8359 749.234 60.8359C748.943 60.8359 748.599 60.7891 748.203 60.6953C747.812 60.6068 747.427 60.4531 747.047 60.2344C746.672 60.0208 746.357 59.7318 746.102 59.3672L746.859 58.5078C747.214 58.9349 747.583 59.2318 747.969 59.3984C748.359 59.5651 748.745 59.6484 749.125 59.6484C749.583 59.6484 749.979 59.5625 750.312 59.3906C750.646 59.2188 750.904 58.9635 751.086 58.625C751.273 58.2917 751.367 57.8802 751.367 57.3906V50.9062L751.5 49.0469ZM745.68 53.3672V53.2031C745.68 52.5573 745.755 51.9714 745.906 51.4453C746.062 50.9141 746.284 50.4583 746.57 50.0781C746.862 49.6979 747.214 49.4062 747.625 49.2031C748.036 48.9948 748.5 48.8906 749.016 48.8906C749.547 48.8906 750.01 48.9844 750.406 49.1719C750.807 49.3542 751.146 49.6224 751.422 49.9766C751.703 50.3255 751.924 50.7474 752.086 51.2422C752.247 51.737 752.359 52.2969 752.422 52.9219V53.6406C752.365 54.2604 752.253 54.8177 752.086 55.3125C751.924 55.8073 751.703 56.2292 751.422 56.5781C751.146 56.9271 750.807 57.1953 750.406 57.3828C750.005 57.5651 749.536 57.6562 749 57.6562C748.495 57.6562 748.036 57.5495 747.625 57.3359C747.219 57.1224 746.87 56.8229 746.578 56.4375C746.286 56.0521 746.062 55.599 745.906 55.0781C745.755 54.5521 745.68 53.9818 745.68 53.3672ZM747.125 53.2031V53.3672C747.125 53.7891 747.167 54.1849 747.25 54.5547C747.339 54.9245 747.471 55.25 747.648 55.5312C747.831 55.8125 748.062 56.0339 748.344 56.1953C748.625 56.3516 748.961 56.4297 749.352 56.4297C749.831 56.4297 750.227 56.3281 750.539 56.125C750.852 55.9219 751.099 55.6536 751.281 55.3203C751.469 54.987 751.615 54.625 751.719 54.2344V52.3516C751.661 52.0651 751.573 51.7891 751.453 51.5234C751.339 51.2526 751.188 51.013 751 50.8047C750.818 50.5911 750.591 50.4219 750.32 50.2969C750.049 50.1719 749.732 50.1094 749.367 50.1094C748.971 50.1094 748.63 50.1927 748.344 50.3594C748.062 50.5208 747.831 50.7448 747.648 51.0312C747.471 51.3125 747.339 51.6406 747.25 52.0156C747.167 52.3854 747.125 52.7812 747.125 53.2031Z" fill="#8A8A8E"/>
<rect x="598.5" y="32.5" width="167" height="39" rx="3.5" stroke="#D1D1D6"/>
<rect x="774.5" y="32.5" width="187" height="39" rx="3.5" fill="white"/>
<circle cx="792" cy="52" r="5.5" fill="white" stroke="#8A8A8E"/>
<circle cx="792" cy="52" r="3.5" fill="#8A8A8E" stroke="#8A8A8E"/>
<path d="M813.531 47.1328L809.766 57.5H808.227L812.562 46.125H813.555L813.531 47.1328ZM816.688 57.5L812.914 47.1328L812.891 46.125H813.883L818.234 57.5H816.688ZM816.492 53.2891V54.5234H810.102V53.2891H816.492ZM820.984 50.8516V57.5H819.539V49.0469H820.906L820.984 50.8516ZM820.641 52.9531L820.039 52.9297C820.044 52.3516 820.13 51.8177 820.297 51.3281C820.464 50.8333 820.698 50.4036 821 50.0391C821.302 49.6745 821.661 49.3932 822.078 49.1953C822.5 48.9922 822.966 48.8906 823.477 48.8906C823.893 48.8906 824.268 48.9479 824.602 49.0625C824.935 49.1719 825.219 49.349 825.453 49.5938C825.693 49.8385 825.875 50.1562 826 50.5469C826.125 50.9323 826.188 51.4036 826.188 51.9609V57.5H824.734V51.9453C824.734 51.5026 824.669 51.1484 824.539 50.8828C824.409 50.612 824.219 50.4167 823.969 50.2969C823.719 50.1719 823.411 50.1094 823.047 50.1094C822.688 50.1094 822.359 50.1849 822.062 50.3359C821.771 50.487 821.518 50.6953 821.305 50.9609C821.096 51.2266 820.932 51.5312 820.812 51.875C820.698 52.2135 820.641 52.5729 820.641 52.9531ZM833.367 56.0547V51.7031C833.367 51.3698 833.299 51.0807 833.164 50.8359C833.034 50.5859 832.836 50.3932 832.57 50.2578C832.305 50.1224 831.977 50.0547 831.586 50.0547C831.221 50.0547 830.901 50.1172 830.625 50.2422C830.354 50.3672 830.141 50.5312 829.984 50.7344C829.833 50.9375 829.758 51.1562 829.758 51.3906H828.312C828.312 51.0885 828.391 50.7891 828.547 50.4922C828.703 50.1953 828.927 49.9271 829.219 49.6875C829.516 49.4427 829.87 49.25 830.281 49.1094C830.698 48.9635 831.161 48.8906 831.672 48.8906C832.286 48.8906 832.828 48.9948 833.297 49.2031C833.771 49.4115 834.141 49.7266 834.406 50.1484C834.677 50.5651 834.812 51.0885 834.812 51.7188V55.6562C834.812 55.9375 834.836 56.237 834.883 56.5547C834.935 56.8724 835.01 57.1458 835.109 57.375V57.5H833.602C833.529 57.3333 833.471 57.112 833.43 56.8359C833.388 56.5547 833.367 56.2943 833.367 56.0547ZM833.617 52.375L833.633 53.3906H832.172C831.76 53.3906 831.393 53.4245 831.07 53.4922C830.747 53.5547 830.477 53.651 830.258 53.7812C830.039 53.9115 829.872 54.0755 829.758 54.2734C829.643 54.4661 829.586 54.6927 829.586 54.9531C829.586 55.2188 829.646 55.4609 829.766 55.6797C829.885 55.8984 830.065 56.0729 830.305 56.2031C830.549 56.3281 830.849 56.3906 831.203 56.3906C831.646 56.3906 832.036 56.2969 832.375 56.1094C832.714 55.9219 832.982 55.6927 833.18 55.4219C833.383 55.151 833.492 54.888 833.508 54.6328L834.125 55.3281C834.089 55.5469 833.99 55.7891 833.828 56.0547C833.667 56.3203 833.451 56.5755 833.18 56.8203C832.914 57.0599 832.596 57.2604 832.227 57.4219C831.862 57.5781 831.451 57.6562 830.992 57.6562C830.419 57.6562 829.917 57.5443 829.484 57.3203C829.057 57.0964 828.724 56.7969 828.484 56.4219C828.25 56.0417 828.133 55.6172 828.133 55.1484C828.133 54.6953 828.221 54.2969 828.398 53.9531C828.576 53.6042 828.831 53.3151 829.164 53.0859C829.497 52.8516 829.898 52.6745 830.367 52.5547C830.836 52.4349 831.359 52.375 831.938 52.375H833.617ZM838.656 45.5V57.5H837.203V45.5H838.656ZM843.352 56.625L845.703 49.0469H847.25L843.859 58.8047C843.781 59.013 843.677 59.237 843.547 59.4766C843.422 59.7214 843.26 59.9531 843.062 60.1719C842.865 60.3906 842.625 60.5677 842.344 60.7031C842.068 60.8438 841.737 60.9141 841.352 60.9141C841.237 60.9141 841.091 60.8984 840.914 60.8672C840.737 60.8359 840.612 60.8099 840.539 60.7891L840.531 59.6172C840.573 59.6224 840.638 59.6276 840.727 59.6328C840.82 59.6432 840.885 59.6484 840.922 59.6484C841.25 59.6484 841.529 59.6042 841.758 59.5156C841.987 59.4323 842.18 59.2891 842.336 59.0859C842.497 58.888 842.635 58.6146 842.75 58.2656L843.352 56.625ZM841.625 49.0469L843.82 55.6094L844.195 57.1328L843.156 57.6641L840.047 49.0469H841.625ZM853.477 55.2578C853.477 55.0495 853.43 54.8568 853.336 54.6797C853.247 54.4974 853.062 54.3333 852.781 54.1875C852.505 54.0365 852.089 53.9062 851.531 53.7969C851.062 53.6979 850.638 53.5807 850.258 53.4453C849.883 53.3099 849.562 53.1458 849.297 52.9531C849.036 52.7604 848.836 52.5339 848.695 52.2734C848.555 52.013 848.484 51.7083 848.484 51.3594C848.484 51.026 848.557 50.7109 848.703 50.4141C848.854 50.1172 849.065 49.8542 849.336 49.625C849.612 49.3958 849.943 49.2161 850.328 49.0859C850.714 48.9557 851.143 48.8906 851.617 48.8906C852.294 48.8906 852.872 49.0104 853.352 49.25C853.831 49.4896 854.198 49.8099 854.453 50.2109C854.708 50.6068 854.836 51.0469 854.836 51.5312H853.391C853.391 51.2969 853.32 51.0703 853.18 50.8516C853.044 50.6276 852.844 50.4427 852.578 50.2969C852.318 50.151 851.997 50.0781 851.617 50.0781C851.216 50.0781 850.891 50.1406 850.641 50.2656C850.396 50.3854 850.216 50.5391 850.102 50.7266C849.992 50.9141 849.938 51.112 849.938 51.3203C849.938 51.4766 849.964 51.6172 850.016 51.7422C850.073 51.862 850.172 51.974 850.312 52.0781C850.453 52.1771 850.651 52.2708 850.906 52.3594C851.161 52.4479 851.487 52.5365 851.883 52.625C852.576 52.7812 853.146 52.9688 853.594 53.1875C854.042 53.4062 854.375 53.6745 854.594 53.9922C854.812 54.3099 854.922 54.6953 854.922 55.1484C854.922 55.5182 854.844 55.8568 854.688 56.1641C854.536 56.4714 854.315 56.737 854.023 56.9609C853.737 57.1797 853.393 57.3516 852.992 57.4766C852.596 57.5964 852.151 57.6562 851.656 57.6562C850.911 57.6562 850.281 57.5234 849.766 57.2578C849.25 56.9922 848.859 56.6484 848.594 56.2266C848.328 55.8047 848.195 55.3594 848.195 54.8906H849.648C849.669 55.2865 849.784 55.6016 849.992 55.8359C850.201 56.0651 850.456 56.2292 850.758 56.3281C851.06 56.4219 851.359 56.4688 851.656 56.4688C852.052 56.4688 852.383 56.4167 852.648 56.3125C852.919 56.2083 853.125 56.0651 853.266 55.8828C853.406 55.7005 853.477 55.4922 853.477 55.2578ZM858.391 49.0469V57.5H856.938V49.0469H858.391ZM856.828 46.8047C856.828 46.5703 856.898 46.3724 857.039 46.2109C857.185 46.0495 857.398 45.9688 857.68 45.9688C857.956 45.9688 858.167 46.0495 858.312 46.2109C858.464 46.3724 858.539 46.5703 858.539 46.8047C858.539 47.0286 858.464 47.2214 858.312 47.3828C858.167 47.5391 857.956 47.6172 857.68 47.6172C857.398 47.6172 857.185 47.5391 857.039 47.3828C856.898 47.2214 856.828 47.0286 856.828 46.8047ZM865.633 55.2578C865.633 55.0495 865.586 54.8568 865.492 54.6797C865.404 54.4974 865.219 54.3333 864.938 54.1875C864.661 54.0365 864.245 53.9062 863.688 53.7969C863.219 53.6979 862.794 53.5807 862.414 53.4453C862.039 53.3099 861.719 53.1458 861.453 52.9531C861.193 52.7604 860.992 52.5339 860.852 52.2734C860.711 52.013 860.641 51.7083 860.641 51.3594C860.641 51.026 860.714 50.7109 860.859 50.4141C861.01 50.1172 861.221 49.8542 861.492 49.625C861.768 49.3958 862.099 49.2161 862.484 49.0859C862.87 48.9557 863.299 48.8906 863.773 48.8906C864.451 48.8906 865.029 49.0104 865.508 49.25C865.987 49.4896 866.354 49.8099 866.609 50.2109C866.865 50.6068 866.992 51.0469 866.992 51.5312H865.547C865.547 51.2969 865.477 51.0703 865.336 50.8516C865.201 50.6276 865 50.4427 864.734 50.2969C864.474 50.151 864.154 50.0781 863.773 50.0781C863.372 50.0781 863.047 50.1406 862.797 50.2656C862.552 50.3854 862.372 50.5391 862.258 50.7266C862.148 50.9141 862.094 51.112 862.094 51.3203C862.094 51.4766 862.12 51.6172 862.172 51.7422C862.229 51.862 862.328 51.974 862.469 52.0781C862.609 52.1771 862.807 52.2708 863.062 52.3594C863.318 52.4479 863.643 52.5365 864.039 52.625C864.732 52.7812 865.302 52.9688 865.75 53.1875C866.198 53.4062 866.531 53.6745 866.75 53.9922C866.969 54.3099 867.078 54.6953 867.078 55.1484C867.078 55.5182 867 55.8568 866.844 56.1641C866.693 56.4714 866.471 56.737 866.18 56.9609C865.893 57.1797 865.549 57.3516 865.148 57.4766C864.753 57.5964 864.307 57.6562 863.812 57.6562C863.068 57.6562 862.438 57.5234 861.922 57.2578C861.406 56.9922 861.016 56.6484 860.75 56.2266C860.484 55.8047 860.352 55.3594 860.352 54.8906H861.805C861.826 55.2865 861.94 55.6016 862.148 55.8359C862.357 56.0651 862.612 56.2292 862.914 56.3281C863.216 56.4219 863.516 56.4688 863.812 56.4688C864.208 56.4688 864.539 56.4167 864.805 56.3125C865.076 56.2083 865.281 56.0651 865.422 55.8828C865.562 55.7005 865.633 55.4922 865.633 55.2578ZM880.031 53.8828H881.531C881.453 54.6016 881.247 55.2448 880.914 55.8125C880.581 56.3802 880.109 56.8307 879.5 57.1641C878.891 57.4922 878.13 57.6562 877.219 57.6562C876.552 57.6562 875.945 57.5312 875.398 57.2812C874.857 57.0312 874.391 56.6771 874 56.2188C873.609 55.7552 873.307 55.2005 873.094 54.5547C872.885 53.9036 872.781 53.1797 872.781 52.3828V51.25C872.781 50.4531 872.885 49.7318 873.094 49.0859C873.307 48.4349 873.612 47.8776 874.008 47.4141C874.409 46.9505 874.891 46.5938 875.453 46.3438C876.016 46.0938 876.648 45.9688 877.352 45.9688C878.211 45.9688 878.938 46.1302 879.531 46.4531C880.125 46.776 880.586 47.224 880.914 47.7969C881.247 48.3646 881.453 49.0234 881.531 49.7734H880.031C879.958 49.2422 879.823 48.7865 879.625 48.4062C879.427 48.0208 879.146 47.724 878.781 47.5156C878.417 47.3073 877.94 47.2031 877.352 47.2031C876.846 47.2031 876.401 47.2995 876.016 47.4922C875.635 47.6849 875.315 47.9583 875.055 48.3125C874.799 48.6667 874.607 49.0911 874.477 49.5859C874.346 50.0807 874.281 50.6302 874.281 51.2344V52.3828C874.281 52.9401 874.339 53.4635 874.453 53.9531C874.573 54.4427 874.753 54.8724 874.992 55.2422C875.232 55.612 875.536 55.9036 875.906 56.1172C876.276 56.3255 876.714 56.4297 877.219 56.4297C877.859 56.4297 878.37 56.3281 878.75 56.125C879.13 55.9219 879.417 55.6302 879.609 55.25C879.807 54.8698 879.948 54.4141 880.031 53.8828ZM882.984 53.3672V53.1875C882.984 52.5781 883.073 52.013 883.25 51.4922C883.427 50.9661 883.682 50.5104 884.016 50.125C884.349 49.7344 884.753 49.4323 885.227 49.2188C885.701 49 886.232 48.8906 886.82 48.8906C887.414 48.8906 887.948 49 888.422 49.2188C888.901 49.4323 889.307 49.7344 889.641 50.125C889.979 50.5104 890.237 50.9661 890.414 51.4922C890.591 52.013 890.68 52.5781 890.68 53.1875V53.3672C890.68 53.9766 890.591 54.5417 890.414 55.0625C890.237 55.5833 889.979 56.0391 889.641 56.4297C889.307 56.8151 888.904 57.1172 888.43 57.3359C887.961 57.5495 887.43 57.6562 886.836 57.6562C886.242 57.6562 885.708 57.5495 885.234 57.3359C884.76 57.1172 884.354 56.8151 884.016 56.4297C883.682 56.0391 883.427 55.5833 883.25 55.0625C883.073 54.5417 882.984 53.9766 882.984 53.3672ZM884.43 53.1875V53.3672C884.43 53.7891 884.479 54.1875 884.578 54.5625C884.677 54.9323 884.826 55.2604 885.023 55.5469C885.227 55.8333 885.479 56.0599 885.781 56.2266C886.083 56.388 886.435 56.4688 886.836 56.4688C887.232 56.4688 887.578 56.388 887.875 56.2266C888.177 56.0599 888.427 55.8333 888.625 55.5469C888.823 55.2604 888.971 54.9323 889.07 54.5625C889.174 54.1875 889.227 53.7891 889.227 53.3672V53.1875C889.227 52.7708 889.174 52.3776 889.07 52.0078C888.971 51.6328 888.82 51.3021 888.617 51.0156C888.419 50.724 888.169 50.4948 887.867 50.3281C887.57 50.1615 887.221 50.0781 886.82 50.0781C886.424 50.0781 886.076 50.1615 885.773 50.3281C885.477 50.4948 885.227 50.724 885.023 51.0156C884.826 51.3021 884.677 51.6328 884.578 52.0078C884.479 52.3776 884.43 52.7708 884.43 53.1875ZM893.93 50.7266V57.5H892.477V49.0469H893.852L893.93 50.7266ZM893.633 52.9531L892.961 52.9297C892.966 52.3516 893.042 51.8177 893.188 51.3281C893.333 50.8333 893.549 50.4036 893.836 50.0391C894.122 49.6745 894.479 49.3932 894.906 49.1953C895.333 48.9922 895.828 48.8906 896.391 48.8906C896.786 48.8906 897.151 48.9479 897.484 49.0625C897.818 49.1719 898.107 49.3464 898.352 49.5859C898.596 49.8255 898.786 50.1328 898.922 50.5078C899.057 50.8828 899.125 51.3359 899.125 51.8672V57.5H897.68V51.9375C897.68 51.4948 897.604 51.1406 897.453 50.875C897.307 50.6094 897.099 50.4167 896.828 50.2969C896.557 50.1719 896.24 50.1094 895.875 50.1094C895.448 50.1094 895.091 50.1849 894.805 50.3359C894.518 50.487 894.289 50.6953 894.117 50.9609C893.945 51.2266 893.82 51.5312 893.742 51.875C893.669 52.2135 893.633 52.5729 893.633 52.9531ZM899.109 52.1562L898.141 52.4531C898.146 51.9896 898.221 51.5443 898.367 51.1172C898.518 50.6901 898.734 50.3099 899.016 49.9766C899.302 49.6432 899.654 49.3802 900.07 49.1875C900.487 48.9896 900.964 48.8906 901.5 48.8906C901.953 48.8906 902.354 48.9505 902.703 49.0703C903.057 49.1901 903.354 49.375 903.594 49.625C903.839 49.8698 904.023 50.1849 904.148 50.5703C904.273 50.9557 904.336 51.4141 904.336 51.9453V57.5H902.883V51.9297C902.883 51.4557 902.807 51.0885 902.656 50.8281C902.51 50.5625 902.302 50.3776 902.031 50.2734C901.766 50.1641 901.448 50.1094 901.078 50.1094C900.76 50.1094 900.479 50.1641 900.234 50.2734C899.99 50.3828 899.784 50.5339 899.617 50.7266C899.451 50.9141 899.323 51.1302 899.234 51.375C899.151 51.6198 899.109 51.8802 899.109 52.1562ZM907.969 50.6719V60.75H906.516V49.0469H907.844L907.969 50.6719ZM913.664 53.2031V53.3672C913.664 53.9818 913.591 54.5521 913.445 55.0781C913.299 55.599 913.086 56.0521 912.805 56.4375C912.529 56.8229 912.188 57.1224 911.781 57.3359C911.375 57.5495 910.909 57.6562 910.383 57.6562C909.846 57.6562 909.372 57.5677 908.961 57.3906C908.549 57.2135 908.201 56.9557 907.914 56.6172C907.628 56.2786 907.398 55.8724 907.227 55.3984C907.06 54.9245 906.945 54.3906 906.883 53.7969V52.9219C906.945 52.2969 907.062 51.737 907.234 51.2422C907.406 50.7474 907.633 50.3255 907.914 49.9766C908.201 49.6224 908.547 49.3542 908.953 49.1719C909.359 48.9844 909.828 48.8906 910.359 48.8906C910.891 48.8906 911.362 48.9948 911.773 49.2031C912.185 49.4062 912.531 49.6979 912.812 50.0781C913.094 50.4583 913.305 50.9141 913.445 51.4453C913.591 51.9714 913.664 52.5573 913.664 53.2031ZM912.211 53.3672V53.2031C912.211 52.7812 912.167 52.3854 912.078 52.0156C911.99 51.6406 911.852 51.3125 911.664 51.0312C911.482 50.7448 911.247 50.5208 910.961 50.3594C910.674 50.1927 910.333 50.1094 909.938 50.1094C909.573 50.1094 909.255 50.1719 908.984 50.2969C908.719 50.4219 908.492 50.5911 908.305 50.8047C908.117 51.013 907.964 51.2526 907.844 51.5234C907.729 51.7891 907.643 52.0651 907.586 52.3516V54.375C907.69 54.7396 907.836 55.0833 908.023 55.4062C908.211 55.724 908.461 55.9818 908.773 56.1797C909.086 56.3724 909.479 56.4688 909.953 56.4688C910.344 56.4688 910.68 56.388 910.961 56.2266C911.247 56.0599 911.482 55.8333 911.664 55.5469C911.852 55.2604 911.99 54.9323 912.078 54.5625C912.167 54.1875 912.211 53.7891 912.211 53.3672ZM917.078 45.5V57.5H915.625V45.5H917.078ZM922.906 57.6562C922.318 57.6562 921.784 57.5573 921.305 57.3594C920.831 57.1562 920.422 56.8724 920.078 56.5078C919.74 56.1432 919.479 55.7109 919.297 55.2109C919.115 54.7109 919.023 54.1641 919.023 53.5703V53.2422C919.023 52.5547 919.125 51.9427 919.328 51.4062C919.531 50.8646 919.807 50.4062 920.156 50.0312C920.505 49.6562 920.901 49.3724 921.344 49.1797C921.786 48.987 922.245 48.8906 922.719 48.8906C923.323 48.8906 923.844 48.9948 924.281 49.2031C924.724 49.4115 925.086 49.7031 925.367 50.0781C925.648 50.4479 925.857 50.8854 925.992 51.3906C926.128 51.8906 926.195 52.4375 926.195 53.0312V53.6797H919.883V52.5H924.75V52.3906C924.729 52.0156 924.651 51.651 924.516 51.2969C924.385 50.9427 924.177 50.651 923.891 50.4219C923.604 50.1927 923.214 50.0781 922.719 50.0781C922.391 50.0781 922.089 50.1484 921.812 50.2891C921.536 50.4245 921.299 50.6276 921.102 50.8984C920.904 51.1693 920.75 51.5 920.641 51.8906C920.531 52.2812 920.477 52.7318 920.477 53.2422V53.5703C920.477 53.9714 920.531 54.349 920.641 54.7031C920.755 55.0521 920.919 55.3594 921.133 55.625C921.352 55.8906 921.615 56.099 921.922 56.25C922.234 56.401 922.589 56.4766 922.984 56.4766C923.495 56.4766 923.927 56.3724 924.281 56.1641C924.635 55.9557 924.945 55.6771 925.211 55.3281L926.086 56.0234C925.904 56.2995 925.672 56.5625 925.391 56.8125C925.109 57.0625 924.763 57.2656 924.352 57.4219C923.945 57.5781 923.464 57.6562 922.906 57.6562ZM931.422 49.0469V50.1562H926.852V49.0469H931.422ZM928.398 46.9922H929.844V55.4062C929.844 55.6927 929.888 55.9089 929.977 56.0547C930.065 56.2005 930.18 56.2969 930.32 56.3438C930.461 56.3906 930.612 56.4141 930.773 56.4141C930.893 56.4141 931.018 56.4036 931.148 56.3828C931.284 56.3568 931.385 56.3359 931.453 56.3203L931.461 57.5C931.346 57.5365 931.195 57.5703 931.008 57.6016C930.826 57.638 930.604 57.6562 930.344 57.6562C929.99 57.6562 929.664 57.5859 929.367 57.4453C929.07 57.3047 928.833 57.0703 928.656 56.7422C928.484 56.4089 928.398 55.9609 928.398 55.3984V46.9922ZM936.625 57.6562C936.036 57.6562 935.503 57.5573 935.023 57.3594C934.549 57.1562 934.141 56.8724 933.797 56.5078C933.458 56.1432 933.198 55.7109 933.016 55.2109C932.833 54.7109 932.742 54.1641 932.742 53.5703V53.2422C932.742 52.5547 932.844 51.9427 933.047 51.4062C933.25 50.8646 933.526 50.4062 933.875 50.0312C934.224 49.6562 934.62 49.3724 935.062 49.1797C935.505 48.987 935.964 48.8906 936.438 48.8906C937.042 48.8906 937.562 48.9948 938 49.2031C938.443 49.4115 938.805 49.7031 939.086 50.0781C939.367 50.4479 939.576 50.8854 939.711 51.3906C939.846 51.8906 939.914 52.4375 939.914 53.0312V53.6797H933.602V52.5H938.469V52.3906C938.448 52.0156 938.37 51.651 938.234 51.2969C938.104 50.9427 937.896 50.651 937.609 50.4219C937.323 50.1927 936.932 50.0781 936.438 50.0781C936.109 50.0781 935.807 50.1484 935.531 50.2891C935.255 50.4245 935.018 50.6276 934.82 50.8984C934.622 51.1693 934.469 51.5 934.359 51.8906C934.25 52.2812 934.195 52.7318 934.195 53.2422V53.5703C934.195 53.9714 934.25 54.349 934.359 54.7031C934.474 55.0521 934.638 55.3594 934.852 55.625C935.07 55.8906 935.333 56.099 935.641 56.25C935.953 56.401 936.307 56.4766 936.703 56.4766C937.214 56.4766 937.646 56.3724 938 56.1641C938.354 55.9557 938.664 55.6771 938.93 55.3281L939.805 56.0234C939.622 56.2995 939.391 56.5625 939.109 56.8125C938.828 57.0625 938.482 57.2656 938.07 57.4219C937.664 57.5781 937.182 57.6562 936.625 57.6562ZM946.93 55.8594V45.5H948.383V57.5H947.055L946.93 55.8594ZM941.242 53.3672V53.2031C941.242 52.5573 941.32 51.9714 941.477 51.4453C941.638 50.9141 941.865 50.4583 942.156 50.0781C942.453 49.6979 942.805 49.4062 943.211 49.2031C943.622 48.9948 944.081 48.8906 944.586 48.8906C945.117 48.8906 945.581 48.9844 945.977 49.1719C946.378 49.3542 946.716 49.6224 946.992 49.9766C947.273 50.3255 947.495 50.7474 947.656 51.2422C947.818 51.737 947.93 52.2969 947.992 52.9219V53.6406C947.935 54.2604 947.823 54.8177 947.656 55.3125C947.495 55.8073 947.273 56.2292 946.992 56.5781C946.716 56.9271 946.378 57.1953 945.977 57.3828C945.576 57.5651 945.107 57.6562 944.57 57.6562C944.076 57.6562 943.622 57.5495 943.211 57.3359C942.805 57.1224 942.453 56.8229 942.156 56.4375C941.865 56.0521 941.638 55.599 941.477 55.0781C941.32 54.5521 941.242 53.9818 941.242 53.3672ZM942.695 53.2031V53.3672C942.695 53.7891 942.737 54.1849 942.82 54.5547C942.909 54.9245 943.044 55.25 943.227 55.5312C943.409 55.8125 943.641 56.0339 943.922 56.1953C944.203 56.3516 944.539 56.4297 944.93 56.4297C945.409 56.4297 945.802 56.3281 946.109 56.125C946.422 55.9219 946.672 55.6536 946.859 55.3203C947.047 54.987 947.193 54.625 947.297 54.2344V52.3516C947.234 52.0651 947.143 51.7891 947.023 51.5234C946.909 51.2526 946.758 51.013 946.57 50.8047C946.388 50.5911 946.161 50.4219 945.891 50.2969C945.625 50.1719 945.31 50.1094 944.945 50.1094C944.549 50.1094 944.208 50.1927 943.922 50.3594C943.641 50.5208 943.409 50.7448 943.227 51.0312C943.044 51.3125 942.909 51.6406 942.82 52.0156C942.737 52.3854 942.695 52.7812 942.695 53.2031Z" fill="#8A8A8E"/>
<rect x="774.5" y="32.5" width="187" height="39" rx="3.5" stroke="#D1D1D6"/>
<path d="M0 1H1430V-1H0V1Z" fill="#C5C5C8" mask="url(#path-1-inside-1_1172_92569)"/>
<defs>
<clipPath id="clip0_1172_92569">
<rect width="24" height="24" fill="white" transform="translate(136 40)"/>
</clipPath>
<clipPath id="clip1_1172_92569">
<rect width="24" height="24" fill="white" transform="translate(184 40)"/>
</clipPath>
</defs>
</svg>
