<svg width="1390" height="40" viewBox="0 0 1390 40" fill="none" xmlns="http://www.w3.org/2000/svg">
<path d="M1.72159 28.5V11.0455H8.26705C9.60795 11.0455 10.733 11.2955 11.642 11.7955C12.5568 12.2955 13.2472 12.983 13.7131 13.858C14.1847 14.7273 14.4205 15.7159 14.4205 16.8239C14.4205 17.9432 14.1847 18.9375 13.7131 19.8068C13.2415 20.6761 12.5455 21.3608 11.625 21.8608C10.7045 22.3551 9.57102 22.6023 8.22443 22.6023H3.88636V20.0028H7.7983C8.58239 20.0028 9.22443 19.8665 9.72443 19.5938C10.2244 19.321 10.5938 18.946 10.8324 18.4688C11.0767 17.9915 11.1989 17.4432 11.1989 16.8239C11.1989 16.2045 11.0767 15.6591 10.8324 15.1875C10.5938 14.7159 10.2216 14.3494 9.71591 14.0881C9.21591 13.821 8.57102 13.6875 7.78125 13.6875H4.88352V28.5H1.72159ZM20.1158 11.0455V28.5H17.0305V11.0455H20.1158ZM27.0554 28.7642C26.2259 28.7642 25.4787 28.6165 24.8139 28.321C24.1548 28.0199 23.6321 27.5767 23.2457 26.9915C22.8651 26.4062 22.6747 25.6847 22.6747 24.8267C22.6747 24.0881 22.8111 23.4773 23.0838 22.9943C23.3565 22.5114 23.7287 22.125 24.2003 21.8352C24.6719 21.5455 25.2031 21.3267 25.794 21.179C26.3906 21.0256 27.0071 20.9148 27.6435 20.8466C28.4105 20.767 29.0327 20.696 29.5099 20.6335C29.9872 20.5653 30.3338 20.4631 30.5497 20.3267C30.7713 20.1847 30.8821 19.9659 30.8821 19.6705V19.6193C30.8821 18.9773 30.6918 18.4801 30.3111 18.1278C29.9304 17.7756 29.3821 17.5994 28.6662 17.5994C27.9105 17.5994 27.3111 17.7642 26.8679 18.0938C26.4304 18.4233 26.1349 18.8125 25.9815 19.2614L23.1009 18.8523C23.3281 18.0568 23.7031 17.392 24.2259 16.858C24.7486 16.3182 25.3878 15.9148 26.1435 15.6477C26.8991 15.375 27.7344 15.2386 28.6491 15.2386C29.2798 15.2386 29.9077 15.3125 30.5327 15.4602C31.1577 15.608 31.7287 15.8523 32.2457 16.1932C32.7628 16.5284 33.1776 16.9858 33.4901 17.5653C33.8082 18.1449 33.9673 18.8693 33.9673 19.7386V28.5H31.0014V26.7017H30.8991C30.7116 27.0653 30.4474 27.4062 30.1065 27.7244C29.7713 28.0369 29.348 28.2898 28.8366 28.483C28.331 28.6705 27.7372 28.7642 27.0554 28.7642ZM27.8565 26.4972C28.4759 26.4972 29.0128 26.375 29.4673 26.1307C29.9219 25.8807 30.2713 25.5511 30.5156 25.142C30.7656 24.733 30.8906 24.2869 30.8906 23.804V22.2614C30.794 22.3409 30.6293 22.4148 30.3963 22.483C30.169 22.5511 29.9134 22.6108 29.6293 22.6619C29.3452 22.7131 29.0639 22.7585 28.7855 22.7983C28.5071 22.8381 28.2656 22.8722 28.0611 22.9006C27.6009 22.9631 27.1889 23.0653 26.8253 23.2074C26.4616 23.3494 26.1747 23.5483 25.9645 23.804C25.7543 24.054 25.6491 24.3778 25.6491 24.7756C25.6491 25.3438 25.8565 25.7727 26.2713 26.0625C26.6861 26.3523 27.2145 26.4972 27.8565 26.4972ZM43.6065 15.4091V17.7955H36.081V15.4091H43.6065ZM37.9389 12.2727H41.0241V24.5625C41.0241 24.9773 41.0866 25.2955 41.2116 25.517C41.3423 25.733 41.5128 25.8807 41.723 25.9602C41.9332 26.0398 42.1662 26.0795 42.4219 26.0795C42.6151 26.0795 42.7912 26.0653 42.9503 26.0369C43.1151 26.0085 43.2401 25.983 43.3253 25.9602L43.8452 28.3722C43.6804 28.429 43.4446 28.4915 43.1378 28.5597C42.8366 28.6278 42.4673 28.6676 42.0298 28.679C41.2571 28.7017 40.5611 28.5852 39.9418 28.3295C39.3224 28.0682 38.831 27.6648 38.4673 27.1193C38.1094 26.5739 37.9332 25.892 37.9389 25.0739V12.2727ZM51.8416 28.7557C50.5291 28.7557 49.3956 28.483 48.4411 27.9375C47.4922 27.3864 46.7621 26.608 46.2507 25.6023C45.7393 24.5909 45.4837 23.4006 45.4837 22.0312C45.4837 20.6847 45.7393 19.5028 46.2507 18.4858C46.7678 17.4631 47.4893 16.6676 48.4155 16.0994C49.3416 15.5256 50.4297 15.2386 51.6797 15.2386C52.4865 15.2386 53.2479 15.3693 53.9638 15.6307C54.6854 15.8864 55.3217 16.2841 55.8729 16.8239C56.4297 17.3636 56.8672 18.0511 57.1854 18.8864C57.5036 19.7159 57.6626 20.7045 57.6626 21.8523V22.7983H46.9325V20.7188H54.7053C54.6996 20.1278 54.5717 19.6023 54.3217 19.142C54.0717 18.6761 53.7223 18.3097 53.2734 18.0426C52.8303 17.7756 52.3132 17.642 51.7223 17.642C51.0916 17.642 50.5376 17.7955 50.0604 18.1023C49.5831 18.4034 49.2109 18.8011 48.9439 19.2955C48.6825 19.7841 48.549 20.321 48.5433 20.9062V22.7216C48.5433 23.483 48.6825 24.1364 48.9609 24.6818C49.2393 25.2216 49.6286 25.6364 50.1286 25.9261C50.6286 26.2102 51.2138 26.3523 51.8842 26.3523C52.3331 26.3523 52.7393 26.2898 53.103 26.1648C53.4666 26.0341 53.782 25.8438 54.049 25.5938C54.3161 25.3438 54.5178 25.0341 54.6541 24.6648L57.5348 24.9886C57.353 25.75 57.0064 26.4148 56.495 26.983C55.9893 27.5455 55.3416 27.983 54.5518 28.2955C53.7621 28.6023 52.8587 28.7557 51.8416 28.7557ZM70.6193 18.8693L67.8068 19.1761C67.7273 18.892 67.5881 18.625 67.3892 18.375C67.196 18.125 66.9347 17.9233 66.6051 17.7699C66.2756 17.6165 65.8722 17.5398 65.3949 17.5398C64.7528 17.5398 64.2131 17.679 63.7756 17.9574C63.3438 18.2358 63.1307 18.5966 63.1364 19.0398C63.1307 19.4205 63.2699 19.7301 63.554 19.9688C63.8438 20.2074 64.321 20.4034 64.9858 20.5568L67.2188 21.0341C68.4574 21.3011 69.3778 21.7244 69.9801 22.304C70.5881 22.8835 70.8949 23.642 70.9006 24.5795C70.8949 25.4034 70.6534 26.1307 70.1761 26.7614C69.7045 27.3864 69.0483 27.875 68.2074 28.2273C67.3665 28.5795 66.4006 28.7557 65.3097 28.7557C63.7074 28.7557 62.4176 28.4205 61.4403 27.75C60.4631 27.0739 59.8807 26.1335 59.6932 24.929L62.7017 24.6392C62.8381 25.2301 63.1278 25.6761 63.571 25.9773C64.0142 26.2784 64.5909 26.429 65.3011 26.429C66.0341 26.429 66.6222 26.2784 67.0653 25.9773C67.5142 25.6761 67.7386 25.304 67.7386 24.8608C67.7386 24.4858 67.5938 24.1761 67.304 23.9318C67.0199 23.6875 66.5767 23.5 65.9744 23.3693L63.7415 22.9006C62.4858 22.6392 61.5568 22.1989 60.9545 21.5795C60.3523 20.9545 60.054 20.1648 60.0597 19.2102C60.054 18.4034 60.2727 17.7045 60.7159 17.1136C61.1648 16.517 61.7869 16.0568 62.5824 15.733C63.3835 15.4034 64.3068 15.2386 65.3523 15.2386C66.8864 15.2386 68.0938 15.5653 68.9744 16.2188C69.8608 16.8722 70.4091 17.7557 70.6193 18.8693Z" fill="black"/>
<rect x="104" width="48" height="40" rx="4" fill="#E4E4E6"/>
<g clip-path="url(#clip0_1198_54688)">
<path d="M119 11V19H127V11H119ZM125 17H121V13H125V17ZM119 21V29H127V21H119ZM125 27H121V23H125V27ZM129 11V19H137V11H129ZM135 17H131V13H135V17ZM129 21V29H137V21H129ZM135 27H131V23H135V27Z" fill="black"/>
</g>
<g clip-path="url(#clip1_1198_54688)">
<path d="M167 21H169V19H167V21ZM167 25H169V23H167V25ZM167 17H169V15H167V17ZM171 21H185V19H171V21ZM171 25H185V23H171V25ZM171 15V17H185V15H171ZM167 21H169V19H167V21ZM167 25H169V23H167V25ZM167 17H169V15H167V17ZM171 21H185V19H171V21ZM171 25H185V23H171V25ZM171 15V17H185V15H171Z" fill="#8E8E93"/>
</g>
<line x1="213" y1="4" x2="213" y2="36" stroke="#C6C6C8" stroke-width="2"/>
<rect x="232.5" y="0.5" width="168" height="39" rx="3.5" fill="white"/>
<circle cx="250" cy="20" r="5.5" fill="white" stroke="#8A8A8E"/>
<mask id="path-9-inside-1_1198_54688" fill="white">
<path d="M250 24C248.939 24 247.922 23.5786 247.172 22.8284C246.421 22.0783 246 21.0609 246 20C246 18.9391 246.421 17.9217 247.172 17.1716C247.922 16.4214 248.939 16 250 16L250 20V24Z"/>
</mask>
<path d="M250 24C248.939 24 247.922 23.5786 247.172 22.8284C246.421 22.0783 246 21.0609 246 20C246 18.9391 246.421 17.9217 247.172 17.1716C247.922 16.4214 248.939 16 250 16L250 20V24Z" fill="#8A8A8E" stroke="#8A8A8E" stroke-width="2" mask="url(#path-9-inside-1_1198_54688)"/>
<path d="M271.516 21.0391H268.477V19.8125H271.516C272.104 19.8125 272.581 19.7188 272.945 19.5312C273.31 19.3438 273.576 19.0833 273.742 18.75C273.914 18.4167 274 18.0365 274 17.6094C274 17.2188 273.914 16.8516 273.742 16.5078C273.576 16.1641 273.31 15.888 272.945 15.6797C272.581 15.4661 272.104 15.3594 271.516 15.3594H268.828V25.5H267.32V14.125H271.516C272.375 14.125 273.102 14.2734 273.695 14.5703C274.289 14.8672 274.74 15.2786 275.047 15.8047C275.354 16.3255 275.508 16.9219 275.508 17.5938C275.508 18.3229 275.354 18.9453 275.047 19.4609C274.74 19.9766 274.289 20.3698 273.695 20.6406C273.102 20.9062 272.375 21.0391 271.516 21.0391ZM278.766 17.0469V25.5H277.312V17.0469H278.766ZM277.203 14.8047C277.203 14.5703 277.273 14.3724 277.414 14.2109C277.56 14.0495 277.773 13.9688 278.055 13.9688C278.331 13.9688 278.542 14.0495 278.688 14.2109C278.839 14.3724 278.914 14.5703 278.914 14.8047C278.914 15.0286 278.839 15.2214 278.688 15.3828C278.542 15.5391 278.331 15.6172 278.055 15.6172C277.773 15.6172 277.56 15.5391 277.414 15.3828C277.273 15.2214 277.203 15.0286 277.203 14.8047ZM282.531 18.6719V28.75H281.078V17.0469H282.406L282.531 18.6719ZM288.227 21.2031V21.3672C288.227 21.9818 288.154 22.5521 288.008 23.0781C287.862 23.599 287.648 24.0521 287.367 24.4375C287.091 24.8229 286.75 25.1224 286.344 25.3359C285.938 25.5495 285.471 25.6562 284.945 25.6562C284.409 25.6562 283.935 25.5677 283.523 25.3906C283.112 25.2135 282.763 24.9557 282.477 24.6172C282.19 24.2786 281.961 23.8724 281.789 23.3984C281.622 22.9245 281.508 22.3906 281.445 21.7969V20.9219C281.508 20.2969 281.625 19.737 281.797 19.2422C281.969 18.7474 282.195 18.3255 282.477 17.9766C282.763 17.6224 283.109 17.3542 283.516 17.1719C283.922 16.9844 284.391 16.8906 284.922 16.8906C285.453 16.8906 285.924 16.9948 286.336 17.2031C286.747 17.4062 287.094 17.6979 287.375 18.0781C287.656 18.4583 287.867 18.9141 288.008 19.4453C288.154 19.9714 288.227 20.5573 288.227 21.2031ZM286.773 21.3672V21.2031C286.773 20.7812 286.729 20.3854 286.641 20.0156C286.552 19.6406 286.414 19.3125 286.227 19.0312C286.044 18.7448 285.81 18.5208 285.523 18.3594C285.237 18.1927 284.896 18.1094 284.5 18.1094C284.135 18.1094 283.818 18.1719 283.547 18.2969C283.281 18.4219 283.055 18.5911 282.867 18.8047C282.68 19.013 282.526 19.2526 282.406 19.5234C282.292 19.7891 282.206 20.0651 282.148 20.3516V22.375C282.253 22.7396 282.398 23.0833 282.586 23.4062C282.773 23.724 283.023 23.9818 283.336 24.1797C283.648 24.3724 284.042 24.4688 284.516 24.4688C284.906 24.4688 285.242 24.388 285.523 24.2266C285.81 24.0599 286.044 23.8333 286.227 23.5469C286.414 23.2604 286.552 22.9323 286.641 22.5625C286.729 22.1875 286.773 21.7891 286.773 21.3672ZM293.578 25.6562C292.99 25.6562 292.456 25.5573 291.977 25.3594C291.503 25.1562 291.094 24.8724 290.75 24.5078C290.411 24.1432 290.151 23.7109 289.969 23.2109C289.786 22.7109 289.695 22.1641 289.695 21.5703V21.2422C289.695 20.5547 289.797 19.9427 290 19.4062C290.203 18.8646 290.479 18.4062 290.828 18.0312C291.177 17.6562 291.573 17.3724 292.016 17.1797C292.458 16.987 292.917 16.8906 293.391 16.8906C293.995 16.8906 294.516 16.9948 294.953 17.2031C295.396 17.4115 295.758 17.7031 296.039 18.0781C296.32 18.4479 296.529 18.8854 296.664 19.3906C296.799 19.8906 296.867 20.4375 296.867 21.0312V21.6797H290.555V20.5H295.422V20.3906C295.401 20.0156 295.323 19.651 295.188 19.2969C295.057 18.9427 294.849 18.651 294.562 18.4219C294.276 18.1927 293.885 18.0781 293.391 18.0781C293.062 18.0781 292.76 18.1484 292.484 18.2891C292.208 18.4245 291.971 18.6276 291.773 18.8984C291.576 19.1693 291.422 19.5 291.312 19.8906C291.203 20.2812 291.148 20.7318 291.148 21.2422V21.5703C291.148 21.9714 291.203 22.349 291.312 22.7031C291.427 23.0521 291.591 23.3594 291.805 23.625C292.023 23.8906 292.286 24.099 292.594 24.25C292.906 24.401 293.26 24.4766 293.656 24.4766C294.167 24.4766 294.599 24.3724 294.953 24.1641C295.307 23.9557 295.617 23.6771 295.883 23.3281L296.758 24.0234C296.576 24.2995 296.344 24.5625 296.062 24.8125C295.781 25.0625 295.435 25.2656 295.023 25.4219C294.617 25.5781 294.135 25.6562 293.578 25.6562ZM302.094 17.0469V18.1562H297.523V17.0469H302.094ZM299.07 14.9922H300.516V23.4062C300.516 23.6927 300.56 23.9089 300.648 24.0547C300.737 24.2005 300.852 24.2969 300.992 24.3438C301.133 24.3906 301.284 24.4141 301.445 24.4141C301.565 24.4141 301.69 24.4036 301.82 24.3828C301.956 24.3568 302.057 24.3359 302.125 24.3203L302.133 25.5C302.018 25.5365 301.867 25.5703 301.68 25.6016C301.497 25.638 301.276 25.6562 301.016 25.6562C300.661 25.6562 300.336 25.5859 300.039 25.4453C299.742 25.3047 299.505 25.0703 299.328 24.7422C299.156 24.4089 299.07 23.9609 299.07 23.3984V14.9922ZM307.328 17.0469V18.1562H302.758V17.0469H307.328ZM304.305 14.9922H305.75V23.4062C305.75 23.6927 305.794 23.9089 305.883 24.0547C305.971 24.2005 306.086 24.2969 306.227 24.3438C306.367 24.3906 306.518 24.4141 306.68 24.4141C306.799 24.4141 306.924 24.4036 307.055 24.3828C307.19 24.3568 307.292 24.3359 307.359 24.3203L307.367 25.5C307.253 25.5365 307.102 25.5703 306.914 25.6016C306.732 25.638 306.51 25.6562 306.25 25.6562C305.896 25.6562 305.57 25.5859 305.273 25.4453C304.977 25.3047 304.74 25.0703 304.562 24.7422C304.391 24.4089 304.305 23.9609 304.305 23.3984V14.9922ZM310.594 17.0469V25.5H309.141V17.0469H310.594ZM309.031 14.8047C309.031 14.5703 309.102 14.3724 309.242 14.2109C309.388 14.0495 309.602 13.9688 309.883 13.9688C310.159 13.9688 310.37 14.0495 310.516 14.2109C310.667 14.3724 310.742 14.5703 310.742 14.8047C310.742 15.0286 310.667 15.2214 310.516 15.3828C310.37 15.5391 310.159 15.6172 309.883 15.6172C309.602 15.6172 309.388 15.5391 309.242 15.3828C309.102 15.2214 309.031 15.0286 309.031 14.8047ZM314.359 18.8516V25.5H312.914V17.0469H314.281L314.359 18.8516ZM314.016 20.9531L313.414 20.9297C313.419 20.3516 313.505 19.8177 313.672 19.3281C313.839 18.8333 314.073 18.4036 314.375 18.0391C314.677 17.6745 315.036 17.3932 315.453 17.1953C315.875 16.9922 316.341 16.8906 316.852 16.8906C317.268 16.8906 317.643 16.9479 317.977 17.0625C318.31 17.1719 318.594 17.349 318.828 17.5938C319.068 17.8385 319.25 18.1562 319.375 18.5469C319.5 18.9323 319.562 19.4036 319.562 19.9609V25.5H318.109V19.9453C318.109 19.5026 318.044 19.1484 317.914 18.8828C317.784 18.612 317.594 18.4167 317.344 18.2969C317.094 18.1719 316.786 18.1094 316.422 18.1094C316.062 18.1094 315.734 18.1849 315.438 18.3359C315.146 18.487 314.893 18.6953 314.68 18.9609C314.471 19.2266 314.307 19.5312 314.188 19.875C314.073 20.2135 314.016 20.5729 314.016 20.9531ZM327.234 17.0469H328.547V25.3203C328.547 26.0651 328.396 26.7005 328.094 27.2266C327.792 27.7526 327.37 28.151 326.828 28.4219C326.292 28.6979 325.672 28.8359 324.969 28.8359C324.677 28.8359 324.333 28.7891 323.938 28.6953C323.547 28.6068 323.161 28.4531 322.781 28.2344C322.406 28.0208 322.091 27.7318 321.836 27.3672L322.594 26.5078C322.948 26.9349 323.318 27.2318 323.703 27.3984C324.094 27.5651 324.479 27.6484 324.859 27.6484C325.318 27.6484 325.714 27.5625 326.047 27.3906C326.38 27.2188 326.638 26.9635 326.82 26.625C327.008 26.2917 327.102 25.8802 327.102 25.3906V18.9062L327.234 17.0469ZM321.414 21.3672V21.2031C321.414 20.5573 321.49 19.9714 321.641 19.4453C321.797 18.9141 322.018 18.4583 322.305 18.0781C322.596 17.6979 322.948 17.4062 323.359 17.2031C323.771 16.9948 324.234 16.8906 324.75 16.8906C325.281 16.8906 325.745 16.9844 326.141 17.1719C326.542 17.3542 326.88 17.6224 327.156 17.9766C327.438 18.3255 327.659 18.7474 327.82 19.2422C327.982 19.737 328.094 20.2969 328.156 20.9219V21.6406C328.099 22.2604 327.987 22.8177 327.82 23.3125C327.659 23.8073 327.438 24.2292 327.156 24.5781C326.88 24.9271 326.542 25.1953 326.141 25.3828C325.74 25.5651 325.271 25.6562 324.734 25.6562C324.229 25.6562 323.771 25.5495 323.359 25.3359C322.953 25.1224 322.604 24.8229 322.312 24.4375C322.021 24.0521 321.797 23.599 321.641 23.0781C321.49 22.5521 321.414 21.9818 321.414 21.3672ZM322.859 21.2031V21.3672C322.859 21.7891 322.901 22.1849 322.984 22.5547C323.073 22.9245 323.206 23.25 323.383 23.5312C323.565 23.8125 323.797 24.0339 324.078 24.1953C324.359 24.3516 324.695 24.4297 325.086 24.4297C325.565 24.4297 325.961 24.3281 326.273 24.125C326.586 23.9219 326.833 23.6536 327.016 23.3203C327.203 22.987 327.349 22.625 327.453 22.2344V20.3516C327.396 20.0651 327.307 19.7891 327.188 19.5234C327.073 19.2526 326.922 19.013 326.734 18.8047C326.552 18.5911 326.326 18.4219 326.055 18.2969C325.784 18.1719 325.466 18.1094 325.102 18.1094C324.706 18.1094 324.365 18.1927 324.078 18.3594C323.797 18.5208 323.565 18.7448 323.383 19.0312C323.206 19.3125 323.073 19.6406 322.984 20.0156C322.901 20.3854 322.859 20.7812 322.859 21.2031ZM343.68 14.125V25.5H342.164L336.438 16.7266V25.5H334.93V14.125H336.438L342.188 22.9219V14.125H343.68ZM349.641 25.6562C349.052 25.6562 348.518 25.5573 348.039 25.3594C347.565 25.1562 347.156 24.8724 346.812 24.5078C346.474 24.1432 346.214 23.7109 346.031 23.2109C345.849 22.7109 345.758 22.1641 345.758 21.5703V21.2422C345.758 20.5547 345.859 19.9427 346.062 19.4062C346.266 18.8646 346.542 18.4062 346.891 18.0312C347.24 17.6562 347.635 17.3724 348.078 17.1797C348.521 16.987 348.979 16.8906 349.453 16.8906C350.057 16.8906 350.578 16.9948 351.016 17.2031C351.458 17.4115 351.82 17.7031 352.102 18.0781C352.383 18.4479 352.591 18.8854 352.727 19.3906C352.862 19.8906 352.93 20.4375 352.93 21.0312V21.6797H346.617V20.5H351.484V20.3906C351.464 20.0156 351.385 19.651 351.25 19.2969C351.12 18.9427 350.911 18.651 350.625 18.4219C350.339 18.1927 349.948 18.0781 349.453 18.0781C349.125 18.0781 348.823 18.1484 348.547 18.2891C348.271 18.4245 348.034 18.6276 347.836 18.8984C347.638 19.1693 347.484 19.5 347.375 19.8906C347.266 20.2812 347.211 20.7318 347.211 21.2422V21.5703C347.211 21.9714 347.266 22.349 347.375 22.7031C347.49 23.0521 347.654 23.3594 347.867 23.625C348.086 23.8906 348.349 24.099 348.656 24.25C348.969 24.401 349.323 24.4766 349.719 24.4766C350.229 24.4766 350.661 24.3724 351.016 24.1641C351.37 23.9557 351.68 23.6771 351.945 23.3281L352.82 24.0234C352.638 24.2995 352.406 24.5625 352.125 24.8125C351.844 25.0625 351.497 25.2656 351.086 25.4219C350.68 25.5781 350.198 25.6562 349.641 25.6562ZM358.125 25.6562C357.536 25.6562 357.003 25.5573 356.523 25.3594C356.049 25.1562 355.641 24.8724 355.297 24.5078C354.958 24.1432 354.698 23.7109 354.516 23.2109C354.333 22.7109 354.242 22.1641 354.242 21.5703V21.2422C354.242 20.5547 354.344 19.9427 354.547 19.4062C354.75 18.8646 355.026 18.4062 355.375 18.0312C355.724 17.6562 356.12 17.3724 356.562 17.1797C357.005 16.987 357.464 16.8906 357.938 16.8906C358.542 16.8906 359.062 16.9948 359.5 17.2031C359.943 17.4115 360.305 17.7031 360.586 18.0781C360.867 18.4479 361.076 18.8854 361.211 19.3906C361.346 19.8906 361.414 20.4375 361.414 21.0312V21.6797H355.102V20.5H359.969V20.3906C359.948 20.0156 359.87 19.651 359.734 19.2969C359.604 18.9427 359.396 18.651 359.109 18.4219C358.823 18.1927 358.432 18.0781 357.938 18.0781C357.609 18.0781 357.307 18.1484 357.031 18.2891C356.755 18.4245 356.518 18.6276 356.32 18.8984C356.122 19.1693 355.969 19.5 355.859 19.8906C355.75 20.2812 355.695 20.7318 355.695 21.2422V21.5703C355.695 21.9714 355.75 22.349 355.859 22.7031C355.974 23.0521 356.138 23.3594 356.352 23.625C356.57 23.8906 356.833 24.099 357.141 24.25C357.453 24.401 357.807 24.4766 358.203 24.4766C358.714 24.4766 359.146 24.3724 359.5 24.1641C359.854 23.9557 360.164 23.6771 360.43 23.3281L361.305 24.0234C361.122 24.2995 360.891 24.5625 360.609 24.8125C360.328 25.0625 359.982 25.2656 359.57 25.4219C359.164 25.5781 358.682 25.6562 358.125 25.6562ZM368.43 23.8594V13.5H369.883V25.5H368.555L368.43 23.8594ZM362.742 21.3672V21.2031C362.742 20.5573 362.82 19.9714 362.977 19.4453C363.138 18.9141 363.365 18.4583 363.656 18.0781C363.953 17.6979 364.305 17.4062 364.711 17.2031C365.122 16.9948 365.581 16.8906 366.086 16.8906C366.617 16.8906 367.081 16.9844 367.477 17.1719C367.878 17.3542 368.216 17.6224 368.492 17.9766C368.773 18.3255 368.995 18.7474 369.156 19.2422C369.318 19.737 369.43 20.2969 369.492 20.9219V21.6406C369.435 22.2604 369.323 22.8177 369.156 23.3125C368.995 23.8073 368.773 24.2292 368.492 24.5781C368.216 24.9271 367.878 25.1953 367.477 25.3828C367.076 25.5651 366.607 25.6562 366.07 25.6562C365.576 25.6562 365.122 25.5495 364.711 25.3359C364.305 25.1224 363.953 24.8229 363.656 24.4375C363.365 24.0521 363.138 23.599 362.977 23.0781C362.82 22.5521 362.742 21.9818 362.742 21.3672ZM364.195 21.2031V21.3672C364.195 21.7891 364.237 22.1849 364.32 22.5547C364.409 22.9245 364.544 23.25 364.727 23.5312C364.909 23.8125 365.141 24.0339 365.422 24.1953C365.703 24.3516 366.039 24.4297 366.43 24.4297C366.909 24.4297 367.302 24.3281 367.609 24.125C367.922 23.9219 368.172 23.6536 368.359 23.3203C368.547 22.987 368.693 22.625 368.797 22.2344V20.3516C368.734 20.0651 368.643 19.7891 368.523 19.5234C368.409 19.2526 368.258 19.013 368.07 18.8047C367.888 18.5911 367.661 18.4219 367.391 18.2969C367.125 18.1719 366.81 18.1094 366.445 18.1094C366.049 18.1094 365.708 18.1927 365.422 18.3594C365.141 18.5208 364.909 18.7448 364.727 19.0312C364.544 19.3125 364.409 19.6406 364.32 20.0156C364.237 20.3854 364.195 20.7812 364.195 21.2031ZM375.641 25.6562C375.052 25.6562 374.518 25.5573 374.039 25.3594C373.565 25.1562 373.156 24.8724 372.812 24.5078C372.474 24.1432 372.214 23.7109 372.031 23.2109C371.849 22.7109 371.758 22.1641 371.758 21.5703V21.2422C371.758 20.5547 371.859 19.9427 372.062 19.4062C372.266 18.8646 372.542 18.4062 372.891 18.0312C373.24 17.6562 373.635 17.3724 374.078 17.1797C374.521 16.987 374.979 16.8906 375.453 16.8906C376.057 16.8906 376.578 16.9948 377.016 17.2031C377.458 17.4115 377.82 17.7031 378.102 18.0781C378.383 18.4479 378.591 18.8854 378.727 19.3906C378.862 19.8906 378.93 20.4375 378.93 21.0312V21.6797H372.617V20.5H377.484V20.3906C377.464 20.0156 377.385 19.651 377.25 19.2969C377.12 18.9427 376.911 18.651 376.625 18.4219C376.339 18.1927 375.948 18.0781 375.453 18.0781C375.125 18.0781 374.823 18.1484 374.547 18.2891C374.271 18.4245 374.034 18.6276 373.836 18.8984C373.638 19.1693 373.484 19.5 373.375 19.8906C373.266 20.2812 373.211 20.7318 373.211 21.2422V21.5703C373.211 21.9714 373.266 22.349 373.375 22.7031C373.49 23.0521 373.654 23.3594 373.867 23.625C374.086 23.8906 374.349 24.099 374.656 24.25C374.969 24.401 375.323 24.4766 375.719 24.4766C376.229 24.4766 376.661 24.3724 377.016 24.1641C377.37 23.9557 377.68 23.6771 377.945 23.3281L378.82 24.0234C378.638 24.2995 378.406 24.5625 378.125 24.8125C377.844 25.0625 377.497 25.2656 377.086 25.4219C376.68 25.5781 376.198 25.6562 375.641 25.6562ZM385.945 23.8594V13.5H387.398V25.5H386.07L385.945 23.8594ZM380.258 21.3672V21.2031C380.258 20.5573 380.336 19.9714 380.492 19.4453C380.654 18.9141 380.88 18.4583 381.172 18.0781C381.469 17.6979 381.82 17.4062 382.227 17.2031C382.638 16.9948 383.096 16.8906 383.602 16.8906C384.133 16.8906 384.596 16.9844 384.992 17.1719C385.393 17.3542 385.732 17.6224 386.008 17.9766C386.289 18.3255 386.51 18.7474 386.672 19.2422C386.833 19.737 386.945 20.2969 387.008 20.9219V21.6406C386.951 22.2604 386.839 22.8177 386.672 23.3125C386.51 23.8073 386.289 24.2292 386.008 24.5781C385.732 24.9271 385.393 25.1953 384.992 25.3828C384.591 25.5651 384.122 25.6562 383.586 25.6562C383.091 25.6562 382.638 25.5495 382.227 25.3359C381.82 25.1224 381.469 24.8229 381.172 24.4375C380.88 24.0521 380.654 23.599 380.492 23.0781C380.336 22.5521 380.258 21.9818 380.258 21.3672ZM381.711 21.2031V21.3672C381.711 21.7891 381.753 22.1849 381.836 22.5547C381.924 22.9245 382.06 23.25 382.242 23.5312C382.424 23.8125 382.656 24.0339 382.938 24.1953C383.219 24.3516 383.555 24.4297 383.945 24.4297C384.424 24.4297 384.818 24.3281 385.125 24.125C385.438 23.9219 385.688 23.6536 385.875 23.3203C386.062 22.987 386.208 22.625 386.312 22.2344V20.3516C386.25 20.0651 386.159 19.7891 386.039 19.5234C385.924 19.2526 385.773 19.013 385.586 18.8047C385.404 18.5911 385.177 18.4219 384.906 18.2969C384.641 18.1719 384.326 18.1094 383.961 18.1094C383.565 18.1094 383.224 18.1927 382.938 18.3594C382.656 18.5208 382.424 18.7448 382.242 19.0312C382.06 19.3125 381.924 19.6406 381.836 20.0156C381.753 20.3854 381.711 20.7812 381.711 21.2031Z" fill="#8A8A8E"/>
<rect x="232.5" y="0.5" width="168" height="39" rx="3.5" stroke="#D1D1D6"/>
<rect x="409.5" y="0.5" width="160" height="39" rx="3.5" fill="white"/>
<circle cx="427" cy="20" r="5.5" fill="white" stroke="#8A8A8E"/>
<mask id="path-13-inside-2_1198_54688" fill="white">
<path d="M427 16C428.061 16 429.078 16.4214 429.828 17.1716C430.579 17.9217 431 18.9391 431 20C431 21.0609 430.579 22.0783 429.828 22.8284C429.078 23.5786 428.061 24 427 24L427 20V16Z"/>
</mask>
<path d="M427 16C428.061 16 429.078 16.4214 429.828 17.1716C430.579 17.9217 431 18.9391 431 20C431 21.0609 430.579 22.0783 429.828 22.8284C429.078 23.5786 428.061 24 427 24L427 20V16Z" fill="#8A8A8E" stroke="#8A8A8E" stroke-width="2" mask="url(#path-13-inside-2_1198_54688)"/>
<path d="M448.516 21.0391H445.477V19.8125H448.516C449.104 19.8125 449.581 19.7188 449.945 19.5312C450.31 19.3438 450.576 19.0833 450.742 18.75C450.914 18.4167 451 18.0365 451 17.6094C451 17.2188 450.914 16.8516 450.742 16.5078C450.576 16.1641 450.31 15.888 449.945 15.6797C449.581 15.4661 449.104 15.3594 448.516 15.3594H445.828V25.5H444.32V14.125H448.516C449.375 14.125 450.102 14.2734 450.695 14.5703C451.289 14.8672 451.74 15.2786 452.047 15.8047C452.354 16.3255 452.508 16.9219 452.508 17.5938C452.508 18.3229 452.354 18.9453 452.047 19.4609C451.74 19.9766 451.289 20.3698 450.695 20.6406C450.102 20.9062 449.375 21.0391 448.516 21.0391ZM457.594 25.6562C457.005 25.6562 456.471 25.5573 455.992 25.3594C455.518 25.1562 455.109 24.8724 454.766 24.5078C454.427 24.1432 454.167 23.7109 453.984 23.2109C453.802 22.7109 453.711 22.1641 453.711 21.5703V21.2422C453.711 20.5547 453.812 19.9427 454.016 19.4062C454.219 18.8646 454.495 18.4062 454.844 18.0312C455.193 17.6562 455.589 17.3724 456.031 17.1797C456.474 16.987 456.932 16.8906 457.406 16.8906C458.01 16.8906 458.531 16.9948 458.969 17.2031C459.411 17.4115 459.773 17.7031 460.055 18.0781C460.336 18.4479 460.544 18.8854 460.68 19.3906C460.815 19.8906 460.883 20.4375 460.883 21.0312V21.6797H454.57V20.5H459.438V20.3906C459.417 20.0156 459.339 19.651 459.203 19.2969C459.073 18.9427 458.865 18.651 458.578 18.4219C458.292 18.1927 457.901 18.0781 457.406 18.0781C457.078 18.0781 456.776 18.1484 456.5 18.2891C456.224 18.4245 455.987 18.6276 455.789 18.8984C455.591 19.1693 455.438 19.5 455.328 19.8906C455.219 20.2812 455.164 20.7318 455.164 21.2422V21.5703C455.164 21.9714 455.219 22.349 455.328 22.7031C455.443 23.0521 455.607 23.3594 455.82 23.625C456.039 23.8906 456.302 24.099 456.609 24.25C456.922 24.401 457.276 24.4766 457.672 24.4766C458.182 24.4766 458.615 24.3724 458.969 24.1641C459.323 23.9557 459.633 23.6771 459.898 23.3281L460.773 24.0234C460.591 24.2995 460.359 24.5625 460.078 24.8125C459.797 25.0625 459.451 25.2656 459.039 25.4219C458.633 25.5781 458.151 25.6562 457.594 25.6562ZM464.016 18.8516V25.5H462.57V17.0469H463.938L464.016 18.8516ZM463.672 20.9531L463.07 20.9297C463.076 20.3516 463.161 19.8177 463.328 19.3281C463.495 18.8333 463.729 18.4036 464.031 18.0391C464.333 17.6745 464.693 17.3932 465.109 17.1953C465.531 16.9922 465.997 16.8906 466.508 16.8906C466.924 16.8906 467.299 16.9479 467.633 17.0625C467.966 17.1719 468.25 17.349 468.484 17.5938C468.724 17.8385 468.906 18.1562 469.031 18.5469C469.156 18.9323 469.219 19.4036 469.219 19.9609V25.5H467.766V19.9453C467.766 19.5026 467.701 19.1484 467.57 18.8828C467.44 18.612 467.25 18.4167 467 18.2969C466.75 18.1719 466.443 18.1094 466.078 18.1094C465.719 18.1094 465.391 18.1849 465.094 18.3359C464.802 18.487 464.549 18.6953 464.336 18.9609C464.128 19.2266 463.964 19.5312 463.844 19.875C463.729 20.2135 463.672 20.5729 463.672 20.9531ZM476.742 23.8594V13.5H478.195V25.5H476.867L476.742 23.8594ZM471.055 21.3672V21.2031C471.055 20.5573 471.133 19.9714 471.289 19.4453C471.451 18.9141 471.677 18.4583 471.969 18.0781C472.266 17.6979 472.617 17.4062 473.023 17.2031C473.435 16.9948 473.893 16.8906 474.398 16.8906C474.93 16.8906 475.393 16.9844 475.789 17.1719C476.19 17.3542 476.529 17.6224 476.805 17.9766C477.086 18.3255 477.307 18.7474 477.469 19.2422C477.63 19.737 477.742 20.2969 477.805 20.9219V21.6406C477.747 22.2604 477.635 22.8177 477.469 23.3125C477.307 23.8073 477.086 24.2292 476.805 24.5781C476.529 24.9271 476.19 25.1953 475.789 25.3828C475.388 25.5651 474.919 25.6562 474.383 25.6562C473.888 25.6562 473.435 25.5495 473.023 25.3359C472.617 25.1224 472.266 24.8229 471.969 24.4375C471.677 24.0521 471.451 23.599 471.289 23.0781C471.133 22.5521 471.055 21.9818 471.055 21.3672ZM472.508 21.2031V21.3672C472.508 21.7891 472.549 22.1849 472.633 22.5547C472.721 22.9245 472.857 23.25 473.039 23.5312C473.221 23.8125 473.453 24.0339 473.734 24.1953C474.016 24.3516 474.352 24.4297 474.742 24.4297C475.221 24.4297 475.615 24.3281 475.922 24.125C476.234 23.9219 476.484 23.6536 476.672 23.3203C476.859 22.987 477.005 22.625 477.109 22.2344V20.3516C477.047 20.0651 476.956 19.7891 476.836 19.5234C476.721 19.2526 476.57 19.013 476.383 18.8047C476.201 18.5911 475.974 18.4219 475.703 18.2969C475.438 18.1719 475.122 18.1094 474.758 18.1094C474.362 18.1094 474.021 18.1927 473.734 18.3594C473.453 18.5208 473.221 18.7448 473.039 19.0312C472.857 19.3125 472.721 19.6406 472.633 20.0156C472.549 20.3854 472.508 20.7812 472.508 21.2031ZM482.016 17.0469V25.5H480.562V17.0469H482.016ZM480.453 14.8047C480.453 14.5703 480.523 14.3724 480.664 14.2109C480.81 14.0495 481.023 13.9688 481.305 13.9688C481.581 13.9688 481.792 14.0495 481.938 14.2109C482.089 14.3724 482.164 14.5703 482.164 14.8047C482.164 15.0286 482.089 15.2214 481.938 15.3828C481.792 15.5391 481.581 15.6172 481.305 15.6172C481.023 15.6172 480.81 15.5391 480.664 15.3828C480.523 15.2214 480.453 15.0286 480.453 14.8047ZM485.781 18.8516V25.5H484.336V17.0469H485.703L485.781 18.8516ZM485.438 20.9531L484.836 20.9297C484.841 20.3516 484.927 19.8177 485.094 19.3281C485.26 18.8333 485.495 18.4036 485.797 18.0391C486.099 17.6745 486.458 17.3932 486.875 17.1953C487.297 16.9922 487.763 16.8906 488.273 16.8906C488.69 16.8906 489.065 16.9479 489.398 17.0625C489.732 17.1719 490.016 17.349 490.25 17.5938C490.49 17.8385 490.672 18.1562 490.797 18.5469C490.922 18.9323 490.984 19.4036 490.984 19.9609V25.5H489.531V19.9453C489.531 19.5026 489.466 19.1484 489.336 18.8828C489.206 18.612 489.016 18.4167 488.766 18.2969C488.516 18.1719 488.208 18.1094 487.844 18.1094C487.484 18.1094 487.156 18.1849 486.859 18.3359C486.568 18.487 486.315 18.6953 486.102 18.9609C485.893 19.2266 485.729 19.5312 485.609 19.875C485.495 20.2135 485.438 20.5729 485.438 20.9531ZM498.656 17.0469H499.969V25.3203C499.969 26.0651 499.818 26.7005 499.516 27.2266C499.214 27.7526 498.792 28.151 498.25 28.4219C497.714 28.6979 497.094 28.8359 496.391 28.8359C496.099 28.8359 495.755 28.7891 495.359 28.6953C494.969 28.6068 494.583 28.4531 494.203 28.2344C493.828 28.0208 493.513 27.7318 493.258 27.3672L494.016 26.5078C494.37 26.9349 494.74 27.2318 495.125 27.3984C495.516 27.5651 495.901 27.6484 496.281 27.6484C496.74 27.6484 497.135 27.5625 497.469 27.3906C497.802 27.2188 498.06 26.9635 498.242 26.625C498.43 26.2917 498.523 25.8802 498.523 25.3906V18.9062L498.656 17.0469ZM492.836 21.3672V21.2031C492.836 20.5573 492.911 19.9714 493.062 19.4453C493.219 18.9141 493.44 18.4583 493.727 18.0781C494.018 17.6979 494.37 17.4062 494.781 17.2031C495.193 16.9948 495.656 16.8906 496.172 16.8906C496.703 16.8906 497.167 16.9844 497.562 17.1719C497.964 17.3542 498.302 17.6224 498.578 17.9766C498.859 18.3255 499.081 18.7474 499.242 19.2422C499.404 19.737 499.516 20.2969 499.578 20.9219V21.6406C499.521 22.2604 499.409 22.8177 499.242 23.3125C499.081 23.8073 498.859 24.2292 498.578 24.5781C498.302 24.9271 497.964 25.1953 497.562 25.3828C497.161 25.5651 496.693 25.6562 496.156 25.6562C495.651 25.6562 495.193 25.5495 494.781 25.3359C494.375 25.1224 494.026 24.8229 493.734 24.4375C493.443 24.0521 493.219 23.599 493.062 23.0781C492.911 22.5521 492.836 21.9818 492.836 21.3672ZM494.281 21.2031V21.3672C494.281 21.7891 494.323 22.1849 494.406 22.5547C494.495 22.9245 494.628 23.25 494.805 23.5312C494.987 23.8125 495.219 24.0339 495.5 24.1953C495.781 24.3516 496.117 24.4297 496.508 24.4297C496.987 24.4297 497.383 24.3281 497.695 24.125C498.008 23.9219 498.255 23.6536 498.438 23.3203C498.625 22.987 498.771 22.625 498.875 22.2344V20.3516C498.818 20.0651 498.729 19.7891 498.609 19.5234C498.495 19.2526 498.344 19.013 498.156 18.8047C497.974 18.5911 497.747 18.4219 497.477 18.2969C497.206 18.1719 496.888 18.1094 496.523 18.1094C496.128 18.1094 495.786 18.1927 495.5 18.3594C495.219 18.5208 494.987 18.7448 494.805 19.0312C494.628 19.3125 494.495 19.6406 494.406 20.0156C494.323 20.3854 494.281 20.7812 494.281 21.2031ZM507.969 14.125V25.5H506.461V14.125H507.969ZM511.93 18.7266V25.5H510.477V17.0469H511.852L511.93 18.7266ZM511.633 20.9531L510.961 20.9297C510.966 20.3516 511.042 19.8177 511.188 19.3281C511.333 18.8333 511.549 18.4036 511.836 18.0391C512.122 17.6745 512.479 17.3932 512.906 17.1953C513.333 16.9922 513.828 16.8906 514.391 16.8906C514.786 16.8906 515.151 16.9479 515.484 17.0625C515.818 17.1719 516.107 17.3464 516.352 17.5859C516.596 17.8255 516.786 18.1328 516.922 18.5078C517.057 18.8828 517.125 19.3359 517.125 19.8672V25.5H515.68V19.9375C515.68 19.4948 515.604 19.1406 515.453 18.875C515.307 18.6094 515.099 18.4167 514.828 18.2969C514.557 18.1719 514.24 18.1094 513.875 18.1094C513.448 18.1094 513.091 18.1849 512.805 18.3359C512.518 18.487 512.289 18.6953 512.117 18.9609C511.945 19.2266 511.82 19.5312 511.742 19.875C511.669 20.2135 511.633 20.5729 511.633 20.9531ZM517.109 20.1562L516.141 20.4531C516.146 19.9896 516.221 19.5443 516.367 19.1172C516.518 18.6901 516.734 18.3099 517.016 17.9766C517.302 17.6432 517.654 17.3802 518.07 17.1875C518.487 16.9896 518.964 16.8906 519.5 16.8906C519.953 16.8906 520.354 16.9505 520.703 17.0703C521.057 17.1901 521.354 17.375 521.594 17.625C521.839 17.8698 522.023 18.1849 522.148 18.5703C522.273 18.9557 522.336 19.4141 522.336 19.9453V25.5H520.883V19.9297C520.883 19.4557 520.807 19.0885 520.656 18.8281C520.51 18.5625 520.302 18.3776 520.031 18.2734C519.766 18.1641 519.448 18.1094 519.078 18.1094C518.76 18.1094 518.479 18.1641 518.234 18.2734C517.99 18.3828 517.784 18.5339 517.617 18.7266C517.451 18.9141 517.323 19.1302 517.234 19.375C517.151 19.6198 517.109 19.8802 517.109 20.1562ZM529.508 24.0547V19.7031C529.508 19.3698 529.44 19.0807 529.305 18.8359C529.174 18.5859 528.977 18.3932 528.711 18.2578C528.445 18.1224 528.117 18.0547 527.727 18.0547C527.362 18.0547 527.042 18.1172 526.766 18.2422C526.495 18.3672 526.281 18.5312 526.125 18.7344C525.974 18.9375 525.898 19.1562 525.898 19.3906H524.453C524.453 19.0885 524.531 18.7891 524.688 18.4922C524.844 18.1953 525.068 17.9271 525.359 17.6875C525.656 17.4427 526.01 17.25 526.422 17.1094C526.839 16.9635 527.302 16.8906 527.812 16.8906C528.427 16.8906 528.969 16.9948 529.438 17.2031C529.911 17.4115 530.281 17.7266 530.547 18.1484C530.818 18.5651 530.953 19.0885 530.953 19.7188V23.6562C530.953 23.9375 530.977 24.237 531.023 24.5547C531.076 24.8724 531.151 25.1458 531.25 25.375V25.5H529.742C529.669 25.3333 529.612 25.112 529.57 24.8359C529.529 24.5547 529.508 24.2943 529.508 24.0547ZM529.758 20.375L529.773 21.3906H528.312C527.901 21.3906 527.534 21.4245 527.211 21.4922C526.888 21.5547 526.617 21.651 526.398 21.7812C526.18 21.9115 526.013 22.0755 525.898 22.2734C525.784 22.4661 525.727 22.6927 525.727 22.9531C525.727 23.2188 525.786 23.4609 525.906 23.6797C526.026 23.8984 526.206 24.0729 526.445 24.2031C526.69 24.3281 526.99 24.3906 527.344 24.3906C527.786 24.3906 528.177 24.2969 528.516 24.1094C528.854 23.9219 529.122 23.6927 529.32 23.4219C529.523 23.151 529.633 22.888 529.648 22.6328L530.266 23.3281C530.229 23.5469 530.13 23.7891 529.969 24.0547C529.807 24.3203 529.591 24.5755 529.32 24.8203C529.055 25.0599 528.737 25.2604 528.367 25.4219C528.003 25.5781 527.591 25.6562 527.133 25.6562C526.56 25.6562 526.057 25.5443 525.625 25.3203C525.198 25.0964 524.865 24.7969 524.625 24.4219C524.391 24.0417 524.273 23.6172 524.273 23.1484C524.273 22.6953 524.362 22.2969 524.539 21.9531C524.716 21.6042 524.971 21.3151 525.305 21.0859C525.638 20.8516 526.039 20.6745 526.508 20.5547C526.977 20.4349 527.5 20.375 528.078 20.375H529.758ZM538.703 17.0469H540.016V25.3203C540.016 26.0651 539.865 26.7005 539.562 27.2266C539.26 27.7526 538.839 28.151 538.297 28.4219C537.76 28.6979 537.141 28.8359 536.438 28.8359C536.146 28.8359 535.802 28.7891 535.406 28.6953C535.016 28.6068 534.63 28.4531 534.25 28.2344C533.875 28.0208 533.56 27.7318 533.305 27.3672L534.062 26.5078C534.417 26.9349 534.786 27.2318 535.172 27.3984C535.562 27.5651 535.948 27.6484 536.328 27.6484C536.786 27.6484 537.182 27.5625 537.516 27.3906C537.849 27.2188 538.107 26.9635 538.289 26.625C538.477 26.2917 538.57 25.8802 538.57 25.3906V18.9062L538.703 17.0469ZM532.883 21.3672V21.2031C532.883 20.5573 532.958 19.9714 533.109 19.4453C533.266 18.9141 533.487 18.4583 533.773 18.0781C534.065 17.6979 534.417 17.4062 534.828 17.2031C535.24 16.9948 535.703 16.8906 536.219 16.8906C536.75 16.8906 537.214 16.9844 537.609 17.1719C538.01 17.3542 538.349 17.6224 538.625 17.9766C538.906 18.3255 539.128 18.7474 539.289 19.2422C539.451 19.737 539.562 20.2969 539.625 20.9219V21.6406C539.568 22.2604 539.456 22.8177 539.289 23.3125C539.128 23.8073 538.906 24.2292 538.625 24.5781C538.349 24.9271 538.01 25.1953 537.609 25.3828C537.208 25.5651 536.74 25.6562 536.203 25.6562C535.698 25.6562 535.24 25.5495 534.828 25.3359C534.422 25.1224 534.073 24.8229 533.781 24.4375C533.49 24.0521 533.266 23.599 533.109 23.0781C532.958 22.5521 532.883 21.9818 532.883 21.3672ZM534.328 21.2031V21.3672C534.328 21.7891 534.37 22.1849 534.453 22.5547C534.542 22.9245 534.674 23.25 534.852 23.5312C535.034 23.8125 535.266 24.0339 535.547 24.1953C535.828 24.3516 536.164 24.4297 536.555 24.4297C537.034 24.4297 537.43 24.3281 537.742 24.125C538.055 23.9219 538.302 23.6536 538.484 23.3203C538.672 22.987 538.818 22.625 538.922 22.2344V20.3516C538.865 20.0651 538.776 19.7891 538.656 19.5234C538.542 19.2526 538.391 19.013 538.203 18.8047C538.021 18.5911 537.794 18.4219 537.523 18.2969C537.253 18.1719 536.935 18.1094 536.57 18.1094C536.174 18.1094 535.833 18.1927 535.547 18.3594C535.266 18.5208 535.034 18.7448 534.852 19.0312C534.674 19.3125 534.542 19.6406 534.453 20.0156C534.37 20.3854 534.328 20.7812 534.328 21.2031ZM545.719 25.6562C545.13 25.6562 544.596 25.5573 544.117 25.3594C543.643 25.1562 543.234 24.8724 542.891 24.5078C542.552 24.1432 542.292 23.7109 542.109 23.2109C541.927 22.7109 541.836 22.1641 541.836 21.5703V21.2422C541.836 20.5547 541.938 19.9427 542.141 19.4062C542.344 18.8646 542.62 18.4062 542.969 18.0312C543.318 17.6562 543.714 17.3724 544.156 17.1797C544.599 16.987 545.057 16.8906 545.531 16.8906C546.135 16.8906 546.656 16.9948 547.094 17.2031C547.536 17.4115 547.898 17.7031 548.18 18.0781C548.461 18.4479 548.669 18.8854 548.805 19.3906C548.94 19.8906 549.008 20.4375 549.008 21.0312V21.6797H542.695V20.5H547.562V20.3906C547.542 20.0156 547.464 19.651 547.328 19.2969C547.198 18.9427 546.99 18.651 546.703 18.4219C546.417 18.1927 546.026 18.0781 545.531 18.0781C545.203 18.0781 544.901 18.1484 544.625 18.2891C544.349 18.4245 544.112 18.6276 543.914 18.8984C543.716 19.1693 543.562 19.5 543.453 19.8906C543.344 20.2812 543.289 20.7318 543.289 21.2422V21.5703C543.289 21.9714 543.344 22.349 543.453 22.7031C543.568 23.0521 543.732 23.3594 543.945 23.625C544.164 23.8906 544.427 24.099 544.734 24.25C545.047 24.401 545.401 24.4766 545.797 24.4766C546.307 24.4766 546.74 24.3724 547.094 24.1641C547.448 23.9557 547.758 23.6771 548.023 23.3281L548.898 24.0234C548.716 24.2995 548.484 24.5625 548.203 24.8125C547.922 25.0625 547.576 25.2656 547.164 25.4219C546.758 25.5781 546.276 25.6562 545.719 25.6562ZM555.617 23.2578C555.617 23.0495 555.57 22.8568 555.477 22.6797C555.388 22.4974 555.203 22.3333 554.922 22.1875C554.646 22.0365 554.229 21.9062 553.672 21.7969C553.203 21.6979 552.779 21.5807 552.398 21.4453C552.023 21.3099 551.703 21.1458 551.438 20.9531C551.177 20.7604 550.977 20.5339 550.836 20.2734C550.695 20.013 550.625 19.7083 550.625 19.3594C550.625 19.026 550.698 18.7109 550.844 18.4141C550.995 18.1172 551.206 17.8542 551.477 17.625C551.753 17.3958 552.083 17.2161 552.469 17.0859C552.854 16.9557 553.284 16.8906 553.758 16.8906C554.435 16.8906 555.013 17.0104 555.492 17.25C555.971 17.4896 556.339 17.8099 556.594 18.2109C556.849 18.6068 556.977 19.0469 556.977 19.5312H555.531C555.531 19.2969 555.461 19.0703 555.32 18.8516C555.185 18.6276 554.984 18.4427 554.719 18.2969C554.458 18.151 554.138 18.0781 553.758 18.0781C553.357 18.0781 553.031 18.1406 552.781 18.2656C552.536 18.3854 552.357 18.5391 552.242 18.7266C552.133 18.9141 552.078 19.112 552.078 19.3203C552.078 19.4766 552.104 19.6172 552.156 19.7422C552.214 19.862 552.312 19.974 552.453 20.0781C552.594 20.1771 552.792 20.2708 553.047 20.3594C553.302 20.4479 553.628 20.5365 554.023 20.625C554.716 20.7812 555.286 20.9688 555.734 21.1875C556.182 21.4062 556.516 21.6745 556.734 21.9922C556.953 22.3099 557.062 22.6953 557.062 23.1484C557.062 23.5182 556.984 23.8568 556.828 24.1641C556.677 24.4714 556.456 24.737 556.164 24.9609C555.878 25.1797 555.534 25.3516 555.133 25.4766C554.737 25.5964 554.292 25.6562 553.797 25.6562C553.052 25.6562 552.422 25.5234 551.906 25.2578C551.391 24.9922 551 24.6484 550.734 24.2266C550.469 23.8047 550.336 23.3594 550.336 22.8906H551.789C551.81 23.2865 551.924 23.6016 552.133 23.8359C552.341 24.0651 552.596 24.2292 552.898 24.3281C553.201 24.4219 553.5 24.4688 553.797 24.4688C554.193 24.4688 554.523 24.4167 554.789 24.3125C555.06 24.2083 555.266 24.0651 555.406 23.8828C555.547 23.7005 555.617 23.4922 555.617 23.2578Z" fill="#8A8A8E"/>
<rect x="409.5" y="0.5" width="160" height="39" rx="3.5" stroke="#D1D1D6"/>
<rect x="578.5" y="0.5" width="167" height="39" rx="3.5" fill="white"/>
<circle cx="596" cy="20" r="5.5" fill="white" stroke="#8A8A8E"/>
<circle cx="596" cy="20" r="0.5" fill="#8A8A8E" stroke="#8A8A8E"/>
<circle cx="593" cy="20" r="0.5" fill="#8A8A8E" stroke="#8A8A8E"/>
<circle cx="599" cy="20" r="0.5" fill="#8A8A8E" stroke="#8A8A8E"/>
<path d="M617.531 15.1328L613.766 25.5H612.227L616.562 14.125H617.555L617.531 15.1328ZM620.688 25.5L616.914 15.1328L616.891 14.125H617.883L622.234 25.5H620.688ZM620.492 21.2891V22.5234H614.102V21.2891H620.492ZM624.984 18.8516V25.5H623.539V17.0469H624.906L624.984 18.8516ZM624.641 20.9531L624.039 20.9297C624.044 20.3516 624.13 19.8177 624.297 19.3281C624.464 18.8333 624.698 18.4036 625 18.0391C625.302 17.6745 625.661 17.3932 626.078 17.1953C626.5 16.9922 626.966 16.8906 627.477 16.8906C627.893 16.8906 628.268 16.9479 628.602 17.0625C628.935 17.1719 629.219 17.349 629.453 17.5938C629.693 17.8385 629.875 18.1562 630 18.5469C630.125 18.9323 630.188 19.4036 630.188 19.9609V25.5H628.734V19.9453C628.734 19.5026 628.669 19.1484 628.539 18.8828C628.409 18.612 628.219 18.4167 627.969 18.2969C627.719 18.1719 627.411 18.1094 627.047 18.1094C626.688 18.1094 626.359 18.1849 626.062 18.3359C625.771 18.487 625.518 18.6953 625.305 18.9609C625.096 19.2266 624.932 19.5312 624.812 19.875C624.698 20.2135 624.641 20.5729 624.641 20.9531ZM637.367 24.0547V19.7031C637.367 19.3698 637.299 19.0807 637.164 18.8359C637.034 18.5859 636.836 18.3932 636.57 18.2578C636.305 18.1224 635.977 18.0547 635.586 18.0547C635.221 18.0547 634.901 18.1172 634.625 18.2422C634.354 18.3672 634.141 18.5312 633.984 18.7344C633.833 18.9375 633.758 19.1562 633.758 19.3906H632.312C632.312 19.0885 632.391 18.7891 632.547 18.4922C632.703 18.1953 632.927 17.9271 633.219 17.6875C633.516 17.4427 633.87 17.25 634.281 17.1094C634.698 16.9635 635.161 16.8906 635.672 16.8906C636.286 16.8906 636.828 16.9948 637.297 17.2031C637.771 17.4115 638.141 17.7266 638.406 18.1484C638.677 18.5651 638.812 19.0885 638.812 19.7188V23.6562C638.812 23.9375 638.836 24.237 638.883 24.5547C638.935 24.8724 639.01 25.1458 639.109 25.375V25.5H637.602C637.529 25.3333 637.471 25.112 637.43 24.8359C637.388 24.5547 637.367 24.2943 637.367 24.0547ZM637.617 20.375L637.633 21.3906H636.172C635.76 21.3906 635.393 21.4245 635.07 21.4922C634.747 21.5547 634.477 21.651 634.258 21.7812C634.039 21.9115 633.872 22.0755 633.758 22.2734C633.643 22.4661 633.586 22.6927 633.586 22.9531C633.586 23.2188 633.646 23.4609 633.766 23.6797C633.885 23.8984 634.065 24.0729 634.305 24.2031C634.549 24.3281 634.849 24.3906 635.203 24.3906C635.646 24.3906 636.036 24.2969 636.375 24.1094C636.714 23.9219 636.982 23.6927 637.18 23.4219C637.383 23.151 637.492 22.888 637.508 22.6328L638.125 23.3281C638.089 23.5469 637.99 23.7891 637.828 24.0547C637.667 24.3203 637.451 24.5755 637.18 24.8203C636.914 25.0599 636.596 25.2604 636.227 25.4219C635.862 25.5781 635.451 25.6562 634.992 25.6562C634.419 25.6562 633.917 25.5443 633.484 25.3203C633.057 25.0964 632.724 24.7969 632.484 24.4219C632.25 24.0417 632.133 23.6172 632.133 23.1484C632.133 22.6953 632.221 22.2969 632.398 21.9531C632.576 21.6042 632.831 21.3151 633.164 21.0859C633.497 20.8516 633.898 20.6745 634.367 20.5547C634.836 20.4349 635.359 20.375 635.938 20.375H637.617ZM642.656 13.5V25.5H641.203V13.5H642.656ZM647.352 24.625L649.703 17.0469H651.25L647.859 26.8047C647.781 27.013 647.677 27.237 647.547 27.4766C647.422 27.7214 647.26 27.9531 647.062 28.1719C646.865 28.3906 646.625 28.5677 646.344 28.7031C646.068 28.8438 645.737 28.9141 645.352 28.9141C645.237 28.9141 645.091 28.8984 644.914 28.8672C644.737 28.8359 644.612 28.8099 644.539 28.7891L644.531 27.6172C644.573 27.6224 644.638 27.6276 644.727 27.6328C644.82 27.6432 644.885 27.6484 644.922 27.6484C645.25 27.6484 645.529 27.6042 645.758 27.5156C645.987 27.4323 646.18 27.2891 646.336 27.0859C646.497 26.888 646.635 26.6146 646.75 26.2656L647.352 24.625ZM645.625 17.0469L647.82 23.6094L648.195 25.1328L647.156 25.6641L644.047 17.0469H645.625ZM657.477 23.2578C657.477 23.0495 657.43 22.8568 657.336 22.6797C657.247 22.4974 657.062 22.3333 656.781 22.1875C656.505 22.0365 656.089 21.9062 655.531 21.7969C655.062 21.6979 654.638 21.5807 654.258 21.4453C653.883 21.3099 653.562 21.1458 653.297 20.9531C653.036 20.7604 652.836 20.5339 652.695 20.2734C652.555 20.013 652.484 19.7083 652.484 19.3594C652.484 19.026 652.557 18.7109 652.703 18.4141C652.854 18.1172 653.065 17.8542 653.336 17.625C653.612 17.3958 653.943 17.2161 654.328 17.0859C654.714 16.9557 655.143 16.8906 655.617 16.8906C656.294 16.8906 656.872 17.0104 657.352 17.25C657.831 17.4896 658.198 17.8099 658.453 18.2109C658.708 18.6068 658.836 19.0469 658.836 19.5312H657.391C657.391 19.2969 657.32 19.0703 657.18 18.8516C657.044 18.6276 656.844 18.4427 656.578 18.2969C656.318 18.151 655.997 18.0781 655.617 18.0781C655.216 18.0781 654.891 18.1406 654.641 18.2656C654.396 18.3854 654.216 18.5391 654.102 18.7266C653.992 18.9141 653.938 19.112 653.938 19.3203C653.938 19.4766 653.964 19.6172 654.016 19.7422C654.073 19.862 654.172 19.974 654.312 20.0781C654.453 20.1771 654.651 20.2708 654.906 20.3594C655.161 20.4479 655.487 20.5365 655.883 20.625C656.576 20.7812 657.146 20.9688 657.594 21.1875C658.042 21.4062 658.375 21.6745 658.594 21.9922C658.812 22.3099 658.922 22.6953 658.922 23.1484C658.922 23.5182 658.844 23.8568 658.688 24.1641C658.536 24.4714 658.315 24.737 658.023 24.9609C657.737 25.1797 657.393 25.3516 656.992 25.4766C656.596 25.5964 656.151 25.6562 655.656 25.6562C654.911 25.6562 654.281 25.5234 653.766 25.2578C653.25 24.9922 652.859 24.6484 652.594 24.2266C652.328 23.8047 652.195 23.3594 652.195 22.8906H653.648C653.669 23.2865 653.784 23.6016 653.992 23.8359C654.201 24.0651 654.456 24.2292 654.758 24.3281C655.06 24.4219 655.359 24.4688 655.656 24.4688C656.052 24.4688 656.383 24.4167 656.648 24.3125C656.919 24.2083 657.125 24.0651 657.266 23.8828C657.406 23.7005 657.477 23.4922 657.477 23.2578ZM662.391 17.0469V25.5H660.938V17.0469H662.391ZM660.828 14.8047C660.828 14.5703 660.898 14.3724 661.039 14.2109C661.185 14.0495 661.398 13.9688 661.68 13.9688C661.956 13.9688 662.167 14.0495 662.312 14.2109C662.464 14.3724 662.539 14.5703 662.539 14.8047C662.539 15.0286 662.464 15.2214 662.312 15.3828C662.167 15.5391 661.956 15.6172 661.68 15.6172C661.398 15.6172 661.185 15.5391 661.039 15.3828C660.898 15.2214 660.828 15.0286 660.828 14.8047ZM669.633 23.2578C669.633 23.0495 669.586 22.8568 669.492 22.6797C669.404 22.4974 669.219 22.3333 668.938 22.1875C668.661 22.0365 668.245 21.9062 667.688 21.7969C667.219 21.6979 666.794 21.5807 666.414 21.4453C666.039 21.3099 665.719 21.1458 665.453 20.9531C665.193 20.7604 664.992 20.5339 664.852 20.2734C664.711 20.013 664.641 19.7083 664.641 19.3594C664.641 19.026 664.714 18.7109 664.859 18.4141C665.01 18.1172 665.221 17.8542 665.492 17.625C665.768 17.3958 666.099 17.2161 666.484 17.0859C666.87 16.9557 667.299 16.8906 667.773 16.8906C668.451 16.8906 669.029 17.0104 669.508 17.25C669.987 17.4896 670.354 17.8099 670.609 18.2109C670.865 18.6068 670.992 19.0469 670.992 19.5312H669.547C669.547 19.2969 669.477 19.0703 669.336 18.8516C669.201 18.6276 669 18.4427 668.734 18.2969C668.474 18.151 668.154 18.0781 667.773 18.0781C667.372 18.0781 667.047 18.1406 666.797 18.2656C666.552 18.3854 666.372 18.5391 666.258 18.7266C666.148 18.9141 666.094 19.112 666.094 19.3203C666.094 19.4766 666.12 19.6172 666.172 19.7422C666.229 19.862 666.328 19.974 666.469 20.0781C666.609 20.1771 666.807 20.2708 667.062 20.3594C667.318 20.4479 667.643 20.5365 668.039 20.625C668.732 20.7812 669.302 20.9688 669.75 21.1875C670.198 21.4062 670.531 21.6745 670.75 21.9922C670.969 22.3099 671.078 22.6953 671.078 23.1484C671.078 23.5182 671 23.8568 670.844 24.1641C670.693 24.4714 670.471 24.737 670.18 24.9609C669.893 25.1797 669.549 25.3516 669.148 25.4766C668.753 25.5964 668.307 25.6562 667.812 25.6562C667.068 25.6562 666.438 25.5234 665.922 25.2578C665.406 24.9922 665.016 24.6484 664.75 24.2266C664.484 23.8047 664.352 23.3594 664.352 22.8906H665.805C665.826 23.2865 665.94 23.6016 666.148 23.8359C666.357 24.0651 666.612 24.2292 666.914 24.3281C667.216 24.4219 667.516 24.4688 667.812 24.4688C668.208 24.4688 668.539 24.4167 668.805 24.3125C669.076 24.2083 669.281 24.0651 669.422 23.8828C669.562 23.7005 669.633 23.4922 669.633 23.2578ZM681.359 21.0391H678.32V19.8125H681.359C681.948 19.8125 682.424 19.7188 682.789 19.5312C683.154 19.3438 683.419 19.0833 683.586 18.75C683.758 18.4167 683.844 18.0365 683.844 17.6094C683.844 17.2188 683.758 16.8516 683.586 16.5078C683.419 16.1641 683.154 15.888 682.789 15.6797C682.424 15.4661 681.948 15.3594 681.359 15.3594H678.672V25.5H677.164V14.125H681.359C682.219 14.125 682.945 14.2734 683.539 14.5703C684.133 14.8672 684.583 15.2786 684.891 15.8047C685.198 16.3255 685.352 16.9219 685.352 17.5938C685.352 18.3229 685.198 18.9453 684.891 19.4609C684.583 19.9766 684.133 20.3698 683.539 20.6406C682.945 20.9062 682.219 21.0391 681.359 21.0391ZM690.438 25.6562C689.849 25.6562 689.315 25.5573 688.836 25.3594C688.362 25.1562 687.953 24.8724 687.609 24.5078C687.271 24.1432 687.01 23.7109 686.828 23.2109C686.646 22.7109 686.555 22.1641 686.555 21.5703V21.2422C686.555 20.5547 686.656 19.9427 686.859 19.4062C687.062 18.8646 687.339 18.4062 687.688 18.0312C688.036 17.6562 688.432 17.3724 688.875 17.1797C689.318 16.987 689.776 16.8906 690.25 16.8906C690.854 16.8906 691.375 16.9948 691.812 17.2031C692.255 17.4115 692.617 17.7031 692.898 18.0781C693.18 18.4479 693.388 18.8854 693.523 19.3906C693.659 19.8906 693.727 20.4375 693.727 21.0312V21.6797H687.414V20.5H692.281V20.3906C692.26 20.0156 692.182 19.651 692.047 19.2969C691.917 18.9427 691.708 18.651 691.422 18.4219C691.135 18.1927 690.745 18.0781 690.25 18.0781C689.922 18.0781 689.62 18.1484 689.344 18.2891C689.068 18.4245 688.831 18.6276 688.633 18.8984C688.435 19.1693 688.281 19.5 688.172 19.8906C688.062 20.2812 688.008 20.7318 688.008 21.2422V21.5703C688.008 21.9714 688.062 22.349 688.172 22.7031C688.286 23.0521 688.451 23.3594 688.664 23.625C688.883 23.8906 689.146 24.099 689.453 24.25C689.766 24.401 690.12 24.4766 690.516 24.4766C691.026 24.4766 691.458 24.3724 691.812 24.1641C692.167 23.9557 692.477 23.6771 692.742 23.3281L693.617 24.0234C693.435 24.2995 693.203 24.5625 692.922 24.8125C692.641 25.0625 692.294 25.2656 691.883 25.4219C691.477 25.5781 690.995 25.6562 690.438 25.6562ZM696.859 18.8516V25.5H695.414V17.0469H696.781L696.859 18.8516ZM696.516 20.9531L695.914 20.9297C695.919 20.3516 696.005 19.8177 696.172 19.3281C696.339 18.8333 696.573 18.4036 696.875 18.0391C697.177 17.6745 697.536 17.3932 697.953 17.1953C698.375 16.9922 698.841 16.8906 699.352 16.8906C699.768 16.8906 700.143 16.9479 700.477 17.0625C700.81 17.1719 701.094 17.349 701.328 17.5938C701.568 17.8385 701.75 18.1562 701.875 18.5469C702 18.9323 702.062 19.4036 702.062 19.9609V25.5H700.609V19.9453C700.609 19.5026 700.544 19.1484 700.414 18.8828C700.284 18.612 700.094 18.4167 699.844 18.2969C699.594 18.1719 699.286 18.1094 698.922 18.1094C698.562 18.1094 698.234 18.1849 697.938 18.3359C697.646 18.487 697.393 18.6953 697.18 18.9609C696.971 19.2266 696.807 19.5312 696.688 19.875C696.573 20.2135 696.516 20.5729 696.516 20.9531ZM709.586 23.8594V13.5H711.039V25.5H709.711L709.586 23.8594ZM703.898 21.3672V21.2031C703.898 20.5573 703.977 19.9714 704.133 19.4453C704.294 18.9141 704.521 18.4583 704.812 18.0781C705.109 17.6979 705.461 17.4062 705.867 17.2031C706.279 16.9948 706.737 16.8906 707.242 16.8906C707.773 16.8906 708.237 16.9844 708.633 17.1719C709.034 17.3542 709.372 17.6224 709.648 17.9766C709.93 18.3255 710.151 18.7474 710.312 19.2422C710.474 19.737 710.586 20.2969 710.648 20.9219V21.6406C710.591 22.2604 710.479 22.8177 710.312 23.3125C710.151 23.8073 709.93 24.2292 709.648 24.5781C709.372 24.9271 709.034 25.1953 708.633 25.3828C708.232 25.5651 707.763 25.6562 707.227 25.6562C706.732 25.6562 706.279 25.5495 705.867 25.3359C705.461 25.1224 705.109 24.8229 704.812 24.4375C704.521 24.0521 704.294 23.599 704.133 23.0781C703.977 22.5521 703.898 21.9818 703.898 21.3672ZM705.352 21.2031V21.3672C705.352 21.7891 705.393 22.1849 705.477 22.5547C705.565 22.9245 705.701 23.25 705.883 23.5312C706.065 23.8125 706.297 24.0339 706.578 24.1953C706.859 24.3516 707.195 24.4297 707.586 24.4297C708.065 24.4297 708.458 24.3281 708.766 24.125C709.078 23.9219 709.328 23.6536 709.516 23.3203C709.703 22.987 709.849 22.625 709.953 22.2344V20.3516C709.891 20.0651 709.799 19.7891 709.68 19.5234C709.565 19.2526 709.414 19.013 709.227 18.8047C709.044 18.5911 708.818 18.4219 708.547 18.2969C708.281 18.1719 707.966 18.1094 707.602 18.1094C707.206 18.1094 706.865 18.1927 706.578 18.3594C706.297 18.5208 706.065 18.7448 705.883 19.0312C705.701 19.3125 705.565 19.6406 705.477 20.0156C705.393 20.3854 705.352 20.7812 705.352 21.2031ZM714.859 17.0469V25.5H713.406V17.0469H714.859ZM713.297 14.8047C713.297 14.5703 713.367 14.3724 713.508 14.2109C713.654 14.0495 713.867 13.9688 714.148 13.9688C714.424 13.9688 714.635 14.0495 714.781 14.2109C714.932 14.3724 715.008 14.5703 715.008 14.8047C715.008 15.0286 714.932 15.2214 714.781 15.3828C714.635 15.5391 714.424 15.6172 714.148 15.6172C713.867 15.6172 713.654 15.5391 713.508 15.3828C713.367 15.2214 713.297 15.0286 713.297 14.8047ZM718.625 18.8516V25.5H717.18V17.0469H718.547L718.625 18.8516ZM718.281 20.9531L717.68 20.9297C717.685 20.3516 717.771 19.8177 717.938 19.3281C718.104 18.8333 718.339 18.4036 718.641 18.0391C718.943 17.6745 719.302 17.3932 719.719 17.1953C720.141 16.9922 720.607 16.8906 721.117 16.8906C721.534 16.8906 721.909 16.9479 722.242 17.0625C722.576 17.1719 722.859 17.349 723.094 17.5938C723.333 17.8385 723.516 18.1562 723.641 18.5469C723.766 18.9323 723.828 19.4036 723.828 19.9609V25.5H722.375V19.9453C722.375 19.5026 722.31 19.1484 722.18 18.8828C722.049 18.612 721.859 18.4167 721.609 18.2969C721.359 18.1719 721.052 18.1094 720.688 18.1094C720.328 18.1094 720 18.1849 719.703 18.3359C719.411 18.487 719.159 18.6953 718.945 18.9609C718.737 19.2266 718.573 19.5312 718.453 19.875C718.339 20.2135 718.281 20.5729 718.281 20.9531ZM731.5 17.0469H732.812V25.3203C732.812 26.0651 732.661 26.7005 732.359 27.2266C732.057 27.7526 731.635 28.151 731.094 28.4219C730.557 28.6979 729.938 28.8359 729.234 28.8359C728.943 28.8359 728.599 28.7891 728.203 28.6953C727.812 28.6068 727.427 28.4531 727.047 28.2344C726.672 28.0208 726.357 27.7318 726.102 27.3672L726.859 26.5078C727.214 26.9349 727.583 27.2318 727.969 27.3984C728.359 27.5651 728.745 27.6484 729.125 27.6484C729.583 27.6484 729.979 27.5625 730.312 27.3906C730.646 27.2188 730.904 26.9635 731.086 26.625C731.273 26.2917 731.367 25.8802 731.367 25.3906V18.9062L731.5 17.0469ZM725.68 21.3672V21.2031C725.68 20.5573 725.755 19.9714 725.906 19.4453C726.062 18.9141 726.284 18.4583 726.57 18.0781C726.862 17.6979 727.214 17.4062 727.625 17.2031C728.036 16.9948 728.5 16.8906 729.016 16.8906C729.547 16.8906 730.01 16.9844 730.406 17.1719C730.807 17.3542 731.146 17.6224 731.422 17.9766C731.703 18.3255 731.924 18.7474 732.086 19.2422C732.247 19.737 732.359 20.2969 732.422 20.9219V21.6406C732.365 22.2604 732.253 22.8177 732.086 23.3125C731.924 23.8073 731.703 24.2292 731.422 24.5781C731.146 24.9271 730.807 25.1953 730.406 25.3828C730.005 25.5651 729.536 25.6562 729 25.6562C728.495 25.6562 728.036 25.5495 727.625 25.3359C727.219 25.1224 726.87 24.8229 726.578 24.4375C726.286 24.0521 726.062 23.599 725.906 23.0781C725.755 22.5521 725.68 21.9818 725.68 21.3672ZM727.125 21.2031V21.3672C727.125 21.7891 727.167 22.1849 727.25 22.5547C727.339 22.9245 727.471 23.25 727.648 23.5312C727.831 23.8125 728.062 24.0339 728.344 24.1953C728.625 24.3516 728.961 24.4297 729.352 24.4297C729.831 24.4297 730.227 24.3281 730.539 24.125C730.852 23.9219 731.099 23.6536 731.281 23.3203C731.469 22.987 731.615 22.625 731.719 22.2344V20.3516C731.661 20.0651 731.573 19.7891 731.453 19.5234C731.339 19.2526 731.188 19.013 731 18.8047C730.818 18.5911 730.591 18.4219 730.32 18.2969C730.049 18.1719 729.732 18.1094 729.367 18.1094C728.971 18.1094 728.63 18.1927 728.344 18.3594C728.062 18.5208 727.831 18.7448 727.648 19.0312C727.471 19.3125 727.339 19.6406 727.25 20.0156C727.167 20.3854 727.125 20.7812 727.125 21.2031Z" fill="#8A8A8E"/>
<rect x="578.5" y="0.5" width="167" height="39" rx="3.5" stroke="#D1D1D6"/>
<rect x="754.5" y="0.5" width="187" height="39" rx="3.5" fill="white"/>
<circle cx="772" cy="20" r="5.5" fill="white" stroke="#8A8A8E"/>
<circle cx="772" cy="20" r="3.5" fill="#8A8A8E" stroke="#8A8A8E"/>
<path d="M793.531 15.1328L789.766 25.5H788.227L792.562 14.125H793.555L793.531 15.1328ZM796.688 25.5L792.914 15.1328L792.891 14.125H793.883L798.234 25.5H796.688ZM796.492 21.2891V22.5234H790.102V21.2891H796.492ZM800.984 18.8516V25.5H799.539V17.0469H800.906L800.984 18.8516ZM800.641 20.9531L800.039 20.9297C800.044 20.3516 800.13 19.8177 800.297 19.3281C800.464 18.8333 800.698 18.4036 801 18.0391C801.302 17.6745 801.661 17.3932 802.078 17.1953C802.5 16.9922 802.966 16.8906 803.477 16.8906C803.893 16.8906 804.268 16.9479 804.602 17.0625C804.935 17.1719 805.219 17.349 805.453 17.5938C805.693 17.8385 805.875 18.1562 806 18.5469C806.125 18.9323 806.188 19.4036 806.188 19.9609V25.5H804.734V19.9453C804.734 19.5026 804.669 19.1484 804.539 18.8828C804.409 18.612 804.219 18.4167 803.969 18.2969C803.719 18.1719 803.411 18.1094 803.047 18.1094C802.688 18.1094 802.359 18.1849 802.062 18.3359C801.771 18.487 801.518 18.6953 801.305 18.9609C801.096 19.2266 800.932 19.5312 800.812 19.875C800.698 20.2135 800.641 20.5729 800.641 20.9531ZM813.367 24.0547V19.7031C813.367 19.3698 813.299 19.0807 813.164 18.8359C813.034 18.5859 812.836 18.3932 812.57 18.2578C812.305 18.1224 811.977 18.0547 811.586 18.0547C811.221 18.0547 810.901 18.1172 810.625 18.2422C810.354 18.3672 810.141 18.5312 809.984 18.7344C809.833 18.9375 809.758 19.1562 809.758 19.3906H808.312C808.312 19.0885 808.391 18.7891 808.547 18.4922C808.703 18.1953 808.927 17.9271 809.219 17.6875C809.516 17.4427 809.87 17.25 810.281 17.1094C810.698 16.9635 811.161 16.8906 811.672 16.8906C812.286 16.8906 812.828 16.9948 813.297 17.2031C813.771 17.4115 814.141 17.7266 814.406 18.1484C814.677 18.5651 814.812 19.0885 814.812 19.7188V23.6562C814.812 23.9375 814.836 24.237 814.883 24.5547C814.935 24.8724 815.01 25.1458 815.109 25.375V25.5H813.602C813.529 25.3333 813.471 25.112 813.43 24.8359C813.388 24.5547 813.367 24.2943 813.367 24.0547ZM813.617 20.375L813.633 21.3906H812.172C811.76 21.3906 811.393 21.4245 811.07 21.4922C810.747 21.5547 810.477 21.651 810.258 21.7812C810.039 21.9115 809.872 22.0755 809.758 22.2734C809.643 22.4661 809.586 22.6927 809.586 22.9531C809.586 23.2188 809.646 23.4609 809.766 23.6797C809.885 23.8984 810.065 24.0729 810.305 24.2031C810.549 24.3281 810.849 24.3906 811.203 24.3906C811.646 24.3906 812.036 24.2969 812.375 24.1094C812.714 23.9219 812.982 23.6927 813.18 23.4219C813.383 23.151 813.492 22.888 813.508 22.6328L814.125 23.3281C814.089 23.5469 813.99 23.7891 813.828 24.0547C813.667 24.3203 813.451 24.5755 813.18 24.8203C812.914 25.0599 812.596 25.2604 812.227 25.4219C811.862 25.5781 811.451 25.6562 810.992 25.6562C810.419 25.6562 809.917 25.5443 809.484 25.3203C809.057 25.0964 808.724 24.7969 808.484 24.4219C808.25 24.0417 808.133 23.6172 808.133 23.1484C808.133 22.6953 808.221 22.2969 808.398 21.9531C808.576 21.6042 808.831 21.3151 809.164 21.0859C809.497 20.8516 809.898 20.6745 810.367 20.5547C810.836 20.4349 811.359 20.375 811.938 20.375H813.617ZM818.656 13.5V25.5H817.203V13.5H818.656ZM823.352 24.625L825.703 17.0469H827.25L823.859 26.8047C823.781 27.013 823.677 27.237 823.547 27.4766C823.422 27.7214 823.26 27.9531 823.062 28.1719C822.865 28.3906 822.625 28.5677 822.344 28.7031C822.068 28.8438 821.737 28.9141 821.352 28.9141C821.237 28.9141 821.091 28.8984 820.914 28.8672C820.737 28.8359 820.612 28.8099 820.539 28.7891L820.531 27.6172C820.573 27.6224 820.638 27.6276 820.727 27.6328C820.82 27.6432 820.885 27.6484 820.922 27.6484C821.25 27.6484 821.529 27.6042 821.758 27.5156C821.987 27.4323 822.18 27.2891 822.336 27.0859C822.497 26.888 822.635 26.6146 822.75 26.2656L823.352 24.625ZM821.625 17.0469L823.82 23.6094L824.195 25.1328L823.156 25.6641L820.047 17.0469H821.625ZM833.477 23.2578C833.477 23.0495 833.43 22.8568 833.336 22.6797C833.247 22.4974 833.062 22.3333 832.781 22.1875C832.505 22.0365 832.089 21.9062 831.531 21.7969C831.062 21.6979 830.638 21.5807 830.258 21.4453C829.883 21.3099 829.562 21.1458 829.297 20.9531C829.036 20.7604 828.836 20.5339 828.695 20.2734C828.555 20.013 828.484 19.7083 828.484 19.3594C828.484 19.026 828.557 18.7109 828.703 18.4141C828.854 18.1172 829.065 17.8542 829.336 17.625C829.612 17.3958 829.943 17.2161 830.328 17.0859C830.714 16.9557 831.143 16.8906 831.617 16.8906C832.294 16.8906 832.872 17.0104 833.352 17.25C833.831 17.4896 834.198 17.8099 834.453 18.2109C834.708 18.6068 834.836 19.0469 834.836 19.5312H833.391C833.391 19.2969 833.32 19.0703 833.18 18.8516C833.044 18.6276 832.844 18.4427 832.578 18.2969C832.318 18.151 831.997 18.0781 831.617 18.0781C831.216 18.0781 830.891 18.1406 830.641 18.2656C830.396 18.3854 830.216 18.5391 830.102 18.7266C829.992 18.9141 829.938 19.112 829.938 19.3203C829.938 19.4766 829.964 19.6172 830.016 19.7422C830.073 19.862 830.172 19.974 830.312 20.0781C830.453 20.1771 830.651 20.2708 830.906 20.3594C831.161 20.4479 831.487 20.5365 831.883 20.625C832.576 20.7812 833.146 20.9688 833.594 21.1875C834.042 21.4062 834.375 21.6745 834.594 21.9922C834.812 22.3099 834.922 22.6953 834.922 23.1484C834.922 23.5182 834.844 23.8568 834.688 24.1641C834.536 24.4714 834.315 24.737 834.023 24.9609C833.737 25.1797 833.393 25.3516 832.992 25.4766C832.596 25.5964 832.151 25.6562 831.656 25.6562C830.911 25.6562 830.281 25.5234 829.766 25.2578C829.25 24.9922 828.859 24.6484 828.594 24.2266C828.328 23.8047 828.195 23.3594 828.195 22.8906H829.648C829.669 23.2865 829.784 23.6016 829.992 23.8359C830.201 24.0651 830.456 24.2292 830.758 24.3281C831.06 24.4219 831.359 24.4688 831.656 24.4688C832.052 24.4688 832.383 24.4167 832.648 24.3125C832.919 24.2083 833.125 24.0651 833.266 23.8828C833.406 23.7005 833.477 23.4922 833.477 23.2578ZM838.391 17.0469V25.5H836.938V17.0469H838.391ZM836.828 14.8047C836.828 14.5703 836.898 14.3724 837.039 14.2109C837.185 14.0495 837.398 13.9688 837.68 13.9688C837.956 13.9688 838.167 14.0495 838.312 14.2109C838.464 14.3724 838.539 14.5703 838.539 14.8047C838.539 15.0286 838.464 15.2214 838.312 15.3828C838.167 15.5391 837.956 15.6172 837.68 15.6172C837.398 15.6172 837.185 15.5391 837.039 15.3828C836.898 15.2214 836.828 15.0286 836.828 14.8047ZM845.633 23.2578C845.633 23.0495 845.586 22.8568 845.492 22.6797C845.404 22.4974 845.219 22.3333 844.938 22.1875C844.661 22.0365 844.245 21.9062 843.688 21.7969C843.219 21.6979 842.794 21.5807 842.414 21.4453C842.039 21.3099 841.719 21.1458 841.453 20.9531C841.193 20.7604 840.992 20.5339 840.852 20.2734C840.711 20.013 840.641 19.7083 840.641 19.3594C840.641 19.026 840.714 18.7109 840.859 18.4141C841.01 18.1172 841.221 17.8542 841.492 17.625C841.768 17.3958 842.099 17.2161 842.484 17.0859C842.87 16.9557 843.299 16.8906 843.773 16.8906C844.451 16.8906 845.029 17.0104 845.508 17.25C845.987 17.4896 846.354 17.8099 846.609 18.2109C846.865 18.6068 846.992 19.0469 846.992 19.5312H845.547C845.547 19.2969 845.477 19.0703 845.336 18.8516C845.201 18.6276 845 18.4427 844.734 18.2969C844.474 18.151 844.154 18.0781 843.773 18.0781C843.372 18.0781 843.047 18.1406 842.797 18.2656C842.552 18.3854 842.372 18.5391 842.258 18.7266C842.148 18.9141 842.094 19.112 842.094 19.3203C842.094 19.4766 842.12 19.6172 842.172 19.7422C842.229 19.862 842.328 19.974 842.469 20.0781C842.609 20.1771 842.807 20.2708 843.062 20.3594C843.318 20.4479 843.643 20.5365 844.039 20.625C844.732 20.7812 845.302 20.9688 845.75 21.1875C846.198 21.4062 846.531 21.6745 846.75 21.9922C846.969 22.3099 847.078 22.6953 847.078 23.1484C847.078 23.5182 847 23.8568 846.844 24.1641C846.693 24.4714 846.471 24.737 846.18 24.9609C845.893 25.1797 845.549 25.3516 845.148 25.4766C844.753 25.5964 844.307 25.6562 843.812 25.6562C843.068 25.6562 842.438 25.5234 841.922 25.2578C841.406 24.9922 841.016 24.6484 840.75 24.2266C840.484 23.8047 840.352 23.3594 840.352 22.8906H841.805C841.826 23.2865 841.94 23.6016 842.148 23.8359C842.357 24.0651 842.612 24.2292 842.914 24.3281C843.216 24.4219 843.516 24.4688 843.812 24.4688C844.208 24.4688 844.539 24.4167 844.805 24.3125C845.076 24.2083 845.281 24.0651 845.422 23.8828C845.562 23.7005 845.633 23.4922 845.633 23.2578ZM860.031 21.8828H861.531C861.453 22.6016 861.247 23.2448 860.914 23.8125C860.581 24.3802 860.109 24.8307 859.5 25.1641C858.891 25.4922 858.13 25.6562 857.219 25.6562C856.552 25.6562 855.945 25.5312 855.398 25.2812C854.857 25.0312 854.391 24.6771 854 24.2188C853.609 23.7552 853.307 23.2005 853.094 22.5547C852.885 21.9036 852.781 21.1797 852.781 20.3828V19.25C852.781 18.4531 852.885 17.7318 853.094 17.0859C853.307 16.4349 853.612 15.8776 854.008 15.4141C854.409 14.9505 854.891 14.5938 855.453 14.3438C856.016 14.0938 856.648 13.9688 857.352 13.9688C858.211 13.9688 858.938 14.1302 859.531 14.4531C860.125 14.776 860.586 15.224 860.914 15.7969C861.247 16.3646 861.453 17.0234 861.531 17.7734H860.031C859.958 17.2422 859.823 16.7865 859.625 16.4062C859.427 16.0208 859.146 15.724 858.781 15.5156C858.417 15.3073 857.94 15.2031 857.352 15.2031C856.846 15.2031 856.401 15.2995 856.016 15.4922C855.635 15.6849 855.315 15.9583 855.055 16.3125C854.799 16.6667 854.607 17.0911 854.477 17.5859C854.346 18.0807 854.281 18.6302 854.281 19.2344V20.3828C854.281 20.9401 854.339 21.4635 854.453 21.9531C854.573 22.4427 854.753 22.8724 854.992 23.2422C855.232 23.612 855.536 23.9036 855.906 24.1172C856.276 24.3255 856.714 24.4297 857.219 24.4297C857.859 24.4297 858.37 24.3281 858.75 24.125C859.13 23.9219 859.417 23.6302 859.609 23.25C859.807 22.8698 859.948 22.4141 860.031 21.8828ZM862.984 21.3672V21.1875C862.984 20.5781 863.073 20.013 863.25 19.4922C863.427 18.9661 863.682 18.5104 864.016 18.125C864.349 17.7344 864.753 17.4323 865.227 17.2188C865.701 17 866.232 16.8906 866.82 16.8906C867.414 16.8906 867.948 17 868.422 17.2188C868.901 17.4323 869.307 17.7344 869.641 18.125C869.979 18.5104 870.237 18.9661 870.414 19.4922C870.591 20.013 870.68 20.5781 870.68 21.1875V21.3672C870.68 21.9766 870.591 22.5417 870.414 23.0625C870.237 23.5833 869.979 24.0391 869.641 24.4297C869.307 24.8151 868.904 25.1172 868.43 25.3359C867.961 25.5495 867.43 25.6562 866.836 25.6562C866.242 25.6562 865.708 25.5495 865.234 25.3359C864.76 25.1172 864.354 24.8151 864.016 24.4297C863.682 24.0391 863.427 23.5833 863.25 23.0625C863.073 22.5417 862.984 21.9766 862.984 21.3672ZM864.43 21.1875V21.3672C864.43 21.7891 864.479 22.1875 864.578 22.5625C864.677 22.9323 864.826 23.2604 865.023 23.5469C865.227 23.8333 865.479 24.0599 865.781 24.2266C866.083 24.388 866.435 24.4688 866.836 24.4688C867.232 24.4688 867.578 24.388 867.875 24.2266C868.177 24.0599 868.427 23.8333 868.625 23.5469C868.823 23.2604 868.971 22.9323 869.07 22.5625C869.174 22.1875 869.227 21.7891 869.227 21.3672V21.1875C869.227 20.7708 869.174 20.3776 869.07 20.0078C868.971 19.6328 868.82 19.3021 868.617 19.0156C868.419 18.724 868.169 18.4948 867.867 18.3281C867.57 18.1615 867.221 18.0781 866.82 18.0781C866.424 18.0781 866.076 18.1615 865.773 18.3281C865.477 18.4948 865.227 18.724 865.023 19.0156C864.826 19.3021 864.677 19.6328 864.578 20.0078C864.479 20.3776 864.43 20.7708 864.43 21.1875ZM873.93 18.7266V25.5H872.477V17.0469H873.852L873.93 18.7266ZM873.633 20.9531L872.961 20.9297C872.966 20.3516 873.042 19.8177 873.188 19.3281C873.333 18.8333 873.549 18.4036 873.836 18.0391C874.122 17.6745 874.479 17.3932 874.906 17.1953C875.333 16.9922 875.828 16.8906 876.391 16.8906C876.786 16.8906 877.151 16.9479 877.484 17.0625C877.818 17.1719 878.107 17.3464 878.352 17.5859C878.596 17.8255 878.786 18.1328 878.922 18.5078C879.057 18.8828 879.125 19.3359 879.125 19.8672V25.5H877.68V19.9375C877.68 19.4948 877.604 19.1406 877.453 18.875C877.307 18.6094 877.099 18.4167 876.828 18.2969C876.557 18.1719 876.24 18.1094 875.875 18.1094C875.448 18.1094 875.091 18.1849 874.805 18.3359C874.518 18.487 874.289 18.6953 874.117 18.9609C873.945 19.2266 873.82 19.5312 873.742 19.875C873.669 20.2135 873.633 20.5729 873.633 20.9531ZM879.109 20.1562L878.141 20.4531C878.146 19.9896 878.221 19.5443 878.367 19.1172C878.518 18.6901 878.734 18.3099 879.016 17.9766C879.302 17.6432 879.654 17.3802 880.07 17.1875C880.487 16.9896 880.964 16.8906 881.5 16.8906C881.953 16.8906 882.354 16.9505 882.703 17.0703C883.057 17.1901 883.354 17.375 883.594 17.625C883.839 17.8698 884.023 18.1849 884.148 18.5703C884.273 18.9557 884.336 19.4141 884.336 19.9453V25.5H882.883V19.9297C882.883 19.4557 882.807 19.0885 882.656 18.8281C882.51 18.5625 882.302 18.3776 882.031 18.2734C881.766 18.1641 881.448 18.1094 881.078 18.1094C880.76 18.1094 880.479 18.1641 880.234 18.2734C879.99 18.3828 879.784 18.5339 879.617 18.7266C879.451 18.9141 879.323 19.1302 879.234 19.375C879.151 19.6198 879.109 19.8802 879.109 20.1562ZM887.969 18.6719V28.75H886.516V17.0469H887.844L887.969 18.6719ZM893.664 21.2031V21.3672C893.664 21.9818 893.591 22.5521 893.445 23.0781C893.299 23.599 893.086 24.0521 892.805 24.4375C892.529 24.8229 892.188 25.1224 891.781 25.3359C891.375 25.5495 890.909 25.6562 890.383 25.6562C889.846 25.6562 889.372 25.5677 888.961 25.3906C888.549 25.2135 888.201 24.9557 887.914 24.6172C887.628 24.2786 887.398 23.8724 887.227 23.3984C887.06 22.9245 886.945 22.3906 886.883 21.7969V20.9219C886.945 20.2969 887.062 19.737 887.234 19.2422C887.406 18.7474 887.633 18.3255 887.914 17.9766C888.201 17.6224 888.547 17.3542 888.953 17.1719C889.359 16.9844 889.828 16.8906 890.359 16.8906C890.891 16.8906 891.362 16.9948 891.773 17.2031C892.185 17.4062 892.531 17.6979 892.812 18.0781C893.094 18.4583 893.305 18.9141 893.445 19.4453C893.591 19.9714 893.664 20.5573 893.664 21.2031ZM892.211 21.3672V21.2031C892.211 20.7812 892.167 20.3854 892.078 20.0156C891.99 19.6406 891.852 19.3125 891.664 19.0312C891.482 18.7448 891.247 18.5208 890.961 18.3594C890.674 18.1927 890.333 18.1094 889.938 18.1094C889.573 18.1094 889.255 18.1719 888.984 18.2969C888.719 18.4219 888.492 18.5911 888.305 18.8047C888.117 19.013 887.964 19.2526 887.844 19.5234C887.729 19.7891 887.643 20.0651 887.586 20.3516V22.375C887.69 22.7396 887.836 23.0833 888.023 23.4062C888.211 23.724 888.461 23.9818 888.773 24.1797C889.086 24.3724 889.479 24.4688 889.953 24.4688C890.344 24.4688 890.68 24.388 890.961 24.2266C891.247 24.0599 891.482 23.8333 891.664 23.5469C891.852 23.2604 891.99 22.9323 892.078 22.5625C892.167 22.1875 892.211 21.7891 892.211 21.3672ZM897.078 13.5V25.5H895.625V13.5H897.078ZM902.906 25.6562C902.318 25.6562 901.784 25.5573 901.305 25.3594C900.831 25.1562 900.422 24.8724 900.078 24.5078C899.74 24.1432 899.479 23.7109 899.297 23.2109C899.115 22.7109 899.023 22.1641 899.023 21.5703V21.2422C899.023 20.5547 899.125 19.9427 899.328 19.4062C899.531 18.8646 899.807 18.4062 900.156 18.0312C900.505 17.6562 900.901 17.3724 901.344 17.1797C901.786 16.987 902.245 16.8906 902.719 16.8906C903.323 16.8906 903.844 16.9948 904.281 17.2031C904.724 17.4115 905.086 17.7031 905.367 18.0781C905.648 18.4479 905.857 18.8854 905.992 19.3906C906.128 19.8906 906.195 20.4375 906.195 21.0312V21.6797H899.883V20.5H904.75V20.3906C904.729 20.0156 904.651 19.651 904.516 19.2969C904.385 18.9427 904.177 18.651 903.891 18.4219C903.604 18.1927 903.214 18.0781 902.719 18.0781C902.391 18.0781 902.089 18.1484 901.812 18.2891C901.536 18.4245 901.299 18.6276 901.102 18.8984C900.904 19.1693 900.75 19.5 900.641 19.8906C900.531 20.2812 900.477 20.7318 900.477 21.2422V21.5703C900.477 21.9714 900.531 22.349 900.641 22.7031C900.755 23.0521 900.919 23.3594 901.133 23.625C901.352 23.8906 901.615 24.099 901.922 24.25C902.234 24.401 902.589 24.4766 902.984 24.4766C903.495 24.4766 903.927 24.3724 904.281 24.1641C904.635 23.9557 904.945 23.6771 905.211 23.3281L906.086 24.0234C905.904 24.2995 905.672 24.5625 905.391 24.8125C905.109 25.0625 904.763 25.2656 904.352 25.4219C903.945 25.5781 903.464 25.6562 902.906 25.6562ZM911.422 17.0469V18.1562H906.852V17.0469H911.422ZM908.398 14.9922H909.844V23.4062C909.844 23.6927 909.888 23.9089 909.977 24.0547C910.065 24.2005 910.18 24.2969 910.32 24.3438C910.461 24.3906 910.612 24.4141 910.773 24.4141C910.893 24.4141 911.018 24.4036 911.148 24.3828C911.284 24.3568 911.385 24.3359 911.453 24.3203L911.461 25.5C911.346 25.5365 911.195 25.5703 911.008 25.6016C910.826 25.638 910.604 25.6562 910.344 25.6562C909.99 25.6562 909.664 25.5859 909.367 25.4453C909.07 25.3047 908.833 25.0703 908.656 24.7422C908.484 24.4089 908.398 23.9609 908.398 23.3984V14.9922ZM916.625 25.6562C916.036 25.6562 915.503 25.5573 915.023 25.3594C914.549 25.1562 914.141 24.8724 913.797 24.5078C913.458 24.1432 913.198 23.7109 913.016 23.2109C912.833 22.7109 912.742 22.1641 912.742 21.5703V21.2422C912.742 20.5547 912.844 19.9427 913.047 19.4062C913.25 18.8646 913.526 18.4062 913.875 18.0312C914.224 17.6562 914.62 17.3724 915.062 17.1797C915.505 16.987 915.964 16.8906 916.438 16.8906C917.042 16.8906 917.562 16.9948 918 17.2031C918.443 17.4115 918.805 17.7031 919.086 18.0781C919.367 18.4479 919.576 18.8854 919.711 19.3906C919.846 19.8906 919.914 20.4375 919.914 21.0312V21.6797H913.602V20.5H918.469V20.3906C918.448 20.0156 918.37 19.651 918.234 19.2969C918.104 18.9427 917.896 18.651 917.609 18.4219C917.323 18.1927 916.932 18.0781 916.438 18.0781C916.109 18.0781 915.807 18.1484 915.531 18.2891C915.255 18.4245 915.018 18.6276 914.82 18.8984C914.622 19.1693 914.469 19.5 914.359 19.8906C914.25 20.2812 914.195 20.7318 914.195 21.2422V21.5703C914.195 21.9714 914.25 22.349 914.359 22.7031C914.474 23.0521 914.638 23.3594 914.852 23.625C915.07 23.8906 915.333 24.099 915.641 24.25C915.953 24.401 916.307 24.4766 916.703 24.4766C917.214 24.4766 917.646 24.3724 918 24.1641C918.354 23.9557 918.664 23.6771 918.93 23.3281L919.805 24.0234C919.622 24.2995 919.391 24.5625 919.109 24.8125C918.828 25.0625 918.482 25.2656 918.07 25.4219C917.664 25.5781 917.182 25.6562 916.625 25.6562ZM926.93 23.8594V13.5H928.383V25.5H927.055L926.93 23.8594ZM921.242 21.3672V21.2031C921.242 20.5573 921.32 19.9714 921.477 19.4453C921.638 18.9141 921.865 18.4583 922.156 18.0781C922.453 17.6979 922.805 17.4062 923.211 17.2031C923.622 16.9948 924.081 16.8906 924.586 16.8906C925.117 16.8906 925.581 16.9844 925.977 17.1719C926.378 17.3542 926.716 17.6224 926.992 17.9766C927.273 18.3255 927.495 18.7474 927.656 19.2422C927.818 19.737 927.93 20.2969 927.992 20.9219V21.6406C927.935 22.2604 927.823 22.8177 927.656 23.3125C927.495 23.8073 927.273 24.2292 926.992 24.5781C926.716 24.9271 926.378 25.1953 925.977 25.3828C925.576 25.5651 925.107 25.6562 924.57 25.6562C924.076 25.6562 923.622 25.5495 923.211 25.3359C922.805 25.1224 922.453 24.8229 922.156 24.4375C921.865 24.0521 921.638 23.599 921.477 23.0781C921.32 22.5521 921.242 21.9818 921.242 21.3672ZM922.695 21.2031V21.3672C922.695 21.7891 922.737 22.1849 922.82 22.5547C922.909 22.9245 923.044 23.25 923.227 23.5312C923.409 23.8125 923.641 24.0339 923.922 24.1953C924.203 24.3516 924.539 24.4297 924.93 24.4297C925.409 24.4297 925.802 24.3281 926.109 24.125C926.422 23.9219 926.672 23.6536 926.859 23.3203C927.047 22.987 927.193 22.625 927.297 22.2344V20.3516C927.234 20.0651 927.143 19.7891 927.023 19.5234C926.909 19.2526 926.758 19.013 926.57 18.8047C926.388 18.5911 926.161 18.4219 925.891 18.2969C925.625 18.1719 925.31 18.1094 924.945 18.1094C924.549 18.1094 924.208 18.1927 923.922 18.3594C923.641 18.5208 923.409 18.7448 923.227 19.0312C923.044 19.3125 922.909 19.6406 922.82 20.0156C922.737 20.3854 922.695 20.7812 922.695 21.2031Z" fill="#8A8A8E"/>
<rect x="754.5" y="0.5" width="187" height="39" rx="3.5" stroke="#D1D1D6"/>
<defs>
<clipPath id="clip0_1198_54688">
<rect width="24" height="24" fill="white" transform="translate(116 8)"/>
</clipPath>
<clipPath id="clip1_1198_54688">
<rect width="24" height="24" fill="white" transform="translate(164 8)"/>
</clipPath>
</defs>
</svg>
