<svg width="20" height="20" viewBox="0 0 20 20" fill="none" xmlns="http://www.w3.org/2000/svg">
<circle cx="10" cy="10" r="9" fill="white" stroke="#F76161" stroke-width="2"/>
<mask id="path-2-inside-1_1193_62868" fill="white">
<path d="M10.0002 16.6667C8.23209 16.6667 6.5364 15.9643 5.28616 14.7141C4.03592 13.4638 3.33354 11.7682 3.33354 10C3.33354 8.23193 4.03592 6.53624 5.28616 5.286C6.5364 4.03575 8.23209 3.33337 10.0002 3.33337L10.0002 10V16.6667Z"/>
</mask>
<path d="M10.0002 16.6667C8.23209 16.6667 6.5364 15.9643 5.28616 14.7141C4.03592 13.4638 3.33354 11.7682 3.33354 10C3.33354 8.23193 4.03592 6.53624 5.28616 5.286C6.5364 4.03575 8.23209 3.33337 10.0002 3.33337L10.0002 10V16.6667Z" fill="#F76161" stroke="#F76161" stroke-width="2" mask="url(#path-2-inside-1_1193_62868)"/>
</svg>
