<svg width="200" height="164" viewBox="0 0 200 164" fill="none" xmlns="http://www.w3.org/2000/svg">
<rect width="100" height="40" rx="4" fill="#E4E4E6"/>
<g clip-path="url(#clip0_1252_78357)">
<path d="M34 13.5H31V12H31.5C32.05 12 32.5 11.55 32.5 11C32.5 10.45 32.05 10 31.5 10H28.5C27.95 10 27.5 10.45 27.5 11C27.5 11.55 27.95 12 28.5 12H29V13.5H26C25.45 13.5 25 13.95 25 14.5C25 15.05 25.45 15.5 26 15.5V23C26 24.1 26.9 25 28 25H29V29L31 30.5V25H32C33.1 25 34 24.1 34 23V15.5C34.55 15.5 35 15.05 35 14.5C35 13.95 34.55 13.5 34 13.5ZM32 17H30.25C29.84 17 29.5 17.34 29.5 17.75C29.5 18.16 29.84 18.5 30.25 18.5H32V20H30.25C29.84 20 29.5 20.34 29.5 20.75C29.5 21.16 29.84 21.5 30.25 21.5H32V23H28V15.5H32V17ZM42.5 18.5V18C43.05 18 43.5 17.55 43.5 17C43.5 16.45 43.05 16 42.5 16H37.5C36.95 16 36.5 16.45 36.5 17C36.5 17.55 36.95 18 37.5 18V18.5C37.5 19 36 19.66 36 21.5V28C36 29.1 36.9 30 38 30H42C43.1 30 44 29.1 44 28V21.5C44 19.66 42.5 19 42.5 18.5ZM39.5 18.5V18H40.5V18.5C40.5 20.1 42 20.5 42 21.5V22H38C38 21.79 38 21.61 38 21.5C38 20.5 39.5 20.1 39.5 18.5ZM42 23.5V25H38C38 24.49 38 23.98 38 23.5H42ZM38 28C38 28 38 27.37 38 26.5H42V28H38Z" fill="black"/>
</g>
<path d="M55.6364 15.6307V13.8636H64.9205V15.6307H61.3239V25.5H59.233V15.6307H55.6364ZM68.4716 13.8636L71.0341 18.125H71.125L73.6989 13.8636H76.1023L72.517 19.6818L76.1591 25.5H73.7159L71.125 21.267H71.0341L68.4432 25.5H66.0114L69.6875 19.6818L66.0568 13.8636H68.4716Z" fill="black"/>
<g clip-path="url(#clip1_1252_78357)">
<path d="M135.235 12.7102C135.166 12.6407 135.083 12.5855 134.992 12.5478C134.902 12.5102 134.804 12.4908 134.706 12.4908C134.608 12.4908 134.51 12.5102 134.419 12.5478C134.329 12.5855 134.246 12.6407 134.177 12.7102C133.845 13.0452 133.478 13.3424 133.081 13.5964C133.056 13.5473 133.025 13.5011 132.989 13.459L129.995 10.4651C129.953 10.4294 129.907 10.3987 129.858 10.3737C130.112 9.97688 130.409 9.60939 130.744 9.2779C130.884 9.13752 130.963 8.94711 130.963 8.74858C130.963 8.55004 130.884 8.35964 130.744 8.21925C130.603 8.07887 130.413 8 130.214 8C130.016 8 129.825 8.07887 129.685 8.21925C127.704 10.2007 127.429 12.3403 127.497 14.3527C125.102 14.1604 122.406 14.0003 119.954 16.4528C117.501 18.9041 117.663 21.5993 117.854 23.995C115.84 23.9274 113.701 24.2023 111.719 26.1837C111.579 26.324 111.5 26.5144 111.5 26.7129C111.5 26.9115 111.579 27.1018 111.719 27.2422C111.86 27.3825 112.05 27.4614 112.249 27.4614C112.447 27.4613 112.637 27.3825 112.778 27.2421C113.109 26.9071 113.477 26.6099 113.874 26.3559C113.899 26.4051 113.929 26.4513 113.965 26.4936L116.959 29.4875C117.002 29.5232 117.048 29.5538 117.097 29.5789C116.843 29.9757 116.546 30.3432 116.211 30.6747C116.141 30.7442 116.086 30.8267 116.048 30.9175C116.011 31.0084 115.991 31.1057 115.991 31.204C115.991 31.3023 116.011 31.3996 116.048 31.4905C116.086 31.5813 116.141 31.6638 116.211 31.7333C116.28 31.8028 116.363 31.858 116.454 31.8956C116.544 31.9332 116.642 31.9526 116.74 31.9526C116.838 31.9526 116.936 31.9332 117.027 31.8956C117.117 31.858 117.2 31.8028 117.269 31.7333C119.252 29.7517 119.526 27.6125 119.459 25.5997C121.852 25.7897 124.548 25.9516 127.001 23.4995C129.453 21.0482 129.292 18.3548 129.101 15.9584C131.115 16.0267 133.254 15.7504 135.235 13.7687C135.305 13.6992 135.36 13.6167 135.398 13.5259C135.435 13.4351 135.455 13.3377 135.455 13.2394C135.455 13.1411 135.435 13.0438 135.398 12.953C135.36 12.8622 135.305 12.7797 135.235 12.7102ZM123.879 23.8106L119.643 19.5749C119.852 19.0308 120.146 18.5234 120.514 18.0716L125.382 22.9392C124.93 23.3074 124.423 23.6015 123.879 23.8106ZM126.44 21.8807L121.573 17.0135C122.025 16.6453 122.532 16.3512 123.076 16.1421L127.312 20.3775C127.103 20.9216 126.809 21.429 126.44 21.8807ZM115.307 25.7191C116.157 25.482 117.035 25.4509 117.959 25.494C118.002 26.4172 117.971 27.2955 117.734 28.1453L115.307 25.7191ZM119.422 24.0946C119.403 24.093 119.383 24.0916 119.363 24.0898C119.362 24.0704 119.36 24.0503 119.359 24.0309C119.282 23.0829 119.212 22.1859 119.275 21.3234L122.131 24.1793C121.268 24.2418 120.371 24.1717 119.422 24.0946H119.422ZM127.596 15.9207C127.672 16.8695 127.742 17.7664 127.68 18.629L124.825 15.7737C125.687 15.7114 126.584 15.781 127.533 15.8578C127.552 15.8592 127.572 15.8608 127.592 15.8626C127.593 15.882 127.594 15.9014 127.596 15.9207ZM128.996 14.4587C128.953 13.5354 128.984 12.6572 129.221 11.8074L131.647 14.2335C130.797 14.4707 129.919 14.5018 128.996 14.4587ZM132.68 11.5231C132.82 11.6634 133.01 11.7423 133.209 11.7423C133.407 11.7423 133.598 11.6634 133.738 11.5231C133.879 11.3827 133.957 11.1923 133.957 10.9937C133.957 10.7952 133.879 10.6048 133.738 10.4644L132.99 9.71612C132.92 9.6466 132.838 9.59146 132.747 9.55384C132.656 9.51622 132.559 9.49686 132.46 9.49686C132.362 9.49686 132.265 9.51622 132.174 9.55384C132.083 9.59146 132 9.6466 131.931 9.71612C131.861 9.78563 131.806 9.86815 131.769 9.95897C131.731 10.0498 131.712 10.1471 131.712 10.2454C131.712 10.3437 131.731 10.4411 131.769 10.5319C131.806 10.6227 131.861 10.7053 131.931 10.7748L132.68 11.5231ZM114.275 28.4293C114.135 28.2889 113.944 28.21 113.746 28.21C113.547 28.21 113.357 28.2888 113.216 28.4292C113.076 28.5695 112.997 28.7599 112.997 28.9584C112.997 29.1569 113.076 29.3473 113.216 29.4877L113.965 30.2362C114.106 30.3766 114.296 30.4555 114.494 30.4555C114.693 30.4555 114.883 30.3766 115.024 30.2362C115.164 30.0958 115.243 29.9054 115.243 29.7069C115.243 29.5084 115.164 29.318 115.024 29.1776L114.275 28.4293Z" fill="#8A8A8E"/>
</g>
<path d="M152.653 17.5398C152.544 17.1951 152.396 16.8864 152.21 16.6136C152.028 16.3371 151.811 16.1023 151.557 15.9091C151.303 15.7121 151.013 15.5625 150.688 15.4602C150.366 15.358 150.011 15.3068 149.625 15.3068C148.97 15.3068 148.379 15.4754 147.852 15.8125C147.326 16.1496 146.909 16.6439 146.602 17.2955C146.299 17.9432 146.148 18.7367 146.148 19.6761C146.148 20.6193 146.301 21.4167 146.608 22.0682C146.915 22.7197 147.335 23.214 147.869 23.5511C148.403 23.8883 149.011 24.0568 149.693 24.0568C150.326 24.0568 150.877 23.928 151.347 23.6705C151.82 23.4129 152.186 23.0492 152.443 22.5795C152.705 22.1061 152.835 21.5492 152.835 20.9091L153.29 20.9943H149.96V19.5455H154.534V20.8693C154.534 21.8466 154.326 22.6951 153.909 23.4148C153.496 24.1307 152.924 24.6837 152.193 25.0739C151.466 25.464 150.633 25.6591 149.693 25.6591C148.64 25.6591 147.716 25.4167 146.92 24.9318C146.129 24.447 145.511 23.7595 145.068 22.8693C144.625 21.9754 144.403 20.9148 144.403 19.6875C144.403 18.7595 144.532 17.9261 144.79 17.1875C145.047 16.4489 145.409 15.822 145.875 15.3068C146.345 14.7879 146.896 14.392 147.528 14.1193C148.165 13.8428 148.86 13.7045 149.614 13.7045C150.242 13.7045 150.828 13.7973 151.369 13.983C151.915 14.1686 152.4 14.4318 152.824 14.7727C153.252 15.1136 153.606 15.5189 153.886 15.9886C154.167 16.4545 154.356 16.9716 154.455 17.5398H152.653ZM156.763 25.5V13.8636H160.911C161.816 13.8636 162.566 14.0284 163.161 14.358C163.755 14.6875 164.2 15.1383 164.496 15.7102C164.791 16.2784 164.939 16.9186 164.939 17.6307C164.939 18.3466 164.789 18.9905 164.49 19.5625C164.195 20.1307 163.748 20.5814 163.149 20.9148C162.554 21.2443 161.806 21.4091 160.905 21.4091H158.053V19.9205H160.746C161.318 19.9205 161.782 19.822 162.138 19.625C162.494 19.4242 162.755 19.1515 162.922 18.8068C163.089 18.4621 163.172 18.0701 163.172 17.6307C163.172 17.1913 163.089 16.8011 162.922 16.4602C162.755 16.1193 162.492 15.8523 162.132 15.6591C161.776 15.4659 161.306 15.3693 160.723 15.3693H158.518V25.5H156.763ZM176.662 17.6477H174.889C174.821 17.2689 174.694 16.9356 174.509 16.6477C174.323 16.3598 174.096 16.1155 173.827 15.9148C173.558 15.714 173.257 15.5625 172.923 15.4602C172.594 15.358 172.243 15.3068 171.872 15.3068C171.202 15.3068 170.601 15.4754 170.071 15.8125C169.545 16.1496 169.128 16.6439 168.821 17.2955C168.518 17.947 168.366 18.7424 168.366 19.6818C168.366 20.6288 168.518 21.428 168.821 22.0795C169.128 22.7311 169.546 23.2235 170.077 23.5568C170.607 23.8902 171.204 24.0568 171.866 24.0568C172.234 24.0568 172.582 24.0076 172.912 23.9091C173.245 23.8068 173.546 23.6572 173.815 23.4602C174.084 23.2633 174.312 23.0227 174.497 22.7386C174.687 22.4508 174.817 22.1212 174.889 21.75L176.662 21.7557C176.567 22.3277 176.384 22.8542 176.111 23.3352C175.842 23.8125 175.495 24.2254 175.071 24.5739C174.651 24.9186 174.17 25.1856 173.628 25.375C173.086 25.5644 172.495 25.6591 171.855 25.6591C170.848 25.6591 169.95 25.4205 169.162 24.9432C168.374 24.4621 167.753 23.7746 167.298 22.8807C166.848 21.9867 166.622 20.9205 166.622 19.6818C166.622 18.4394 166.849 17.3731 167.304 16.483C167.759 15.589 168.38 14.9034 169.168 14.4261C169.955 13.9451 170.851 13.7045 171.855 13.7045C172.473 13.7045 173.048 13.7936 173.582 13.9716C174.12 14.1458 174.603 14.4034 175.031 14.7443C175.459 15.0814 175.813 15.4943 176.094 15.983C176.374 16.4678 176.563 17.0227 176.662 17.6477ZM178.763 25.5V13.8636H182.911C183.812 13.8636 184.56 14.0189 185.155 14.3295C185.753 14.6402 186.2 15.0701 186.496 15.6193C186.791 16.1648 186.939 16.7955 186.939 17.5114C186.939 18.2235 186.789 18.8504 186.49 19.392C186.195 19.9299 185.748 20.3485 185.149 20.6477C184.554 20.947 183.806 21.0966 182.905 21.0966H179.763V19.5852H182.746C183.314 19.5852 183.776 19.5038 184.132 19.3409C184.492 19.178 184.755 18.9413 184.922 18.6307C185.089 18.3201 185.172 17.947 185.172 17.5114C185.172 17.072 185.087 16.6913 184.916 16.3693C184.75 16.0473 184.486 15.8011 184.126 15.6307C183.77 15.4564 183.303 15.3693 182.723 15.3693H180.518V25.5H178.763ZM184.507 20.25L187.382 25.5H185.382L182.564 20.25H184.507Z" fill="#8A8A8E"/>
<rect x="0.5" y="52.5" width="199" height="49" rx="3.5" fill="white"/>
<path d="M26.7727 74.5H25.3636C25.2803 74.0947 25.1345 73.7386 24.9261 73.4318C24.7216 73.125 24.4716 72.8674 24.1761 72.6591C23.8845 72.447 23.5606 72.2879 23.2045 72.1818C22.8485 72.0758 22.4773 72.0227 22.0909 72.0227C21.3864 72.0227 20.7481 72.2008 20.1761 72.5568C19.608 72.9129 19.1553 73.4375 18.8182 74.1307C18.4848 74.8239 18.3182 75.6742 18.3182 76.6818C18.3182 77.6894 18.4848 78.5398 18.8182 79.233C19.1553 79.9261 19.608 80.4508 20.1761 80.8068C20.7481 81.1629 21.3864 81.3409 22.0909 81.3409C22.4773 81.3409 22.8485 81.2879 23.2045 81.1818C23.5606 81.0758 23.8845 80.9186 24.1761 80.7102C24.4716 80.4981 24.7216 80.2386 24.9261 79.9318C25.1345 79.6212 25.2803 79.2652 25.3636 78.8636H26.7727C26.6667 79.4583 26.4735 79.9905 26.1932 80.4602C25.9129 80.9299 25.5644 81.3295 25.1477 81.6591C24.7311 81.9848 24.2633 82.233 23.7443 82.4034C23.2292 82.5739 22.678 82.6591 22.0909 82.6591C21.0985 82.6591 20.2159 82.4167 19.4432 81.9318C18.6705 81.447 18.0625 80.7576 17.6193 79.8636C17.1761 78.9697 16.9545 77.9091 16.9545 76.6818C16.9545 75.4545 17.1761 74.3939 17.6193 73.5C18.0625 72.6061 18.6705 71.9167 19.4432 71.4318C20.2159 70.947 21.0985 70.7045 22.0909 70.7045C22.678 70.7045 23.2292 70.7898 23.7443 70.9602C24.2633 71.1307 24.7311 71.3807 25.1477 71.7102C25.5644 72.036 25.9129 72.4337 26.1932 72.9034C26.4735 73.3693 26.6667 73.9015 26.7727 74.5ZM31.4361 82.7045C30.883 82.7045 30.3812 82.6004 29.9304 82.392C29.4796 82.1799 29.1217 81.875 28.8565 81.4773C28.5914 81.0758 28.4588 80.5909 28.4588 80.0227C28.4588 79.5227 28.5573 79.1174 28.7543 78.8068C28.9512 78.4924 29.2145 78.2462 29.544 78.0682C29.8736 77.8902 30.2372 77.7576 30.6349 77.6705C31.0365 77.5795 31.4399 77.5076 31.8452 77.4545C32.3755 77.3864 32.8054 77.3352 33.1349 77.3011C33.4683 77.2633 33.7107 77.2008 33.8622 77.1136C34.0175 77.0265 34.0952 76.875 34.0952 76.6591V76.6136C34.0952 76.053 33.9418 75.6174 33.6349 75.3068C33.3319 74.9962 32.8717 74.8409 32.2543 74.8409C31.6141 74.8409 31.1122 74.9811 30.7486 75.2614C30.3849 75.5417 30.1293 75.8409 29.9815 76.1591L28.7088 75.7045C28.9361 75.1742 29.2391 74.7614 29.6179 74.4659C30.0005 74.1667 30.4171 73.9583 30.8679 73.8409C31.3224 73.7197 31.7694 73.6591 32.2088 73.6591C32.4891 73.6591 32.8111 73.6932 33.1747 73.7614C33.5421 73.8258 33.8963 73.9602 34.2372 74.1648C34.5819 74.3693 34.8679 74.678 35.0952 75.0909C35.3224 75.5038 35.4361 76.0568 35.4361 76.75V82.5H34.0952V81.3182H34.027C33.9361 81.5076 33.7846 81.7102 33.5724 81.9261C33.3603 82.142 33.0781 82.3258 32.7259 82.4773C32.3736 82.6288 31.9437 82.7045 31.4361 82.7045ZM31.6406 81.5C32.1709 81.5 32.6179 81.3958 32.9815 81.1875C33.349 80.9792 33.6255 80.7102 33.8111 80.3807C34.0005 80.0511 34.0952 79.7045 34.0952 79.3409V78.1136C34.0384 78.1818 33.9134 78.2443 33.7202 78.3011C33.5308 78.3542 33.3111 78.4015 33.0611 78.4432C32.8149 78.4811 32.5743 78.5152 32.3395 78.5455C32.1084 78.572 31.9209 78.5947 31.777 78.6136C31.4285 78.6591 31.1027 78.733 30.7997 78.8352C30.5005 78.9337 30.258 79.0833 30.0724 79.2841C29.8906 79.4811 29.7997 79.75 29.7997 80.0909C29.7997 80.5568 29.9721 80.9091 30.3168 81.1477C30.6652 81.3826 31.1065 81.5 31.6406 81.5ZM41.7699 73.7727V74.9091H37.0653V73.7727H41.7699ZM38.4744 82.5V72.5682C38.4744 72.0682 38.5919 71.6515 38.8267 71.3182C39.0616 70.9848 39.3665 70.7348 39.7415 70.5682C40.1165 70.4015 40.5123 70.3182 40.929 70.3182C41.2585 70.3182 41.5275 70.3447 41.7358 70.3977C41.9441 70.4508 42.0994 70.5 42.2017 70.5455L41.8153 71.7045C41.7472 71.6818 41.6525 71.6534 41.5312 71.6193C41.4138 71.5852 41.2585 71.5682 41.0653 71.5682C40.6222 71.5682 40.3021 71.6799 40.1051 71.9034C39.9119 72.1269 39.8153 72.4545 39.8153 72.8864V82.5H38.4744ZM47.5355 73.7727V74.9091H42.831V73.7727H47.5355ZM44.2401 82.5V72.5682C44.2401 72.0682 44.3575 71.6515 44.5923 71.3182C44.8272 70.9848 45.1321 70.7348 45.5071 70.5682C45.8821 70.4015 46.2779 70.3182 46.6946 70.3182C47.0241 70.3182 47.2931 70.3447 47.5014 70.3977C47.7098 70.4508 47.8651 70.5 47.9673 70.5455L47.581 71.7045C47.5128 71.6818 47.4181 71.6534 47.2969 71.6193C47.1795 71.5852 47.0241 71.5682 46.831 71.5682C46.3878 71.5682 46.0677 71.6799 45.8707 71.9034C45.6776 72.1269 45.581 72.4545 45.581 72.8864V82.5H44.2401ZM52.7145 82.6818C51.8736 82.6818 51.1482 82.4962 50.5384 82.125C49.9323 81.75 49.4645 81.2273 49.1349 80.5568C48.8092 79.8826 48.6463 79.0985 48.6463 78.2045C48.6463 77.3106 48.8092 76.5227 49.1349 75.8409C49.4645 75.1553 49.9228 74.6212 50.5099 74.2386C51.1009 73.8523 51.7902 73.6591 52.5781 73.6591C53.0327 73.6591 53.4815 73.7348 53.9247 73.8864C54.3679 74.0379 54.7713 74.2841 55.1349 74.625C55.4986 74.9621 55.7884 75.4091 56.0043 75.9659C56.2202 76.5227 56.3281 77.2083 56.3281 78.0227V78.5909H49.6009V77.4318H54.9645C54.9645 76.9394 54.866 76.5 54.669 76.1136C54.4759 75.7273 54.1993 75.4223 53.8395 75.1989C53.4834 74.9754 53.063 74.8636 52.5781 74.8636C52.044 74.8636 51.5819 74.9962 51.1918 75.2614C50.8054 75.5227 50.508 75.8636 50.2997 76.2841C50.0914 76.7045 49.9872 77.1553 49.9872 77.6364V78.4091C49.9872 79.0682 50.1009 79.6269 50.3281 80.0852C50.5592 80.5398 50.8793 80.8864 51.2884 81.125C51.6974 81.3598 52.1728 81.4773 52.7145 81.4773C53.0668 81.4773 53.3849 81.428 53.669 81.3295C53.9569 81.2273 54.205 81.0758 54.4134 80.875C54.6217 80.6705 54.7827 80.4167 54.8963 80.1136L56.1918 80.4773C56.0554 80.9167 55.8262 81.303 55.5043 81.6364C55.1823 81.9659 54.7846 82.2235 54.3111 82.4091C53.8376 82.5909 53.3054 82.6818 52.7145 82.6818ZM58.3679 82.5V73.7727H59.7088V82.5H58.3679ZM59.0497 72.3182C58.7884 72.3182 58.563 72.2292 58.3736 72.0511C58.188 71.8731 58.0952 71.6591 58.0952 71.4091C58.0952 71.1591 58.188 70.9451 58.3736 70.767C58.563 70.589 58.7884 70.5 59.0497 70.5C59.3111 70.5 59.5346 70.589 59.7202 70.767C59.9096 70.9451 60.0043 71.1591 60.0043 71.4091C60.0043 71.6591 59.9096 71.8731 59.7202 72.0511C59.5346 72.2292 59.3111 72.3182 59.0497 72.3182ZM63.5057 77.25V82.5H62.1648V73.7727H63.4602V75.1364H63.5739C63.7784 74.6932 64.089 74.3371 64.5057 74.0682C64.9223 73.7955 65.4602 73.6591 66.1193 73.6591C66.7102 73.6591 67.2273 73.7803 67.6705 74.0227C68.1136 74.2614 68.4583 74.625 68.7045 75.1136C68.9508 75.5985 69.0739 76.2121 69.0739 76.9545V82.5H67.733V77.0455C67.733 76.3598 67.5549 75.8258 67.1989 75.4432C66.8428 75.0568 66.3542 74.8636 65.733 74.8636C65.3049 74.8636 64.9223 74.9564 64.5852 75.142C64.2519 75.3277 63.9886 75.5985 63.7955 75.9545C63.6023 76.3106 63.5057 76.7424 63.5057 77.25ZM75.1832 82.6818C74.3423 82.6818 73.617 82.4962 73.0071 82.125C72.401 81.75 71.9332 81.2273 71.6037 80.5568C71.2779 79.8826 71.1151 79.0985 71.1151 78.2045C71.1151 77.3106 71.2779 76.5227 71.6037 75.8409C71.9332 75.1553 72.3916 74.6212 72.9787 74.2386C73.5696 73.8523 74.259 73.6591 75.0469 73.6591C75.5014 73.6591 75.9503 73.7348 76.3935 73.8864C76.8366 74.0379 77.2401 74.2841 77.6037 74.625C77.9673 74.9621 78.2571 75.4091 78.473 75.9659C78.6889 76.5227 78.7969 77.2083 78.7969 78.0227V78.5909H72.0696V77.4318H77.4332C77.4332 76.9394 77.3348 76.5 77.1378 76.1136C76.9446 75.7273 76.6681 75.4223 76.3082 75.1989C75.9522 74.9754 75.5317 74.8636 75.0469 74.8636C74.5128 74.8636 74.0507 74.9962 73.6605 75.2614C73.2741 75.5227 72.9768 75.8636 72.7685 76.2841C72.5601 76.7045 72.456 77.1553 72.456 77.6364V78.4091C72.456 79.0682 72.5696 79.6269 72.7969 80.0852C73.0279 80.5398 73.348 80.8864 73.7571 81.125C74.1662 81.3598 74.6416 81.4773 75.1832 81.4773C75.5355 81.4773 75.8537 81.428 76.1378 81.3295C76.4257 81.2273 76.6738 81.0758 76.8821 80.875C77.0904 80.6705 77.2514 80.4167 77.3651 80.1136L78.6605 80.4773C78.5241 80.9167 78.295 81.303 77.973 81.6364C77.651 81.9659 77.2533 82.2235 76.7798 82.4091C76.3063 82.5909 75.7741 82.6818 75.1832 82.6818Z" fill="black"/>
<line x1="186" y1="64" x2="186" y2="90" stroke="#5856D6" stroke-width="4"/>
<rect x="0.5" y="52.5" width="199" height="49" rx="3.5" stroke="#DFE3ED"/>
<rect x="0.5" y="114.5" width="199" height="49" rx="3.5" fill="white"/>
<path d="M25.3636 136.5C25.2386 136.117 25.0739 135.775 24.8693 135.472C24.6686 135.165 24.428 134.903 24.1477 134.688C23.8712 134.472 23.5568 134.307 23.2045 134.193C22.8523 134.08 22.4659 134.023 22.0455 134.023C21.3561 134.023 20.7292 134.201 20.1648 134.557C19.6004 134.913 19.1515 135.438 18.8182 136.131C18.4848 136.824 18.3182 137.674 18.3182 138.682C18.3182 139.689 18.4867 140.54 18.8239 141.233C19.161 141.926 19.6174 142.451 20.1932 142.807C20.7689 143.163 21.4167 143.341 22.1364 143.341C22.803 143.341 23.3902 143.199 23.8977 142.915C24.4091 142.627 24.8068 142.222 25.0909 141.699C25.3788 141.172 25.5227 140.553 25.5227 139.841L25.9545 139.932H22.4545V138.682H26.8864V139.932C26.8864 140.89 26.6818 141.723 26.2727 142.432C25.8674 143.14 25.3068 143.689 24.5909 144.08C23.8788 144.466 23.0606 144.659 22.1364 144.659C21.1061 144.659 20.2008 144.417 19.4205 143.932C18.6439 143.447 18.0379 142.758 17.6023 141.864C17.1705 140.97 16.9545 139.909 16.9545 138.682C16.9545 137.761 17.0777 136.934 17.3239 136.199C17.5739 135.46 17.9261 134.831 18.3807 134.312C18.8352 133.794 19.3731 133.396 19.9943 133.119C20.6155 132.843 21.2992 132.705 22.0455 132.705C22.6591 132.705 23.2311 132.797 23.7614 132.983C24.2955 133.165 24.7708 133.424 25.1875 133.761C25.608 134.095 25.9583 134.494 26.2386 134.96C26.5189 135.422 26.7121 135.936 26.8182 136.5H25.3636ZM30.4588 132.864V144.5H29.1179V132.864H30.4588ZM38.4148 140.932V135.773H39.7557V144.5H38.4148V143.023H38.3239C38.1193 143.466 37.8011 143.843 37.3693 144.153C36.9375 144.46 36.392 144.614 35.733 144.614C35.1875 144.614 34.7027 144.494 34.2784 144.256C33.8542 144.013 33.5208 143.65 33.2784 143.165C33.036 142.676 32.9148 142.061 32.9148 141.318V135.773H34.2557V141.227C34.2557 141.864 34.4337 142.371 34.7898 142.75C35.1496 143.129 35.608 143.318 36.1648 143.318C36.4981 143.318 36.8371 143.233 37.1818 143.062C37.5303 142.892 37.822 142.631 38.0568 142.278C38.2955 141.926 38.4148 141.477 38.4148 140.932ZM46.0071 135.773V136.909H41.4844V135.773H46.0071ZM42.8026 133.682H44.1435V142C44.1435 142.379 44.1984 142.663 44.3082 142.852C44.4219 143.038 44.5658 143.163 44.7401 143.227C44.9181 143.288 45.1056 143.318 45.3026 143.318C45.4503 143.318 45.5715 143.311 45.6662 143.295C45.7609 143.277 45.8366 143.261 45.8935 143.25L46.1662 144.455C46.0753 144.489 45.9484 144.523 45.7855 144.557C45.6226 144.595 45.4162 144.614 45.1662 144.614C44.7874 144.614 44.4162 144.532 44.0526 144.369C43.6927 144.206 43.3935 143.958 43.1548 143.625C42.92 143.292 42.8026 142.871 42.8026 142.364V133.682ZM50.5923 144.705C50.0393 144.705 49.5374 144.6 49.0866 144.392C48.6359 144.18 48.2779 143.875 48.0128 143.477C47.7476 143.076 47.6151 142.591 47.6151 142.023C47.6151 141.523 47.7135 141.117 47.9105 140.807C48.1075 140.492 48.3707 140.246 48.7003 140.068C49.0298 139.89 49.3935 139.758 49.7912 139.67C50.1927 139.58 50.5961 139.508 51.0014 139.455C51.5317 139.386 51.9616 139.335 52.2912 139.301C52.6245 139.263 52.867 139.201 53.0185 139.114C53.1738 139.027 53.2514 138.875 53.2514 138.659V138.614C53.2514 138.053 53.098 137.617 52.7912 137.307C52.4882 136.996 52.0279 136.841 51.4105 136.841C50.7704 136.841 50.2685 136.981 49.9048 137.261C49.5412 137.542 49.2855 137.841 49.1378 138.159L47.8651 137.705C48.0923 137.174 48.3954 136.761 48.7741 136.466C49.1567 136.167 49.5734 135.958 50.0241 135.841C50.4787 135.72 50.9257 135.659 51.3651 135.659C51.6454 135.659 51.9673 135.693 52.331 135.761C52.6984 135.826 53.0526 135.96 53.3935 136.165C53.7382 136.369 54.0241 136.678 54.2514 137.091C54.4787 137.504 54.5923 138.057 54.5923 138.75V144.5H53.2514V143.318H53.1832C53.0923 143.508 52.9408 143.71 52.7287 143.926C52.5166 144.142 52.2344 144.326 51.8821 144.477C51.5298 144.629 51.0999 144.705 50.5923 144.705ZM50.7969 143.5C51.3272 143.5 51.7741 143.396 52.1378 143.188C52.5052 142.979 52.7817 142.71 52.9673 142.381C53.1567 142.051 53.2514 141.705 53.2514 141.341V140.114C53.1946 140.182 53.0696 140.244 52.8764 140.301C52.687 140.354 52.4673 140.402 52.2173 140.443C51.9711 140.481 51.7306 140.515 51.4957 140.545C51.2647 140.572 51.0772 140.595 50.9332 140.614C50.5848 140.659 50.259 140.733 49.956 140.835C49.6567 140.934 49.4143 141.083 49.2287 141.284C49.0469 141.481 48.956 141.75 48.956 142.091C48.956 142.557 49.1283 142.909 49.473 143.148C49.8215 143.383 50.2628 143.5 50.7969 143.5ZM57.0398 144.5V135.773H58.3352V137.136H58.4489C58.6307 136.67 58.9242 136.309 59.3295 136.051C59.7348 135.79 60.2216 135.659 60.7898 135.659C61.3655 135.659 61.8447 135.79 62.2273 136.051C62.6136 136.309 62.9148 136.67 63.1307 137.136H63.2216C63.4451 136.686 63.7803 136.328 64.2273 136.062C64.6742 135.794 65.2102 135.659 65.8352 135.659C66.6155 135.659 67.2538 135.903 67.75 136.392C68.2462 136.877 68.4943 137.633 68.4943 138.659V144.5H67.1534V138.659C67.1534 138.015 66.9773 137.555 66.625 137.278C66.2727 137.002 65.858 136.864 65.3807 136.864C64.767 136.864 64.2917 137.049 63.9545 137.42C63.6174 137.788 63.4489 138.254 63.4489 138.818V144.5H62.0852V138.523C62.0852 138.027 61.9242 137.627 61.6023 137.324C61.2803 137.017 60.8655 136.864 60.358 136.864C60.0095 136.864 59.6837 136.956 59.3807 137.142C59.0814 137.328 58.839 137.585 58.6534 137.915C58.4716 138.241 58.3807 138.617 58.3807 139.045V144.5H57.0398ZM73.5142 144.705C72.9612 144.705 72.4593 144.6 72.0085 144.392C71.5578 144.18 71.1998 143.875 70.9347 143.477C70.6695 143.076 70.5369 142.591 70.5369 142.023C70.5369 141.523 70.6354 141.117 70.8324 140.807C71.0294 140.492 71.2926 140.246 71.6222 140.068C71.9517 139.89 72.3153 139.758 72.7131 139.67C73.1146 139.58 73.518 139.508 73.9233 139.455C74.4536 139.386 74.8835 139.335 75.2131 139.301C75.5464 139.263 75.7888 139.201 75.9403 139.114C76.0956 139.027 76.1733 138.875 76.1733 138.659V138.614C76.1733 138.053 76.0199 137.617 75.7131 137.307C75.41 136.996 74.9498 136.841 74.3324 136.841C73.6922 136.841 73.1903 136.981 72.8267 137.261C72.4631 137.542 72.2074 137.841 72.0597 138.159L70.7869 137.705C71.0142 137.174 71.3172 136.761 71.696 136.466C72.0786 136.167 72.4953 135.958 72.946 135.841C73.4006 135.72 73.8475 135.659 74.2869 135.659C74.5672 135.659 74.8892 135.693 75.2528 135.761C75.6203 135.826 75.9744 135.96 76.3153 136.165C76.66 136.369 76.946 136.678 77.1733 137.091C77.4006 137.504 77.5142 138.057 77.5142 138.75V144.5H76.1733V143.318H76.1051C76.0142 143.508 75.8627 143.71 75.6506 143.926C75.4384 144.142 75.1563 144.326 74.804 144.477C74.4517 144.629 74.0218 144.705 73.5142 144.705ZM73.7188 143.5C74.2491 143.5 74.696 143.396 75.0597 143.188C75.4271 142.979 75.7036 142.71 75.8892 142.381C76.0786 142.051 76.1733 141.705 76.1733 141.341V140.114C76.1165 140.182 75.9915 140.244 75.7983 140.301C75.6089 140.354 75.3892 140.402 75.1392 140.443C74.893 140.481 74.6525 140.515 74.4176 140.545C74.1866 140.572 73.9991 140.595 73.8551 140.614C73.5066 140.659 73.1809 140.733 72.8778 140.835C72.5786 140.934 72.3362 141.083 72.1506 141.284C71.9688 141.481 71.8778 141.75 71.8778 142.091C71.8778 142.557 72.0502 142.909 72.3949 143.148C72.7434 143.383 73.1847 143.5 73.7188 143.5ZM83.7571 135.773V136.909H79.2344V135.773H83.7571ZM80.5526 133.682H81.8935V142C81.8935 142.379 81.9484 142.663 82.0582 142.852C82.1719 143.038 82.3158 143.163 82.4901 143.227C82.6681 143.288 82.8556 143.318 83.0526 143.318C83.2003 143.318 83.3215 143.311 83.4162 143.295C83.5109 143.277 83.5866 143.261 83.6435 143.25L83.9162 144.455C83.8253 144.489 83.6984 144.523 83.5355 144.557C83.3726 144.595 83.1662 144.614 82.9162 144.614C82.5374 144.614 82.1662 144.532 81.8026 144.369C81.4427 144.206 81.1435 143.958 80.9048 143.625C80.67 143.292 80.5526 142.871 80.5526 142.364V133.682ZM89.3395 144.682C88.4986 144.682 87.7732 144.496 87.1634 144.125C86.5573 143.75 86.0895 143.227 85.7599 142.557C85.4342 141.883 85.2713 141.098 85.2713 140.205C85.2713 139.311 85.4342 138.523 85.7599 137.841C86.0895 137.155 86.5478 136.621 87.1349 136.239C87.7259 135.852 88.4152 135.659 89.2031 135.659C89.6577 135.659 90.1065 135.735 90.5497 135.886C90.9929 136.038 91.3963 136.284 91.7599 136.625C92.1236 136.962 92.4134 137.409 92.6293 137.966C92.8452 138.523 92.9531 139.208 92.9531 140.023V140.591H86.2259V139.432H91.5895C91.5895 138.939 91.491 138.5 91.294 138.114C91.1009 137.727 90.8243 137.422 90.4645 137.199C90.1084 136.975 89.688 136.864 89.2031 136.864C88.669 136.864 88.2069 136.996 87.8168 137.261C87.4304 137.523 87.133 137.864 86.9247 138.284C86.7164 138.705 86.6122 139.155 86.6122 139.636V140.409C86.6122 141.068 86.7259 141.627 86.9531 142.085C87.1842 142.54 87.5043 142.886 87.9134 143.125C88.3224 143.36 88.7978 143.477 89.3395 143.477C89.6918 143.477 90.0099 143.428 90.294 143.33C90.5819 143.227 90.83 143.076 91.0384 142.875C91.2467 142.67 91.4077 142.417 91.5213 142.114L92.8168 142.477C92.6804 142.917 92.4512 143.303 92.1293 143.636C91.8073 143.966 91.4096 144.223 90.9361 144.409C90.4626 144.591 89.9304 144.682 89.3395 144.682Z" fill="black"/>
<line x1="186" y1="126" x2="186" y2="152" stroke="#FF9500" stroke-width="4"/>
<rect x="0.5" y="114.5" width="199" height="49" rx="3.5" stroke="#DFE3ED"/>
<defs>
<clipPath id="clip0_1252_78357">
<rect width="24" height="24" fill="white" transform="translate(23 8)"/>
</clipPath>
<clipPath id="clip1_1252_78357">
<rect width="24" height="24" fill="white" transform="translate(111.5 8)"/>
</clipPath>
</defs>
</svg>
