<svg width="1426" height="184" viewBox="0 0 1426 184" fill="none" xmlns="http://www.w3.org/2000/svg">
<rect width="1426" height="184" fill="white"/>
<path d="M22.0227 72V48.7273H37.7045V52.7841H26.9432V58.3295H36.8977V62.3864H26.9432V67.9432H37.75V72H22.0227ZM46.2301 48.7273L50.9233 56.6591H51.1051L55.821 48.7273H61.3778L54.2756 60.3636L61.5369 72H55.8778L51.1051 64.0568H50.9233L46.1506 72H40.5142L47.7983 60.3636L40.6506 48.7273H46.2301ZM64.4915 72V48.7273H73.6733C75.4384 48.7273 76.9422 49.0644 78.1847 49.7386C79.4271 50.4053 80.3741 51.3333 81.0256 52.5227C81.6847 53.7045 82.0142 55.0682 82.0142 56.6136C82.0142 58.1591 81.6809 59.5227 81.0142 60.7045C80.3475 61.8864 79.3816 62.8068 78.1165 63.4659C76.8589 64.125 75.3362 64.4545 73.5483 64.4545H67.696V60.5114H72.7528C73.6998 60.5114 74.4801 60.3485 75.0938 60.0227C75.715 59.6894 76.1771 59.2311 76.4801 58.6477C76.7907 58.0568 76.946 57.3788 76.946 56.6136C76.946 55.8409 76.7907 55.1667 76.4801 54.5909C76.1771 54.0076 75.715 53.5568 75.0938 53.2386C74.4725 52.9129 73.6847 52.75 72.7301 52.75H69.4119V72H64.4915ZM85.2102 72V48.7273H100.892V52.7841H90.1307V58.3295H100.085V62.3864H90.1307V67.9432H100.938V72H85.2102ZM104.804 72V48.7273H113.986C115.743 48.7273 117.243 49.0417 118.486 49.6705C119.736 50.2917 120.687 51.1742 121.338 52.3182C121.997 53.4545 122.327 54.7917 122.327 56.3295C122.327 57.875 121.993 59.2045 121.327 60.3182C120.66 61.4242 119.694 62.2727 118.429 62.8636C117.171 63.4545 115.649 63.75 113.861 63.75H107.713V59.7955H113.065C114.005 59.7955 114.785 59.6667 115.406 59.4091C116.027 59.1515 116.49 58.7652 116.793 58.25C117.103 57.7348 117.259 57.0947 117.259 56.3295C117.259 55.5568 117.103 54.9053 116.793 54.375C116.49 53.8447 116.024 53.4432 115.395 53.1705C114.774 52.8902 113.99 52.75 113.043 52.75H109.724V72H104.804ZM117.372 61.4091L123.156 72H117.724L112.065 61.4091H117.372ZM130.724 48.7273V72H125.804V48.7273H130.724ZM134.773 48.7273H140.841L147.25 64.3636H147.523L153.932 48.7273H160V72H155.227V56.8523H155.034L149.011 71.8864H145.761L139.739 56.7955H139.545V72H134.773V48.7273ZM164.054 72V48.7273H179.736V52.7841H168.974V58.3295H178.929V62.3864H168.974V67.9432H179.781V72H164.054ZM203.114 48.7273V72H198.864L188.739 57.3523H188.568V72H183.648V48.7273H187.966L198.011 63.3636H198.216V48.7273H203.114ZM206.293 52.7841V48.7273H225.406V52.7841H218.281V72H213.418V52.7841H206.293ZM239.98 72V75.6705H224.696V72H239.98ZM249.511 72.5114C247.557 72.5038 245.875 72.0227 244.466 71.0682C243.064 70.1136 241.985 68.7311 241.227 66.9205C240.477 65.1098 240.106 62.9318 240.114 60.3864C240.114 57.8485 240.489 55.6856 241.239 53.8977C241.996 52.1098 243.076 50.75 244.477 49.8182C245.886 48.8788 247.564 48.4091 249.511 48.4091C251.458 48.4091 253.133 48.8788 254.534 49.8182C255.943 50.7576 257.027 52.1212 257.784 53.9091C258.542 55.6894 258.917 57.8485 258.909 60.3864C258.909 62.9394 258.53 65.1212 257.773 66.9318C257.023 68.7424 255.947 70.125 254.545 71.0795C253.144 72.0341 251.466 72.5114 249.511 72.5114ZM249.511 68.4318C250.845 68.4318 251.909 67.7614 252.705 66.4205C253.5 65.0795 253.894 63.0682 253.886 60.3864C253.886 58.6212 253.705 57.1515 253.341 55.9773C252.985 54.803 252.477 53.9205 251.818 53.3295C251.167 52.7386 250.398 52.4432 249.511 52.4432C248.186 52.4432 247.125 53.1061 246.33 54.4318C245.534 55.7576 245.133 57.7424 245.125 60.3864C245.125 62.1742 245.303 63.6667 245.659 64.8636C246.023 66.053 246.534 66.947 247.193 67.5455C247.852 68.1364 248.625 68.4318 249.511 68.4318ZM271.543 72.5114C269.588 72.5038 267.906 72.0227 266.497 71.0682C265.096 70.1136 264.016 68.7311 263.259 66.9205C262.509 65.1098 262.137 62.9318 262.145 60.3864C262.145 57.8485 262.52 55.6856 263.27 53.8977C264.027 52.1098 265.107 50.75 266.509 49.8182C267.918 48.8788 269.596 48.4091 271.543 48.4091C273.49 48.4091 275.164 48.8788 276.565 49.8182C277.974 50.7576 279.058 52.1212 279.815 53.9091C280.573 55.6894 280.948 57.8485 280.94 60.3864C280.94 62.9394 280.562 65.1212 279.804 66.9318C279.054 68.7424 277.978 70.125 276.577 71.0795C275.175 72.0341 273.497 72.5114 271.543 72.5114ZM271.543 68.4318C272.876 68.4318 273.94 67.7614 274.736 66.4205C275.531 65.0795 275.925 63.0682 275.918 60.3864C275.918 58.6212 275.736 57.1515 275.372 55.9773C275.016 54.803 274.509 53.9205 273.849 53.3295C273.198 52.7386 272.429 52.4432 271.543 52.4432C270.217 52.4432 269.156 53.1061 268.361 54.4318C267.565 55.7576 267.164 57.7424 267.156 60.3864C267.156 62.1742 267.334 63.6667 267.69 64.8636C268.054 66.053 268.565 66.947 269.224 67.5455C269.884 68.1364 270.656 68.4318 271.543 68.4318ZM294.574 48.7273V72H289.653V53.3977H289.517L284.188 56.7386V52.375L289.949 48.7273H294.574Z" fill="black"/>
<path d="M324.915 66.8182H326.148V73.5597C326.148 74.2557 325.984 74.8771 325.656 75.424C325.331 75.9676 324.872 76.3968 324.278 76.7116C323.685 77.0232 322.989 77.179 322.19 77.179C321.392 77.179 320.696 77.0232 320.102 76.7116C319.509 76.3968 319.048 75.9676 318.72 75.424C318.395 74.8771 318.233 74.2557 318.233 73.5597V66.8182H319.466V73.4602C319.466 73.9574 319.575 74.3999 319.794 74.7876C320.013 75.1721 320.324 75.4754 320.729 75.6974C321.136 75.9162 321.624 76.0256 322.19 76.0256C322.757 76.0256 323.244 75.9162 323.652 75.6974C324.06 75.4754 324.371 75.1721 324.587 74.7876C324.805 74.3999 324.915 73.9574 324.915 73.4602V66.8182ZM328.451 79.8636V69.3636H329.584V70.5767H329.724C329.81 70.4441 329.929 70.2751 330.081 70.0696C330.237 69.8608 330.459 69.6752 330.748 69.5128C331.039 69.3471 331.434 69.2642 331.931 69.2642C332.574 69.2642 333.141 69.425 333.631 69.7464C334.122 70.0679 334.505 70.5237 334.78 71.1136C335.055 71.7036 335.192 72.3996 335.192 73.2017C335.192 74.0104 335.055 74.7114 334.78 75.3047C334.505 75.8946 334.123 76.352 333.636 76.6768C333.149 76.9983 332.587 77.1591 331.951 77.1591C331.46 77.1591 331.068 77.0779 330.773 76.9155C330.478 76.7498 330.251 76.5625 330.091 76.3537C329.932 76.1416 329.81 75.9659 329.724 75.8267H329.624V79.8636H328.451ZM329.604 73.1818C329.604 73.7585 329.689 74.2673 329.858 74.7081C330.027 75.1456 330.274 75.4886 330.599 75.7372C330.923 75.9825 331.321 76.1051 331.792 76.1051C332.282 76.1051 332.692 75.9759 333.02 75.7173C333.351 75.4555 333.6 75.1042 333.765 74.6634C333.934 74.2192 334.019 73.7254 334.019 73.1818C334.019 72.6449 333.936 72.161 333.77 71.7301C333.608 71.2959 333.361 70.9529 333.03 70.701C332.702 70.4458 332.289 70.3182 331.792 70.3182C331.314 70.3182 330.913 70.4392 330.589 70.6811C330.264 70.9197 330.019 71.2545 329.853 71.6854C329.687 72.1129 329.604 72.6117 329.604 73.1818ZM339.866 77.1591C339.229 77.1591 338.667 76.9983 338.18 76.6768C337.693 76.352 337.312 75.8946 337.037 75.3047C336.762 74.7114 336.624 74.0104 336.624 73.2017C336.624 72.3996 336.762 71.7036 337.037 71.1136C337.312 70.5237 337.695 70.0679 338.185 69.7464C338.676 69.425 339.242 69.2642 339.885 69.2642C340.383 69.2642 340.775 69.3471 341.064 69.5128C341.355 69.6752 341.577 69.8608 341.73 70.0696C341.886 70.2751 342.007 70.4441 342.093 70.5767H342.192V66.8182H343.366V77H342.232V75.8267H342.093C342.007 75.9659 341.884 76.1416 341.725 76.3537C341.566 76.5625 341.339 76.7498 341.044 76.9155C340.749 77.0779 340.356 77.1591 339.866 77.1591ZM340.025 76.1051C340.495 76.1051 340.893 75.9825 341.218 75.7372C341.543 75.4886 341.79 75.1456 341.959 74.7081C342.128 74.2673 342.212 73.7585 342.212 73.1818C342.212 72.6117 342.129 72.1129 341.964 71.6854C341.798 71.2545 341.553 70.9197 341.228 70.6811C340.903 70.4392 340.502 70.3182 340.025 70.3182C339.528 70.3182 339.113 70.4458 338.782 70.701C338.454 70.9529 338.207 71.2959 338.041 71.7301C337.879 72.161 337.797 72.6449 337.797 73.1818C337.797 73.7254 337.88 74.2192 338.046 74.6634C338.215 75.1042 338.464 75.4555 338.792 75.7173C339.123 75.9759 339.534 76.1051 340.025 76.1051ZM347.925 77.179C347.441 77.179 347.001 77.0878 346.607 76.9055C346.213 76.7199 345.899 76.4531 345.667 76.1051C345.435 75.7538 345.319 75.3295 345.319 74.8324C345.319 74.3949 345.406 74.0402 345.578 73.7685C345.75 73.4934 345.981 73.2779 346.269 73.1222C346.557 72.9664 346.876 72.8504 347.224 72.7741C347.575 72.6946 347.928 72.6316 348.282 72.5852C348.747 72.5256 349.123 72.4808 349.411 72.451C349.703 72.4179 349.915 72.3632 350.047 72.2869C350.183 72.2107 350.251 72.0781 350.251 71.8892V71.8494C350.251 71.3589 350.117 70.9777 349.849 70.706C349.583 70.4342 349.181 70.2983 348.64 70.2983C348.08 70.2983 347.641 70.4209 347.323 70.6662C347.005 70.9115 346.781 71.1733 346.652 71.4517L345.538 71.054C345.737 70.59 346.002 70.2287 346.334 69.9702C346.668 69.7083 347.033 69.526 347.427 69.4233C347.825 69.3172 348.216 69.2642 348.601 69.2642C348.846 69.2642 349.128 69.294 349.446 69.3537C349.767 69.41 350.077 69.5277 350.376 69.7067C350.677 69.8857 350.927 70.1558 351.126 70.517C351.325 70.8783 351.425 71.3622 351.425 71.9688V77H350.251V75.9659H350.192C350.112 76.1316 349.979 76.3089 349.794 76.4979C349.608 76.6868 349.361 76.8475 349.053 76.9801C348.745 77.1127 348.369 77.179 347.925 77.179ZM348.104 76.125C348.568 76.125 348.959 76.0339 349.277 75.8516C349.598 75.6693 349.84 75.4339 350.003 75.1456C350.168 74.8572 350.251 74.554 350.251 74.2358V73.1619C350.202 73.2216 350.092 73.2763 349.923 73.326C349.757 73.3724 349.565 73.4138 349.346 73.4503C349.131 73.4834 348.921 73.5133 348.715 73.5398C348.513 73.563 348.349 73.5829 348.223 73.5994C347.918 73.6392 347.633 73.7038 347.368 73.7933C347.106 73.8795 346.894 74.0104 346.731 74.1861C346.572 74.3584 346.493 74.5937 346.493 74.892C346.493 75.2997 346.644 75.608 346.945 75.8168C347.25 76.0223 347.636 76.125 348.104 76.125ZM356.887 69.3636V70.358H352.93V69.3636H356.887ZM354.083 67.5341H355.256V74.8125C355.256 75.1439 355.304 75.3925 355.401 75.5582C355.5 75.7206 355.626 75.83 355.778 75.8864C355.934 75.9394 356.098 75.9659 356.271 75.9659C356.4 75.9659 356.506 75.9593 356.589 75.946C356.672 75.9295 356.738 75.9162 356.788 75.9062L357.026 76.9602C356.947 76.9901 356.836 77.0199 356.693 77.0497C356.551 77.0829 356.37 77.0994 356.151 77.0994C355.82 77.0994 355.495 77.0282 355.177 76.8857C354.862 76.7431 354.6 76.526 354.391 76.2344C354.186 75.9427 354.083 75.5748 354.083 75.1307V67.5341ZM361.772 77.1591C361.036 77.1591 360.401 76.9967 359.868 76.6719C359.337 76.3438 358.928 75.8864 358.64 75.2997C358.355 74.7098 358.212 74.0237 358.212 73.2415C358.212 72.4593 358.355 71.7699 358.64 71.1733C358.928 70.5734 359.329 70.1061 359.843 69.7713C360.36 69.4332 360.963 69.2642 361.652 69.2642C362.05 69.2642 362.443 69.3305 362.831 69.4631C363.218 69.5956 363.571 69.8111 363.89 70.1094C364.208 70.4044 364.461 70.7955 364.65 71.2827C364.839 71.7699 364.934 72.3698 364.934 73.0824V73.5795H359.047V72.5653H363.74C363.74 72.1345 363.654 71.75 363.482 71.4119C363.313 71.0739 363.071 70.8071 362.756 70.6115C362.444 70.416 362.077 70.3182 361.652 70.3182C361.185 70.3182 360.781 70.4342 360.439 70.6662C360.101 70.8949 359.841 71.1932 359.659 71.5611C359.476 71.929 359.385 72.3234 359.385 72.7443V73.4205C359.385 73.9972 359.485 74.486 359.684 74.8871C359.886 75.2848 360.166 75.5881 360.524 75.7969C360.882 76.0024 361.298 76.1051 361.772 76.1051C362.08 76.1051 362.358 76.062 362.607 75.9759C362.859 75.8864 363.076 75.7538 363.258 75.5781C363.44 75.3991 363.581 75.1771 363.681 74.9119L364.814 75.2301C364.695 75.6146 364.494 75.9527 364.213 76.2443C363.931 76.5327 363.583 76.758 363.169 76.9205C362.754 77.0795 362.289 77.1591 361.772 77.1591ZM369.602 77.1591C368.966 77.1591 368.404 76.9983 367.917 76.6768C367.429 76.352 367.048 75.8946 366.773 75.3047C366.498 74.7114 366.36 74.0104 366.36 73.2017C366.36 72.3996 366.498 71.7036 366.773 71.1136C367.048 70.5237 367.431 70.0679 367.922 69.7464C368.412 69.425 368.979 69.2642 369.622 69.2642C370.119 69.2642 370.512 69.3471 370.8 69.5128C371.092 69.6752 371.314 69.8608 371.466 70.0696C371.622 70.2751 371.743 70.4441 371.829 70.5767H371.929V66.8182H373.102V77H371.968V75.8267H371.829C371.743 75.9659 371.62 76.1416 371.461 76.3537C371.302 76.5625 371.075 76.7498 370.78 76.9155C370.485 77.0779 370.092 77.1591 369.602 77.1591ZM369.761 76.1051C370.232 76.1051 370.629 75.9825 370.954 75.7372C371.279 75.4886 371.526 75.1456 371.695 74.7081C371.864 74.2673 371.949 73.7585 371.949 73.1818C371.949 72.6117 371.866 72.1129 371.7 71.6854C371.534 71.2545 371.289 70.9197 370.964 70.6811C370.639 70.4392 370.238 70.3182 369.761 70.3182C369.264 70.3182 368.85 70.4458 368.518 70.701C368.19 70.9529 367.943 71.2959 367.777 71.7301C367.615 72.161 367.534 72.6449 367.534 73.1818C367.534 73.7254 367.617 74.2192 367.782 74.6634C367.951 75.1042 368.2 75.4555 368.528 75.7173C368.859 75.9759 369.27 76.1051 369.761 76.1051ZM382.911 66.8182V77H381.678V68.1108H381.618L379.132 69.7614V68.5085L381.678 66.8182H382.911ZM392.68 77.1591C392.044 77.1591 391.482 76.9983 390.995 76.6768C390.507 76.352 390.126 75.8946 389.851 75.3047C389.576 74.7114 389.439 74.0104 389.439 73.2017C389.439 72.3996 389.576 71.7036 389.851 71.1136C390.126 70.5237 390.509 70.0679 391 69.7464C391.49 69.425 392.057 69.2642 392.7 69.2642C393.197 69.2642 393.59 69.3471 393.878 69.5128C394.17 69.6752 394.392 69.8608 394.544 70.0696C394.7 70.2751 394.821 70.4441 394.907 70.5767H395.007V66.8182H396.18V77H395.047V75.8267H394.907C394.821 75.9659 394.699 76.1416 394.539 76.3537C394.38 76.5625 394.153 76.7498 393.858 76.9155C393.563 77.0779 393.171 77.1591 392.68 77.1591ZM392.839 76.1051C393.31 76.1051 393.708 75.9825 394.032 75.7372C394.357 75.4886 394.604 75.1456 394.773 74.7081C394.942 74.2673 395.027 73.7585 395.027 73.1818C395.027 72.6117 394.944 72.1129 394.778 71.6854C394.612 71.2545 394.367 70.9197 394.042 70.6811C393.717 70.4392 393.316 70.3182 392.839 70.3182C392.342 70.3182 391.928 70.4458 391.596 70.701C391.268 70.9529 391.021 71.2959 390.855 71.7301C390.693 72.161 390.612 72.6449 390.612 73.1818C390.612 73.7254 390.695 74.2192 390.86 74.6634C391.029 75.1042 391.278 75.4555 391.606 75.7173C391.938 75.9759 392.349 76.1051 392.839 76.1051ZM400.739 77.179C400.255 77.179 399.816 77.0878 399.422 76.9055C399.027 76.7199 398.714 76.4531 398.482 76.1051C398.25 75.7538 398.134 75.3295 398.134 74.8324C398.134 74.3949 398.22 74.0402 398.392 73.7685C398.565 73.4934 398.795 73.2779 399.083 73.1222C399.372 72.9664 399.69 72.8504 400.038 72.7741C400.389 72.6946 400.742 72.6316 401.097 72.5852C401.561 72.5256 401.937 72.4808 402.225 72.451C402.517 72.4179 402.729 72.3632 402.862 72.2869C402.998 72.2107 403.066 72.0781 403.066 71.8892V71.8494C403.066 71.3589 402.931 70.9777 402.663 70.706C402.398 70.4342 401.995 70.2983 401.455 70.2983C400.895 70.2983 400.456 70.4209 400.137 70.6662C399.819 70.9115 399.596 71.1733 399.466 71.4517L398.353 71.054C398.551 70.59 398.817 70.2287 399.148 69.9702C399.483 69.7083 399.847 69.526 400.242 69.4233C400.64 69.3172 401.031 69.2642 401.415 69.2642C401.66 69.2642 401.942 69.294 402.26 69.3537C402.582 69.41 402.892 69.5277 403.19 69.7067C403.492 69.8857 403.742 70.1558 403.941 70.517C404.14 70.8783 404.239 71.3622 404.239 71.9688V77H403.066V75.9659H403.006C402.926 76.1316 402.794 76.3089 402.608 76.4979C402.423 76.6868 402.176 76.8475 401.868 76.9801C401.559 77.1127 401.183 77.179 400.739 77.179ZM400.918 76.125C401.382 76.125 401.773 76.0339 402.091 75.8516C402.413 75.6693 402.655 75.4339 402.817 75.1456C402.983 74.8572 403.066 74.554 403.066 74.2358V73.1619C403.016 73.2216 402.907 73.2763 402.738 73.326C402.572 73.3724 402.38 73.4138 402.161 73.4503C401.945 73.4834 401.735 73.5133 401.529 73.5398C401.327 73.563 401.163 73.5829 401.037 73.5994C400.732 73.6392 400.447 73.7038 400.182 73.7933C399.92 73.8795 399.708 74.0104 399.546 74.1861C399.387 74.3584 399.307 74.5937 399.307 74.892C399.307 75.2997 399.458 75.608 399.76 75.8168C400.065 76.0223 400.451 76.125 400.918 76.125ZM406.863 79.8636C406.664 79.8636 406.487 79.8471 406.331 79.8139C406.175 79.7841 406.067 79.7543 406.008 79.7244L406.306 78.6903C406.591 78.7633 406.843 78.7898 407.062 78.7699C407.28 78.75 407.474 78.6522 407.643 78.4766C407.816 78.3042 407.973 78.0241 408.116 77.6364L408.334 77.0398L405.51 69.3636H406.783L408.891 75.4489H408.971L411.079 69.3636H412.351L409.11 78.1136C408.964 78.508 408.783 78.8345 408.568 79.093C408.353 79.3549 408.102 79.5488 407.817 79.6747C407.536 79.8007 407.217 79.8636 406.863 79.8636ZM420.085 77.179C419.601 77.179 419.162 77.0878 418.767 76.9055C418.373 76.7199 418.06 76.4531 417.828 76.1051C417.596 75.7538 417.48 75.3295 417.48 74.8324C417.48 74.3949 417.566 74.0402 417.738 73.7685C417.91 73.4934 418.141 73.2779 418.429 73.1222C418.718 72.9664 419.036 72.8504 419.384 72.7741C419.735 72.6946 420.088 72.6316 420.443 72.5852C420.907 72.5256 421.283 72.4808 421.571 72.451C421.863 72.4179 422.075 72.3632 422.208 72.2869C422.343 72.2107 422.411 72.0781 422.411 71.8892V71.8494C422.411 71.3589 422.277 70.9777 422.009 70.706C421.744 70.4342 421.341 70.2983 420.801 70.2983C420.24 70.2983 419.801 70.4209 419.483 70.6662C419.165 70.9115 418.941 71.1733 418.812 71.4517L417.698 71.054C417.897 70.59 418.162 70.2287 418.494 69.9702C418.829 69.7083 419.193 69.526 419.588 69.4233C419.985 69.3172 420.376 69.2642 420.761 69.2642C421.006 69.2642 421.288 69.294 421.606 69.3537C421.927 69.41 422.237 69.5277 422.536 69.7067C422.837 69.8857 423.088 70.1558 423.286 70.517C423.485 70.8783 423.585 71.3622 423.585 71.9688V77H422.411V75.9659H422.352C422.272 76.1316 422.14 76.3089 421.954 76.4979C421.768 76.6868 421.521 76.8475 421.213 76.9801C420.905 77.1127 420.529 77.179 420.085 77.179ZM420.264 76.125C420.728 76.125 421.119 76.0339 421.437 75.8516C421.758 75.6693 422 75.4339 422.163 75.1456C422.329 74.8572 422.411 74.554 422.411 74.2358V73.1619C422.362 73.2216 422.252 73.2763 422.083 73.326C421.918 73.3724 421.725 73.4138 421.507 73.4503C421.291 73.4834 421.081 73.5133 420.875 73.5398C420.673 73.563 420.509 73.5829 420.383 73.5994C420.078 73.6392 419.793 73.7038 419.528 73.7933C419.266 73.8795 419.054 74.0104 418.892 74.1861C418.732 74.3584 418.653 74.5937 418.653 74.892C418.653 75.2997 418.804 75.608 419.105 75.8168C419.41 76.0223 419.796 76.125 420.264 76.125ZM428.809 80.0227C428.242 80.0227 427.755 79.9498 427.347 79.804C426.939 79.6615 426.6 79.4725 426.328 79.2372C426.059 79.0052 425.846 78.7566 425.686 78.4915L426.621 77.8352C426.727 77.9744 426.861 78.1335 427.024 78.3125C427.186 78.4948 427.408 78.6522 427.69 78.7848C427.975 78.9207 428.348 78.9886 428.809 78.9886C429.425 78.9886 429.934 78.8395 430.335 78.5412C430.736 78.2429 430.936 77.7756 430.936 77.1392V75.5881H430.837C430.751 75.7273 430.628 75.8996 430.469 76.1051C430.313 76.3073 430.088 76.4879 429.793 76.647C429.501 76.8028 429.107 76.8807 428.61 76.8807C427.993 76.8807 427.44 76.7348 426.949 76.4432C426.462 76.1515 426.076 75.7273 425.791 75.1705C425.509 74.6136 425.368 73.9375 425.368 73.142C425.368 72.3598 425.506 71.6787 425.781 71.0987C426.056 70.5154 426.439 70.0646 426.929 69.7464C427.42 69.425 427.987 69.2642 428.63 69.2642C429.127 69.2642 429.521 69.3471 429.813 69.5128C430.108 69.6752 430.333 69.8608 430.489 70.0696C430.648 70.2751 430.771 70.4441 430.857 70.5767H430.976V69.3636H432.11V77.2188C432.11 77.875 431.961 78.4086 431.662 78.8196C431.367 79.2339 430.97 79.5372 430.469 79.7294C429.972 79.925 429.418 80.0227 428.809 80.0227ZM428.769 75.8267C429.239 75.8267 429.637 75.719 429.962 75.5036C430.287 75.2881 430.534 74.9782 430.703 74.5739C430.872 74.1695 430.956 73.6856 430.956 73.1222C430.956 72.572 430.873 72.0864 430.708 71.6655C430.542 71.2446 430.297 70.9148 429.972 70.6761C429.647 70.4375 429.246 70.3182 428.769 70.3182C428.272 70.3182 427.857 70.4441 427.526 70.696C427.198 70.9479 426.951 71.286 426.785 71.7102C426.623 72.1345 426.542 72.6051 426.542 73.1222C426.542 73.6525 426.624 74.1214 426.79 74.5291C426.959 74.9335 427.208 75.2517 427.536 75.4837C427.867 75.7124 428.278 75.8267 428.769 75.8267ZM437.36 77.1591C436.67 77.1591 436.065 76.995 435.545 76.6669C435.028 76.3388 434.624 75.8797 434.332 75.2898C434.044 74.6998 433.9 74.0104 433.9 73.2216C433.9 72.4261 434.044 71.7318 434.332 71.1385C434.624 70.5452 435.028 70.0845 435.545 69.7564C436.065 69.4283 436.67 69.2642 437.36 69.2642C438.049 69.2642 438.652 69.4283 439.169 69.7564C439.69 70.0845 440.094 70.5452 440.382 71.1385C440.674 71.7318 440.82 72.4261 440.82 73.2216C440.82 74.0104 440.674 74.6998 440.382 75.2898C440.094 75.8797 439.69 76.3388 439.169 76.6669C438.652 76.995 438.049 77.1591 437.36 77.1591ZM437.36 76.1051C437.883 76.1051 438.314 75.9709 438.652 75.7024C438.99 75.4339 439.241 75.081 439.403 74.6435C439.565 74.206 439.647 73.732 439.647 73.2216C439.647 72.7112 439.565 72.2356 439.403 71.7947C439.241 71.3539 438.99 70.9976 438.652 70.7259C438.314 70.4541 437.883 70.3182 437.36 70.3182C436.836 70.3182 436.405 70.4541 436.067 70.7259C435.729 70.9976 435.479 71.3539 435.316 71.7947C435.154 72.2356 435.073 72.7112 435.073 73.2216C435.073 73.732 435.154 74.206 435.316 74.6435C435.479 75.081 435.729 75.4339 436.067 75.7024C436.405 75.9709 436.836 76.1051 437.36 76.1051Z" fill="#8A8A8E"/>
<path d="M20.3523 104.364H22.733L25.5795 109.511H25.6932L28.5398 104.364H30.9205L26.6875 111.659V116H24.5852V111.659L20.3523 104.364ZM34.5611 116.17C33.6861 116.17 32.9304 115.989 32.294 115.625C31.6615 115.258 31.1747 114.739 30.8338 114.068C30.4929 113.394 30.3224 112.6 30.3224 111.688C30.3224 110.79 30.4929 110.002 30.8338 109.324C31.1785 108.642 31.6596 108.112 32.277 107.733C32.8944 107.35 33.6198 107.159 34.4531 107.159C34.991 107.159 35.4986 107.246 35.9759 107.42C36.4569 107.591 36.8812 107.856 37.2486 108.216C37.6198 108.576 37.9115 109.034 38.1236 109.591C38.3357 110.144 38.4418 110.803 38.4418 111.568V112.199H31.2884V110.812H36.4702C36.4664 110.419 36.3812 110.068 36.2145 109.761C36.0478 109.451 35.8149 109.206 35.5156 109.028C35.2202 108.85 34.8755 108.761 34.4815 108.761C34.0611 108.761 33.6918 108.864 33.3736 109.068C33.0554 109.269 32.8073 109.534 32.6293 109.864C32.455 110.189 32.366 110.547 32.3622 110.938V112.148C32.3622 112.655 32.455 113.091 32.6406 113.455C32.8262 113.814 33.0857 114.091 33.419 114.284C33.7524 114.473 34.1425 114.568 34.5895 114.568C34.8887 114.568 35.1596 114.527 35.402 114.443C35.6444 114.356 35.8546 114.229 36.0327 114.062C36.2107 113.896 36.3452 113.689 36.4361 113.443L38.3565 113.659C38.2353 114.167 38.0043 114.61 37.6634 114.989C37.3262 115.364 36.8944 115.655 36.3679 115.864C35.8414 116.068 35.2391 116.17 34.5611 116.17ZM42.2386 110.886V116H40.1818V104.364H42.1932V108.756H42.2955C42.5 108.263 42.8163 107.875 43.2443 107.591C43.6761 107.303 44.2254 107.159 44.892 107.159C45.4981 107.159 46.0265 107.286 46.4773 107.54C46.928 107.794 47.2765 108.165 47.5227 108.653C47.7727 109.142 47.8977 109.739 47.8977 110.443V116H45.8409V110.761C45.8409 110.174 45.6894 109.718 45.3864 109.392C45.0871 109.062 44.6667 108.898 44.125 108.898C43.7614 108.898 43.4356 108.977 43.1477 109.136C42.8636 109.292 42.6402 109.517 42.4773 109.812C42.3182 110.108 42.2386 110.466 42.2386 110.886ZM55.5568 112.33V107.273H57.6136V116H55.6193V114.449H55.5284C55.3314 114.937 55.0076 115.337 54.5568 115.648C54.1098 115.958 53.5587 116.114 52.9034 116.114C52.3314 116.114 51.8258 115.987 51.3864 115.733C50.9508 115.475 50.6098 115.102 50.3636 114.614C50.1174 114.121 49.9943 113.527 49.9943 112.83V107.273H52.0511V112.511C52.0511 113.064 52.2027 113.504 52.5057 113.83C52.8087 114.155 53.2064 114.318 53.6989 114.318C54.0019 114.318 54.2955 114.244 54.5795 114.097C54.8636 113.949 55.0966 113.729 55.2784 113.438C55.464 113.142 55.5568 112.773 55.5568 112.33ZM62.9673 116.153C62.2817 116.153 61.6681 115.977 61.1264 115.625C60.5848 115.273 60.1567 114.761 59.8423 114.091C59.5279 113.42 59.3707 112.606 59.3707 111.648C59.3707 110.678 59.5298 109.86 59.848 109.193C60.17 108.523 60.6037 108.017 61.1491 107.676C61.6946 107.331 62.3026 107.159 62.973 107.159C63.4844 107.159 63.9048 107.246 64.2344 107.42C64.5639 107.591 64.8253 107.797 65.0185 108.04C65.2116 108.278 65.3613 108.504 65.4673 108.716H65.5526V104.364H67.6151V116H65.5923V114.625H65.4673C65.3613 114.837 65.2079 115.062 65.0071 115.301C64.8063 115.536 64.5412 115.737 64.2116 115.903C63.8821 116.07 63.4673 116.153 62.9673 116.153ZM63.5412 114.466C63.9768 114.466 64.348 114.348 64.6548 114.114C64.9616 113.875 65.1946 113.544 65.3537 113.119C65.5128 112.695 65.5923 112.201 65.5923 111.636C65.5923 111.072 65.5128 110.581 65.3537 110.165C65.1984 109.748 64.9673 109.424 64.6605 109.193C64.3575 108.962 63.9844 108.847 63.5412 108.847C63.0829 108.847 62.7003 108.966 62.3935 109.205C62.0866 109.443 61.8556 109.773 61.7003 110.193C61.545 110.614 61.4673 111.095 61.4673 111.636C61.4673 112.182 61.545 112.669 61.7003 113.097C61.8594 113.521 62.0923 113.856 62.3991 114.102C62.7098 114.345 63.0904 114.466 63.5412 114.466ZM72.3182 116.176C71.7652 116.176 71.267 116.078 70.8239 115.881C70.3845 115.68 70.036 115.384 69.7784 114.994C69.5246 114.604 69.3977 114.123 69.3977 113.551C69.3977 113.059 69.4886 112.652 69.6705 112.33C69.8523 112.008 70.1004 111.75 70.4148 111.557C70.7292 111.364 71.0833 111.218 71.4773 111.119C71.875 111.017 72.286 110.943 72.7102 110.898C73.2216 110.845 73.6364 110.797 73.9545 110.756C74.2727 110.71 74.5038 110.642 74.6477 110.551C74.7955 110.456 74.8693 110.311 74.8693 110.114V110.08C74.8693 109.652 74.7424 109.32 74.4886 109.085C74.2348 108.85 73.8693 108.733 73.392 108.733C72.8883 108.733 72.4886 108.843 72.1932 109.062C71.9015 109.282 71.7045 109.542 71.6023 109.841L69.6818 109.568C69.8333 109.038 70.0833 108.595 70.4318 108.239C70.7803 107.879 71.2064 107.61 71.7102 107.432C72.214 107.25 72.7708 107.159 73.3807 107.159C73.8011 107.159 74.2197 107.208 74.6364 107.307C75.053 107.405 75.4337 107.568 75.7784 107.795C76.1231 108.019 76.3996 108.324 76.608 108.71C76.8201 109.097 76.9261 109.58 76.9261 110.159V116H74.9489V114.801H74.8807C74.7557 115.044 74.5795 115.271 74.3523 115.483C74.1288 115.691 73.8466 115.86 73.5057 115.989C73.1686 116.114 72.7727 116.176 72.3182 116.176ZM72.8523 114.665C73.2652 114.665 73.6231 114.583 73.9261 114.42C74.2292 114.254 74.4621 114.034 74.625 113.761C74.7917 113.489 74.875 113.191 74.875 112.869V111.841C74.8106 111.894 74.7008 111.943 74.5455 111.989C74.3939 112.034 74.2235 112.074 74.0341 112.108C73.8447 112.142 73.6572 112.172 73.4716 112.199C73.286 112.225 73.125 112.248 72.9886 112.267C72.6818 112.309 72.4072 112.377 72.1648 112.472C71.9223 112.566 71.7311 112.699 71.5909 112.869C71.4508 113.036 71.3807 113.252 71.3807 113.517C71.3807 113.896 71.5189 114.182 71.7955 114.375C72.072 114.568 72.4242 114.665 72.8523 114.665Z" fill="black"/>
<path d="M21.233 139V128.818H24.6733C25.4688 128.818 26.1217 128.954 26.6321 129.226C27.1425 129.494 27.5204 129.864 27.7656 130.335C28.0109 130.805 28.1335 131.34 28.1335 131.94C28.1335 132.54 28.0109 133.072 27.7656 133.536C27.5204 134 27.1442 134.365 26.6371 134.63C26.13 134.892 25.482 135.023 24.6932 135.023H21.9091V133.909H24.6534C25.197 133.909 25.6345 133.83 25.9659 133.67C26.3007 133.511 26.5426 133.286 26.6918 132.994C26.8442 132.699 26.9205 132.348 26.9205 131.94C26.9205 131.533 26.8442 131.176 26.6918 130.871C26.5393 130.567 26.2957 130.331 25.9609 130.165C25.6262 129.996 25.1837 129.912 24.6335 129.912H22.4659V139H21.233ZM26.0256 134.426L28.5312 139H27.0994L24.6335 134.426H26.0256ZM30.188 139V128.818H36.3329V129.912H31.421V133.352H36.0147V134.446H31.421V137.906H36.4125V139H30.188ZM44.1234 131.364C44.0637 130.86 43.8218 130.469 43.3975 130.19C42.9733 129.912 42.4529 129.773 41.8365 129.773C41.3857 129.773 40.9913 129.846 40.6532 129.991C40.3185 130.137 40.0566 130.338 39.8677 130.593C39.6821 130.848 39.5893 131.138 39.5893 131.463C39.5893 131.735 39.6539 131.969 39.7832 132.164C39.9158 132.356 40.0848 132.517 40.2903 132.646C40.4958 132.772 40.7112 132.877 40.9366 132.96C41.162 133.039 41.3691 133.104 41.5581 133.153L42.5922 133.432C42.8573 133.501 43.1523 133.598 43.4771 133.72C43.8052 133.843 44.1184 134.01 44.4167 134.222C44.7183 134.431 44.9669 134.7 45.1625 135.028C45.358 135.356 45.4558 135.759 45.4558 136.236C45.4558 136.786 45.3116 137.283 45.0233 137.727C44.7382 138.171 44.3206 138.524 43.7704 138.786C43.2235 139.048 42.559 139.179 41.7768 139.179C41.0476 139.179 40.4163 139.061 39.8826 138.826C39.3523 138.591 38.9347 138.263 38.6298 137.842C38.3282 137.421 38.1575 136.932 38.1177 136.375H39.3904C39.4236 136.759 39.5529 137.078 39.7782 137.33C40.0069 137.578 40.2953 137.764 40.6433 137.886C40.9946 138.006 41.3725 138.065 41.7768 138.065C42.2475 138.065 42.67 137.989 43.0446 137.837C43.4191 137.681 43.7157 137.465 43.9345 137.19C44.1532 136.912 44.2626 136.587 44.2626 136.216C44.2626 135.878 44.1681 135.603 43.9792 135.391C43.7903 135.179 43.5417 135.006 43.2335 134.874C42.9252 134.741 42.5922 134.625 42.2342 134.526L40.9814 134.168C40.1859 133.939 39.5562 133.612 39.0922 133.188C38.6281 132.764 38.3961 132.209 38.3961 131.523C38.3961 130.953 38.5502 130.455 38.8585 130.031C39.17 129.604 39.5877 129.272 40.1113 129.037C40.6383 128.798 41.2266 128.679 41.8762 128.679C42.5325 128.679 43.1158 128.797 43.6262 129.032C44.1367 129.264 44.541 129.582 44.8393 129.987C45.1409 130.391 45.3 130.85 45.3166 131.364H44.1234ZM47.483 139V128.818H53.6278V129.912H48.7159V133.352H53.3097V134.446H48.7159V137.906H53.7074V139H47.483ZM56.2678 139H54.9751L58.7138 128.818H59.9865L63.7251 139H62.4325L59.3899 130.429H59.3104L56.2678 139ZM56.745 135.023H61.9553V136.116H56.745V135.023ZM65.3111 139V128.818H68.7514C69.5469 128.818 70.1998 128.954 70.7102 129.226C71.2206 129.494 71.5985 129.864 71.8438 130.335C72.089 130.805 72.2116 131.34 72.2116 131.94C72.2116 132.54 72.089 133.072 71.8438 133.536C71.5985 134 71.2223 134.365 70.7152 134.63C70.2081 134.892 69.5601 135.023 68.7713 135.023H65.9872V133.909H68.7315C69.2751 133.909 69.7126 133.83 70.044 133.67C70.3788 133.511 70.6207 133.286 70.7699 132.994C70.9223 132.699 70.9986 132.348 70.9986 131.94C70.9986 131.533 70.9223 131.176 70.7699 130.871C70.6174 130.567 70.3738 130.331 70.0391 130.165C69.7043 129.996 69.2618 129.912 68.7116 129.912H66.544V139H65.3111ZM70.1037 134.426L72.6094 139H71.1776L68.7116 134.426H70.1037ZM82.4593 132H81.2264C81.1535 131.645 81.0259 131.334 80.8436 131.065C80.6646 130.797 80.4458 130.571 80.1873 130.389C79.9321 130.204 79.6487 130.064 79.3372 129.972C79.0256 129.879 78.7008 129.832 78.3627 129.832C77.7463 129.832 77.1878 129.988 76.6873 130.3C76.1902 130.611 75.7941 131.07 75.4991 131.677C75.2074 132.283 75.0616 133.027 75.0616 133.909C75.0616 134.791 75.2074 135.535 75.4991 136.141C75.7941 136.748 76.1902 137.207 76.6873 137.518C77.1878 137.83 77.7463 137.986 78.3627 137.986C78.7008 137.986 79.0256 137.939 79.3372 137.847C79.6487 137.754 79.9321 137.616 80.1873 137.434C80.4458 137.248 80.6646 137.021 80.8436 136.753C81.0259 136.481 81.1535 136.17 81.2264 135.818H82.4593C82.3665 136.339 82.1975 136.804 81.9522 137.215C81.707 137.626 81.402 137.976 81.0375 138.264C80.6729 138.549 80.2636 138.766 79.8095 138.915C79.3587 139.065 78.8765 139.139 78.3627 139.139C77.4944 139.139 76.7221 138.927 76.046 138.503C75.3699 138.079 74.8379 137.475 74.4501 136.693C74.0623 135.911 73.8684 134.983 73.8684 133.909C73.8684 132.835 74.0623 131.907 74.4501 131.125C74.8379 130.343 75.3699 129.74 76.046 129.315C76.7221 128.891 77.4944 128.679 78.3627 128.679C78.8765 128.679 79.3587 128.754 79.8095 128.903C80.2636 129.052 80.6729 129.271 81.0375 129.559C81.402 129.844 81.707 130.192 81.9522 130.603C82.1975 131.011 82.3665 131.476 82.4593 132ZM84.4517 139V128.818H85.6847V133.352H91.1136V128.818H92.3466V139H91.1136V134.446H85.6847V139H84.4517ZM98.7525 139V128.818H99.9854V137.906H104.718V139H98.7525ZM106.627 139V128.818H112.772V129.912H107.86V133.352H112.454V134.446H107.86V137.906H112.852V139H106.627ZM115.412 139H114.12L117.858 128.818H119.131L122.87 139H121.577L118.534 130.429H118.455L115.412 139ZM115.89 135.023H121.1V136.116H115.89V135.023ZM127.598 139H124.456V128.818H127.737C128.725 128.818 129.57 129.022 130.272 129.43C130.975 129.834 131.514 130.416 131.888 131.175C132.263 131.93 132.45 132.835 132.45 133.889C132.45 134.95 132.261 135.863 131.883 136.629C131.505 137.391 130.955 137.978 130.233 138.388C129.51 138.796 128.632 139 127.598 139ZM125.689 137.906H127.518C128.36 137.906 129.058 137.744 129.611 137.419C130.165 137.094 130.577 136.632 130.849 136.032C131.121 135.432 131.257 134.718 131.257 133.889C131.257 133.067 131.123 132.36 130.854 131.766C130.586 131.17 130.185 130.712 129.651 130.394C129.117 130.073 128.453 129.912 127.657 129.912H125.689V137.906Z" fill="#8A8A8E"/>
<path d="M181.148 116V104.364H188.602V106.131H183.256V109.29H188.091V111.057H183.256V116H181.148ZM193.655 116.17C192.78 116.17 192.024 115.989 191.388 115.625C190.755 115.258 190.268 114.739 189.928 114.068C189.587 113.394 189.416 112.6 189.416 111.688C189.416 110.79 189.587 110.002 189.928 109.324C190.272 108.642 190.753 108.112 191.371 107.733C191.988 107.35 192.714 107.159 193.547 107.159C194.085 107.159 194.592 107.246 195.07 107.42C195.551 107.591 195.975 107.856 196.342 108.216C196.714 108.576 197.005 109.034 197.217 109.591C197.429 110.144 197.536 110.803 197.536 111.568V112.199H190.382V110.812H195.564C195.56 110.419 195.475 110.068 195.308 109.761C195.142 109.451 194.909 109.206 194.609 109.028C194.314 108.85 193.969 108.761 193.575 108.761C193.155 108.761 192.786 108.864 192.467 109.068C192.149 109.269 191.901 109.534 191.723 109.864C191.549 110.189 191.46 110.547 191.456 110.938V112.148C191.456 112.655 191.549 113.091 191.734 113.455C191.92 113.814 192.179 114.091 192.513 114.284C192.846 114.473 193.236 114.568 193.683 114.568C193.982 114.568 194.253 114.527 194.496 114.443C194.738 114.356 194.948 114.229 195.126 114.062C195.304 113.896 195.439 113.689 195.53 113.443L197.45 113.659C197.329 114.167 197.098 114.61 196.757 114.989C196.42 115.364 195.988 115.655 195.462 115.864C194.935 116.068 194.333 116.17 193.655 116.17ZM199.366 116V104.364H201.423V108.716H201.509C201.615 108.504 201.764 108.278 201.957 108.04C202.151 107.797 202.412 107.591 202.741 107.42C203.071 107.246 203.491 107.159 204.003 107.159C204.677 107.159 205.285 107.331 205.827 107.676C206.372 108.017 206.804 108.523 207.122 109.193C207.444 109.86 207.605 110.678 207.605 111.648C207.605 112.606 207.448 113.42 207.134 114.091C206.819 114.761 206.391 115.273 205.849 115.625C205.308 115.977 204.694 116.153 204.009 116.153C203.509 116.153 203.094 116.07 202.764 115.903C202.435 115.737 202.17 115.536 201.969 115.301C201.772 115.062 201.618 114.837 201.509 114.625H201.389V116H199.366ZM201.384 111.636C201.384 112.201 201.463 112.695 201.622 113.119C201.785 113.544 202.018 113.875 202.321 114.114C202.628 114.348 202.999 114.466 203.435 114.466C203.889 114.466 204.27 114.345 204.577 114.102C204.884 113.856 205.115 113.521 205.27 113.097C205.429 112.669 205.509 112.182 205.509 111.636C205.509 111.095 205.431 110.614 205.276 110.193C205.12 109.773 204.889 109.443 204.582 109.205C204.276 108.966 203.893 108.847 203.435 108.847C202.995 108.847 202.622 108.962 202.315 109.193C202.009 109.424 201.776 109.748 201.616 110.165C201.461 110.581 201.384 111.072 201.384 111.636ZM217.601 116.222C216.665 116.222 215.862 115.985 215.192 115.511C214.525 115.034 214.012 114.347 213.652 113.449C213.296 112.547 213.118 111.462 213.118 110.193C213.122 108.924 213.302 107.845 213.658 106.955C214.018 106.061 214.531 105.379 215.197 104.909C215.868 104.439 216.669 104.205 217.601 104.205C218.533 104.205 219.334 104.439 220.004 104.909C220.675 105.379 221.188 106.061 221.544 106.955C221.904 107.848 222.084 108.928 222.084 110.193C222.084 111.466 221.904 112.553 221.544 113.455C221.188 114.352 220.675 115.038 220.004 115.511C219.338 115.985 218.536 116.222 217.601 116.222ZM217.601 114.443C218.328 114.443 218.902 114.085 219.322 113.369C219.747 112.65 219.959 111.591 219.959 110.193C219.959 109.269 219.862 108.492 219.669 107.864C219.476 107.235 219.203 106.761 218.851 106.443C218.499 106.121 218.082 105.96 217.601 105.96C216.877 105.96 216.305 106.32 215.885 107.04C215.464 107.756 215.252 108.807 215.249 110.193C215.245 111.121 215.338 111.902 215.527 112.534C215.72 113.167 215.993 113.644 216.345 113.966C216.697 114.284 217.116 114.443 217.601 114.443ZM223.761 113.841V112.165L228.699 104.364H230.097V106.75H229.244L225.92 112.017V112.108H232.812V113.841H223.761ZM229.312 116V113.33L229.335 112.58V104.364H231.324V116H229.312ZM236.737 114.409L236.663 115.034C236.61 115.511 236.516 115.996 236.379 116.489C236.247 116.985 236.107 117.441 235.959 117.858C235.811 118.275 235.692 118.602 235.601 118.841H234.214C234.268 118.61 234.339 118.295 234.43 117.898C234.525 117.5 234.616 117.053 234.703 116.557C234.79 116.061 234.849 115.557 234.879 115.045L234.919 114.409H236.737ZM242.628 116V114.477L246.668 110.517C247.054 110.127 247.376 109.78 247.634 109.477C247.891 109.174 248.084 108.881 248.213 108.597C248.342 108.312 248.406 108.009 248.406 107.688C248.406 107.32 248.323 107.006 248.156 106.744C247.99 106.479 247.76 106.275 247.469 106.131C247.177 105.987 246.846 105.915 246.474 105.915C246.092 105.915 245.757 105.994 245.469 106.153C245.181 106.309 244.957 106.53 244.798 106.818C244.643 107.106 244.565 107.449 244.565 107.847H242.56C242.56 107.108 242.728 106.466 243.065 105.92C243.402 105.375 243.866 104.953 244.457 104.653C245.052 104.354 245.734 104.205 246.503 104.205C247.283 104.205 247.969 104.35 248.56 104.642C249.151 104.934 249.609 105.333 249.935 105.841C250.264 106.348 250.429 106.928 250.429 107.58C250.429 108.015 250.346 108.443 250.179 108.864C250.012 109.284 249.719 109.75 249.298 110.261C248.882 110.773 248.296 111.392 247.543 112.119L245.537 114.159V114.239H250.605V116H242.628ZM256.866 116.222C255.931 116.222 255.128 115.985 254.457 115.511C253.791 115.034 253.277 114.347 252.918 113.449C252.562 112.547 252.384 111.462 252.384 110.193C252.387 108.924 252.567 107.845 252.923 106.955C253.283 106.061 253.796 105.379 254.463 104.909C255.134 104.439 255.935 104.205 256.866 104.205C257.798 104.205 258.599 104.439 259.27 104.909C259.94 105.379 260.454 106.061 260.81 106.955C261.17 107.848 261.349 108.928 261.349 110.193C261.349 111.466 261.17 112.553 260.81 113.455C260.454 114.352 259.94 115.038 259.27 115.511C258.603 115.985 257.802 116.222 256.866 116.222ZM256.866 114.443C257.594 114.443 258.168 114.085 258.588 113.369C259.012 112.65 259.224 111.591 259.224 110.193C259.224 109.269 259.128 108.492 258.935 107.864C258.741 107.235 258.469 106.761 258.116 106.443C257.764 106.121 257.348 105.96 256.866 105.96C256.143 105.96 255.571 106.32 255.151 107.04C254.73 107.756 254.518 108.807 254.514 110.193C254.51 111.121 254.603 111.902 254.793 112.534C254.986 113.167 255.259 113.644 255.611 113.966C255.963 114.284 256.382 114.443 256.866 114.443ZM263.237 116V114.477L267.277 110.517C267.663 110.127 267.985 109.78 268.243 109.477C268.5 109.174 268.694 108.881 268.822 108.597C268.951 108.312 269.016 108.009 269.016 107.688C269.016 107.32 268.932 107.006 268.766 106.744C268.599 106.479 268.37 106.275 268.078 106.131C267.786 105.987 267.455 105.915 267.084 105.915C266.701 105.915 266.366 105.994 266.078 106.153C265.79 106.309 265.567 106.53 265.408 106.818C265.252 107.106 265.175 107.449 265.175 107.847H263.169C263.169 107.108 263.338 106.466 263.675 105.92C264.012 105.375 264.476 104.953 265.067 104.653C265.661 104.354 266.343 104.205 267.112 104.205C267.893 104.205 268.578 104.35 269.169 104.642C269.76 104.934 270.218 105.333 270.544 105.841C270.874 106.348 271.038 106.928 271.038 107.58C271.038 108.015 270.955 108.443 270.788 108.864C270.622 109.284 270.328 109.75 269.908 110.261C269.491 110.773 268.906 111.392 268.152 112.119L266.146 114.159V114.239H271.214V116H263.237ZM277.351 116.159C276.533 116.159 275.805 116.019 275.169 115.739C274.536 115.458 274.036 115.068 273.669 114.568C273.302 114.068 273.107 113.491 273.084 112.835H275.22C275.239 113.15 275.343 113.424 275.533 113.659C275.722 113.89 275.974 114.07 276.288 114.199C276.603 114.328 276.955 114.392 277.345 114.392C277.762 114.392 278.131 114.32 278.453 114.176C278.775 114.028 279.027 113.824 279.209 113.562C279.391 113.301 279.48 113 279.476 112.659C279.48 112.307 279.389 111.996 279.203 111.727C279.018 111.458 278.749 111.248 278.396 111.097C278.048 110.945 277.627 110.869 277.135 110.869H276.107V109.244H277.135C277.54 109.244 277.894 109.174 278.197 109.034C278.504 108.894 278.745 108.697 278.919 108.443C279.093 108.186 279.179 107.888 279.175 107.551C279.179 107.222 279.105 106.936 278.953 106.693C278.805 106.447 278.595 106.256 278.322 106.119C278.054 105.983 277.737 105.915 277.374 105.915C277.018 105.915 276.688 105.979 276.385 106.108C276.082 106.237 275.838 106.42 275.652 106.659C275.466 106.894 275.368 107.174 275.357 107.5H273.328C273.343 106.848 273.531 106.277 273.891 105.784C274.254 105.288 274.739 104.902 275.345 104.625C275.951 104.345 276.631 104.205 277.385 104.205C278.161 104.205 278.836 104.35 279.408 104.642C279.983 104.93 280.429 105.318 280.743 105.807C281.057 106.295 281.214 106.835 281.214 107.426C281.218 108.081 281.025 108.631 280.635 109.074C280.249 109.517 279.741 109.807 279.112 109.943V110.034C279.93 110.148 280.557 110.451 280.993 110.943C281.432 111.432 281.65 112.04 281.646 112.767C281.646 113.419 281.461 114.002 281.089 114.517C280.722 115.028 280.214 115.43 279.567 115.722C278.923 116.013 278.184 116.159 277.351 116.159Z" fill="black"/>
<path d="M186.801 131.364C186.741 130.86 186.5 130.469 186.075 130.19C185.651 129.912 185.131 129.773 184.514 129.773C184.063 129.773 183.669 129.846 183.331 129.991C182.996 130.137 182.734 130.338 182.545 130.593C182.36 130.848 182.267 131.138 182.267 131.463C182.267 131.735 182.332 131.969 182.461 132.164C182.594 132.356 182.763 132.517 182.968 132.646C183.174 132.772 183.389 132.877 183.614 132.96C183.84 133.039 184.047 133.104 184.236 133.153L185.27 133.432C185.535 133.501 185.83 133.598 186.155 133.72C186.483 133.843 186.796 134.01 187.094 134.222C187.396 134.431 187.645 134.7 187.84 135.028C188.036 135.356 188.134 135.759 188.134 136.236C188.134 136.786 187.989 137.283 187.701 137.727C187.416 138.171 186.998 138.524 186.448 138.786C185.901 139.048 185.237 139.179 184.455 139.179C183.725 139.179 183.094 139.061 182.56 138.826C182.03 138.591 181.612 138.263 181.308 137.842C181.006 137.421 180.835 136.932 180.795 136.375H182.068C182.101 136.759 182.231 137.078 182.456 137.33C182.685 137.578 182.973 137.764 183.321 137.886C183.672 138.006 184.05 138.065 184.455 138.065C184.925 138.065 185.348 137.989 185.722 137.837C186.097 137.681 186.393 137.465 186.612 137.19C186.831 136.912 186.94 136.587 186.94 136.216C186.94 135.878 186.846 135.603 186.657 135.391C186.468 135.179 186.219 135.006 185.911 134.874C185.603 134.741 185.27 134.625 184.912 134.526L183.659 134.168C182.864 133.939 182.234 133.612 181.77 133.188C181.306 132.764 181.074 132.209 181.074 131.523C181.074 130.953 181.228 130.455 181.536 130.031C181.848 129.604 182.265 129.272 182.789 129.037C183.316 128.798 183.904 128.679 184.554 128.679C185.21 128.679 185.794 128.797 186.304 129.032C186.814 129.264 187.219 129.582 187.517 129.987C187.819 130.391 187.978 130.85 187.994 131.364H186.801ZM189.604 129.912V128.818H197.24V129.912H194.039V139H192.806V129.912H189.604ZM198.371 139H197.079L200.817 128.818H202.09L205.829 139H204.536L201.493 130.429H201.414L198.371 139ZM198.849 135.023H204.059V136.116H198.849V135.023ZM207.415 139V128.818H210.855C211.65 128.818 212.303 128.954 212.814 129.226C213.324 129.494 213.702 129.864 213.947 130.335C214.193 130.805 214.315 131.34 214.315 131.94C214.315 132.54 214.193 133.072 213.947 133.536C213.702 134 213.326 134.365 212.819 134.63C212.312 134.892 211.664 135.023 210.875 135.023H208.091V133.909H210.835C211.379 133.909 211.816 133.83 212.148 133.67C212.482 133.511 212.724 133.286 212.873 132.994C213.026 132.699 213.102 132.348 213.102 131.94C213.102 131.533 213.026 131.176 212.873 130.871C212.721 130.567 212.477 130.331 212.143 130.165C211.808 129.996 211.365 129.912 210.815 129.912H208.648V139H207.415ZM212.207 134.426L214.713 139H213.281L210.815 134.426H212.207ZM215.813 129.912V128.818H223.449V129.912H220.248V139H219.015V129.912H215.813ZM232.432 139H229.29V128.818H232.571C233.559 128.818 234.404 129.022 235.106 129.43C235.809 129.834 236.348 130.416 236.722 131.175C237.097 131.93 237.284 132.835 237.284 133.889C237.284 134.95 237.095 135.863 236.717 136.629C236.339 137.391 235.789 137.978 235.067 138.388C234.344 138.796 233.466 139 232.432 139ZM230.523 137.906H232.352C233.194 137.906 233.892 137.744 234.445 137.419C234.999 137.094 235.411 136.632 235.683 136.032C235.955 135.432 236.091 134.718 236.091 133.889C236.091 133.067 235.956 132.36 235.688 131.766C235.42 131.17 235.019 130.712 234.485 130.394C233.951 130.073 233.287 129.912 232.491 129.912H230.523V137.906ZM239.291 139H237.999L241.737 128.818H243.01L246.749 139H245.456L242.413 130.429H242.334L239.291 139ZM239.768 135.023H244.979V136.116H239.768V135.023ZM246.588 129.912V128.818H254.225V129.912H251.023V139H249.79V129.912H246.588ZM256.127 139V128.818H262.272V129.912H257.36V133.352H261.954V134.446H257.36V137.906H262.352V139H256.127Z" fill="#8A8A8E"/>
<path d="M340.352 104.364H342.733L345.58 109.511H345.693L348.54 104.364H350.92L346.688 111.659V116H344.585V111.659L340.352 104.364ZM354.561 116.17C353.686 116.17 352.93 115.989 352.294 115.625C351.661 115.258 351.175 114.739 350.834 114.068C350.493 113.394 350.322 112.6 350.322 111.688C350.322 110.79 350.493 110.002 350.834 109.324C351.179 108.642 351.66 108.112 352.277 107.733C352.894 107.35 353.62 107.159 354.453 107.159C354.991 107.159 355.499 107.246 355.976 107.42C356.457 107.591 356.881 107.856 357.249 108.216C357.62 108.576 357.911 109.034 358.124 109.591C358.336 110.144 358.442 110.803 358.442 111.568V112.199H351.288V110.812H356.47C356.466 110.419 356.381 110.068 356.214 109.761C356.048 109.451 355.815 109.206 355.516 109.028C355.22 108.85 354.875 108.761 354.482 108.761C354.061 108.761 353.692 108.864 353.374 109.068C353.055 109.269 352.807 109.534 352.629 109.864C352.455 110.189 352.366 110.547 352.362 110.938V112.148C352.362 112.655 352.455 113.091 352.641 113.455C352.826 113.814 353.086 114.091 353.419 114.284C353.752 114.473 354.143 114.568 354.589 114.568C354.889 114.568 355.16 114.527 355.402 114.443C355.644 114.356 355.855 114.229 356.033 114.062C356.211 113.896 356.345 113.689 356.436 113.443L358.357 113.659C358.235 114.167 358.004 114.61 357.663 114.989C357.326 115.364 356.894 115.655 356.368 115.864C355.841 116.068 355.239 116.17 354.561 116.17ZM367.08 109.58L365.205 109.784C365.152 109.595 365.059 109.417 364.926 109.25C364.797 109.083 364.623 108.949 364.403 108.847C364.184 108.744 363.915 108.693 363.597 108.693C363.169 108.693 362.809 108.786 362.517 108.972C362.229 109.157 362.087 109.398 362.091 109.693C362.087 109.947 362.18 110.153 362.369 110.312C362.563 110.472 362.881 110.602 363.324 110.705L364.812 111.023C365.638 111.201 366.252 111.483 366.653 111.869C367.059 112.256 367.263 112.761 367.267 113.386C367.263 113.936 367.102 114.42 366.784 114.841C366.47 115.258 366.032 115.583 365.472 115.818C364.911 116.053 364.267 116.17 363.54 116.17C362.472 116.17 361.612 115.947 360.96 115.5C360.309 115.049 359.92 114.422 359.795 113.619L361.801 113.426C361.892 113.82 362.085 114.117 362.381 114.318C362.676 114.519 363.061 114.619 363.534 114.619C364.023 114.619 364.415 114.519 364.71 114.318C365.009 114.117 365.159 113.869 365.159 113.574C365.159 113.324 365.063 113.117 364.869 112.955C364.68 112.792 364.384 112.667 363.983 112.58L362.494 112.267C361.657 112.093 361.038 111.799 360.636 111.386C360.235 110.97 360.036 110.443 360.04 109.807C360.036 109.269 360.182 108.803 360.477 108.409C360.777 108.011 361.191 107.705 361.722 107.489C362.256 107.269 362.871 107.159 363.568 107.159C364.591 107.159 365.396 107.377 365.983 107.812C366.574 108.248 366.939 108.837 367.08 109.58Z" fill="black"/>
<path d="M341.651 139H340.358L344.097 128.818H345.369L349.108 139H347.815L344.773 130.429H344.693L341.651 139ZM342.128 135.023H347.338V136.116H342.128V135.023ZM350.694 139V128.818H354.134C354.933 128.818 355.586 128.962 356.093 129.251C356.603 129.536 356.981 129.922 357.227 130.409C357.472 130.896 357.594 131.44 357.594 132.04C357.594 132.64 357.472 133.185 357.227 133.675C356.985 134.166 356.61 134.557 356.103 134.849C355.596 135.137 354.946 135.281 354.154 135.281H351.688V134.188H354.114C354.661 134.188 355.1 134.093 355.432 133.904C355.763 133.715 356.004 133.46 356.153 133.138C356.305 132.814 356.381 132.447 356.381 132.04C356.381 131.632 356.305 131.268 356.153 130.946C356.004 130.625 355.762 130.373 355.427 130.19C355.092 130.005 354.648 129.912 354.094 129.912H351.927V139H350.694ZM359.581 139V128.818H363.021C363.82 128.818 364.473 128.962 364.98 129.251C365.49 129.536 365.868 129.922 366.113 130.409C366.359 130.896 366.481 131.44 366.481 132.04C366.481 132.64 366.359 133.185 366.113 133.675C365.871 134.166 365.497 134.557 364.99 134.849C364.483 135.137 363.833 135.281 363.041 135.281H360.575V134.188H363.001C363.548 134.188 363.987 134.093 364.319 133.904C364.65 133.715 364.89 133.46 365.039 133.138C365.192 132.814 365.268 132.447 365.268 132.04C365.268 131.632 365.192 131.268 365.039 130.946C364.89 130.625 364.648 130.373 364.314 130.19C363.979 130.005 363.535 129.912 362.981 129.912H360.814V139H359.581ZM368.467 139V128.818H371.908C372.703 128.818 373.356 128.954 373.866 129.226C374.377 129.494 374.755 129.864 375 130.335C375.245 130.805 375.368 131.34 375.368 131.94C375.368 132.54 375.245 133.072 375 133.536C374.755 134 374.379 134.365 373.871 134.63C373.364 134.892 372.716 135.023 371.928 135.023H369.143V133.909H371.888C372.431 133.909 372.869 133.83 373.2 133.67C373.535 133.511 373.777 133.286 373.926 132.994C374.079 132.699 374.155 132.348 374.155 131.94C374.155 131.533 374.079 131.176 373.926 130.871C373.774 130.567 373.53 130.331 373.195 130.165C372.861 129.996 372.418 129.912 371.868 129.912H369.7V139H368.467ZM373.26 134.426L375.766 139H374.334L371.868 134.426H373.26ZM386.013 133.909C386.013 134.983 385.819 135.911 385.432 136.693C385.044 137.475 384.512 138.079 383.836 138.503C383.16 138.927 382.387 139.139 381.519 139.139C380.651 139.139 379.878 138.927 379.202 138.503C378.526 138.079 377.994 137.475 377.606 136.693C377.219 135.911 377.025 134.983 377.025 133.909C377.025 132.835 377.219 131.907 377.606 131.125C377.994 130.343 378.526 129.74 379.202 129.315C379.878 128.891 380.651 128.679 381.519 128.679C382.387 128.679 383.16 128.891 383.836 129.315C384.512 129.74 385.044 130.343 385.432 131.125C385.819 131.907 386.013 132.835 386.013 133.909ZM384.82 133.909C384.82 133.027 384.673 132.283 384.378 131.677C384.086 131.07 383.69 130.611 383.189 130.3C382.692 129.988 382.135 129.832 381.519 129.832C380.903 129.832 380.344 129.988 379.844 130.3C379.346 130.611 378.95 131.07 378.655 131.677C378.364 132.283 378.218 133.027 378.218 133.909C378.218 134.791 378.364 135.535 378.655 136.141C378.95 136.748 379.346 137.207 379.844 137.518C380.344 137.83 380.903 137.986 381.519 137.986C382.135 137.986 382.692 137.83 383.189 137.518C383.69 137.207 384.086 136.748 384.378 136.141C384.673 135.535 384.82 134.791 384.82 133.909ZM388.026 128.818L391.048 137.389H391.168L394.19 128.818H395.483L391.744 139H390.472L386.733 128.818H388.026ZM397.069 139V128.818H403.214V129.912H398.302V133.352H402.896V134.446H398.302V137.906H403.293V139H397.069ZM408.578 139H405.436V128.818H408.717C409.705 128.818 410.55 129.022 411.253 129.43C411.955 129.834 412.494 130.416 412.869 131.175C413.243 131.93 413.43 132.835 413.43 133.889C413.43 134.95 413.241 135.863 412.864 136.629C412.486 137.391 411.936 137.978 411.213 138.388C410.491 138.796 409.612 139 408.578 139ZM406.669 137.906H408.499C409.34 137.906 410.038 137.744 410.592 137.419C411.145 137.094 411.558 136.632 411.83 136.032C412.101 135.432 412.237 134.718 412.237 133.889C412.237 133.067 412.103 132.36 411.835 131.766C411.566 131.17 411.165 130.712 410.631 130.394C410.098 130.073 409.433 129.912 408.638 129.912H406.669V137.906Z" fill="#8A8A8E"/>
<path d="M500.824 113.841V112.165L505.761 104.364H507.159V106.75H506.307L502.983 112.017V112.108H509.875V113.841H500.824ZM506.375 116V113.33L506.398 112.58V104.364H508.386V116H506.375Z" fill="black"/>
<path d="M501.233 139V128.818H504.673C505.472 128.818 506.125 128.962 506.632 129.251C507.143 129.536 507.52 129.922 507.766 130.409C508.011 130.896 508.134 131.44 508.134 132.04C508.134 132.64 508.011 133.185 507.766 133.675C507.524 134.166 507.149 134.557 506.642 134.849C506.135 135.137 505.485 135.281 504.693 135.281H502.227V134.188H504.653C505.2 134.188 505.639 134.093 505.971 133.904C506.302 133.715 506.543 133.46 506.692 133.138C506.844 132.814 506.92 132.447 506.92 132.04C506.92 131.632 506.844 131.268 506.692 130.946C506.543 130.625 506.301 130.373 505.966 130.19C505.631 130.005 505.187 129.912 504.634 129.912H502.466V139H501.233ZM510.12 139V128.818H511.353V137.906H516.086V139H510.12ZM519.055 139H517.762L521.501 128.818H522.774L526.512 139H525.22L522.177 130.429H522.097L519.055 139ZM519.532 135.023H524.742V136.116H519.532V135.023ZM526.352 129.912V128.818H533.988V129.912H530.787V139H529.554V129.912H526.352ZM535.891 139V128.818H542.036V129.912H537.124V133.352H541.718V134.446H537.124V137.906H542.116V139H535.891ZM549.827 131.364C549.767 130.86 549.525 130.469 549.101 130.19C548.676 129.912 548.156 129.773 547.54 129.773C547.089 129.773 546.694 129.846 546.356 129.991C546.022 130.137 545.76 130.338 545.571 130.593C545.385 130.848 545.292 131.138 545.292 131.463C545.292 131.735 545.357 131.969 545.486 132.164C545.619 132.356 545.788 132.517 545.993 132.646C546.199 132.772 546.414 132.877 546.64 132.96C546.865 133.039 547.072 133.104 547.261 133.153L548.295 133.432C548.56 133.501 548.855 133.598 549.18 133.72C549.508 133.843 549.822 134.01 550.12 134.222C550.421 134.431 550.67 134.7 550.866 135.028C551.061 135.356 551.159 135.759 551.159 136.236C551.159 136.786 551.015 137.283 550.726 137.727C550.441 138.171 550.024 138.524 549.474 138.786C548.927 139.048 548.262 139.179 547.48 139.179C546.751 139.179 546.119 139.061 545.586 138.826C545.055 138.591 544.638 138.263 544.333 137.842C544.031 137.421 543.861 136.932 543.821 136.375H545.094C545.127 136.759 545.256 137.078 545.481 137.33C545.71 137.578 545.998 137.764 546.346 137.886C546.698 138.006 547.076 138.065 547.48 138.065C547.951 138.065 548.373 137.989 548.748 137.837C549.122 137.681 549.419 137.465 549.638 137.19C549.856 136.912 549.966 136.587 549.966 136.216C549.966 135.878 549.871 135.603 549.682 135.391C549.493 135.179 549.245 135.006 548.937 134.874C548.628 134.741 548.295 134.625 547.937 134.526L546.684 134.168C545.889 133.939 545.259 133.612 544.795 133.188C544.331 132.764 544.099 132.209 544.099 131.523C544.099 130.953 544.253 130.455 544.562 130.031C544.873 129.604 545.291 129.272 545.814 129.037C546.341 128.798 546.93 128.679 547.579 128.679C548.236 128.679 548.819 128.797 549.329 129.032C549.84 129.264 550.244 129.582 550.542 129.987C550.844 130.391 551.003 130.85 551.02 131.364H549.827Z" fill="#8A8A8E"/>
</svg>
