<svg width="100" height="40" viewBox="0 0 100 40" fill="none" xmlns="http://www.w3.org/2000/svg">
<rect width="50" height="40" rx="4" fill="#E4E4E6"/>
<g clip-path="url(#clip0_1653_68310)">
<path d="M20.5 12C18.57 12 17 13.57 17 15.5C17 17.43 18.57 19 20.5 19C22.43 19 24 17.43 24 15.5C24 13.57 22.43 12 20.5 12ZM20.5 17C19.67 17 19 16.33 19 15.5C19 14.67 19.67 14 20.5 14C21.33 14 22 14.67 22 15.5C22 16.33 21.33 17 20.5 17ZM29.5 21C27.57 21 26 22.57 26 24.5C26 26.43 27.57 28 29.5 28C31.43 28 33 26.43 33 24.5C33 22.57 31.43 21 29.5 21ZM29.5 26C28.67 26 28 25.33 28 24.5C28 23.67 28.67 23 29.5 23C30.33 23 31 23.67 31 24.5C31 25.33 30.33 26 29.5 26ZM18.41 28L17 26.59L31.59 12L33 13.41L18.41 28Z" fill="black"/>
</g>
<g clip-path="url(#clip1_1653_68310)">
<path d="M80.66 16.0001L75 10.3501L69.34 16.0001C67.78 17.5601 67 19.6401 67 21.6401C67 23.6401 67.78 25.7501 69.34 27.3101C70.9 28.8701 72.95 29.6601 75 29.6601C77.05 29.6601 79.1 28.8701 80.66 27.3101C82.22 25.7501 83 23.6401 83 21.6401C83 19.6401 82.22 17.5601 80.66 16.0001ZM69 22.0001C69.01 20.0001 69.62 18.7301 70.76 17.6001L75 13.2701L79.24 17.6501C80.38 18.7701 80.99 20.0001 81 22.0001H69Z" fill="#8A8A8E"/>
</g>
<defs>
<clipPath id="clip0_1653_68310">
<rect width="24" height="24" fill="white" transform="translate(13 8)"/>
</clipPath>
<clipPath id="clip1_1653_68310">
<rect width="24" height="24" fill="white" transform="translate(63 8)"/>
</clipPath>
</defs>
</svg>
