<svg width="1430" height="40" viewBox="0 0 1430 40" fill="none" xmlns="http://www.w3.org/2000/svg">
<path d="M21.7216 28.5V11.0455H28.267C29.608 11.0455 30.733 11.2955 31.642 11.7955C32.5568 12.2955 33.2472 12.983 33.7131 13.858C34.1847 14.7273 34.4205 15.7159 34.4205 16.8239C34.4205 17.9432 34.1847 18.9375 33.7131 19.8068C33.2415 20.6761 32.5455 21.3608 31.625 21.8608C30.7045 22.3551 29.571 22.6023 28.2244 22.6023H23.8864V20.0028H27.7983C28.5824 20.0028 29.2244 19.8665 29.7244 19.5938C30.2244 19.321 30.5938 18.946 30.8324 18.4688C31.0767 17.9915 31.1989 17.4432 31.1989 16.8239C31.1989 16.2045 31.0767 15.6591 30.8324 15.1875C30.5938 14.7159 30.2216 14.3494 29.7159 14.0881C29.2159 13.821 28.571 13.6875 27.7812 13.6875H24.8835V28.5H21.7216ZM40.1158 11.0455V28.5H37.0305V11.0455H40.1158ZM47.0554 28.7642C46.2259 28.7642 45.4787 28.6165 44.8139 28.321C44.1548 28.0199 43.6321 27.5767 43.2457 26.9915C42.8651 26.4062 42.6747 25.6847 42.6747 24.8267C42.6747 24.0881 42.8111 23.4773 43.0838 22.9943C43.3565 22.5114 43.7287 22.125 44.2003 21.8352C44.6719 21.5455 45.2031 21.3267 45.794 21.179C46.3906 21.0256 47.0071 20.9148 47.6435 20.8466C48.4105 20.767 49.0327 20.696 49.5099 20.6335C49.9872 20.5653 50.3338 20.4631 50.5497 20.3267C50.7713 20.1847 50.8821 19.9659 50.8821 19.6705V19.6193C50.8821 18.9773 50.6918 18.4801 50.3111 18.1278C49.9304 17.7756 49.3821 17.5994 48.6662 17.5994C47.9105 17.5994 47.3111 17.7642 46.8679 18.0938C46.4304 18.4233 46.1349 18.8125 45.9815 19.2614L43.1009 18.8523C43.3281 18.0568 43.7031 17.392 44.2259 16.858C44.7486 16.3182 45.3878 15.9148 46.1435 15.6477C46.8991 15.375 47.7344 15.2386 48.6491 15.2386C49.2798 15.2386 49.9077 15.3125 50.5327 15.4602C51.1577 15.608 51.7287 15.8523 52.2457 16.1932C52.7628 16.5284 53.1776 16.9858 53.4901 17.5653C53.8082 18.1449 53.9673 18.8693 53.9673 19.7386V28.5H51.0014V26.7017H50.8991C50.7116 27.0653 50.4474 27.4062 50.1065 27.7244C49.7713 28.0369 49.348 28.2898 48.8366 28.483C48.331 28.6705 47.7372 28.7642 47.0554 28.7642ZM47.8565 26.4972C48.4759 26.4972 49.0128 26.375 49.4673 26.1307C49.9219 25.8807 50.2713 25.5511 50.5156 25.142C50.7656 24.733 50.8906 24.2869 50.8906 23.804V22.2614C50.794 22.3409 50.6293 22.4148 50.3963 22.483C50.169 22.5511 49.9134 22.6108 49.6293 22.6619C49.3452 22.7131 49.0639 22.7585 48.7855 22.7983C48.5071 22.8381 48.2656 22.8722 48.0611 22.9006C47.6009 22.9631 47.1889 23.0653 46.8253 23.2074C46.4616 23.3494 46.1747 23.5483 45.9645 23.804C45.7543 24.054 45.6491 24.3778 45.6491 24.7756C45.6491 25.3438 45.8565 25.7727 46.2713 26.0625C46.6861 26.3523 47.2145 26.4972 47.8565 26.4972ZM63.6065 15.4091V17.7955H56.081V15.4091H63.6065ZM57.9389 12.2727H61.0241V24.5625C61.0241 24.9773 61.0866 25.2955 61.2116 25.517C61.3423 25.733 61.5128 25.8807 61.723 25.9602C61.9332 26.0398 62.1662 26.0795 62.4219 26.0795C62.6151 26.0795 62.7912 26.0653 62.9503 26.0369C63.1151 26.0085 63.2401 25.983 63.3253 25.9602L63.8452 28.3722C63.6804 28.429 63.4446 28.4915 63.1378 28.5597C62.8366 28.6278 62.4673 28.6676 62.0298 28.679C61.2571 28.7017 60.5611 28.5852 59.9418 28.3295C59.3224 28.0682 58.831 27.6648 58.4673 27.1193C58.1094 26.5739 57.9332 25.892 57.9389 25.0739V12.2727ZM71.8416 28.7557C70.5291 28.7557 69.3956 28.483 68.4411 27.9375C67.4922 27.3864 66.7621 26.608 66.2507 25.6023C65.7393 24.5909 65.4837 23.4006 65.4837 22.0312C65.4837 20.6847 65.7393 19.5028 66.2507 18.4858C66.7678 17.4631 67.4893 16.6676 68.4155 16.0994C69.3416 15.5256 70.4297 15.2386 71.6797 15.2386C72.4865 15.2386 73.2479 15.3693 73.9638 15.6307C74.6854 15.8864 75.3217 16.2841 75.8729 16.8239C76.4297 17.3636 76.8672 18.0511 77.1854 18.8864C77.5036 19.7159 77.6626 20.7045 77.6626 21.8523V22.7983H66.9325V20.7188H74.7053C74.6996 20.1278 74.5717 19.6023 74.3217 19.142C74.0717 18.6761 73.7223 18.3097 73.2734 18.0426C72.8303 17.7756 72.3132 17.642 71.7223 17.642C71.0916 17.642 70.5376 17.7955 70.0604 18.1023C69.5831 18.4034 69.2109 18.8011 68.9439 19.2955C68.6825 19.7841 68.549 20.321 68.5433 20.9062V22.7216C68.5433 23.483 68.6825 24.1364 68.9609 24.6818C69.2393 25.2216 69.6286 25.6364 70.1286 25.9261C70.6286 26.2102 71.2138 26.3523 71.8842 26.3523C72.3331 26.3523 72.7393 26.2898 73.103 26.1648C73.4666 26.0341 73.782 25.8438 74.049 25.5938C74.3161 25.3438 74.5178 25.0341 74.6541 24.6648L77.5348 24.9886C77.353 25.75 77.0064 26.4148 76.495 26.983C75.9893 27.5455 75.3416 27.983 74.5518 28.2955C73.7621 28.6023 72.8587 28.7557 71.8416 28.7557ZM90.6193 18.8693L87.8068 19.1761C87.7273 18.892 87.5881 18.625 87.3892 18.375C87.196 18.125 86.9347 17.9233 86.6051 17.7699C86.2756 17.6165 85.8722 17.5398 85.3949 17.5398C84.7528 17.5398 84.2131 17.679 83.7756 17.9574C83.3438 18.2358 83.1307 18.5966 83.1364 19.0398C83.1307 19.4205 83.2699 19.7301 83.554 19.9688C83.8438 20.2074 84.321 20.4034 84.9858 20.5568L87.2188 21.0341C88.4574 21.3011 89.3778 21.7244 89.9801 22.304C90.5881 22.8835 90.8949 23.642 90.9006 24.5795C90.8949 25.4034 90.6534 26.1307 90.1761 26.7614C89.7045 27.3864 89.0483 27.875 88.2074 28.2273C87.3665 28.5795 86.4006 28.7557 85.3097 28.7557C83.7074 28.7557 82.4176 28.4205 81.4403 27.75C80.4631 27.0739 79.8807 26.1335 79.6932 24.929L82.7017 24.6392C82.8381 25.2301 83.1278 25.6761 83.571 25.9773C84.0142 26.2784 84.5909 26.429 85.3011 26.429C86.0341 26.429 86.6222 26.2784 87.0653 25.9773C87.5142 25.6761 87.7386 25.304 87.7386 24.8608C87.7386 24.4858 87.5938 24.1761 87.304 23.9318C87.0199 23.6875 86.5767 23.5 85.9744 23.3693L83.7415 22.9006C82.4858 22.6392 81.5568 22.1989 80.9545 21.5795C80.3523 20.9545 80.054 20.1648 80.0597 19.2102C80.054 18.4034 80.2727 17.7045 80.7159 17.1136C81.1648 16.517 81.7869 16.0568 82.5824 15.733C83.3835 15.4034 84.3068 15.2386 85.3523 15.2386C86.8864 15.2386 88.0938 15.5653 88.9744 16.2188C89.8608 16.8722 90.4091 17.7557 90.6193 18.8693Z" fill="black"/>
<rect x="124" width="48" height="40" rx="4" fill="#E4E4E6"/>
<g clip-path="url(#clip0_1603_64684)">
<path d="M139 11V19H147V11H139ZM145 17H141V13H145V17ZM139 21V29H147V21H139ZM145 27H141V23H145V27ZM149 11V19H157V11H149ZM155 17H151V13H155V17ZM149 21V29H157V21H149ZM155 27H151V23H155V27Z" fill="black"/>
</g>
<g clip-path="url(#clip1_1603_64684)">
<path d="M187 21H189V19H187V21ZM187 25H189V23H187V25ZM187 17H189V15H187V17ZM191 21H205V19H191V21ZM191 25H205V23H191V25ZM191 15V17H205V15H191ZM187 21H189V19H187V21ZM187 25H189V23H187V25ZM187 17H189V15H187V17ZM191 21H205V19H191V21ZM191 25H205V23H191V25ZM191 15V17H205V15H191Z" fill="#8E8E93"/>
</g>
<line x1="233" y1="4" x2="233" y2="36" stroke="#C6C6C8" stroke-width="2"/>
<circle cx="270" cy="20" r="5.5" fill="white" stroke="#8A8A8E"/>
<mask id="path-9-inside-1_1603_64684" fill="white">
<path d="M270 24C268.939 24 267.922 23.5786 267.172 22.8284C266.421 22.0783 266 21.0609 266 20C266 18.9391 266.421 17.9217 267.172 17.1716C267.922 16.4214 268.939 16 270 16L270 20V24Z"/>
</mask>
<path d="M270 24C268.939 24 267.922 23.5786 267.172 22.8284C266.421 22.0783 266 21.0609 266 20C266 18.9391 266.421 17.9217 267.172 17.1716C267.922 16.4214 268.939 16 270 16L270 20V24Z" fill="#8A8A8E" stroke="#8A8A8E" stroke-width="2" mask="url(#path-9-inside-1_1603_64684)"/>
<path d="M291.516 21.0391H288.477V19.8125H291.516C292.104 19.8125 292.581 19.7188 292.945 19.5312C293.31 19.3438 293.576 19.0833 293.742 18.75C293.914 18.4167 294 18.0365 294 17.6094C294 17.2188 293.914 16.8516 293.742 16.5078C293.576 16.1641 293.31 15.888 292.945 15.6797C292.581 15.4661 292.104 15.3594 291.516 15.3594H288.828V25.5H287.32V14.125H291.516C292.375 14.125 293.102 14.2734 293.695 14.5703C294.289 14.8672 294.74 15.2786 295.047 15.8047C295.354 16.3255 295.508 16.9219 295.508 17.5938C295.508 18.3229 295.354 18.9453 295.047 19.4609C294.74 19.9766 294.289 20.3698 293.695 20.6406C293.102 20.9062 292.375 21.0391 291.516 21.0391ZM298.766 17.0469V25.5H297.312V17.0469H298.766ZM297.203 14.8047C297.203 14.5703 297.273 14.3724 297.414 14.2109C297.56 14.0495 297.773 13.9688 298.055 13.9688C298.331 13.9688 298.542 14.0495 298.688 14.2109C298.839 14.3724 298.914 14.5703 298.914 14.8047C298.914 15.0286 298.839 15.2214 298.688 15.3828C298.542 15.5391 298.331 15.6172 298.055 15.6172C297.773 15.6172 297.56 15.5391 297.414 15.3828C297.273 15.2214 297.203 15.0286 297.203 14.8047ZM302.531 18.6719V28.75H301.078V17.0469H302.406L302.531 18.6719ZM308.227 21.2031V21.3672C308.227 21.9818 308.154 22.5521 308.008 23.0781C307.862 23.599 307.648 24.0521 307.367 24.4375C307.091 24.8229 306.75 25.1224 306.344 25.3359C305.938 25.5495 305.471 25.6562 304.945 25.6562C304.409 25.6562 303.935 25.5677 303.523 25.3906C303.112 25.2135 302.763 24.9557 302.477 24.6172C302.19 24.2786 301.961 23.8724 301.789 23.3984C301.622 22.9245 301.508 22.3906 301.445 21.7969V20.9219C301.508 20.2969 301.625 19.737 301.797 19.2422C301.969 18.7474 302.195 18.3255 302.477 17.9766C302.763 17.6224 303.109 17.3542 303.516 17.1719C303.922 16.9844 304.391 16.8906 304.922 16.8906C305.453 16.8906 305.924 16.9948 306.336 17.2031C306.747 17.4062 307.094 17.6979 307.375 18.0781C307.656 18.4583 307.867 18.9141 308.008 19.4453C308.154 19.9714 308.227 20.5573 308.227 21.2031ZM306.773 21.3672V21.2031C306.773 20.7812 306.729 20.3854 306.641 20.0156C306.552 19.6406 306.414 19.3125 306.227 19.0312C306.044 18.7448 305.81 18.5208 305.523 18.3594C305.237 18.1927 304.896 18.1094 304.5 18.1094C304.135 18.1094 303.818 18.1719 303.547 18.2969C303.281 18.4219 303.055 18.5911 302.867 18.8047C302.68 19.013 302.526 19.2526 302.406 19.5234C302.292 19.7891 302.206 20.0651 302.148 20.3516V22.375C302.253 22.7396 302.398 23.0833 302.586 23.4062C302.773 23.724 303.023 23.9818 303.336 24.1797C303.648 24.3724 304.042 24.4688 304.516 24.4688C304.906 24.4688 305.242 24.388 305.523 24.2266C305.81 24.0599 306.044 23.8333 306.227 23.5469C306.414 23.2604 306.552 22.9323 306.641 22.5625C306.729 22.1875 306.773 21.7891 306.773 21.3672ZM313.578 25.6562C312.99 25.6562 312.456 25.5573 311.977 25.3594C311.503 25.1562 311.094 24.8724 310.75 24.5078C310.411 24.1432 310.151 23.7109 309.969 23.2109C309.786 22.7109 309.695 22.1641 309.695 21.5703V21.2422C309.695 20.5547 309.797 19.9427 310 19.4062C310.203 18.8646 310.479 18.4062 310.828 18.0312C311.177 17.6562 311.573 17.3724 312.016 17.1797C312.458 16.987 312.917 16.8906 313.391 16.8906C313.995 16.8906 314.516 16.9948 314.953 17.2031C315.396 17.4115 315.758 17.7031 316.039 18.0781C316.32 18.4479 316.529 18.8854 316.664 19.3906C316.799 19.8906 316.867 20.4375 316.867 21.0312V21.6797H310.555V20.5H315.422V20.3906C315.401 20.0156 315.323 19.651 315.188 19.2969C315.057 18.9427 314.849 18.651 314.562 18.4219C314.276 18.1927 313.885 18.0781 313.391 18.0781C313.062 18.0781 312.76 18.1484 312.484 18.2891C312.208 18.4245 311.971 18.6276 311.773 18.8984C311.576 19.1693 311.422 19.5 311.312 19.8906C311.203 20.2812 311.148 20.7318 311.148 21.2422V21.5703C311.148 21.9714 311.203 22.349 311.312 22.7031C311.427 23.0521 311.591 23.3594 311.805 23.625C312.023 23.8906 312.286 24.099 312.594 24.25C312.906 24.401 313.26 24.4766 313.656 24.4766C314.167 24.4766 314.599 24.3724 314.953 24.1641C315.307 23.9557 315.617 23.6771 315.883 23.3281L316.758 24.0234C316.576 24.2995 316.344 24.5625 316.062 24.8125C315.781 25.0625 315.435 25.2656 315.023 25.4219C314.617 25.5781 314.135 25.6562 313.578 25.6562ZM322.094 17.0469V18.1562H317.523V17.0469H322.094ZM319.07 14.9922H320.516V23.4062C320.516 23.6927 320.56 23.9089 320.648 24.0547C320.737 24.2005 320.852 24.2969 320.992 24.3438C321.133 24.3906 321.284 24.4141 321.445 24.4141C321.565 24.4141 321.69 24.4036 321.82 24.3828C321.956 24.3568 322.057 24.3359 322.125 24.3203L322.133 25.5C322.018 25.5365 321.867 25.5703 321.68 25.6016C321.497 25.638 321.276 25.6562 321.016 25.6562C320.661 25.6562 320.336 25.5859 320.039 25.4453C319.742 25.3047 319.505 25.0703 319.328 24.7422C319.156 24.4089 319.07 23.9609 319.07 23.3984V14.9922ZM327.328 17.0469V18.1562H322.758V17.0469H327.328ZM324.305 14.9922H325.75V23.4062C325.75 23.6927 325.794 23.9089 325.883 24.0547C325.971 24.2005 326.086 24.2969 326.227 24.3438C326.367 24.3906 326.518 24.4141 326.68 24.4141C326.799 24.4141 326.924 24.4036 327.055 24.3828C327.19 24.3568 327.292 24.3359 327.359 24.3203L327.367 25.5C327.253 25.5365 327.102 25.5703 326.914 25.6016C326.732 25.638 326.51 25.6562 326.25 25.6562C325.896 25.6562 325.57 25.5859 325.273 25.4453C324.977 25.3047 324.74 25.0703 324.562 24.7422C324.391 24.4089 324.305 23.9609 324.305 23.3984V14.9922ZM330.594 17.0469V25.5H329.141V17.0469H330.594ZM329.031 14.8047C329.031 14.5703 329.102 14.3724 329.242 14.2109C329.388 14.0495 329.602 13.9688 329.883 13.9688C330.159 13.9688 330.37 14.0495 330.516 14.2109C330.667 14.3724 330.742 14.5703 330.742 14.8047C330.742 15.0286 330.667 15.2214 330.516 15.3828C330.37 15.5391 330.159 15.6172 329.883 15.6172C329.602 15.6172 329.388 15.5391 329.242 15.3828C329.102 15.2214 329.031 15.0286 329.031 14.8047ZM334.359 18.8516V25.5H332.914V17.0469H334.281L334.359 18.8516ZM334.016 20.9531L333.414 20.9297C333.419 20.3516 333.505 19.8177 333.672 19.3281C333.839 18.8333 334.073 18.4036 334.375 18.0391C334.677 17.6745 335.036 17.3932 335.453 17.1953C335.875 16.9922 336.341 16.8906 336.852 16.8906C337.268 16.8906 337.643 16.9479 337.977 17.0625C338.31 17.1719 338.594 17.349 338.828 17.5938C339.068 17.8385 339.25 18.1562 339.375 18.5469C339.5 18.9323 339.562 19.4036 339.562 19.9609V25.5H338.109V19.9453C338.109 19.5026 338.044 19.1484 337.914 18.8828C337.784 18.612 337.594 18.4167 337.344 18.2969C337.094 18.1719 336.786 18.1094 336.422 18.1094C336.062 18.1094 335.734 18.1849 335.438 18.3359C335.146 18.487 334.893 18.6953 334.68 18.9609C334.471 19.2266 334.307 19.5312 334.188 19.875C334.073 20.2135 334.016 20.5729 334.016 20.9531ZM347.234 17.0469H348.547V25.3203C348.547 26.0651 348.396 26.7005 348.094 27.2266C347.792 27.7526 347.37 28.151 346.828 28.4219C346.292 28.6979 345.672 28.8359 344.969 28.8359C344.677 28.8359 344.333 28.7891 343.938 28.6953C343.547 28.6068 343.161 28.4531 342.781 28.2344C342.406 28.0208 342.091 27.7318 341.836 27.3672L342.594 26.5078C342.948 26.9349 343.318 27.2318 343.703 27.3984C344.094 27.5651 344.479 27.6484 344.859 27.6484C345.318 27.6484 345.714 27.5625 346.047 27.3906C346.38 27.2188 346.638 26.9635 346.82 26.625C347.008 26.2917 347.102 25.8802 347.102 25.3906V18.9062L347.234 17.0469ZM341.414 21.3672V21.2031C341.414 20.5573 341.49 19.9714 341.641 19.4453C341.797 18.9141 342.018 18.4583 342.305 18.0781C342.596 17.6979 342.948 17.4062 343.359 17.2031C343.771 16.9948 344.234 16.8906 344.75 16.8906C345.281 16.8906 345.745 16.9844 346.141 17.1719C346.542 17.3542 346.88 17.6224 347.156 17.9766C347.438 18.3255 347.659 18.7474 347.82 19.2422C347.982 19.737 348.094 20.2969 348.156 20.9219V21.6406C348.099 22.2604 347.987 22.8177 347.82 23.3125C347.659 23.8073 347.438 24.2292 347.156 24.5781C346.88 24.9271 346.542 25.1953 346.141 25.3828C345.74 25.5651 345.271 25.6562 344.734 25.6562C344.229 25.6562 343.771 25.5495 343.359 25.3359C342.953 25.1224 342.604 24.8229 342.312 24.4375C342.021 24.0521 341.797 23.599 341.641 23.0781C341.49 22.5521 341.414 21.9818 341.414 21.3672ZM342.859 21.2031V21.3672C342.859 21.7891 342.901 22.1849 342.984 22.5547C343.073 22.9245 343.206 23.25 343.383 23.5312C343.565 23.8125 343.797 24.0339 344.078 24.1953C344.359 24.3516 344.695 24.4297 345.086 24.4297C345.565 24.4297 345.961 24.3281 346.273 24.125C346.586 23.9219 346.833 23.6536 347.016 23.3203C347.203 22.987 347.349 22.625 347.453 22.2344V20.3516C347.396 20.0651 347.307 19.7891 347.188 19.5234C347.073 19.2526 346.922 19.013 346.734 18.8047C346.552 18.5911 346.326 18.4219 346.055 18.2969C345.784 18.1719 345.466 18.1094 345.102 18.1094C344.706 18.1094 344.365 18.1927 344.078 18.3594C343.797 18.5208 343.565 18.7448 343.383 19.0312C343.206 19.3125 343.073 19.6406 342.984 20.0156C342.901 20.3854 342.859 20.7812 342.859 21.2031ZM363.68 14.125V25.5H362.164L356.438 16.7266V25.5H354.93V14.125H356.438L362.188 22.9219V14.125H363.68ZM369.641 25.6562C369.052 25.6562 368.518 25.5573 368.039 25.3594C367.565 25.1562 367.156 24.8724 366.812 24.5078C366.474 24.1432 366.214 23.7109 366.031 23.2109C365.849 22.7109 365.758 22.1641 365.758 21.5703V21.2422C365.758 20.5547 365.859 19.9427 366.062 19.4062C366.266 18.8646 366.542 18.4062 366.891 18.0312C367.24 17.6562 367.635 17.3724 368.078 17.1797C368.521 16.987 368.979 16.8906 369.453 16.8906C370.057 16.8906 370.578 16.9948 371.016 17.2031C371.458 17.4115 371.82 17.7031 372.102 18.0781C372.383 18.4479 372.591 18.8854 372.727 19.3906C372.862 19.8906 372.93 20.4375 372.93 21.0312V21.6797H366.617V20.5H371.484V20.3906C371.464 20.0156 371.385 19.651 371.25 19.2969C371.12 18.9427 370.911 18.651 370.625 18.4219C370.339 18.1927 369.948 18.0781 369.453 18.0781C369.125 18.0781 368.823 18.1484 368.547 18.2891C368.271 18.4245 368.034 18.6276 367.836 18.8984C367.638 19.1693 367.484 19.5 367.375 19.8906C367.266 20.2812 367.211 20.7318 367.211 21.2422V21.5703C367.211 21.9714 367.266 22.349 367.375 22.7031C367.49 23.0521 367.654 23.3594 367.867 23.625C368.086 23.8906 368.349 24.099 368.656 24.25C368.969 24.401 369.323 24.4766 369.719 24.4766C370.229 24.4766 370.661 24.3724 371.016 24.1641C371.37 23.9557 371.68 23.6771 371.945 23.3281L372.82 24.0234C372.638 24.2995 372.406 24.5625 372.125 24.8125C371.844 25.0625 371.497 25.2656 371.086 25.4219C370.68 25.5781 370.198 25.6562 369.641 25.6562ZM378.125 25.6562C377.536 25.6562 377.003 25.5573 376.523 25.3594C376.049 25.1562 375.641 24.8724 375.297 24.5078C374.958 24.1432 374.698 23.7109 374.516 23.2109C374.333 22.7109 374.242 22.1641 374.242 21.5703V21.2422C374.242 20.5547 374.344 19.9427 374.547 19.4062C374.75 18.8646 375.026 18.4062 375.375 18.0312C375.724 17.6562 376.12 17.3724 376.562 17.1797C377.005 16.987 377.464 16.8906 377.938 16.8906C378.542 16.8906 379.062 16.9948 379.5 17.2031C379.943 17.4115 380.305 17.7031 380.586 18.0781C380.867 18.4479 381.076 18.8854 381.211 19.3906C381.346 19.8906 381.414 20.4375 381.414 21.0312V21.6797H375.102V20.5H379.969V20.3906C379.948 20.0156 379.87 19.651 379.734 19.2969C379.604 18.9427 379.396 18.651 379.109 18.4219C378.823 18.1927 378.432 18.0781 377.938 18.0781C377.609 18.0781 377.307 18.1484 377.031 18.2891C376.755 18.4245 376.518 18.6276 376.32 18.8984C376.122 19.1693 375.969 19.5 375.859 19.8906C375.75 20.2812 375.695 20.7318 375.695 21.2422V21.5703C375.695 21.9714 375.75 22.349 375.859 22.7031C375.974 23.0521 376.138 23.3594 376.352 23.625C376.57 23.8906 376.833 24.099 377.141 24.25C377.453 24.401 377.807 24.4766 378.203 24.4766C378.714 24.4766 379.146 24.3724 379.5 24.1641C379.854 23.9557 380.164 23.6771 380.43 23.3281L381.305 24.0234C381.122 24.2995 380.891 24.5625 380.609 24.8125C380.328 25.0625 379.982 25.2656 379.57 25.4219C379.164 25.5781 378.682 25.6562 378.125 25.6562ZM388.43 23.8594V13.5H389.883V25.5H388.555L388.43 23.8594ZM382.742 21.3672V21.2031C382.742 20.5573 382.82 19.9714 382.977 19.4453C383.138 18.9141 383.365 18.4583 383.656 18.0781C383.953 17.6979 384.305 17.4062 384.711 17.2031C385.122 16.9948 385.581 16.8906 386.086 16.8906C386.617 16.8906 387.081 16.9844 387.477 17.1719C387.878 17.3542 388.216 17.6224 388.492 17.9766C388.773 18.3255 388.995 18.7474 389.156 19.2422C389.318 19.737 389.43 20.2969 389.492 20.9219V21.6406C389.435 22.2604 389.323 22.8177 389.156 23.3125C388.995 23.8073 388.773 24.2292 388.492 24.5781C388.216 24.9271 387.878 25.1953 387.477 25.3828C387.076 25.5651 386.607 25.6562 386.07 25.6562C385.576 25.6562 385.122 25.5495 384.711 25.3359C384.305 25.1224 383.953 24.8229 383.656 24.4375C383.365 24.0521 383.138 23.599 382.977 23.0781C382.82 22.5521 382.742 21.9818 382.742 21.3672ZM384.195 21.2031V21.3672C384.195 21.7891 384.237 22.1849 384.32 22.5547C384.409 22.9245 384.544 23.25 384.727 23.5312C384.909 23.8125 385.141 24.0339 385.422 24.1953C385.703 24.3516 386.039 24.4297 386.43 24.4297C386.909 24.4297 387.302 24.3281 387.609 24.125C387.922 23.9219 388.172 23.6536 388.359 23.3203C388.547 22.987 388.693 22.625 388.797 22.2344V20.3516C388.734 20.0651 388.643 19.7891 388.523 19.5234C388.409 19.2526 388.258 19.013 388.07 18.8047C387.888 18.5911 387.661 18.4219 387.391 18.2969C387.125 18.1719 386.81 18.1094 386.445 18.1094C386.049 18.1094 385.708 18.1927 385.422 18.3594C385.141 18.5208 384.909 18.7448 384.727 19.0312C384.544 19.3125 384.409 19.6406 384.32 20.0156C384.237 20.3854 384.195 20.7812 384.195 21.2031ZM395.641 25.6562C395.052 25.6562 394.518 25.5573 394.039 25.3594C393.565 25.1562 393.156 24.8724 392.812 24.5078C392.474 24.1432 392.214 23.7109 392.031 23.2109C391.849 22.7109 391.758 22.1641 391.758 21.5703V21.2422C391.758 20.5547 391.859 19.9427 392.062 19.4062C392.266 18.8646 392.542 18.4062 392.891 18.0312C393.24 17.6562 393.635 17.3724 394.078 17.1797C394.521 16.987 394.979 16.8906 395.453 16.8906C396.057 16.8906 396.578 16.9948 397.016 17.2031C397.458 17.4115 397.82 17.7031 398.102 18.0781C398.383 18.4479 398.591 18.8854 398.727 19.3906C398.862 19.8906 398.93 20.4375 398.93 21.0312V21.6797H392.617V20.5H397.484V20.3906C397.464 20.0156 397.385 19.651 397.25 19.2969C397.12 18.9427 396.911 18.651 396.625 18.4219C396.339 18.1927 395.948 18.0781 395.453 18.0781C395.125 18.0781 394.823 18.1484 394.547 18.2891C394.271 18.4245 394.034 18.6276 393.836 18.8984C393.638 19.1693 393.484 19.5 393.375 19.8906C393.266 20.2812 393.211 20.7318 393.211 21.2422V21.5703C393.211 21.9714 393.266 22.349 393.375 22.7031C393.49 23.0521 393.654 23.3594 393.867 23.625C394.086 23.8906 394.349 24.099 394.656 24.25C394.969 24.401 395.323 24.4766 395.719 24.4766C396.229 24.4766 396.661 24.3724 397.016 24.1641C397.37 23.9557 397.68 23.6771 397.945 23.3281L398.82 24.0234C398.638 24.2995 398.406 24.5625 398.125 24.8125C397.844 25.0625 397.497 25.2656 397.086 25.4219C396.68 25.5781 396.198 25.6562 395.641 25.6562ZM405.945 23.8594V13.5H407.398V25.5H406.07L405.945 23.8594ZM400.258 21.3672V21.2031C400.258 20.5573 400.336 19.9714 400.492 19.4453C400.654 18.9141 400.88 18.4583 401.172 18.0781C401.469 17.6979 401.82 17.4062 402.227 17.2031C402.638 16.9948 403.096 16.8906 403.602 16.8906C404.133 16.8906 404.596 16.9844 404.992 17.1719C405.393 17.3542 405.732 17.6224 406.008 17.9766C406.289 18.3255 406.51 18.7474 406.672 19.2422C406.833 19.737 406.945 20.2969 407.008 20.9219V21.6406C406.951 22.2604 406.839 22.8177 406.672 23.3125C406.51 23.8073 406.289 24.2292 406.008 24.5781C405.732 24.9271 405.393 25.1953 404.992 25.3828C404.591 25.5651 404.122 25.6562 403.586 25.6562C403.091 25.6562 402.638 25.5495 402.227 25.3359C401.82 25.1224 401.469 24.8229 401.172 24.4375C400.88 24.0521 400.654 23.599 400.492 23.0781C400.336 22.5521 400.258 21.9818 400.258 21.3672ZM401.711 21.2031V21.3672C401.711 21.7891 401.753 22.1849 401.836 22.5547C401.924 22.9245 402.06 23.25 402.242 23.5312C402.424 23.8125 402.656 24.0339 402.938 24.1953C403.219 24.3516 403.555 24.4297 403.945 24.4297C404.424 24.4297 404.818 24.3281 405.125 24.125C405.438 23.9219 405.688 23.6536 405.875 23.3203C406.062 22.987 406.208 22.625 406.312 22.2344V20.3516C406.25 20.0651 406.159 19.7891 406.039 19.5234C405.924 19.2526 405.773 19.013 405.586 18.8047C405.404 18.5911 405.177 18.4219 404.906 18.2969C404.641 18.1719 404.326 18.1094 403.961 18.1094C403.565 18.1094 403.224 18.1927 402.938 18.3594C402.656 18.5208 402.424 18.7448 402.242 19.0312C402.06 19.3125 401.924 19.6406 401.836 20.0156C401.753 20.3854 401.711 20.7812 401.711 21.2031Z" fill="#8A8A8E"/>
<circle cx="447" cy="20" r="5.5" fill="white" stroke="#8A8A8E"/>
<mask id="path-13-inside-2_1603_64684" fill="white">
<path d="M447 16C448.061 16 449.078 16.4214 449.828 17.1716C450.579 17.9217 451 18.9391 451 20C451 21.0609 450.579 22.0783 449.828 22.8284C449.078 23.5786 448.061 24 447 24L447 20V16Z"/>
</mask>
<path d="M447 16C448.061 16 449.078 16.4214 449.828 17.1716C450.579 17.9217 451 18.9391 451 20C451 21.0609 450.579 22.0783 449.828 22.8284C449.078 23.5786 448.061 24 447 24L447 20V16Z" fill="#8A8A8E" stroke="#8A8A8E" stroke-width="2" mask="url(#path-13-inside-2_1603_64684)"/>
<path d="M468.516 21.0391H465.477V19.8125H468.516C469.104 19.8125 469.581 19.7188 469.945 19.5312C470.31 19.3438 470.576 19.0833 470.742 18.75C470.914 18.4167 471 18.0365 471 17.6094C471 17.2188 470.914 16.8516 470.742 16.5078C470.576 16.1641 470.31 15.888 469.945 15.6797C469.581 15.4661 469.104 15.3594 468.516 15.3594H465.828V25.5H464.32V14.125H468.516C469.375 14.125 470.102 14.2734 470.695 14.5703C471.289 14.8672 471.74 15.2786 472.047 15.8047C472.354 16.3255 472.508 16.9219 472.508 17.5938C472.508 18.3229 472.354 18.9453 472.047 19.4609C471.74 19.9766 471.289 20.3698 470.695 20.6406C470.102 20.9062 469.375 21.0391 468.516 21.0391ZM477.594 25.6562C477.005 25.6562 476.471 25.5573 475.992 25.3594C475.518 25.1562 475.109 24.8724 474.766 24.5078C474.427 24.1432 474.167 23.7109 473.984 23.2109C473.802 22.7109 473.711 22.1641 473.711 21.5703V21.2422C473.711 20.5547 473.812 19.9427 474.016 19.4062C474.219 18.8646 474.495 18.4062 474.844 18.0312C475.193 17.6562 475.589 17.3724 476.031 17.1797C476.474 16.987 476.932 16.8906 477.406 16.8906C478.01 16.8906 478.531 16.9948 478.969 17.2031C479.411 17.4115 479.773 17.7031 480.055 18.0781C480.336 18.4479 480.544 18.8854 480.68 19.3906C480.815 19.8906 480.883 20.4375 480.883 21.0312V21.6797H474.57V20.5H479.438V20.3906C479.417 20.0156 479.339 19.651 479.203 19.2969C479.073 18.9427 478.865 18.651 478.578 18.4219C478.292 18.1927 477.901 18.0781 477.406 18.0781C477.078 18.0781 476.776 18.1484 476.5 18.2891C476.224 18.4245 475.987 18.6276 475.789 18.8984C475.591 19.1693 475.438 19.5 475.328 19.8906C475.219 20.2812 475.164 20.7318 475.164 21.2422V21.5703C475.164 21.9714 475.219 22.349 475.328 22.7031C475.443 23.0521 475.607 23.3594 475.82 23.625C476.039 23.8906 476.302 24.099 476.609 24.25C476.922 24.401 477.276 24.4766 477.672 24.4766C478.182 24.4766 478.615 24.3724 478.969 24.1641C479.323 23.9557 479.633 23.6771 479.898 23.3281L480.773 24.0234C480.591 24.2995 480.359 24.5625 480.078 24.8125C479.797 25.0625 479.451 25.2656 479.039 25.4219C478.633 25.5781 478.151 25.6562 477.594 25.6562ZM484.016 18.8516V25.5H482.57V17.0469H483.938L484.016 18.8516ZM483.672 20.9531L483.07 20.9297C483.076 20.3516 483.161 19.8177 483.328 19.3281C483.495 18.8333 483.729 18.4036 484.031 18.0391C484.333 17.6745 484.693 17.3932 485.109 17.1953C485.531 16.9922 485.997 16.8906 486.508 16.8906C486.924 16.8906 487.299 16.9479 487.633 17.0625C487.966 17.1719 488.25 17.349 488.484 17.5938C488.724 17.8385 488.906 18.1562 489.031 18.5469C489.156 18.9323 489.219 19.4036 489.219 19.9609V25.5H487.766V19.9453C487.766 19.5026 487.701 19.1484 487.57 18.8828C487.44 18.612 487.25 18.4167 487 18.2969C486.75 18.1719 486.443 18.1094 486.078 18.1094C485.719 18.1094 485.391 18.1849 485.094 18.3359C484.802 18.487 484.549 18.6953 484.336 18.9609C484.128 19.2266 483.964 19.5312 483.844 19.875C483.729 20.2135 483.672 20.5729 483.672 20.9531ZM496.742 23.8594V13.5H498.195V25.5H496.867L496.742 23.8594ZM491.055 21.3672V21.2031C491.055 20.5573 491.133 19.9714 491.289 19.4453C491.451 18.9141 491.677 18.4583 491.969 18.0781C492.266 17.6979 492.617 17.4062 493.023 17.2031C493.435 16.9948 493.893 16.8906 494.398 16.8906C494.93 16.8906 495.393 16.9844 495.789 17.1719C496.19 17.3542 496.529 17.6224 496.805 17.9766C497.086 18.3255 497.307 18.7474 497.469 19.2422C497.63 19.737 497.742 20.2969 497.805 20.9219V21.6406C497.747 22.2604 497.635 22.8177 497.469 23.3125C497.307 23.8073 497.086 24.2292 496.805 24.5781C496.529 24.9271 496.19 25.1953 495.789 25.3828C495.388 25.5651 494.919 25.6562 494.383 25.6562C493.888 25.6562 493.435 25.5495 493.023 25.3359C492.617 25.1224 492.266 24.8229 491.969 24.4375C491.677 24.0521 491.451 23.599 491.289 23.0781C491.133 22.5521 491.055 21.9818 491.055 21.3672ZM492.508 21.2031V21.3672C492.508 21.7891 492.549 22.1849 492.633 22.5547C492.721 22.9245 492.857 23.25 493.039 23.5312C493.221 23.8125 493.453 24.0339 493.734 24.1953C494.016 24.3516 494.352 24.4297 494.742 24.4297C495.221 24.4297 495.615 24.3281 495.922 24.125C496.234 23.9219 496.484 23.6536 496.672 23.3203C496.859 22.987 497.005 22.625 497.109 22.2344V20.3516C497.047 20.0651 496.956 19.7891 496.836 19.5234C496.721 19.2526 496.57 19.013 496.383 18.8047C496.201 18.5911 495.974 18.4219 495.703 18.2969C495.438 18.1719 495.122 18.1094 494.758 18.1094C494.362 18.1094 494.021 18.1927 493.734 18.3594C493.453 18.5208 493.221 18.7448 493.039 19.0312C492.857 19.3125 492.721 19.6406 492.633 20.0156C492.549 20.3854 492.508 20.7812 492.508 21.2031ZM502.016 17.0469V25.5H500.562V17.0469H502.016ZM500.453 14.8047C500.453 14.5703 500.523 14.3724 500.664 14.2109C500.81 14.0495 501.023 13.9688 501.305 13.9688C501.581 13.9688 501.792 14.0495 501.938 14.2109C502.089 14.3724 502.164 14.5703 502.164 14.8047C502.164 15.0286 502.089 15.2214 501.938 15.3828C501.792 15.5391 501.581 15.6172 501.305 15.6172C501.023 15.6172 500.81 15.5391 500.664 15.3828C500.523 15.2214 500.453 15.0286 500.453 14.8047ZM505.781 18.8516V25.5H504.336V17.0469H505.703L505.781 18.8516ZM505.438 20.9531L504.836 20.9297C504.841 20.3516 504.927 19.8177 505.094 19.3281C505.26 18.8333 505.495 18.4036 505.797 18.0391C506.099 17.6745 506.458 17.3932 506.875 17.1953C507.297 16.9922 507.763 16.8906 508.273 16.8906C508.69 16.8906 509.065 16.9479 509.398 17.0625C509.732 17.1719 510.016 17.349 510.25 17.5938C510.49 17.8385 510.672 18.1562 510.797 18.5469C510.922 18.9323 510.984 19.4036 510.984 19.9609V25.5H509.531V19.9453C509.531 19.5026 509.466 19.1484 509.336 18.8828C509.206 18.612 509.016 18.4167 508.766 18.2969C508.516 18.1719 508.208 18.1094 507.844 18.1094C507.484 18.1094 507.156 18.1849 506.859 18.3359C506.568 18.487 506.315 18.6953 506.102 18.9609C505.893 19.2266 505.729 19.5312 505.609 19.875C505.495 20.2135 505.438 20.5729 505.438 20.9531ZM518.656 17.0469H519.969V25.3203C519.969 26.0651 519.818 26.7005 519.516 27.2266C519.214 27.7526 518.792 28.151 518.25 28.4219C517.714 28.6979 517.094 28.8359 516.391 28.8359C516.099 28.8359 515.755 28.7891 515.359 28.6953C514.969 28.6068 514.583 28.4531 514.203 28.2344C513.828 28.0208 513.513 27.7318 513.258 27.3672L514.016 26.5078C514.37 26.9349 514.74 27.2318 515.125 27.3984C515.516 27.5651 515.901 27.6484 516.281 27.6484C516.74 27.6484 517.135 27.5625 517.469 27.3906C517.802 27.2188 518.06 26.9635 518.242 26.625C518.43 26.2917 518.523 25.8802 518.523 25.3906V18.9062L518.656 17.0469ZM512.836 21.3672V21.2031C512.836 20.5573 512.911 19.9714 513.062 19.4453C513.219 18.9141 513.44 18.4583 513.727 18.0781C514.018 17.6979 514.37 17.4062 514.781 17.2031C515.193 16.9948 515.656 16.8906 516.172 16.8906C516.703 16.8906 517.167 16.9844 517.562 17.1719C517.964 17.3542 518.302 17.6224 518.578 17.9766C518.859 18.3255 519.081 18.7474 519.242 19.2422C519.404 19.737 519.516 20.2969 519.578 20.9219V21.6406C519.521 22.2604 519.409 22.8177 519.242 23.3125C519.081 23.8073 518.859 24.2292 518.578 24.5781C518.302 24.9271 517.964 25.1953 517.562 25.3828C517.161 25.5651 516.693 25.6562 516.156 25.6562C515.651 25.6562 515.193 25.5495 514.781 25.3359C514.375 25.1224 514.026 24.8229 513.734 24.4375C513.443 24.0521 513.219 23.599 513.062 23.0781C512.911 22.5521 512.836 21.9818 512.836 21.3672ZM514.281 21.2031V21.3672C514.281 21.7891 514.323 22.1849 514.406 22.5547C514.495 22.9245 514.628 23.25 514.805 23.5312C514.987 23.8125 515.219 24.0339 515.5 24.1953C515.781 24.3516 516.117 24.4297 516.508 24.4297C516.987 24.4297 517.383 24.3281 517.695 24.125C518.008 23.9219 518.255 23.6536 518.438 23.3203C518.625 22.987 518.771 22.625 518.875 22.2344V20.3516C518.818 20.0651 518.729 19.7891 518.609 19.5234C518.495 19.2526 518.344 19.013 518.156 18.8047C517.974 18.5911 517.747 18.4219 517.477 18.2969C517.206 18.1719 516.888 18.1094 516.523 18.1094C516.128 18.1094 515.786 18.1927 515.5 18.3594C515.219 18.5208 514.987 18.7448 514.805 19.0312C514.628 19.3125 514.495 19.6406 514.406 20.0156C514.323 20.3854 514.281 20.7812 514.281 21.2031ZM527.969 14.125V25.5H526.461V14.125H527.969ZM531.93 18.7266V25.5H530.477V17.0469H531.852L531.93 18.7266ZM531.633 20.9531L530.961 20.9297C530.966 20.3516 531.042 19.8177 531.188 19.3281C531.333 18.8333 531.549 18.4036 531.836 18.0391C532.122 17.6745 532.479 17.3932 532.906 17.1953C533.333 16.9922 533.828 16.8906 534.391 16.8906C534.786 16.8906 535.151 16.9479 535.484 17.0625C535.818 17.1719 536.107 17.3464 536.352 17.5859C536.596 17.8255 536.786 18.1328 536.922 18.5078C537.057 18.8828 537.125 19.3359 537.125 19.8672V25.5H535.68V19.9375C535.68 19.4948 535.604 19.1406 535.453 18.875C535.307 18.6094 535.099 18.4167 534.828 18.2969C534.557 18.1719 534.24 18.1094 533.875 18.1094C533.448 18.1094 533.091 18.1849 532.805 18.3359C532.518 18.487 532.289 18.6953 532.117 18.9609C531.945 19.2266 531.82 19.5312 531.742 19.875C531.669 20.2135 531.633 20.5729 531.633 20.9531ZM537.109 20.1562L536.141 20.4531C536.146 19.9896 536.221 19.5443 536.367 19.1172C536.518 18.6901 536.734 18.3099 537.016 17.9766C537.302 17.6432 537.654 17.3802 538.07 17.1875C538.487 16.9896 538.964 16.8906 539.5 16.8906C539.953 16.8906 540.354 16.9505 540.703 17.0703C541.057 17.1901 541.354 17.375 541.594 17.625C541.839 17.8698 542.023 18.1849 542.148 18.5703C542.273 18.9557 542.336 19.4141 542.336 19.9453V25.5H540.883V19.9297C540.883 19.4557 540.807 19.0885 540.656 18.8281C540.51 18.5625 540.302 18.3776 540.031 18.2734C539.766 18.1641 539.448 18.1094 539.078 18.1094C538.76 18.1094 538.479 18.1641 538.234 18.2734C537.99 18.3828 537.784 18.5339 537.617 18.7266C537.451 18.9141 537.323 19.1302 537.234 19.375C537.151 19.6198 537.109 19.8802 537.109 20.1562ZM549.508 24.0547V19.7031C549.508 19.3698 549.44 19.0807 549.305 18.8359C549.174 18.5859 548.977 18.3932 548.711 18.2578C548.445 18.1224 548.117 18.0547 547.727 18.0547C547.362 18.0547 547.042 18.1172 546.766 18.2422C546.495 18.3672 546.281 18.5312 546.125 18.7344C545.974 18.9375 545.898 19.1562 545.898 19.3906H544.453C544.453 19.0885 544.531 18.7891 544.688 18.4922C544.844 18.1953 545.068 17.9271 545.359 17.6875C545.656 17.4427 546.01 17.25 546.422 17.1094C546.839 16.9635 547.302 16.8906 547.812 16.8906C548.427 16.8906 548.969 16.9948 549.438 17.2031C549.911 17.4115 550.281 17.7266 550.547 18.1484C550.818 18.5651 550.953 19.0885 550.953 19.7188V23.6562C550.953 23.9375 550.977 24.237 551.023 24.5547C551.076 24.8724 551.151 25.1458 551.25 25.375V25.5H549.742C549.669 25.3333 549.612 25.112 549.57 24.8359C549.529 24.5547 549.508 24.2943 549.508 24.0547ZM549.758 20.375L549.773 21.3906H548.312C547.901 21.3906 547.534 21.4245 547.211 21.4922C546.888 21.5547 546.617 21.651 546.398 21.7812C546.18 21.9115 546.013 22.0755 545.898 22.2734C545.784 22.4661 545.727 22.6927 545.727 22.9531C545.727 23.2188 545.786 23.4609 545.906 23.6797C546.026 23.8984 546.206 24.0729 546.445 24.2031C546.69 24.3281 546.99 24.3906 547.344 24.3906C547.786 24.3906 548.177 24.2969 548.516 24.1094C548.854 23.9219 549.122 23.6927 549.32 23.4219C549.523 23.151 549.633 22.888 549.648 22.6328L550.266 23.3281C550.229 23.5469 550.13 23.7891 549.969 24.0547C549.807 24.3203 549.591 24.5755 549.32 24.8203C549.055 25.0599 548.737 25.2604 548.367 25.4219C548.003 25.5781 547.591 25.6562 547.133 25.6562C546.56 25.6562 546.057 25.5443 545.625 25.3203C545.198 25.0964 544.865 24.7969 544.625 24.4219C544.391 24.0417 544.273 23.6172 544.273 23.1484C544.273 22.6953 544.362 22.2969 544.539 21.9531C544.716 21.6042 544.971 21.3151 545.305 21.0859C545.638 20.8516 546.039 20.6745 546.508 20.5547C546.977 20.4349 547.5 20.375 548.078 20.375H549.758ZM558.703 17.0469H560.016V25.3203C560.016 26.0651 559.865 26.7005 559.562 27.2266C559.26 27.7526 558.839 28.151 558.297 28.4219C557.76 28.6979 557.141 28.8359 556.438 28.8359C556.146 28.8359 555.802 28.7891 555.406 28.6953C555.016 28.6068 554.63 28.4531 554.25 28.2344C553.875 28.0208 553.56 27.7318 553.305 27.3672L554.062 26.5078C554.417 26.9349 554.786 27.2318 555.172 27.3984C555.562 27.5651 555.948 27.6484 556.328 27.6484C556.786 27.6484 557.182 27.5625 557.516 27.3906C557.849 27.2188 558.107 26.9635 558.289 26.625C558.477 26.2917 558.57 25.8802 558.57 25.3906V18.9062L558.703 17.0469ZM552.883 21.3672V21.2031C552.883 20.5573 552.958 19.9714 553.109 19.4453C553.266 18.9141 553.487 18.4583 553.773 18.0781C554.065 17.6979 554.417 17.4062 554.828 17.2031C555.24 16.9948 555.703 16.8906 556.219 16.8906C556.75 16.8906 557.214 16.9844 557.609 17.1719C558.01 17.3542 558.349 17.6224 558.625 17.9766C558.906 18.3255 559.128 18.7474 559.289 19.2422C559.451 19.737 559.562 20.2969 559.625 20.9219V21.6406C559.568 22.2604 559.456 22.8177 559.289 23.3125C559.128 23.8073 558.906 24.2292 558.625 24.5781C558.349 24.9271 558.01 25.1953 557.609 25.3828C557.208 25.5651 556.74 25.6562 556.203 25.6562C555.698 25.6562 555.24 25.5495 554.828 25.3359C554.422 25.1224 554.073 24.8229 553.781 24.4375C553.49 24.0521 553.266 23.599 553.109 23.0781C552.958 22.5521 552.883 21.9818 552.883 21.3672ZM554.328 21.2031V21.3672C554.328 21.7891 554.37 22.1849 554.453 22.5547C554.542 22.9245 554.674 23.25 554.852 23.5312C555.034 23.8125 555.266 24.0339 555.547 24.1953C555.828 24.3516 556.164 24.4297 556.555 24.4297C557.034 24.4297 557.43 24.3281 557.742 24.125C558.055 23.9219 558.302 23.6536 558.484 23.3203C558.672 22.987 558.818 22.625 558.922 22.2344V20.3516C558.865 20.0651 558.776 19.7891 558.656 19.5234C558.542 19.2526 558.391 19.013 558.203 18.8047C558.021 18.5911 557.794 18.4219 557.523 18.2969C557.253 18.1719 556.935 18.1094 556.57 18.1094C556.174 18.1094 555.833 18.1927 555.547 18.3594C555.266 18.5208 555.034 18.7448 554.852 19.0312C554.674 19.3125 554.542 19.6406 554.453 20.0156C554.37 20.3854 554.328 20.7812 554.328 21.2031ZM565.719 25.6562C565.13 25.6562 564.596 25.5573 564.117 25.3594C563.643 25.1562 563.234 24.8724 562.891 24.5078C562.552 24.1432 562.292 23.7109 562.109 23.2109C561.927 22.7109 561.836 22.1641 561.836 21.5703V21.2422C561.836 20.5547 561.938 19.9427 562.141 19.4062C562.344 18.8646 562.62 18.4062 562.969 18.0312C563.318 17.6562 563.714 17.3724 564.156 17.1797C564.599 16.987 565.057 16.8906 565.531 16.8906C566.135 16.8906 566.656 16.9948 567.094 17.2031C567.536 17.4115 567.898 17.7031 568.18 18.0781C568.461 18.4479 568.669 18.8854 568.805 19.3906C568.94 19.8906 569.008 20.4375 569.008 21.0312V21.6797H562.695V20.5H567.562V20.3906C567.542 20.0156 567.464 19.651 567.328 19.2969C567.198 18.9427 566.99 18.651 566.703 18.4219C566.417 18.1927 566.026 18.0781 565.531 18.0781C565.203 18.0781 564.901 18.1484 564.625 18.2891C564.349 18.4245 564.112 18.6276 563.914 18.8984C563.716 19.1693 563.562 19.5 563.453 19.8906C563.344 20.2812 563.289 20.7318 563.289 21.2422V21.5703C563.289 21.9714 563.344 22.349 563.453 22.7031C563.568 23.0521 563.732 23.3594 563.945 23.625C564.164 23.8906 564.427 24.099 564.734 24.25C565.047 24.401 565.401 24.4766 565.797 24.4766C566.307 24.4766 566.74 24.3724 567.094 24.1641C567.448 23.9557 567.758 23.6771 568.023 23.3281L568.898 24.0234C568.716 24.2995 568.484 24.5625 568.203 24.8125C567.922 25.0625 567.576 25.2656 567.164 25.4219C566.758 25.5781 566.276 25.6562 565.719 25.6562ZM575.617 23.2578C575.617 23.0495 575.57 22.8568 575.477 22.6797C575.388 22.4974 575.203 22.3333 574.922 22.1875C574.646 22.0365 574.229 21.9062 573.672 21.7969C573.203 21.6979 572.779 21.5807 572.398 21.4453C572.023 21.3099 571.703 21.1458 571.438 20.9531C571.177 20.7604 570.977 20.5339 570.836 20.2734C570.695 20.013 570.625 19.7083 570.625 19.3594C570.625 19.026 570.698 18.7109 570.844 18.4141C570.995 18.1172 571.206 17.8542 571.477 17.625C571.753 17.3958 572.083 17.2161 572.469 17.0859C572.854 16.9557 573.284 16.8906 573.758 16.8906C574.435 16.8906 575.013 17.0104 575.492 17.25C575.971 17.4896 576.339 17.8099 576.594 18.2109C576.849 18.6068 576.977 19.0469 576.977 19.5312H575.531C575.531 19.2969 575.461 19.0703 575.32 18.8516C575.185 18.6276 574.984 18.4427 574.719 18.2969C574.458 18.151 574.138 18.0781 573.758 18.0781C573.357 18.0781 573.031 18.1406 572.781 18.2656C572.536 18.3854 572.357 18.5391 572.242 18.7266C572.133 18.9141 572.078 19.112 572.078 19.3203C572.078 19.4766 572.104 19.6172 572.156 19.7422C572.214 19.862 572.312 19.974 572.453 20.0781C572.594 20.1771 572.792 20.2708 573.047 20.3594C573.302 20.4479 573.628 20.5365 574.023 20.625C574.716 20.7812 575.286 20.9688 575.734 21.1875C576.182 21.4062 576.516 21.6745 576.734 21.9922C576.953 22.3099 577.062 22.6953 577.062 23.1484C577.062 23.5182 576.984 23.8568 576.828 24.1641C576.677 24.4714 576.456 24.737 576.164 24.9609C575.878 25.1797 575.534 25.3516 575.133 25.4766C574.737 25.5964 574.292 25.6562 573.797 25.6562C573.052 25.6562 572.422 25.5234 571.906 25.2578C571.391 24.9922 571 24.6484 570.734 24.2266C570.469 23.8047 570.336 23.3594 570.336 22.8906H571.789C571.81 23.2865 571.924 23.6016 572.133 23.8359C572.341 24.0651 572.596 24.2292 572.898 24.3281C573.201 24.4219 573.5 24.4688 573.797 24.4688C574.193 24.4688 574.523 24.4167 574.789 24.3125C575.06 24.2083 575.266 24.0651 575.406 23.8828C575.547 23.7005 575.617 23.4922 575.617 23.2578Z" fill="#8A8A8E"/>
<circle cx="616" cy="20" r="5.5" fill="white" stroke="#8A8A8E"/>
<circle cx="616" cy="20" r="0.5" fill="#8A8A8E" stroke="#8A8A8E"/>
<circle cx="613" cy="20" r="0.5" fill="#8A8A8E" stroke="#8A8A8E"/>
<circle cx="619" cy="20" r="0.5" fill="#8A8A8E" stroke="#8A8A8E"/>
<path d="M637.531 15.1328L633.766 25.5H632.227L636.562 14.125H637.555L637.531 15.1328ZM640.688 25.5L636.914 15.1328L636.891 14.125H637.883L642.234 25.5H640.688ZM640.492 21.2891V22.5234H634.102V21.2891H640.492ZM644.984 18.8516V25.5H643.539V17.0469H644.906L644.984 18.8516ZM644.641 20.9531L644.039 20.9297C644.044 20.3516 644.13 19.8177 644.297 19.3281C644.464 18.8333 644.698 18.4036 645 18.0391C645.302 17.6745 645.661 17.3932 646.078 17.1953C646.5 16.9922 646.966 16.8906 647.477 16.8906C647.893 16.8906 648.268 16.9479 648.602 17.0625C648.935 17.1719 649.219 17.349 649.453 17.5938C649.693 17.8385 649.875 18.1562 650 18.5469C650.125 18.9323 650.188 19.4036 650.188 19.9609V25.5H648.734V19.9453C648.734 19.5026 648.669 19.1484 648.539 18.8828C648.409 18.612 648.219 18.4167 647.969 18.2969C647.719 18.1719 647.411 18.1094 647.047 18.1094C646.688 18.1094 646.359 18.1849 646.062 18.3359C645.771 18.487 645.518 18.6953 645.305 18.9609C645.096 19.2266 644.932 19.5312 644.812 19.875C644.698 20.2135 644.641 20.5729 644.641 20.9531ZM657.367 24.0547V19.7031C657.367 19.3698 657.299 19.0807 657.164 18.8359C657.034 18.5859 656.836 18.3932 656.57 18.2578C656.305 18.1224 655.977 18.0547 655.586 18.0547C655.221 18.0547 654.901 18.1172 654.625 18.2422C654.354 18.3672 654.141 18.5312 653.984 18.7344C653.833 18.9375 653.758 19.1562 653.758 19.3906H652.312C652.312 19.0885 652.391 18.7891 652.547 18.4922C652.703 18.1953 652.927 17.9271 653.219 17.6875C653.516 17.4427 653.87 17.25 654.281 17.1094C654.698 16.9635 655.161 16.8906 655.672 16.8906C656.286 16.8906 656.828 16.9948 657.297 17.2031C657.771 17.4115 658.141 17.7266 658.406 18.1484C658.677 18.5651 658.812 19.0885 658.812 19.7188V23.6562C658.812 23.9375 658.836 24.237 658.883 24.5547C658.935 24.8724 659.01 25.1458 659.109 25.375V25.5H657.602C657.529 25.3333 657.471 25.112 657.43 24.8359C657.388 24.5547 657.367 24.2943 657.367 24.0547ZM657.617 20.375L657.633 21.3906H656.172C655.76 21.3906 655.393 21.4245 655.07 21.4922C654.747 21.5547 654.477 21.651 654.258 21.7812C654.039 21.9115 653.872 22.0755 653.758 22.2734C653.643 22.4661 653.586 22.6927 653.586 22.9531C653.586 23.2188 653.646 23.4609 653.766 23.6797C653.885 23.8984 654.065 24.0729 654.305 24.2031C654.549 24.3281 654.849 24.3906 655.203 24.3906C655.646 24.3906 656.036 24.2969 656.375 24.1094C656.714 23.9219 656.982 23.6927 657.18 23.4219C657.383 23.151 657.492 22.888 657.508 22.6328L658.125 23.3281C658.089 23.5469 657.99 23.7891 657.828 24.0547C657.667 24.3203 657.451 24.5755 657.18 24.8203C656.914 25.0599 656.596 25.2604 656.227 25.4219C655.862 25.5781 655.451 25.6562 654.992 25.6562C654.419 25.6562 653.917 25.5443 653.484 25.3203C653.057 25.0964 652.724 24.7969 652.484 24.4219C652.25 24.0417 652.133 23.6172 652.133 23.1484C652.133 22.6953 652.221 22.2969 652.398 21.9531C652.576 21.6042 652.831 21.3151 653.164 21.0859C653.497 20.8516 653.898 20.6745 654.367 20.5547C654.836 20.4349 655.359 20.375 655.938 20.375H657.617ZM662.656 13.5V25.5H661.203V13.5H662.656ZM667.352 24.625L669.703 17.0469H671.25L667.859 26.8047C667.781 27.013 667.677 27.237 667.547 27.4766C667.422 27.7214 667.26 27.9531 667.062 28.1719C666.865 28.3906 666.625 28.5677 666.344 28.7031C666.068 28.8438 665.737 28.9141 665.352 28.9141C665.237 28.9141 665.091 28.8984 664.914 28.8672C664.737 28.8359 664.612 28.8099 664.539 28.7891L664.531 27.6172C664.573 27.6224 664.638 27.6276 664.727 27.6328C664.82 27.6432 664.885 27.6484 664.922 27.6484C665.25 27.6484 665.529 27.6042 665.758 27.5156C665.987 27.4323 666.18 27.2891 666.336 27.0859C666.497 26.888 666.635 26.6146 666.75 26.2656L667.352 24.625ZM665.625 17.0469L667.82 23.6094L668.195 25.1328L667.156 25.6641L664.047 17.0469H665.625ZM677.477 23.2578C677.477 23.0495 677.43 22.8568 677.336 22.6797C677.247 22.4974 677.062 22.3333 676.781 22.1875C676.505 22.0365 676.089 21.9062 675.531 21.7969C675.062 21.6979 674.638 21.5807 674.258 21.4453C673.883 21.3099 673.562 21.1458 673.297 20.9531C673.036 20.7604 672.836 20.5339 672.695 20.2734C672.555 20.013 672.484 19.7083 672.484 19.3594C672.484 19.026 672.557 18.7109 672.703 18.4141C672.854 18.1172 673.065 17.8542 673.336 17.625C673.612 17.3958 673.943 17.2161 674.328 17.0859C674.714 16.9557 675.143 16.8906 675.617 16.8906C676.294 16.8906 676.872 17.0104 677.352 17.25C677.831 17.4896 678.198 17.8099 678.453 18.2109C678.708 18.6068 678.836 19.0469 678.836 19.5312H677.391C677.391 19.2969 677.32 19.0703 677.18 18.8516C677.044 18.6276 676.844 18.4427 676.578 18.2969C676.318 18.151 675.997 18.0781 675.617 18.0781C675.216 18.0781 674.891 18.1406 674.641 18.2656C674.396 18.3854 674.216 18.5391 674.102 18.7266C673.992 18.9141 673.938 19.112 673.938 19.3203C673.938 19.4766 673.964 19.6172 674.016 19.7422C674.073 19.862 674.172 19.974 674.312 20.0781C674.453 20.1771 674.651 20.2708 674.906 20.3594C675.161 20.4479 675.487 20.5365 675.883 20.625C676.576 20.7812 677.146 20.9688 677.594 21.1875C678.042 21.4062 678.375 21.6745 678.594 21.9922C678.812 22.3099 678.922 22.6953 678.922 23.1484C678.922 23.5182 678.844 23.8568 678.688 24.1641C678.536 24.4714 678.315 24.737 678.023 24.9609C677.737 25.1797 677.393 25.3516 676.992 25.4766C676.596 25.5964 676.151 25.6562 675.656 25.6562C674.911 25.6562 674.281 25.5234 673.766 25.2578C673.25 24.9922 672.859 24.6484 672.594 24.2266C672.328 23.8047 672.195 23.3594 672.195 22.8906H673.648C673.669 23.2865 673.784 23.6016 673.992 23.8359C674.201 24.0651 674.456 24.2292 674.758 24.3281C675.06 24.4219 675.359 24.4688 675.656 24.4688C676.052 24.4688 676.383 24.4167 676.648 24.3125C676.919 24.2083 677.125 24.0651 677.266 23.8828C677.406 23.7005 677.477 23.4922 677.477 23.2578ZM682.391 17.0469V25.5H680.938V17.0469H682.391ZM680.828 14.8047C680.828 14.5703 680.898 14.3724 681.039 14.2109C681.185 14.0495 681.398 13.9688 681.68 13.9688C681.956 13.9688 682.167 14.0495 682.312 14.2109C682.464 14.3724 682.539 14.5703 682.539 14.8047C682.539 15.0286 682.464 15.2214 682.312 15.3828C682.167 15.5391 681.956 15.6172 681.68 15.6172C681.398 15.6172 681.185 15.5391 681.039 15.3828C680.898 15.2214 680.828 15.0286 680.828 14.8047ZM689.633 23.2578C689.633 23.0495 689.586 22.8568 689.492 22.6797C689.404 22.4974 689.219 22.3333 688.938 22.1875C688.661 22.0365 688.245 21.9062 687.688 21.7969C687.219 21.6979 686.794 21.5807 686.414 21.4453C686.039 21.3099 685.719 21.1458 685.453 20.9531C685.193 20.7604 684.992 20.5339 684.852 20.2734C684.711 20.013 684.641 19.7083 684.641 19.3594C684.641 19.026 684.714 18.7109 684.859 18.4141C685.01 18.1172 685.221 17.8542 685.492 17.625C685.768 17.3958 686.099 17.2161 686.484 17.0859C686.87 16.9557 687.299 16.8906 687.773 16.8906C688.451 16.8906 689.029 17.0104 689.508 17.25C689.987 17.4896 690.354 17.8099 690.609 18.2109C690.865 18.6068 690.992 19.0469 690.992 19.5312H689.547C689.547 19.2969 689.477 19.0703 689.336 18.8516C689.201 18.6276 689 18.4427 688.734 18.2969C688.474 18.151 688.154 18.0781 687.773 18.0781C687.372 18.0781 687.047 18.1406 686.797 18.2656C686.552 18.3854 686.372 18.5391 686.258 18.7266C686.148 18.9141 686.094 19.112 686.094 19.3203C686.094 19.4766 686.12 19.6172 686.172 19.7422C686.229 19.862 686.328 19.974 686.469 20.0781C686.609 20.1771 686.807 20.2708 687.062 20.3594C687.318 20.4479 687.643 20.5365 688.039 20.625C688.732 20.7812 689.302 20.9688 689.75 21.1875C690.198 21.4062 690.531 21.6745 690.75 21.9922C690.969 22.3099 691.078 22.6953 691.078 23.1484C691.078 23.5182 691 23.8568 690.844 24.1641C690.693 24.4714 690.471 24.737 690.18 24.9609C689.893 25.1797 689.549 25.3516 689.148 25.4766C688.753 25.5964 688.307 25.6562 687.812 25.6562C687.068 25.6562 686.438 25.5234 685.922 25.2578C685.406 24.9922 685.016 24.6484 684.75 24.2266C684.484 23.8047 684.352 23.3594 684.352 22.8906H685.805C685.826 23.2865 685.94 23.6016 686.148 23.8359C686.357 24.0651 686.612 24.2292 686.914 24.3281C687.216 24.4219 687.516 24.4688 687.812 24.4688C688.208 24.4688 688.539 24.4167 688.805 24.3125C689.076 24.2083 689.281 24.0651 689.422 23.8828C689.562 23.7005 689.633 23.4922 689.633 23.2578ZM701.359 21.0391H698.32V19.8125H701.359C701.948 19.8125 702.424 19.7188 702.789 19.5312C703.154 19.3438 703.419 19.0833 703.586 18.75C703.758 18.4167 703.844 18.0365 703.844 17.6094C703.844 17.2188 703.758 16.8516 703.586 16.5078C703.419 16.1641 703.154 15.888 702.789 15.6797C702.424 15.4661 701.948 15.3594 701.359 15.3594H698.672V25.5H697.164V14.125H701.359C702.219 14.125 702.945 14.2734 703.539 14.5703C704.133 14.8672 704.583 15.2786 704.891 15.8047C705.198 16.3255 705.352 16.9219 705.352 17.5938C705.352 18.3229 705.198 18.9453 704.891 19.4609C704.583 19.9766 704.133 20.3698 703.539 20.6406C702.945 20.9062 702.219 21.0391 701.359 21.0391ZM710.438 25.6562C709.849 25.6562 709.315 25.5573 708.836 25.3594C708.362 25.1562 707.953 24.8724 707.609 24.5078C707.271 24.1432 707.01 23.7109 706.828 23.2109C706.646 22.7109 706.555 22.1641 706.555 21.5703V21.2422C706.555 20.5547 706.656 19.9427 706.859 19.4062C707.062 18.8646 707.339 18.4062 707.688 18.0312C708.036 17.6562 708.432 17.3724 708.875 17.1797C709.318 16.987 709.776 16.8906 710.25 16.8906C710.854 16.8906 711.375 16.9948 711.812 17.2031C712.255 17.4115 712.617 17.7031 712.898 18.0781C713.18 18.4479 713.388 18.8854 713.523 19.3906C713.659 19.8906 713.727 20.4375 713.727 21.0312V21.6797H707.414V20.5H712.281V20.3906C712.26 20.0156 712.182 19.651 712.047 19.2969C711.917 18.9427 711.708 18.651 711.422 18.4219C711.135 18.1927 710.745 18.0781 710.25 18.0781C709.922 18.0781 709.62 18.1484 709.344 18.2891C709.068 18.4245 708.831 18.6276 708.633 18.8984C708.435 19.1693 708.281 19.5 708.172 19.8906C708.062 20.2812 708.008 20.7318 708.008 21.2422V21.5703C708.008 21.9714 708.062 22.349 708.172 22.7031C708.286 23.0521 708.451 23.3594 708.664 23.625C708.883 23.8906 709.146 24.099 709.453 24.25C709.766 24.401 710.12 24.4766 710.516 24.4766C711.026 24.4766 711.458 24.3724 711.812 24.1641C712.167 23.9557 712.477 23.6771 712.742 23.3281L713.617 24.0234C713.435 24.2995 713.203 24.5625 712.922 24.8125C712.641 25.0625 712.294 25.2656 711.883 25.4219C711.477 25.5781 710.995 25.6562 710.438 25.6562ZM716.859 18.8516V25.5H715.414V17.0469H716.781L716.859 18.8516ZM716.516 20.9531L715.914 20.9297C715.919 20.3516 716.005 19.8177 716.172 19.3281C716.339 18.8333 716.573 18.4036 716.875 18.0391C717.177 17.6745 717.536 17.3932 717.953 17.1953C718.375 16.9922 718.841 16.8906 719.352 16.8906C719.768 16.8906 720.143 16.9479 720.477 17.0625C720.81 17.1719 721.094 17.349 721.328 17.5938C721.568 17.8385 721.75 18.1562 721.875 18.5469C722 18.9323 722.062 19.4036 722.062 19.9609V25.5H720.609V19.9453C720.609 19.5026 720.544 19.1484 720.414 18.8828C720.284 18.612 720.094 18.4167 719.844 18.2969C719.594 18.1719 719.286 18.1094 718.922 18.1094C718.562 18.1094 718.234 18.1849 717.938 18.3359C717.646 18.487 717.393 18.6953 717.18 18.9609C716.971 19.2266 716.807 19.5312 716.688 19.875C716.573 20.2135 716.516 20.5729 716.516 20.9531ZM729.586 23.8594V13.5H731.039V25.5H729.711L729.586 23.8594ZM723.898 21.3672V21.2031C723.898 20.5573 723.977 19.9714 724.133 19.4453C724.294 18.9141 724.521 18.4583 724.812 18.0781C725.109 17.6979 725.461 17.4062 725.867 17.2031C726.279 16.9948 726.737 16.8906 727.242 16.8906C727.773 16.8906 728.237 16.9844 728.633 17.1719C729.034 17.3542 729.372 17.6224 729.648 17.9766C729.93 18.3255 730.151 18.7474 730.312 19.2422C730.474 19.737 730.586 20.2969 730.648 20.9219V21.6406C730.591 22.2604 730.479 22.8177 730.312 23.3125C730.151 23.8073 729.93 24.2292 729.648 24.5781C729.372 24.9271 729.034 25.1953 728.633 25.3828C728.232 25.5651 727.763 25.6562 727.227 25.6562C726.732 25.6562 726.279 25.5495 725.867 25.3359C725.461 25.1224 725.109 24.8229 724.812 24.4375C724.521 24.0521 724.294 23.599 724.133 23.0781C723.977 22.5521 723.898 21.9818 723.898 21.3672ZM725.352 21.2031V21.3672C725.352 21.7891 725.393 22.1849 725.477 22.5547C725.565 22.9245 725.701 23.25 725.883 23.5312C726.065 23.8125 726.297 24.0339 726.578 24.1953C726.859 24.3516 727.195 24.4297 727.586 24.4297C728.065 24.4297 728.458 24.3281 728.766 24.125C729.078 23.9219 729.328 23.6536 729.516 23.3203C729.703 22.987 729.849 22.625 729.953 22.2344V20.3516C729.891 20.0651 729.799 19.7891 729.68 19.5234C729.565 19.2526 729.414 19.013 729.227 18.8047C729.044 18.5911 728.818 18.4219 728.547 18.2969C728.281 18.1719 727.966 18.1094 727.602 18.1094C727.206 18.1094 726.865 18.1927 726.578 18.3594C726.297 18.5208 726.065 18.7448 725.883 19.0312C725.701 19.3125 725.565 19.6406 725.477 20.0156C725.393 20.3854 725.352 20.7812 725.352 21.2031ZM734.859 17.0469V25.5H733.406V17.0469H734.859ZM733.297 14.8047C733.297 14.5703 733.367 14.3724 733.508 14.2109C733.654 14.0495 733.867 13.9688 734.148 13.9688C734.424 13.9688 734.635 14.0495 734.781 14.2109C734.932 14.3724 735.008 14.5703 735.008 14.8047C735.008 15.0286 734.932 15.2214 734.781 15.3828C734.635 15.5391 734.424 15.6172 734.148 15.6172C733.867 15.6172 733.654 15.5391 733.508 15.3828C733.367 15.2214 733.297 15.0286 733.297 14.8047ZM738.625 18.8516V25.5H737.18V17.0469H738.547L738.625 18.8516ZM738.281 20.9531L737.68 20.9297C737.685 20.3516 737.771 19.8177 737.938 19.3281C738.104 18.8333 738.339 18.4036 738.641 18.0391C738.943 17.6745 739.302 17.3932 739.719 17.1953C740.141 16.9922 740.607 16.8906 741.117 16.8906C741.534 16.8906 741.909 16.9479 742.242 17.0625C742.576 17.1719 742.859 17.349 743.094 17.5938C743.333 17.8385 743.516 18.1562 743.641 18.5469C743.766 18.9323 743.828 19.4036 743.828 19.9609V25.5H742.375V19.9453C742.375 19.5026 742.31 19.1484 742.18 18.8828C742.049 18.612 741.859 18.4167 741.609 18.2969C741.359 18.1719 741.052 18.1094 740.688 18.1094C740.328 18.1094 740 18.1849 739.703 18.3359C739.411 18.487 739.159 18.6953 738.945 18.9609C738.737 19.2266 738.573 19.5312 738.453 19.875C738.339 20.2135 738.281 20.5729 738.281 20.9531ZM751.5 17.0469H752.812V25.3203C752.812 26.0651 752.661 26.7005 752.359 27.2266C752.057 27.7526 751.635 28.151 751.094 28.4219C750.557 28.6979 749.938 28.8359 749.234 28.8359C748.943 28.8359 748.599 28.7891 748.203 28.6953C747.812 28.6068 747.427 28.4531 747.047 28.2344C746.672 28.0208 746.357 27.7318 746.102 27.3672L746.859 26.5078C747.214 26.9349 747.583 27.2318 747.969 27.3984C748.359 27.5651 748.745 27.6484 749.125 27.6484C749.583 27.6484 749.979 27.5625 750.312 27.3906C750.646 27.2188 750.904 26.9635 751.086 26.625C751.273 26.2917 751.367 25.8802 751.367 25.3906V18.9062L751.5 17.0469ZM745.68 21.3672V21.2031C745.68 20.5573 745.755 19.9714 745.906 19.4453C746.062 18.9141 746.284 18.4583 746.57 18.0781C746.862 17.6979 747.214 17.4062 747.625 17.2031C748.036 16.9948 748.5 16.8906 749.016 16.8906C749.547 16.8906 750.01 16.9844 750.406 17.1719C750.807 17.3542 751.146 17.6224 751.422 17.9766C751.703 18.3255 751.924 18.7474 752.086 19.2422C752.247 19.737 752.359 20.2969 752.422 20.9219V21.6406C752.365 22.2604 752.253 22.8177 752.086 23.3125C751.924 23.8073 751.703 24.2292 751.422 24.5781C751.146 24.9271 750.807 25.1953 750.406 25.3828C750.005 25.5651 749.536 25.6562 749 25.6562C748.495 25.6562 748.036 25.5495 747.625 25.3359C747.219 25.1224 746.87 24.8229 746.578 24.4375C746.286 24.0521 746.062 23.599 745.906 23.0781C745.755 22.5521 745.68 21.9818 745.68 21.3672ZM747.125 21.2031V21.3672C747.125 21.7891 747.167 22.1849 747.25 22.5547C747.339 22.9245 747.471 23.25 747.648 23.5312C747.831 23.8125 748.062 24.0339 748.344 24.1953C748.625 24.3516 748.961 24.4297 749.352 24.4297C749.831 24.4297 750.227 24.3281 750.539 24.125C750.852 23.9219 751.099 23.6536 751.281 23.3203C751.469 22.987 751.615 22.625 751.719 22.2344V20.3516C751.661 20.0651 751.573 19.7891 751.453 19.5234C751.339 19.2526 751.188 19.013 751 18.8047C750.818 18.5911 750.591 18.4219 750.32 18.2969C750.049 18.1719 749.732 18.1094 749.367 18.1094C748.971 18.1094 748.63 18.1927 748.344 18.3594C748.062 18.5208 747.831 18.7448 747.648 19.0312C747.471 19.3125 747.339 19.6406 747.25 20.0156C747.167 20.3854 747.125 20.7812 747.125 21.2031Z" fill="#8A8A8E"/>
<circle cx="792" cy="20" r="5.5" fill="white" stroke="#8A8A8E"/>
<circle cx="792" cy="20" r="3.5" fill="#8A8A8E" stroke="#8A8A8E"/>
<path d="M813.531 15.1328L809.766 25.5H808.227L812.562 14.125H813.555L813.531 15.1328ZM816.688 25.5L812.914 15.1328L812.891 14.125H813.883L818.234 25.5H816.688ZM816.492 21.2891V22.5234H810.102V21.2891H816.492ZM820.984 18.8516V25.5H819.539V17.0469H820.906L820.984 18.8516ZM820.641 20.9531L820.039 20.9297C820.044 20.3516 820.13 19.8177 820.297 19.3281C820.464 18.8333 820.698 18.4036 821 18.0391C821.302 17.6745 821.661 17.3932 822.078 17.1953C822.5 16.9922 822.966 16.8906 823.477 16.8906C823.893 16.8906 824.268 16.9479 824.602 17.0625C824.935 17.1719 825.219 17.349 825.453 17.5938C825.693 17.8385 825.875 18.1562 826 18.5469C826.125 18.9323 826.188 19.4036 826.188 19.9609V25.5H824.734V19.9453C824.734 19.5026 824.669 19.1484 824.539 18.8828C824.409 18.612 824.219 18.4167 823.969 18.2969C823.719 18.1719 823.411 18.1094 823.047 18.1094C822.688 18.1094 822.359 18.1849 822.062 18.3359C821.771 18.487 821.518 18.6953 821.305 18.9609C821.096 19.2266 820.932 19.5312 820.812 19.875C820.698 20.2135 820.641 20.5729 820.641 20.9531ZM833.367 24.0547V19.7031C833.367 19.3698 833.299 19.0807 833.164 18.8359C833.034 18.5859 832.836 18.3932 832.57 18.2578C832.305 18.1224 831.977 18.0547 831.586 18.0547C831.221 18.0547 830.901 18.1172 830.625 18.2422C830.354 18.3672 830.141 18.5312 829.984 18.7344C829.833 18.9375 829.758 19.1562 829.758 19.3906H828.312C828.312 19.0885 828.391 18.7891 828.547 18.4922C828.703 18.1953 828.927 17.9271 829.219 17.6875C829.516 17.4427 829.87 17.25 830.281 17.1094C830.698 16.9635 831.161 16.8906 831.672 16.8906C832.286 16.8906 832.828 16.9948 833.297 17.2031C833.771 17.4115 834.141 17.7266 834.406 18.1484C834.677 18.5651 834.812 19.0885 834.812 19.7188V23.6562C834.812 23.9375 834.836 24.237 834.883 24.5547C834.935 24.8724 835.01 25.1458 835.109 25.375V25.5H833.602C833.529 25.3333 833.471 25.112 833.43 24.8359C833.388 24.5547 833.367 24.2943 833.367 24.0547ZM833.617 20.375L833.633 21.3906H832.172C831.76 21.3906 831.393 21.4245 831.07 21.4922C830.747 21.5547 830.477 21.651 830.258 21.7812C830.039 21.9115 829.872 22.0755 829.758 22.2734C829.643 22.4661 829.586 22.6927 829.586 22.9531C829.586 23.2188 829.646 23.4609 829.766 23.6797C829.885 23.8984 830.065 24.0729 830.305 24.2031C830.549 24.3281 830.849 24.3906 831.203 24.3906C831.646 24.3906 832.036 24.2969 832.375 24.1094C832.714 23.9219 832.982 23.6927 833.18 23.4219C833.383 23.151 833.492 22.888 833.508 22.6328L834.125 23.3281C834.089 23.5469 833.99 23.7891 833.828 24.0547C833.667 24.3203 833.451 24.5755 833.18 24.8203C832.914 25.0599 832.596 25.2604 832.227 25.4219C831.862 25.5781 831.451 25.6562 830.992 25.6562C830.419 25.6562 829.917 25.5443 829.484 25.3203C829.057 25.0964 828.724 24.7969 828.484 24.4219C828.25 24.0417 828.133 23.6172 828.133 23.1484C828.133 22.6953 828.221 22.2969 828.398 21.9531C828.576 21.6042 828.831 21.3151 829.164 21.0859C829.497 20.8516 829.898 20.6745 830.367 20.5547C830.836 20.4349 831.359 20.375 831.938 20.375H833.617ZM838.656 13.5V25.5H837.203V13.5H838.656ZM843.352 24.625L845.703 17.0469H847.25L843.859 26.8047C843.781 27.013 843.677 27.237 843.547 27.4766C843.422 27.7214 843.26 27.9531 843.062 28.1719C842.865 28.3906 842.625 28.5677 842.344 28.7031C842.068 28.8438 841.737 28.9141 841.352 28.9141C841.237 28.9141 841.091 28.8984 840.914 28.8672C840.737 28.8359 840.612 28.8099 840.539 28.7891L840.531 27.6172C840.573 27.6224 840.638 27.6276 840.727 27.6328C840.82 27.6432 840.885 27.6484 840.922 27.6484C841.25 27.6484 841.529 27.6042 841.758 27.5156C841.987 27.4323 842.18 27.2891 842.336 27.0859C842.497 26.888 842.635 26.6146 842.75 26.2656L843.352 24.625ZM841.625 17.0469L843.82 23.6094L844.195 25.1328L843.156 25.6641L840.047 17.0469H841.625ZM853.477 23.2578C853.477 23.0495 853.43 22.8568 853.336 22.6797C853.247 22.4974 853.062 22.3333 852.781 22.1875C852.505 22.0365 852.089 21.9062 851.531 21.7969C851.062 21.6979 850.638 21.5807 850.258 21.4453C849.883 21.3099 849.562 21.1458 849.297 20.9531C849.036 20.7604 848.836 20.5339 848.695 20.2734C848.555 20.013 848.484 19.7083 848.484 19.3594C848.484 19.026 848.557 18.7109 848.703 18.4141C848.854 18.1172 849.065 17.8542 849.336 17.625C849.612 17.3958 849.943 17.2161 850.328 17.0859C850.714 16.9557 851.143 16.8906 851.617 16.8906C852.294 16.8906 852.872 17.0104 853.352 17.25C853.831 17.4896 854.198 17.8099 854.453 18.2109C854.708 18.6068 854.836 19.0469 854.836 19.5312H853.391C853.391 19.2969 853.32 19.0703 853.18 18.8516C853.044 18.6276 852.844 18.4427 852.578 18.2969C852.318 18.151 851.997 18.0781 851.617 18.0781C851.216 18.0781 850.891 18.1406 850.641 18.2656C850.396 18.3854 850.216 18.5391 850.102 18.7266C849.992 18.9141 849.938 19.112 849.938 19.3203C849.938 19.4766 849.964 19.6172 850.016 19.7422C850.073 19.862 850.172 19.974 850.312 20.0781C850.453 20.1771 850.651 20.2708 850.906 20.3594C851.161 20.4479 851.487 20.5365 851.883 20.625C852.576 20.7812 853.146 20.9688 853.594 21.1875C854.042 21.4062 854.375 21.6745 854.594 21.9922C854.812 22.3099 854.922 22.6953 854.922 23.1484C854.922 23.5182 854.844 23.8568 854.688 24.1641C854.536 24.4714 854.315 24.737 854.023 24.9609C853.737 25.1797 853.393 25.3516 852.992 25.4766C852.596 25.5964 852.151 25.6562 851.656 25.6562C850.911 25.6562 850.281 25.5234 849.766 25.2578C849.25 24.9922 848.859 24.6484 848.594 24.2266C848.328 23.8047 848.195 23.3594 848.195 22.8906H849.648C849.669 23.2865 849.784 23.6016 849.992 23.8359C850.201 24.0651 850.456 24.2292 850.758 24.3281C851.06 24.4219 851.359 24.4688 851.656 24.4688C852.052 24.4688 852.383 24.4167 852.648 24.3125C852.919 24.2083 853.125 24.0651 853.266 23.8828C853.406 23.7005 853.477 23.4922 853.477 23.2578ZM858.391 17.0469V25.5H856.938V17.0469H858.391ZM856.828 14.8047C856.828 14.5703 856.898 14.3724 857.039 14.2109C857.185 14.0495 857.398 13.9688 857.68 13.9688C857.956 13.9688 858.167 14.0495 858.312 14.2109C858.464 14.3724 858.539 14.5703 858.539 14.8047C858.539 15.0286 858.464 15.2214 858.312 15.3828C858.167 15.5391 857.956 15.6172 857.68 15.6172C857.398 15.6172 857.185 15.5391 857.039 15.3828C856.898 15.2214 856.828 15.0286 856.828 14.8047ZM865.633 23.2578C865.633 23.0495 865.586 22.8568 865.492 22.6797C865.404 22.4974 865.219 22.3333 864.938 22.1875C864.661 22.0365 864.245 21.9062 863.688 21.7969C863.219 21.6979 862.794 21.5807 862.414 21.4453C862.039 21.3099 861.719 21.1458 861.453 20.9531C861.193 20.7604 860.992 20.5339 860.852 20.2734C860.711 20.013 860.641 19.7083 860.641 19.3594C860.641 19.026 860.714 18.7109 860.859 18.4141C861.01 18.1172 861.221 17.8542 861.492 17.625C861.768 17.3958 862.099 17.2161 862.484 17.0859C862.87 16.9557 863.299 16.8906 863.773 16.8906C864.451 16.8906 865.029 17.0104 865.508 17.25C865.987 17.4896 866.354 17.8099 866.609 18.2109C866.865 18.6068 866.992 19.0469 866.992 19.5312H865.547C865.547 19.2969 865.477 19.0703 865.336 18.8516C865.201 18.6276 865 18.4427 864.734 18.2969C864.474 18.151 864.154 18.0781 863.773 18.0781C863.372 18.0781 863.047 18.1406 862.797 18.2656C862.552 18.3854 862.372 18.5391 862.258 18.7266C862.148 18.9141 862.094 19.112 862.094 19.3203C862.094 19.4766 862.12 19.6172 862.172 19.7422C862.229 19.862 862.328 19.974 862.469 20.0781C862.609 20.1771 862.807 20.2708 863.062 20.3594C863.318 20.4479 863.643 20.5365 864.039 20.625C864.732 20.7812 865.302 20.9688 865.75 21.1875C866.198 21.4062 866.531 21.6745 866.75 21.9922C866.969 22.3099 867.078 22.6953 867.078 23.1484C867.078 23.5182 867 23.8568 866.844 24.1641C866.693 24.4714 866.471 24.737 866.18 24.9609C865.893 25.1797 865.549 25.3516 865.148 25.4766C864.753 25.5964 864.307 25.6562 863.812 25.6562C863.068 25.6562 862.438 25.5234 861.922 25.2578C861.406 24.9922 861.016 24.6484 860.75 24.2266C860.484 23.8047 860.352 23.3594 860.352 22.8906H861.805C861.826 23.2865 861.94 23.6016 862.148 23.8359C862.357 24.0651 862.612 24.2292 862.914 24.3281C863.216 24.4219 863.516 24.4688 863.812 24.4688C864.208 24.4688 864.539 24.4167 864.805 24.3125C865.076 24.2083 865.281 24.0651 865.422 23.8828C865.562 23.7005 865.633 23.4922 865.633 23.2578ZM880.031 21.8828H881.531C881.453 22.6016 881.247 23.2448 880.914 23.8125C880.581 24.3802 880.109 24.8307 879.5 25.1641C878.891 25.4922 878.13 25.6562 877.219 25.6562C876.552 25.6562 875.945 25.5312 875.398 25.2812C874.857 25.0312 874.391 24.6771 874 24.2188C873.609 23.7552 873.307 23.2005 873.094 22.5547C872.885 21.9036 872.781 21.1797 872.781 20.3828V19.25C872.781 18.4531 872.885 17.7318 873.094 17.0859C873.307 16.4349 873.612 15.8776 874.008 15.4141C874.409 14.9505 874.891 14.5938 875.453 14.3438C876.016 14.0938 876.648 13.9688 877.352 13.9688C878.211 13.9688 878.938 14.1302 879.531 14.4531C880.125 14.776 880.586 15.224 880.914 15.7969C881.247 16.3646 881.453 17.0234 881.531 17.7734H880.031C879.958 17.2422 879.823 16.7865 879.625 16.4062C879.427 16.0208 879.146 15.724 878.781 15.5156C878.417 15.3073 877.94 15.2031 877.352 15.2031C876.846 15.2031 876.401 15.2995 876.016 15.4922C875.635 15.6849 875.315 15.9583 875.055 16.3125C874.799 16.6667 874.607 17.0911 874.477 17.5859C874.346 18.0807 874.281 18.6302 874.281 19.2344V20.3828C874.281 20.9401 874.339 21.4635 874.453 21.9531C874.573 22.4427 874.753 22.8724 874.992 23.2422C875.232 23.612 875.536 23.9036 875.906 24.1172C876.276 24.3255 876.714 24.4297 877.219 24.4297C877.859 24.4297 878.37 24.3281 878.75 24.125C879.13 23.9219 879.417 23.6302 879.609 23.25C879.807 22.8698 879.948 22.4141 880.031 21.8828ZM882.984 21.3672V21.1875C882.984 20.5781 883.073 20.013 883.25 19.4922C883.427 18.9661 883.682 18.5104 884.016 18.125C884.349 17.7344 884.753 17.4323 885.227 17.2188C885.701 17 886.232 16.8906 886.82 16.8906C887.414 16.8906 887.948 17 888.422 17.2188C888.901 17.4323 889.307 17.7344 889.641 18.125C889.979 18.5104 890.237 18.9661 890.414 19.4922C890.591 20.013 890.68 20.5781 890.68 21.1875V21.3672C890.68 21.9766 890.591 22.5417 890.414 23.0625C890.237 23.5833 889.979 24.0391 889.641 24.4297C889.307 24.8151 888.904 25.1172 888.43 25.3359C887.961 25.5495 887.43 25.6562 886.836 25.6562C886.242 25.6562 885.708 25.5495 885.234 25.3359C884.76 25.1172 884.354 24.8151 884.016 24.4297C883.682 24.0391 883.427 23.5833 883.25 23.0625C883.073 22.5417 882.984 21.9766 882.984 21.3672ZM884.43 21.1875V21.3672C884.43 21.7891 884.479 22.1875 884.578 22.5625C884.677 22.9323 884.826 23.2604 885.023 23.5469C885.227 23.8333 885.479 24.0599 885.781 24.2266C886.083 24.388 886.435 24.4688 886.836 24.4688C887.232 24.4688 887.578 24.388 887.875 24.2266C888.177 24.0599 888.427 23.8333 888.625 23.5469C888.823 23.2604 888.971 22.9323 889.07 22.5625C889.174 22.1875 889.227 21.7891 889.227 21.3672V21.1875C889.227 20.7708 889.174 20.3776 889.07 20.0078C888.971 19.6328 888.82 19.3021 888.617 19.0156C888.419 18.724 888.169 18.4948 887.867 18.3281C887.57 18.1615 887.221 18.0781 886.82 18.0781C886.424 18.0781 886.076 18.1615 885.773 18.3281C885.477 18.4948 885.227 18.724 885.023 19.0156C884.826 19.3021 884.677 19.6328 884.578 20.0078C884.479 20.3776 884.43 20.7708 884.43 21.1875ZM893.93 18.7266V25.5H892.477V17.0469H893.852L893.93 18.7266ZM893.633 20.9531L892.961 20.9297C892.966 20.3516 893.042 19.8177 893.188 19.3281C893.333 18.8333 893.549 18.4036 893.836 18.0391C894.122 17.6745 894.479 17.3932 894.906 17.1953C895.333 16.9922 895.828 16.8906 896.391 16.8906C896.786 16.8906 897.151 16.9479 897.484 17.0625C897.818 17.1719 898.107 17.3464 898.352 17.5859C898.596 17.8255 898.786 18.1328 898.922 18.5078C899.057 18.8828 899.125 19.3359 899.125 19.8672V25.5H897.68V19.9375C897.68 19.4948 897.604 19.1406 897.453 18.875C897.307 18.6094 897.099 18.4167 896.828 18.2969C896.557 18.1719 896.24 18.1094 895.875 18.1094C895.448 18.1094 895.091 18.1849 894.805 18.3359C894.518 18.487 894.289 18.6953 894.117 18.9609C893.945 19.2266 893.82 19.5312 893.742 19.875C893.669 20.2135 893.633 20.5729 893.633 20.9531ZM899.109 20.1562L898.141 20.4531C898.146 19.9896 898.221 19.5443 898.367 19.1172C898.518 18.6901 898.734 18.3099 899.016 17.9766C899.302 17.6432 899.654 17.3802 900.07 17.1875C900.487 16.9896 900.964 16.8906 901.5 16.8906C901.953 16.8906 902.354 16.9505 902.703 17.0703C903.057 17.1901 903.354 17.375 903.594 17.625C903.839 17.8698 904.023 18.1849 904.148 18.5703C904.273 18.9557 904.336 19.4141 904.336 19.9453V25.5H902.883V19.9297C902.883 19.4557 902.807 19.0885 902.656 18.8281C902.51 18.5625 902.302 18.3776 902.031 18.2734C901.766 18.1641 901.448 18.1094 901.078 18.1094C900.76 18.1094 900.479 18.1641 900.234 18.2734C899.99 18.3828 899.784 18.5339 899.617 18.7266C899.451 18.9141 899.323 19.1302 899.234 19.375C899.151 19.6198 899.109 19.8802 899.109 20.1562ZM907.969 18.6719V28.75H906.516V17.0469H907.844L907.969 18.6719ZM913.664 21.2031V21.3672C913.664 21.9818 913.591 22.5521 913.445 23.0781C913.299 23.599 913.086 24.0521 912.805 24.4375C912.529 24.8229 912.188 25.1224 911.781 25.3359C911.375 25.5495 910.909 25.6562 910.383 25.6562C909.846 25.6562 909.372 25.5677 908.961 25.3906C908.549 25.2135 908.201 24.9557 907.914 24.6172C907.628 24.2786 907.398 23.8724 907.227 23.3984C907.06 22.9245 906.945 22.3906 906.883 21.7969V20.9219C906.945 20.2969 907.062 19.737 907.234 19.2422C907.406 18.7474 907.633 18.3255 907.914 17.9766C908.201 17.6224 908.547 17.3542 908.953 17.1719C909.359 16.9844 909.828 16.8906 910.359 16.8906C910.891 16.8906 911.362 16.9948 911.773 17.2031C912.185 17.4062 912.531 17.6979 912.812 18.0781C913.094 18.4583 913.305 18.9141 913.445 19.4453C913.591 19.9714 913.664 20.5573 913.664 21.2031ZM912.211 21.3672V21.2031C912.211 20.7812 912.167 20.3854 912.078 20.0156C911.99 19.6406 911.852 19.3125 911.664 19.0312C911.482 18.7448 911.247 18.5208 910.961 18.3594C910.674 18.1927 910.333 18.1094 909.938 18.1094C909.573 18.1094 909.255 18.1719 908.984 18.2969C908.719 18.4219 908.492 18.5911 908.305 18.8047C908.117 19.013 907.964 19.2526 907.844 19.5234C907.729 19.7891 907.643 20.0651 907.586 20.3516V22.375C907.69 22.7396 907.836 23.0833 908.023 23.4062C908.211 23.724 908.461 23.9818 908.773 24.1797C909.086 24.3724 909.479 24.4688 909.953 24.4688C910.344 24.4688 910.68 24.388 910.961 24.2266C911.247 24.0599 911.482 23.8333 911.664 23.5469C911.852 23.2604 911.99 22.9323 912.078 22.5625C912.167 22.1875 912.211 21.7891 912.211 21.3672ZM917.078 13.5V25.5H915.625V13.5H917.078ZM922.906 25.6562C922.318 25.6562 921.784 25.5573 921.305 25.3594C920.831 25.1562 920.422 24.8724 920.078 24.5078C919.74 24.1432 919.479 23.7109 919.297 23.2109C919.115 22.7109 919.023 22.1641 919.023 21.5703V21.2422C919.023 20.5547 919.125 19.9427 919.328 19.4062C919.531 18.8646 919.807 18.4062 920.156 18.0312C920.505 17.6562 920.901 17.3724 921.344 17.1797C921.786 16.987 922.245 16.8906 922.719 16.8906C923.323 16.8906 923.844 16.9948 924.281 17.2031C924.724 17.4115 925.086 17.7031 925.367 18.0781C925.648 18.4479 925.857 18.8854 925.992 19.3906C926.128 19.8906 926.195 20.4375 926.195 21.0312V21.6797H919.883V20.5H924.75V20.3906C924.729 20.0156 924.651 19.651 924.516 19.2969C924.385 18.9427 924.177 18.651 923.891 18.4219C923.604 18.1927 923.214 18.0781 922.719 18.0781C922.391 18.0781 922.089 18.1484 921.812 18.2891C921.536 18.4245 921.299 18.6276 921.102 18.8984C920.904 19.1693 920.75 19.5 920.641 19.8906C920.531 20.2812 920.477 20.7318 920.477 21.2422V21.5703C920.477 21.9714 920.531 22.349 920.641 22.7031C920.755 23.0521 920.919 23.3594 921.133 23.625C921.352 23.8906 921.615 24.099 921.922 24.25C922.234 24.401 922.589 24.4766 922.984 24.4766C923.495 24.4766 923.927 24.3724 924.281 24.1641C924.635 23.9557 924.945 23.6771 925.211 23.3281L926.086 24.0234C925.904 24.2995 925.672 24.5625 925.391 24.8125C925.109 25.0625 924.763 25.2656 924.352 25.4219C923.945 25.5781 923.464 25.6562 922.906 25.6562ZM931.422 17.0469V18.1562H926.852V17.0469H931.422ZM928.398 14.9922H929.844V23.4062C929.844 23.6927 929.888 23.9089 929.977 24.0547C930.065 24.2005 930.18 24.2969 930.32 24.3438C930.461 24.3906 930.612 24.4141 930.773 24.4141C930.893 24.4141 931.018 24.4036 931.148 24.3828C931.284 24.3568 931.385 24.3359 931.453 24.3203L931.461 25.5C931.346 25.5365 931.195 25.5703 931.008 25.6016C930.826 25.638 930.604 25.6562 930.344 25.6562C929.99 25.6562 929.664 25.5859 929.367 25.4453C929.07 25.3047 928.833 25.0703 928.656 24.7422C928.484 24.4089 928.398 23.9609 928.398 23.3984V14.9922ZM936.625 25.6562C936.036 25.6562 935.503 25.5573 935.023 25.3594C934.549 25.1562 934.141 24.8724 933.797 24.5078C933.458 24.1432 933.198 23.7109 933.016 23.2109C932.833 22.7109 932.742 22.1641 932.742 21.5703V21.2422C932.742 20.5547 932.844 19.9427 933.047 19.4062C933.25 18.8646 933.526 18.4062 933.875 18.0312C934.224 17.6562 934.62 17.3724 935.062 17.1797C935.505 16.987 935.964 16.8906 936.438 16.8906C937.042 16.8906 937.562 16.9948 938 17.2031C938.443 17.4115 938.805 17.7031 939.086 18.0781C939.367 18.4479 939.576 18.8854 939.711 19.3906C939.846 19.8906 939.914 20.4375 939.914 21.0312V21.6797H933.602V20.5H938.469V20.3906C938.448 20.0156 938.37 19.651 938.234 19.2969C938.104 18.9427 937.896 18.651 937.609 18.4219C937.323 18.1927 936.932 18.0781 936.438 18.0781C936.109 18.0781 935.807 18.1484 935.531 18.2891C935.255 18.4245 935.018 18.6276 934.82 18.8984C934.622 19.1693 934.469 19.5 934.359 19.8906C934.25 20.2812 934.195 20.7318 934.195 21.2422V21.5703C934.195 21.9714 934.25 22.349 934.359 22.7031C934.474 23.0521 934.638 23.3594 934.852 23.625C935.07 23.8906 935.333 24.099 935.641 24.25C935.953 24.401 936.307 24.4766 936.703 24.4766C937.214 24.4766 937.646 24.3724 938 24.1641C938.354 23.9557 938.664 23.6771 938.93 23.3281L939.805 24.0234C939.622 24.2995 939.391 24.5625 939.109 24.8125C938.828 25.0625 938.482 25.2656 938.07 25.4219C937.664 25.5781 937.182 25.6562 936.625 25.6562ZM946.93 23.8594V13.5H948.383V25.5H947.055L946.93 23.8594ZM941.242 21.3672V21.2031C941.242 20.5573 941.32 19.9714 941.477 19.4453C941.638 18.9141 941.865 18.4583 942.156 18.0781C942.453 17.6979 942.805 17.4062 943.211 17.2031C943.622 16.9948 944.081 16.8906 944.586 16.8906C945.117 16.8906 945.581 16.9844 945.977 17.1719C946.378 17.3542 946.716 17.6224 946.992 17.9766C947.273 18.3255 947.495 18.7474 947.656 19.2422C947.818 19.737 947.93 20.2969 947.992 20.9219V21.6406C947.935 22.2604 947.823 22.8177 947.656 23.3125C947.495 23.8073 947.273 24.2292 946.992 24.5781C946.716 24.9271 946.378 25.1953 945.977 25.3828C945.576 25.5651 945.107 25.6562 944.57 25.6562C944.076 25.6562 943.622 25.5495 943.211 25.3359C942.805 25.1224 942.453 24.8229 942.156 24.4375C941.865 24.0521 941.638 23.599 941.477 23.0781C941.32 22.5521 941.242 21.9818 941.242 21.3672ZM942.695 21.2031V21.3672C942.695 21.7891 942.737 22.1849 942.82 22.5547C942.909 22.9245 943.044 23.25 943.227 23.5312C943.409 23.8125 943.641 24.0339 943.922 24.1953C944.203 24.3516 944.539 24.4297 944.93 24.4297C945.409 24.4297 945.802 24.3281 946.109 24.125C946.422 23.9219 946.672 23.6536 946.859 23.3203C947.047 22.987 947.193 22.625 947.297 22.2344V20.3516C947.234 20.0651 947.143 19.7891 947.023 19.5234C946.909 19.2526 946.758 19.013 946.57 18.8047C946.388 18.5911 946.161 18.4219 945.891 18.2969C945.625 18.1719 945.31 18.1094 944.945 18.1094C944.549 18.1094 944.208 18.1927 943.922 18.3594C943.641 18.5208 943.409 18.7448 943.227 19.0312C943.044 19.3125 942.909 19.6406 942.82 20.0156C942.737 20.3854 942.695 20.7812 942.695 21.2031Z" fill="#8A8A8E"/>
<defs>
<clipPath id="clip0_1603_64684">
<rect width="24" height="24" fill="white" transform="translate(136 8)"/>
</clipPath>
<clipPath id="clip1_1603_64684">
<rect width="24" height="24" fill="white" transform="translate(184 8)"/>
</clipPath>
</defs>
</svg>
