<svg width="86" height="871" viewBox="0 0 86 871" fill="none" xmlns="http://www.w3.org/2000/svg">
<mask id="path-1-inside-1_1187_61778" fill="white">
<path d="M0 0H86V871H0V0Z"/>
</mask>
<path d="M0 0H86V871H0V0Z" fill="white"/>
<rect x="25.5" y="25.5" width="35" height="35" rx="8" fill="#0B7570"/>
<path d="M35.6234 35.4545H38.2868L42.9174 46.7614H43.0879L47.7186 35.4545H50.3819V50H48.2939V39.4744H48.1589L43.8691 49.9787H42.1362L37.8464 39.4673H37.7115V50H35.6234V35.4545Z" fill="white"/>
<rect x="22" y="22" width="42" height="42" rx="10" stroke="#0B7570" stroke-width="4"/>
<rect x="25.5" y="89.5" width="35" height="35" rx="8" fill="#AD3A00"/>
<path d="M38.2015 114V99.4545H43.3862C44.5178 99.4545 45.4553 99.6605 46.1987 100.072C46.9421 100.484 47.4984 101.048 47.8677 101.763C48.237 102.473 48.4217 103.273 48.4217 104.163C48.4217 105.058 48.2347 105.863 47.8606 106.578C47.4913 107.288 46.9326 107.852 46.1845 108.268C45.4411 108.68 44.506 108.886 43.3791 108.886H39.8137V107.026H43.1802C43.8952 107.026 44.4752 106.902 44.9203 106.656C45.3654 106.405 45.6921 106.064 45.9004 105.634C46.1087 105.203 46.2129 104.713 46.2129 104.163C46.2129 103.614 46.1087 103.126 45.9004 102.7C45.6921 102.274 45.363 101.94 44.9132 101.699C44.4681 101.457 43.881 101.337 43.1518 101.337H40.3961V114H38.2015Z" fill="white"/>
<path d="M48.8332 152.666H37.1665V154.999H48.8332V152.666Z" fill="black"/>
<path d="M44.1665 159.667V148H41.8332V159.667H44.1665Z" fill="black"/>
<path d="M85 0V871H87V0H85Z" fill="#C5C5C8" mask="url(#path-1-inside-1_1187_61778)"/>
</svg>
